<svg xmlns="http://www.w3.org/2000/svg" xmlns:xlink="http://www.w3.org/1999/xlink" width="729.276" height="411.867" viewBox="0 0 729.276 411.867">
  <defs>
    <clipPath id="clip-path">
      <rect id="Rectangle_1008" data-name="Rectangle 1008" width="729.276" height="411.867" rx="54.652" transform="translate(559.14 1909.134)" fill="none"/>
    </clipPath>
    <clipPath id="clip-path-2">
      <rect width="507.397" height="570.173" fill="none"/>
    </clipPath>
    <clipPath id="clip-path-3">
      <rect id="Rectangle_1007" data-name="Rectangle 1007" width="507.397" height="564.173" rx="30.986" transform="translate(1064.104 2441.876) rotate(180)" fill="none"/>
    </clipPath>
  </defs>
  <g id="Group_2229" data-name="Group 2229" transform="translate(-559.14 -1909.134)" clip-path="url(#clip-path)">
    <g id="Repeat_Grid_1" data-name="Repeat Grid 1" transform="translate(556.707 1877.703)" clip-path="url(#clip-path-2)">
      <g id="Group_2228" data-name="Group 2228" transform="translate(-556.707 -1877.703)">
        <g id="Group_2227" data-name="Group 2227" clip-path="url(#clip-path-3)">
          <rect id="Rectangle_1000" data-name="Rectangle 1000" width="382.474" height="606.361" transform="translate(1027.714 2914.818) rotate(180)" fill="#d3c8c1"/>
          <path id="Path_2368" data-name="Path 2368" d="M704.963,2308.456c1.093,3.176,2.181,6.361,3.279,9.529,18.552,53.546,37.721,106.036,58.064,156.092,18.924,46.567,38.887,91.011,60.26,131.71,20.525,39.086,42.343,74.659,65.436,105.4,23.821,31.712,48.946,58.192,74.911,79.341a334.118,334.118,0,0,0,60.8,39.588v84.7H645.239V2308.456Z" fill="#beb3ad"/>
          <path id="Path_2369" data-name="Path 2369" d="M645.454,2331.94l-.215-7.884h65.11c2.89,8.337,5.828,16.645,8.75,24.925C695.569,2336.518,669.592,2333.77,645.454,2331.94Z" fill="#aaa19e"/>
          <path id="Path_2370" data-name="Path 2370" d="M857.523,1939.606c23.856,5.391,16.654,51.683,0,65.749-13.271,11.21-21.246,11.6-26.528-6.841-3.98-13.9-6.787-38.213,16.151-53.358C849.468,1943.623,854.979,1939.031,857.523,1939.606Z" fill="#205965"/>
          <path id="Path_2371" data-name="Path 2371" d="M746.933,2054.378c10.353,29.831,55.823,35.3,77.542,13.918-6.363-5.677-13.4-9.5-14.213-10.465-3.931-3.716,4.125-26.236,4.125-26.236,8.887,1.675,26.6,9.69,33.939,5.17,6.074-3.74,9.813-19.516,10.932-26.61,1.074-6.808,5.523-19.993,2.441-26.508-2.835-5.992.109-20.3.057-20.753-.293-2.566-3.075.741-5.458.768-6.607.077-13.226.081-19.807.751s-13.931,1.8-19.594,5.463c-5.808,3.753-7.327,10.482-9.237,16.632a29.67,29.67,0,0,1-9.993,14.808,22.508,22.508,0,0,1-9.413,3.962c-3.975.794-10.826.658-14.831,1.262,0,0-3.948,32.345-10.263,41.811C761.1,2051.021,755.146,2054.39,746.933,2054.378Z" fill="#fcb69e"/>
          <path id="Path_2372" data-name="Path 2372" d="M788.7,2037.108c-3.607-9.8-1.1-31.4-.317-31.753,5.441,7.005,15.823,18.229,22.88,23.631,0,0-6.32,18.756-7.651,27.27A40.533,40.533,0,0,1,788.7,2037.108Z" fill="#dd978d"/>
          <path id="Path_2373" data-name="Path 2373" d="M850.091,2010.848c-.046-2.814,5.175-1.28,5.061-6.637-.084-3.975-5.974-22.966-5.7-25.829.383-4.007,7.071-8.739,8.322-8.164,1.712.788-.944,3.986.784,8.949,2.788,3.673,1.29,26.212-.5,32.866-1.668,6.185-3.746,16.051-8.968,19.41C849.047,2030,850.179,2016.164,850.091,2010.848Z" fill="#dd978d"/>
          <path id="Path_2374" data-name="Path 2374" d="M623.534,2264.33l21.705,44.127,382.474-.018L1006,2264Z" fill="#aaa19e"/>
          <path id="Path_2375" data-name="Path 2375" d="M623.522,2264.312l21.717,44.153v604.013l-21.718-42.469Z" fill="#aaa19e"/>
          <path id="Path_2376" data-name="Path 2376" d="M794.279,1996.223c2.147,4.452,2.821,9.505,5.269,13.807,2.185,3.839,5.305,7.091,8.123,10.494l8.234-31.227c-3.908-3.161-8.136-5.883-12.229-8.8-2.375-1.7.7-5.034,3.052-3.357,4.218,3.01,8.573,5.81,12.58,9.1L852.726,1998l10.043-4.584c-.694,7.687-3.934,28.908-6.842,35.42-.558,1.249-2.139,5.979-7.026,8.874a16,16,0,0,1-7.316,2.061s-30.362-1.513-45.97-27.479c-2.668-4.44-3.3-9.716-5.539-14.363C788.808,1995.3,793.013,1993.6,794.279,1996.223Z" fill="#fff"/>
          <path id="Path_2377" data-name="Path 2377" d="M777.469,2129.292c-3.081-10.936-9.164-21.723-12.211-32.657-4.225-15.162-7.886-29.792-12.75-44.765a22.554,22.554,0,0,0,9.285-4.983c1.067-1,1.733,1.221,2.73,2.287,6.658,7.118,11.4,16.631,24.675,17.64,13.23,1.005,17-8.5,20.633-13.073.9-1.133,1.643,1.622,2.782,2.516,1.576,1.237,4.362,1.569,6.368,1.986-11.127,33.077-17.2,67.827-30.867,100.027A170.122,170.122,0,0,1,777.469,2129.292Z" fill="#fff"/>
          <path id="Path_2378" data-name="Path 2378" d="M758.418,2049.3c-5.025,4.981-.648,15.908-.823,23.874-1.915-6.885-3.908-13.757-6.165-20.7A22.683,22.683,0,0,0,758.418,2049.3Z" fill="#b1d5e2"/>
          <path id="Path_2379" data-name="Path 2379" d="M815.2,2061.241c-.139-1.363-1.927-2.764-2.13-4.107,1.617.986,4.081,1.3,5.908,1.684q-2.064,6.138-3.921,12.345C814.416,2067.862,815.545,2064.608,815.2,2061.241Z" fill="#b1d5e2"/>
          <path id="Path_2380" data-name="Path 2380" d="M700.566,2161.255c-1.581,27.138-.8,69.03-3.979,90.6-9.889-7.008-28.652-19.649-45.956-27.643A254.845,254.845,0,0,1,700.566,2161.255Z" fill="none"/>
          <path id="Path_2381" data-name="Path 2381" d="M785.883,2083.365c.7.128,1.426.241,2.184.334.476.059.956.093,1.439.106.033.021.067.034.1.056,4.352,2.79,5.894,8.958,6.89,13.667a119.776,119.776,0,0,1,2.068,21.308,51.6,51.6,0,0,1,.1,5.723,325.188,325.188,0,0,1-12.28,35.29c-1.7-2-11.254-24.05-14.79-45.675C775.233,2097.707,778.912,2085.877,785.883,2083.365Z" fill="#bf4f63"/>
          <path id="Path_2382" data-name="Path 2382" d="M783.361,2110.892a21.208,21.208,0,0,1-7.42-1.612c1.372-11.356,3.688-19.374,8.783-22.081.713.026,1.446.035,2.209.02.48-.009.96-.044,1.44-.1.036.016.071.025.107.041a11.735,11.735,0,0,1,4.444,3.778C785.973,2094.644,784.138,2103.434,783.361,2110.892Z" fill="#a14459"/>
          <path id="Path_2383" data-name="Path 2383" d="M783.711,2130.693a24.834,24.834,0,0,0,10.7,3.329c-2.673,8.373-5.616,16.67-9.054,24.766-1.475-1.737-8.877-18.606-13.114-37.181A51.207,51.207,0,0,0,783.711,2130.693Z" fill="#a14459"/>
          <path id="Path_2384" data-name="Path 2384" d="M674.553,2295.616s23.378,10.932,31.505,7.359c6.331-1.719,13.209-17.6,14.551-25.074,0,0,124.5-.971,136.827.263-.417-4.506-2.761-108.072-2.8-108.97h0c2.272,6.665,20.205,42.1,24.949,55.409,9.475,23.542-9.675,55.622-19.953,60.408,4.08,5.436,45.808,13.269,52.285,10.6,3.741-1.943,20.281-31.295,21.086-41.883.866-11.386-.085-27.263-4.309-44.976a466.435,466.435,0,0,0-16.766-53.452c-13.84-37-32.339-70.859-44.624-80.656-6.707-3.793-19.565-7.669-30.334-11.248-.889-.295.023-.992-.892-1.1-6.983-.84-8.574-2.088-12.653-3.99-2.52-1.175-3.514-2.629-4.447-2.993-1.537-.6-1.155,2.037-1.671,3.6-10.742,32.593-17.531,69.368-30.928,100.928a170.151,170.151,0,0,1-10.646-28.978c-3.081-10.937-5.141-22.136-8.188-33.07-3.777-13.555-9.065-29.519-13.62-43.45-.719-2.2-1.734-6.113-3.79-5.047-.862.447-2.047,2.705-5.512,3.965-.25.091-8.4,2.928-8.667,2.988-1.271.288-.027.639-1.361.949-15.133,3.52-35.226,8.42-40.913,11.613-7.694,5.621-67.872,79.157-99.137,150.6C583.267,2245.2,640.457,2277.69,674.553,2295.616Zm-23.922-71.4a254.845,254.845,0,0,1,49.935-62.96c-1.581,27.138-.8,69.03-3.979,90.6C686.7,2244.85,667.935,2232.209,650.631,2224.215Z" fill="#4a5e5c"/>
          <path id="Path_2385" data-name="Path 2385" d="M854.639,2169.194Z" fill="#4a5e5c"/>
          <path id="Path_2386" data-name="Path 2386" d="M802.428,2094.061c-4.943-7.235-8.38-21.262-13.375-26.242,6.288,2.617,7.233,14.408,11.285,20.8.591.932,1.7-.215,2.314-.941,5.131-6.026,7.092-12.24,11.517-19.859-2.454,7.853-3.782,12.5-5.951,20.448C806.672,2090.025,804.135,2092.458,802.428,2094.061Z" fill="#b1d5e2"/>
          <path id="Path_2387" data-name="Path 2387" d="M770.648,2092.912c-1.153.719-3.657-1.686-5.545-3.509-2.51-9.264-3.406-12.434-6.265-21.584,2.683,7.42,5.329,15.111,11.517,19.859.756.58,1.576,1.762,2.313.941,4.718-5.254,5.82-17.71,14.391-20.8C779.409,2074.216,776.031,2089.551,770.648,2092.912Z" fill="#b1d5e2"/>
          <path id="Path_2388" data-name="Path 2388" d="M709.852,2259.194l-9.286-5.98c.7-10.034,3.138-66.252,3.393-78.587,20.828,24.727,46.932,41.738,76,52.56.111-.729.645-16.277.314-27.024-.062-2.03.751-7.048.63-9.123.351-2.95,2.066-10.857,1.71-11.107a113.078,113.078,0,0,1,3.769-16.1l-2.854,23.866c-.053,1.129.2,5.017,1.1,4.331,10.411-7.951,20.821-24.519,26.6-35.557,7.764-14.831,16.373-28.9,22.18-44.673-6.135-3.148-10.009-9.826-14.526-14.776a1.6,1.6,0,0,1,.647-2.634c3.17-1.033,6.724-2.236,10.623-3.291,3.395-.919,8.025-2.231,13.065-3.491,0,0-2.4-6.018-3.432-8.926-1.434-4.034-3.612-11.409-3.614-15.766a57.484,57.484,0,0,1,2.321,6.579c2.573,10.133,8.49,21.735,7.718,22.208-1.667,1.02-21.547,5.7-24.727,6.457,3.772,4.663,16.839,14.9,16.537,15.75-3.1,8.675-8.05,14.581-12.294,22.754-3.892,7.494-8.335,14.679-12.234,22.168-6.438,12.362-23.859,27.7-29.794,40.915-3.568,7.942-1.251,23.73-1.251,28.35,19.895,6.8,44.783,12.094,63.767,12.636.766,37.666.577,35.4.766,37.666-7.326-.815-122.24-1-125.244.563-2.627,1.37-3.789,4-4.558,6.726-1.562,5.53-2.79,9.841-6.965,13.608-4.335,4.909-14.459,2.461-15.735-3.469C693.064,2286.893,703.177,2270.931,709.852,2259.194Z" fill="#364442"/>
          <path id="Path_2389" data-name="Path 2389" d="M782.535,2191.04c-6.723-12.436-18.813-27.11-24.58-38.185-3.9-7.489-8.342-14.673-12.234-22.168-4.244-8.172-9.2-14.078-12.294-22.754-.3-.846,12.766-11.086,16.537-15.75-3.18-.761-23.06-5.437-24.727-6.457-.772-.473,5.145-12.075,7.718-22.208a57.553,57.553,0,0,1,2.321-6.579c0,4.357-2.18,11.732-3.614,15.766-1.033,2.908-3.432,8.926-3.432,8.926,5.04,1.26,9.67,2.572,13.065,3.491,3.9,1.055,7.453,2.258,10.623,3.292a1.594,1.594,0,0,1,.647,2.633c-4.517,4.95-8.391,11.628-14.526,14.776,5.807,15.773,14.416,29.842,22.181,44.673,5.132,9.8,13.916,23.961,23.11,32.578A48.623,48.623,0,0,1,782.535,2191.04Z" fill="#364442"/>
          <path id="Path_2390" data-name="Path 2390" d="M737.675,1990.915a53.88,53.88,0,0,1-3.625-15.733c-2.468-28.889,21.015-62.526,50.172-66.237,26.175-3.331,51.507-2.848,71.012,17.59,5.983,6.269,20.734,25.828,7.492,36.258-9.927,7.819-25.613-2.555-36.891,5.03-5.176,3.481-11,7.065-13.858,12.764-2.679,5.339-2.907,11.529-5.37,16.863-3.245,7.028-14.077,15.034-21.668,16.537-11.155,2.209-26.462-1.161-35.656-7.814A34.568,34.568,0,0,1,737.675,1990.915Z" fill="#205965"/>
          <path id="Path_2391" data-name="Path 2391" d="M793.468,1980.834c5.912-3.258,11.533-7.222,17.382-10.663a19.331,19.331,0,0,0-2.488,3.98c-2.46,5.339-2.669,11.529-4.931,16.863-2.98,7.028-12.927,15.034-19.9,16.537-10.243,2.209-24.3-1.161-32.743-7.814a34.421,34.421,0,0,1-10.66-15.258,56.275,56.275,0,0,1-3.115-13.512C751.871,1986.321,774.989,1991.02,793.468,1980.834Z" fill="#1e4951"/>
          <path id="Path_2392" data-name="Path 2392" d="M900.938,2269.855c-6.034-8.091-14.982-8.637-24.078-8.606,4.233-10.088,6.789-22.165,4.58-33.107a94.9,94.9,0,0,1,48.771-4.753c1.39,10.841,4.808,24.078,2.671,31.409-5.713,19.6-19.641,38.344-23.148,40.287C909.314,2295.269,905.864,2276.46,900.938,2269.855Z" fill="#364442"/>
          <rect id="Rectangle_1001" data-name="Rectangle 1001" width="382.474" height="75.881" transform="translate(1027.714 2470.897) rotate(180)" fill="#beb3ad"/>
          <rect id="Rectangle_1002" data-name="Rectangle 1002" width="382.474" height="15.599" transform="translate(1027.714 2324.056) rotate(180)" fill="#beb3ad"/>
          <rect id="Rectangle_1003" data-name="Rectangle 1003" width="382.474" height="75.881" transform="translate(1027.714 2639.979) rotate(180)" fill="#beb3ad"/>
          <rect id="Rectangle_1004" data-name="Rectangle 1004" width="382.474" height="75.881" transform="translate(1027.714 2803.365) rotate(180)" fill="#beb3ad"/>
          <path id="Path_2393" data-name="Path 2393" d="M734.7,2395.016c8.791,23.562,17.761,46.772,26.982,69.462q1.308,3.219,2.625,6.419H640.619v-75.881Z" fill="#aaa19e"/>
          <path id="Path_2394" data-name="Path 2394" d="M805.746,2564.1q7.967,16.388,16.2,32.091,11.936,22.73,24.456,43.79H640.619V2564.1Z" fill="#aaa19e"/>
          <path id="Path_2395" data-name="Path 2395" d="M903.388,2727.484a423.2,423.2,0,0,0,54.173,53.448,344.345,344.345,0,0,0,30.86,22.433H635.887v-75.881Z" fill="#aaa19e"/>
          <path id="Path_2396" data-name="Path 2396" d="M783.7,2207.2a3.23,3.23,0,1,1,3.221,3.465A3.35,3.35,0,0,1,783.7,2207.2Z" fill="#364442"/>
          <path id="Path_2397" data-name="Path 2397" d="M783.7,2230.4a3.23,3.23,0,1,1,3.221,3.465A3.35,3.35,0,0,1,783.7,2230.4Z" fill="#364442"/>
          <path id="Path_2398" data-name="Path 2398" d="M788.1,2089.272c5.775-1.642,10.009-15.118,3.338-15.756-4.611-.441-9.812-1.117-10.426,2.9C780.675,2078.6,782.742,2090.795,788.1,2089.272Z" fill="#bf4f63"/>
          <rect id="Rectangle_1005" data-name="Rectangle 1005" width="37.22" height="14.593" transform="translate(746.933 2172.863) rotate(180)" fill="#e2a055"/>
          <path id="Path_2399" data-name="Path 2399" d="M879.708,2259.955c3.8-.033,7.16,0,10.609,1.777a36.334,36.334,0,0,1,9.485,7.474c5.078,5.353,9.93,11.633,9.931,19.241,0,3.7-4.736,4.556-5.664,4.223-.573-.206,2.625-1.8,2.524-4.391-.259-6.681-4.708-12.338-9.134-17a35.478,35.478,0,0,0-7.577-6.248c-3.382-2-6.578-2.051-10.385-2.018C877.467,2263.029,877.711,2259.973,879.708,2259.955Z" fill="#fff"/>
          <path id="Path_2400" data-name="Path 2400" d="M894.951,2291.234a3.8,3.8,0,0,0-.2-2.178c-2.549-6.888-10.169-13.258-16.623-16.618-6.415-3.339-17.261-4.066-15.48,5.172,1.763,9.151,12.1,17.11,20.464,20.259,3.394,1.277,7.555,2.213,10.421.678C896.348,2297.042,896.237,2294.128,894.951,2291.234Z" fill="#9ebac3"/>
          <path id="Path_2401" data-name="Path 2401" d="M896.659,2273.736c-.217-.364-3.9-2.233-6.095-4.469s-.36-2.88-4.138-6.314c-1.035-.941-4.891-.434-6.586-2.694a8.932,8.932,0,0,0-4.254-3.081c-3.91-.957-7.712-.612-9.648,2.263-.795,1.219-6.274,5.273-7.965,6.337-1.525.959-4.386,3.488-6.954,4.892-.057.027-9.737,3.983-9.9,4.04-.034.012-.064.025-.1.037-1.813.614-3.563,4.868-1.775,5.834,1.031.557,9.637,1.158,13.148.245a12.153,12.153,0,0,0,3.518-1.692c-3.364,7.433-5.847,15.226-1.2,16.436,4.394,2.057,13.1-14.829,17.531-23.179a35.233,35.233,0,0,1,4.086-1.893c-2.308,2.772-4.468,9.04-7.615,14.018-4.518,7.145-9.706,12.737-4,15.467,6.4,4.148,22.581-24.913,22.752-24.764a6.873,6.873,0,0,1,1.458,2.212c-6.027,7.855-18.046,25.676-15.319,27.352,5.821,3.482,15.662-9.8,18.91-15.5.334,1.123.621,1.842.864,1.855-3.385,3.583-10.266,13.625-7.9,16.508,5.2,2.719,15.747-13.26,16.045-17.586.258-3.761-.4-3.979-3.1-8.494C897.073,2279.3,897.992,2275.962,896.659,2273.736Z" fill="#fff"/>
          <path id="Path_2402" data-name="Path 2402" d="M855.519,2280.014s1.035-5.957,2.6-11.4c5.878-2.4,7.949-8.179,10.015-7.947C866.731,2264.645,860.3,2276.125,855.519,2280.014Z" fill="#b1d5e2"/>
          <path id="Path_2403" data-name="Path 2403" d="M895.018,2290.792c-1.161,2.835-4.091,5.018-5.893,7.431-.279.375-2.607-.457-2.854-.178a35.417,35.417,0,0,0,8.523-14.169c.557-1.151,1.849-.369,3.186-.164C896.6,2286.525,896.359,2287.515,895.018,2290.792Z" fill="#b1d5e2"/>
          <path id="Path_2404" data-name="Path 2404" d="M873.851,2277.235c-2.513,4.139-4.708,8.567-7.292,12.56-.4.619-1.661.612-2.019,1.079,7.815-13.154,8.446-18.757,9.248-24.478.766-1.873,3.429-2.563,5.508-2.377C877.718,2268.662,876.23,2273.316,873.851,2277.235Z" fill="#b1d5e2"/>
          <path id="Path_2405" data-name="Path 2405" d="M885.616,2285.08c-2.35,3.509-4.742,7.114-7.169,10.493-.376.524-2.155.974-2.494,1.368,5.443-9.315,8.867-16.107,9.232-21.275.7-1.6,3.312-2.109,5.379-1.877C889.158,2277.767,887.841,2281.758,885.616,2285.08Z" fill="#b1d5e2"/>
          <path id="Path_2406" data-name="Path 2406" d="M697.867,2300.27a7.457,7.457,0,0,0,7.49-.591c.561-.38,5.412-5.723,5.2-6.3-.115-.309-4.646,3.053-6.441,2.152-3.637-1.825-5.608-9.481-1.95-19.641,1.8-4.989,6.669-13.133,12.264-14.838l-4.575-1.858c-4.995,3.117-8.4,9.247-10.326,14.875C696.812,2282.007,691.624,2296.361,697.867,2300.27Z" fill="#fff"/>
          <path id="Path_2407" data-name="Path 2407" d="M1015.21,2311.568c.6,0,1.206.02,1.815.05-.674-.027-1.357-.041-2.045-.046C1015.056,2311.572,1015.134,2311.568,1015.21,2311.568Z" fill="#e2a055"/>
          <rect id="Rectangle_1006" data-name="Rectangle 1006" width="3.942" height="10.395" transform="translate(973.634 2254.252) rotate(180)" fill="#e2a055"/>
          <path id="Path_2408" data-name="Path 2408" d="M950.673,2268.065v.009c0,5.72,9.113,10.357,20.354,10.357s20.354-4.637,20.354-10.357a5.56,5.56,0,0,0-.415-2.09,20.041,20.041,0,0,1,5.5,13.941s-4.58,10.237-24.933,10.925c-20.99-.688-24.679-10.768-24.679-10.768A20.313,20.313,0,0,1,950.673,2268.065Z" fill="#cf9150"/>
          <path id="Path_2409" data-name="Path 2409" d="M971.663,2252.222c13.917,0,25.2,5.985,25.2,20.269,0,0-7.088,8.855-25.2,8.769-19.215.086-25.2-8.769-25.2-8.769C946.463,2258.207,957.745,2252.222,971.663,2252.222Z" fill="#e2a055"/>
          <path id="Path_2410" data-name="Path 2410" d="M973.634,2254.252c10.021.362,17.979,5.964,17.979,18.741a65.721,65.721,0,0,1-9.978,3.921C981.888,2267.572,979.148,2259.893,973.634,2254.252Z" fill="#e5b57e"/>
          <path id="Path_2411" data-name="Path 2411" d="M987.759,2270.155a17.7,17.7,0,0,0-3.935-9.2c-2.315-2.625-5.449-4.061-8.516-5.6,7.4,1.127,13.19,5.523,14.631,14.094C989.222,2269.717,988.5,2269.959,987.759,2270.155Z" fill="#fff"/>
          <ellipse id="Ellipse_101" data-name="Ellipse 101" cx="6.142" cy="1.974" rx="6.142" ry="1.974" transform="translate(965.52 2241.342)" fill="#cf9150"/>
          <path id="Path_2412" data-name="Path 2412" d="M946.975,2277.873v.009c0,5.434,10.718,9.839,23.94,9.839h1.5c13.222,0,23.94-4.405,23.94-9.839v-.009a16.921,16.921,0,0,1,4.49,11.417s-4.339,9.576-29.028,10.229c-.051,0-.248,0-.3,0-24.688-.653-29.027-10.229-29.027-10.229A16.925,16.925,0,0,1,946.975,2277.873Z" fill="#e2a055"/>
          <path id="Path_2413" data-name="Path 2413" d="M992.518,2284.362c4.015,2.109,4.288,7,4.345,7.6a22.522,22.522,0,0,1-10.212,4.568,15.985,15.985,0,0,0-2.567-9.031A23.255,23.255,0,0,0,992.518,2284.362Z" fill="#e5b57e"/>
          <path id="Path_2414" data-name="Path 2414" d="M989.939,2286.022c.387-.213.769-.437,1.14-.684,4.015,2.109,4.288,7.005,4.344,7.6-.362.278-.776.576-1.214.878A17.582,17.582,0,0,0,989.939,2286.022Z" fill="#fff"/>
          <ellipse id="Ellipse_102" data-name="Ellipse 102" cx="6.142" cy="1.974" rx="6.142" ry="1.974" transform="translate(965.52 2240.791)" fill="#e2a055"/>
          <path id="Path_2415" data-name="Path 2415" d="M967.8,2250.686c0-.477,1.728-.864,3.859-.864s3.859.387,3.859.864-1.728.865-3.859.865S967.8,2251.164,967.8,2250.686Z" fill="#e2a055"/>
          <path id="Path_2416" data-name="Path 2416" d="M971.663,2254.975a6.851,6.851,0,0,1-3.859-.9v-3.39a13.151,13.151,0,0,0,3.859.457,32.7,32.7,0,0,0,3.859-.457v3.566A9.511,9.511,0,0,1,971.663,2254.975Z" fill="#cf9150"/>
          <path id="Path_2417" data-name="Path 2417" d="M970.173,2250.263l.1-5.332h1.18v5.5A2.063,2.063,0,0,1,970.173,2250.263Z" fill="#cf9150"/>
          <path id="Path_2418" data-name="Path 2418" d="M702.879,2276.582l62.038,49.452c15.11-4.676,73.44-15.388,100.229-11.467a683.848,683.848,0,0,0-59.1-48.712C789.441,2262.258,720.278,2271.244,702.879,2276.582Z" fill="#b1d5e2"/>
          <g id="Group_2225" data-name="Group 2225">
            <path id="Path_2419" data-name="Path 2419" d="M763.242,2277c2.3.369,11.044-1.191,10.763-4.662-.138-1.706-4.045-1.685-5.429-2.079a64.46,64.46,0,0,1-7.353-2.973c-3.392-1.446-6.819-3.029-10.074-4.765-5.149-2.746-9.03-5.782-15.191-5.028-3.416.419-6.787,1.118-10.166,1.764-3.363.643-7.274.6-10.518,1.545-5.315,1.543-8.364,3.192-12.7,11.869-.8,1.609-2.843,10.5-.9,11.984,4.443,3.392,10.04,4.783,14.784,7.611.706,1.42,4,2.9,5.517,3.9,3.064,2.022,6.131,4.039,9.251,5.972,4.41,2.731,11.866,8.569,17.432,8.092,5.172-.444-1.738-6.347-3.195-7.677a124.509,124.509,0,0,0,13.054,6.587c2.248.9,4.965,2.022,7.4.519,3.974-2.456-5.387-8.491-7.126-9.755-4.192-3.048-8.677-5.687-12.882-8.689,3.456,1.689,8.134,4.12,10.107,5.221,3.141,1.753,12.218,5.384,16.624,5.839,2.095.216,5.034-2.979.8-6.711,1.8,1.194,6.8,5.265,9.238,3.709,1.909-1.218.752-3.7-.317-4.993C776.909,2287.665,767.656,2283.29,763.242,2277Zm-.124,12.5a32.555,32.555,0,0,1-3.1-2.062c.912-.432,1.407-.84,1.362-1.211,3.159,2.637,6.37,5.211,9.327,7.385C768.561,2292.318,765.85,2291.022,763.118,2289.494Z" fill="#fff"/>
          </g>
          <g id="Group_2226" data-name="Group 2226">
            <path id="Path_2420" data-name="Path 2420" d="M702.281,2272.306c4.331-7.048,7.38-8.387,12.7-9.64a24.715,24.715,0,0,1,2.5-.439c-5.479,7.368-7.065,15.652-6.242,23.994-3.4-1.223-6.884-2.339-9.853-4.181C699.438,2280.837,701.478,2273.614,702.281,2272.306Z" fill="#b1d5e2"/>
          </g>
          <path id="Path_2421" data-name="Path 2421" d="M741.063,2291.573c3.738,1.962,6.95,2.662,10.694,4.475.581.281,3.77.2,4.256.384-10.107-5.221-16.356-8.991-20.037-12.119a3.594,3.594,0,0,0-4.648-.3C734.461,2286.835,737.522,2289.715,741.063,2291.573Z" fill="#b1d5e2"/>
          <path id="Path_2422" data-name="Path 2422" d="M751.728,2284.313c3.44,2.719,5.657,2.918,10.6,4.707a15.522,15.522,0,0,1,2.947,0c-5.115-3.961-14.843-8.839-19.888-15.233-1.376-1.076-3.22.6-4.926,1.794C743.591,2278.407,748.591,2281.833,751.728,2284.313Z" fill="#b1d5e2"/>
          <path id="Path_2423" data-name="Path 2423" d="M728.537,2295.948c2.888,1.023,5.844,2.083,8.711,3,.444.143.84.255,1.2.34-4.1-3.138-11.1-6.924-14.143-8.739-1.121-.615-2.729.132-3.7,1.074A41.3,41.3,0,0,0,728.537,2295.948Z" fill="#b1d5e2"/>
          <path id="Path_2424" data-name="Path 2424" d="M758.348,2273.442a38.03,38.03,0,0,0,4.894,3.554,11.412,11.412,0,0,0-4.985-9.689c-.917-.89-5.314-3.916-6.5-3.265C751.728,2267.961,756.158,2271.54,758.348,2273.442Z" fill="#b1d5e2"/>
        </g>
      </g>
    </g>
  </g>
</svg>
