<svg xmlns="http://www.w3.org/2000/svg" xmlns:xlink="http://www.w3.org/1999/xlink" width="728" height="411.129" viewBox="0 0 728 411.129">
  <defs>
    <clipPath id="clip-path">
      <rect id="Rectangle_1008" data-name="Rectangle 1008" width="728" height="411.129" rx="54.652" fill="none"/>
    </clipPath>
    <clipPath id="clip-path-2">
      <rect width="506.51" height="446.162" fill="none"/>
    </clipPath>
    <clipPath id="clip-path-3">
      <rect id="Rectangle_1007" data-name="Rectangle 1007" width="506.51" height="563.162" rx="30.986" transform="translate(506.51 563.162) rotate(180)" fill="none"/>
    </clipPath>
  </defs>
  <g id="Group_2229" data-name="Group 2229" clip-path="url(#clip-path)">
    <g id="Group_2228" data-name="Group 2228" transform="translate(-2.428 -31.374)">
      <g id="Scroll_Group_1" data-name="Scroll Group 1" clip-path="url(#clip-path-2)" style="isolation: isolate">
        <g id="Group_2227" data-name="Group 2227" clip-path="url(#clip-path-3)">
          <rect id="Rectangle_1000" data-name="Rectangle 1000" width="381.805" height="605.274" transform="translate(470.182 1035.256) rotate(180)" fill="#d3c8c1"/>
          <path id="Path_2368" data-name="Path 2368" d="M704.859,2308.456c1.091,3.17,2.177,6.35,3.273,9.512,18.52,53.45,37.655,105.846,57.962,155.812,18.891,46.484,38.819,90.848,60.154,131.474,20.489,39.016,42.269,74.525,65.322,105.214,23.779,31.655,48.86,58.088,74.78,79.2a333.539,333.539,0,0,0,60.695,39.517v84.547H645.239V2308.456Z" transform="translate(-556.862 -1878.475)" fill="#beb3ad"/>
          <path id="Path_2369" data-name="Path 2369" d="M645.454,2331.926l-.215-7.87h65c2.885,8.322,5.818,16.615,8.735,24.88C695.481,2336.5,669.549,2333.753,645.454,2331.926Z" transform="translate(-556.862 -1878.503)" fill="#aaa19e"/>
          <path id="Path_2370" data-name="Path 2370" d="M857.472,1939.606c23.814,5.381,16.625,51.59,0,65.631-13.248,11.19-21.209,11.576-26.482-6.829-3.973-13.87-6.775-38.145,16.123-53.262C849.431,1943.616,854.932,1939.032,857.472,1939.606Z" transform="translate(-557.182 -1877.814)" fill="#205965"/>
          <path id="Path_2371" data-name="Path 2371" d="M746.933,2054.212c10.335,29.778,55.725,35.238,77.406,13.893-6.352-5.667-13.38-9.481-14.188-10.446-3.924-3.709,4.118-26.189,4.118-26.189,8.871,1.672,26.553,9.673,33.88,5.161,6.063-3.733,9.8-19.481,10.913-26.562,1.072-6.8,5.513-19.957,2.437-26.461-2.83-5.981.109-20.262.057-20.716-.292-2.562-3.07.74-5.448.766-6.6.077-13.2.081-19.772.75s-13.907,1.8-19.56,5.453c-5.8,3.746-7.314,10.463-9.221,16.6a29.617,29.617,0,0,1-9.976,14.781,22.468,22.468,0,0,1-9.4,3.955c-3.968.793-10.807.657-14.805,1.26,0,0-3.941,32.287-10.245,41.736C761.079,2050.861,755.132,2054.224,746.933,2054.212Z" transform="translate(-557.04 -1877.854)" fill="#fcb69e"/>
          <path id="Path_2372" data-name="Path 2372" d="M788.694,2037.051c-3.6-9.783-1.1-31.34-.316-31.7,5.431,6.992,15.8,18.2,22.84,23.589,0,0-6.309,18.722-7.638,27.221A40.46,40.46,0,0,1,788.694,2037.051Z" transform="translate(-557.11 -1877.932)" fill="#dd978d"/>
          <path id="Path_2373" data-name="Path 2373" d="M850.089,2010.775c-.046-2.809,5.166-1.278,5.052-6.625-.084-3.968-5.964-22.925-5.691-25.783.382-4,7.059-8.723,8.307-8.149,1.709.786-.942,3.979.783,8.933,2.783,3.666,1.288,26.165-.5,32.807-1.665,6.174-3.739,16.022-8.952,19.375C849.047,2029.889,850.177,2016.081,850.089,2010.775Z" transform="translate(-557.219 -1877.869)" fill="#dd978d"/>
          <path id="Path_2374" data-name="Path 2374" d="M623.534,2264.329l21.667,44.048,381.805-.017L1005.328,2264Z" transform="translate(-556.824 -1878.396)" fill="#aaa19e"/>
          <path id="Path_2375" data-name="Path 2375" d="M623.522,2264.312l21.679,44.073v602.93l-21.68-42.393Z" transform="translate(-556.824 -1878.396)" fill="#aaa19e"/>
          <path id="Path_2376" data-name="Path 2376" d="M794.271,1996.188c2.143,4.444,2.816,9.488,5.26,13.782,2.181,3.832,5.3,7.078,8.109,10.475l8.22-31.171c-3.9-3.155-8.122-5.873-12.208-8.787-2.371-1.692.7-5.025,3.047-3.351,4.211,3,8.558,5.8,12.558,9.08l33.36,11.748,10.025-4.576c-.693,7.673-3.927,28.856-6.83,35.357-.557,1.247-2.135,5.968-7.014,8.858a15.971,15.971,0,0,1-7.3,2.057s-30.309-1.51-45.89-27.43c-2.663-4.432-3.292-9.7-5.529-14.337C788.81,1995.27,793.007,1993.568,794.271,1996.188Z" transform="translate(-557.115 -1877.88)" fill="#fff"/>
          <path id="Path_2377" data-name="Path 2377" d="M777.425,2129.144c-3.076-10.917-9.148-21.684-12.19-32.6-4.218-15.135-7.872-29.739-12.728-44.685a22.514,22.514,0,0,0,9.269-4.974c1.065-.994,1.73,1.219,2.725,2.283,6.646,7.105,11.383,16.6,24.632,17.608,13.207,1,16.966-8.488,20.6-13.05.9-1.131,1.64,1.619,2.777,2.512,1.573,1.235,4.354,1.566,6.357,1.982-11.108,33.018-17.168,67.706-30.813,99.848A169.807,169.807,0,0,1,777.425,2129.144Z" transform="translate(-557.05 -1878.006)" fill="#fff"/>
          <path id="Path_2378" data-name="Path 2378" d="M758.406,2049.3c-5.016,4.972-.647,15.879-.822,23.831-1.912-6.873-3.9-13.732-6.154-20.665A22.652,22.652,0,0,0,758.406,2049.3Z" transform="translate(-557.048 -1878.01)" fill="#b1d5e2"/>
          <path id="Path_2379" data-name="Path 2379" d="M815.2,2061.233c-.139-1.361-1.924-2.759-2.126-4.1,1.614.984,4.074,1.3,5.9,1.681q-2.06,6.127-3.914,12.323C814.414,2067.843,815.541,2064.594,815.2,2061.233Z" transform="translate(-557.156 -1878.024)" fill="#b1d5e2"/>
          <path id="Path_2380" data-name="Path 2380" d="M700.479,2161.255c-1.578,27.09-.8,68.906-3.972,90.441-9.872-7-28.6-19.614-45.876-27.593A254.387,254.387,0,0,1,700.479,2161.255Z" transform="translate(-556.872 -1878.211)" fill="none"/>
          <path id="Path_2381" data-name="Path 2381" d="M785.858,2083.365c.7.128,1.424.24,2.18.333.475.059.954.093,1.436.106.033.021.067.034.1.056,4.344,2.785,5.884,8.942,6.878,13.643a119.554,119.554,0,0,1,2.064,21.27,51.522,51.522,0,0,1,.1,5.713,324.572,324.572,0,0,1-12.258,35.227c-1.7-2-11.234-24.007-14.764-45.593C775.227,2097.681,778.9,2085.872,785.858,2083.365Z" transform="translate(-557.083 -1878.072)" fill="#bf4f63"/>
          <path id="Path_2382" data-name="Path 2382" d="M783.348,2110.849a21.174,21.174,0,0,1-7.407-1.609c1.37-11.336,3.682-19.339,8.768-22.042.712.026,1.443.035,2.205.02.479-.009.958-.044,1.438-.1.036.016.071.025.107.041a11.715,11.715,0,0,1,4.436,3.771C785.956,2094.63,784.124,2103.4,783.348,2110.849Z" transform="translate(-557.091 -1878.078)" fill="#a14459"/>
          <path id="Path_2383" data-name="Path 2383" d="M783.691,2130.677A24.791,24.791,0,0,0,794.375,2134c-2.668,8.358-5.606,16.64-9.038,24.722-1.472-1.734-8.862-18.573-13.091-37.115A51.116,51.116,0,0,0,783.691,2130.677Z" transform="translate(-557.084 -1878.14)" fill="#a14459"/>
          <path id="Path_2384" data-name="Path 2384" d="M674.41,2295.174s23.337,10.912,31.45,7.346c6.32-1.716,13.186-17.573,14.526-25.029,0,0,124.281-.969,136.588.263-.416-4.5-2.756-107.878-2.792-108.775h0c2.268,6.653,20.17,42.029,24.905,55.31,9.458,23.5-9.658,55.522-19.918,60.3,4.073,5.426,45.728,13.245,52.194,10.586,3.734-1.939,20.246-31.239,21.049-41.808.865-11.365-.085-27.214-4.3-44.9a465.6,465.6,0,0,0-16.737-53.356c-13.816-36.936-32.282-70.732-44.546-80.511-6.7-3.786-19.531-7.655-30.281-11.228-.888-.294.023-.99-.891-1.1-6.971-.839-8.559-2.084-12.631-3.983-2.516-1.173-3.508-2.625-4.439-2.988-1.534-.6-1.153,2.033-1.668,3.6-10.723,32.535-17.5,69.244-30.874,100.747a169.851,169.851,0,0,1-10.627-28.926c-3.076-10.917-5.132-22.1-8.174-33.011-3.77-13.531-9.049-29.466-13.6-43.372-.718-2.2-1.731-6.1-3.783-5.038-.861.446-2.043,2.7-5.5,3.958-.25.091-8.389,2.923-8.652,2.983-1.269.287-.027.638-1.359.947-15.107,3.514-35.164,8.4-40.841,11.592-7.681,5.611-67.753,79.015-98.964,150.331C583.284,2244.844,640.374,2277.28,674.41,2295.174ZM650.53,2223.9a254.387,254.387,0,0,1,49.848-62.847c-1.578,27.09-.8,68.906-3.972,90.441C686.534,2244.5,667.8,2231.881,650.53,2223.9Z" transform="translate(-556.771 -1878.01)" fill="#4a5e5c"/>
          <path id="Path_2385" data-name="Path 2385" d="M854.639,2169.194Z" transform="translate(-557.228 -1878.226)" fill="#4a5e5c"/>
          <path id="Path_2386" data-name="Path 2386" d="M802.4,2094.014c-4.934-7.222-8.365-21.224-13.352-26.195,6.277,2.612,7.22,14.382,11.265,20.762.59.93,1.693-.214,2.31-.939,5.122-6.015,7.08-12.218,11.5-19.823-2.45,7.839-3.775,12.479-5.941,20.411C806.641,2089.985,804.109,2092.414,802.4,2094.014Z" transform="translate(-557.114 -1878.044)" fill="#b1d5e2"/>
          <path id="Path_2387" data-name="Path 2387" d="M770.627,2092.867c-1.151.718-3.651-1.683-5.535-3.5-2.506-9.248-3.4-12.412-6.254-21.545,2.678,7.407,5.32,15.084,11.5,19.823.755.579,1.573,1.759,2.309.939,4.71-5.244,5.81-17.678,14.366-20.762C779.373,2074.2,776,2089.512,770.627,2092.867Z" transform="translate(-557.061 -1878.044)" fill="#b1d5e2"/>
          <path id="Path_2388" data-name="Path 2388" d="M709.825,2258.842l-9.27-5.969c.7-10.016,3.133-66.134,3.387-78.446,20.792,24.683,46.85,41.663,75.867,52.466.111-.728.644-16.248.313-26.976-.062-2.026.75-7.035.629-9.107.35-2.945,2.062-10.837,1.707-11.087a112.868,112.868,0,0,1,3.762-16.075l-2.849,23.823c-.053,1.127.2,5.008,1.1,4.323,10.393-7.937,20.785-24.475,26.553-35.493,7.75-14.8,16.344-28.849,22.141-44.593-6.124-3.142-9.992-9.808-14.5-14.749a1.592,1.592,0,0,1,.646-2.629c3.164-1.031,6.712-2.232,10.6-3.285,3.389-.917,8.011-2.227,13.042-3.485,0,0-2.395-6.007-3.426-8.91-1.432-4.027-3.606-11.388-3.608-15.738a57.381,57.381,0,0,1,2.317,6.567c2.568,10.115,8.475,21.7,7.7,22.168-1.664,1.018-21.509,5.686-24.684,6.445,3.765,4.655,16.809,14.877,16.508,15.722-3.09,8.659-8.036,14.555-12.272,22.713-3.885,7.481-8.32,14.653-12.213,22.128-6.427,12.34-23.817,27.655-29.742,40.842-3.562,7.928-1.249,23.687-1.249,28.3,19.86,6.79,44.7,12.073,63.655,12.614.765,37.6.576,35.336.765,37.6-7.313-.813-122.026-1-125.025.562-2.622,1.367-3.782,3.993-4.55,6.714-1.559,5.52-2.785,9.823-6.953,13.583-4.327,4.9-14.434,2.457-15.707-3.463C693.066,2286.492,703.162,2270.558,709.825,2258.842Z" transform="translate(-556.948 -1878.035)" fill="#364442"/>
          <path id="Path_2389" data-name="Path 2389" d="M782.435,2190.8c-6.711-12.414-18.78-27.062-24.537-38.116-3.892-7.476-8.327-14.647-12.213-22.128-4.237-8.157-9.183-14.053-12.273-22.713-.3-.845,12.744-11.066,16.508-15.722-3.174-.76-23.02-5.427-24.684-6.445-.771-.472,5.136-12.054,7.7-22.168a57.458,57.458,0,0,1,2.317-6.567c0,4.349-2.176,11.711-3.608,15.738-1.031,2.9-3.426,8.91-3.426,8.91,5.031,1.258,9.653,2.567,13.042,3.485,3.892,1.053,7.44,2.254,10.6,3.286a1.591,1.591,0,0,1,.646,2.628c-4.509,4.941-8.376,11.607-14.5,14.75,5.8,15.745,14.391,29.789,22.142,44.593,5.123,9.784,13.892,23.918,23.07,32.52A48.528,48.528,0,0,1,782.435,2190.8Z" transform="translate(-557.002 -1878.024)" fill="#364442"/>
          <path id="Path_2390" data-name="Path 2390" d="M737.668,1990.765a53.782,53.782,0,0,1-3.619-15.7c-2.464-28.837,20.978-62.414,50.084-66.118,26.129-3.325,51.417-2.843,70.888,17.558,5.973,6.258,20.7,25.782,7.479,36.193-9.91,7.805-25.568-2.55-36.826,5.021-5.167,3.475-10.979,7.052-13.834,12.741-2.674,5.329-2.9,11.508-5.361,16.833-3.239,7.016-14.052,15.007-21.63,16.507-11.135,2.205-26.416-1.159-35.594-7.8A34.506,34.506,0,0,1,737.668,1990.765Z" transform="translate(-557.017 -1877.756)" fill="#205965"/>
          <path id="Path_2391" data-name="Path 2391" d="M793.369,1980.815c5.9-3.252,11.513-7.209,17.352-10.644a19.3,19.3,0,0,0-2.484,3.973c-2.456,5.329-2.664,11.508-4.922,16.833-2.975,7.015-12.9,15.007-19.863,16.507-10.225,2.2-24.258-1.159-32.686-7.8a34.36,34.36,0,0,1-10.641-15.231,56.176,56.176,0,0,1-3.11-13.488C751.845,1986.292,774.923,1990.983,793.369,1980.815Z" transform="translate(-557.023 -1877.869)" fill="#1e4951"/>
          <path id="Path_2392" data-name="Path 2392" d="M900.9,2269.769c-6.023-8.077-14.956-8.622-24.036-8.591,4.226-10.07,6.777-22.125,4.572-33.048a94.731,94.731,0,0,1,48.686-4.745c1.388,10.822,4.8,24.035,2.666,31.353-5.7,19.567-19.607,38.275-23.108,40.215C909.257,2295.138,905.813,2276.362,900.9,2269.769Z" transform="translate(-557.267 -1878.32)" fill="#364442"/>
          <rect id="Rectangle_1001" data-name="Rectangle 1001" width="381.805" height="75.745" transform="translate(470.182 592.131) rotate(180)" fill="#beb3ad"/>
          <rect id="Rectangle_1002" data-name="Rectangle 1002" width="381.805" height="15.571" transform="translate(470.182 445.553) rotate(180)" fill="#beb3ad"/>
          <rect id="Rectangle_1003" data-name="Rectangle 1003" width="381.805" height="75.745" transform="translate(470.182 760.909) rotate(180)" fill="#beb3ad"/>
          <rect id="Rectangle_1004" data-name="Rectangle 1004" width="381.805" height="75.745" transform="translate(470.182 924.003) rotate(180)" fill="#beb3ad"/>
          <path id="Path_2393" data-name="Path 2393" d="M734.539,2395.016c8.776,23.52,17.73,46.688,26.935,69.337q1.306,3.213,2.62,6.407H640.619v-75.745Z" transform="translate(-556.854 -1878.63)" fill="#aaa19e"/>
          <path id="Path_2394" data-name="Path 2394" d="M805.457,2564.1q7.953,16.358,16.172,32.033,11.915,22.689,24.413,43.712H640.619V2564.1Z" transform="translate(-556.854 -1878.933)" fill="#aaa19e"/>
          <path id="Path_2395" data-name="Path 2395" d="M902.92,2727.484A422.444,422.444,0,0,0,957,2780.836a343.708,343.708,0,0,0,30.806,22.393H635.887v-75.745Z" transform="translate(-556.846 -1879.226)" fill="#aaa19e"/>
          <path id="Path_2396" data-name="Path 2396" d="M783.7,2207.192a3.224,3.224,0,1,1,3.215,3.459A3.344,3.344,0,0,1,783.7,2207.192Z" transform="translate(-557.104 -1878.287)" fill="#364442"/>
          <path id="Path_2397" data-name="Path 2397" d="M783.7,2230.4a3.224,3.224,0,1,1,3.215,3.459A3.344,3.344,0,0,1,783.7,2230.4Z" transform="translate(-557.104 -1878.329)" fill="#364442"/>
          <path id="Path_2398" data-name="Path 2398" d="M788.084,2089.243c5.765-1.639,9.991-15.091,3.332-15.728-4.6-.44-9.795-1.115-10.408,2.9C780.676,2078.594,782.739,2090.763,788.084,2089.243Z" transform="translate(-557.1 -1878.053)" fill="#bf4f63"/>
          <rect id="Rectangle_1005" data-name="Rectangle 1005" width="37.155" height="14.567" transform="translate(189.893 294.631) rotate(180)" fill="#e2a055"/>
          <path id="Path_2399" data-name="Path 2399" d="M879.705,2259.955c3.8-.033,7.147,0,10.59,1.773a36.273,36.273,0,0,1,9.468,7.461c5.069,5.343,9.913,11.612,9.914,19.206,0,3.691-4.728,4.548-5.654,4.215-.572-.205,2.62-1.792,2.52-4.383-.259-6.669-4.7-12.316-9.118-16.972a35.421,35.421,0,0,0-7.564-6.237c-3.376-2-6.566-2.047-10.367-2.014C877.468,2263.023,877.712,2259.973,879.705,2259.955Z" transform="translate(-557.269 -1878.388)" fill="#fff"/>
          <path id="Path_2400" data-name="Path 2400" d="M894.894,2291.2a3.794,3.794,0,0,0-.195-2.174c-2.545-6.876-10.151-13.234-16.594-16.588-6.4-3.333-17.231-4.059-15.453,5.163,1.76,9.135,12.076,17.079,20.428,20.222,3.388,1.275,7.542,2.209,10.4.677C896.289,2296.994,896.178,2294.085,894.894,2291.2Z" transform="translate(-557.242 -1878.406)" fill="#9ebac3"/>
          <path id="Path_2401" data-name="Path 2401" d="M896.557,2273.705c-.217-.363-3.9-2.229-6.084-4.461s-.359-2.875-4.131-6.3c-1.033-.939-4.882-.433-6.574-2.689a8.915,8.915,0,0,0-4.247-3.075c-3.9-.955-7.7-.611-9.631,2.259-.794,1.217-6.263,5.264-7.951,6.326-1.522.957-4.378,3.482-6.942,4.883-.057.027-9.72,3.976-9.882,4.033-.034.012-.064.025-.1.037-1.81.613-3.557,4.859-1.772,5.823,1.029.556,9.62,1.156,13.125.244a12.13,12.13,0,0,0,3.512-1.689c-3.358,7.419-5.837,15.2-1.2,16.406,4.386,2.053,13.082-14.8,17.5-23.137a35.164,35.164,0,0,1,4.079-1.89c-2.3,2.767-4.46,9.024-7.6,13.993-4.51,7.132-9.689,12.714-3.99,15.439,6.389,4.141,22.542-24.868,22.712-24.72a6.862,6.862,0,0,1,1.455,2.208c-6.016,7.841-18.014,25.63-15.292,27.3,5.811,3.476,15.635-9.782,18.877-15.471.333,1.121.62,1.839.862,1.852-3.379,3.576-10.248,13.6-7.884,16.478,5.189,2.714,15.719-13.236,16.017-17.554.258-3.754-.4-3.972-3.094-8.479C896.971,2279.26,897.888,2275.927,896.557,2273.705Z" transform="translate(-557.2 -1878.382)" fill="#fff"/>
          <path id="Path_2402" data-name="Path 2402" d="M855.519,2279.979s1.033-5.946,2.6-11.379c5.868-2.391,7.935-8.164,10-7.933C866.711,2264.638,860.291,2276.1,855.519,2279.979Z" transform="translate(-557.23 -1878.389)" fill="#b1d5e2"/>
          <path id="Path_2403" data-name="Path 2403" d="M895,2290.778c-1.159,2.83-4.084,5.009-5.883,7.418-.279.374-2.6-.456-2.849-.178a35.354,35.354,0,0,0,8.508-14.144c.556-1.149,1.846-.368,3.18-.164C896.581,2286.519,896.341,2287.507,895,2290.778Z" transform="translate(-557.284 -1878.43)" fill="#b1d5e2"/>
          <path id="Path_2404" data-name="Path 2404" d="M873.835,2277.211c-2.509,4.131-4.7,8.552-7.279,12.537-.4.618-1.658.611-2.016,1.077,7.8-13.131,8.431-18.724,9.232-24.434.765-1.87,3.423-2.558,5.5-2.373C877.695,2268.654,876.21,2273.3,873.835,2277.211Z" transform="translate(-557.246 -1878.395)" fill="#b1d5e2"/>
          <path id="Path_2405" data-name="Path 2405" d="M885.6,2285.06c-2.346,3.5-4.734,7.1-7.156,10.474-.375.523-2.151.972-2.49,1.365,5.434-9.3,8.852-16.078,9.216-21.237.695-1.6,3.306-2.105,5.37-1.874C889.135,2277.76,887.82,2281.743,885.6,2285.06Z" transform="translate(-557.266 -1878.413)" fill="#b1d5e2"/>
          <path id="Path_2406" data-name="Path 2406" d="M697.862,2300.2a7.445,7.445,0,0,0,7.477-.59c.56-.379,5.4-5.713,5.188-6.289-.115-.308-4.638,3.048-6.43,2.148-3.631-1.822-5.6-9.464-1.947-19.606,1.793-4.98,6.657-13.109,12.242-14.812l-4.567-1.854c-4.986,3.111-8.386,9.23-10.308,14.848C696.809,2281.966,691.63,2296.294,697.862,2300.2Z" transform="translate(-556.949 -1878.387)" fill="#fff"/>
          <path id="Path_2407" data-name="Path 2407" d="M1015.21,2311.568c.6,0,1.2.02,1.812.05-.673-.027-1.355-.041-2.041-.046C1015.056,2311.572,1015.134,2311.568,1015.21,2311.568Z" transform="translate(-557.509 -1878.481)" fill="#e2a055"/>
          <rect id="Rectangle_1006" data-name="Rectangle 1006" width="3.935" height="10.376" transform="translate(416.197 375.874) rotate(180)" fill="#e2a055"/>
          <path id="Path_2408" data-name="Path 2408" d="M950.666,2268.061v.009c0,5.71,9.1,10.338,20.318,10.338s20.318-4.629,20.318-10.338a5.55,5.55,0,0,0-.414-2.086,20,20,0,0,1,5.493,13.916s-4.572,10.219-24.889,10.906c-20.953-.687-24.636-10.749-24.636-10.749A20.277,20.277,0,0,1,950.666,2268.061Z" transform="translate(-557.39 -1878.399)" fill="#cf9150"/>
          <path id="Path_2409" data-name="Path 2409" d="M971.619,2252.222c13.893,0,25.156,5.974,25.156,20.233,0,0-7.076,8.839-25.156,8.753-19.181.086-25.156-8.753-25.156-8.753C946.463,2258.2,957.725,2252.222,971.619,2252.222Z" transform="translate(-557.389 -1878.374)" fill="#e2a055"/>
          <path id="Path_2410" data-name="Path 2410" d="M973.634,2254.252c10,.362,17.948,5.954,17.948,18.708a65.611,65.611,0,0,1-9.961,3.914C981.874,2267.548,979.138,2259.883,973.634,2254.252Z" transform="translate(-557.437 -1878.378)" fill="#e5b57e"/>
          <path id="Path_2411" data-name="Path 2411" d="M987.737,2270.129a17.664,17.664,0,0,0-3.928-9.184c-2.311-2.62-5.439-4.054-8.5-5.586,7.384,1.125,13.167,5.513,14.605,14.069C989.2,2269.691,988.475,2269.933,987.737,2270.129Z" transform="translate(-557.44 -1878.38)" fill="#fff"/>
          <ellipse id="Ellipse_101" data-name="Ellipse 101" cx="6.132" cy="1.97" rx="6.132" ry="1.97" transform="translate(408.098 362.987)" fill="#cf9150"/>
          <path id="Path_2412" data-name="Path 2412" d="M946.967,2277.873v.009c0,5.424,10.7,9.821,23.9,9.821h1.493c13.2,0,23.9-4.4,23.9-9.821v-.009a16.89,16.89,0,0,1,4.482,11.4s-4.331,9.559-28.977,10.211c-.051,0-.247,0-.3,0-24.645-.652-28.976-10.211-28.976-10.211A16.894,16.894,0,0,1,946.967,2277.873Z" transform="translate(-557.382 -1878.42)" fill="#e2a055"/>
          <path id="Path_2413" data-name="Path 2413" d="M992.5,2284.362c4.008,2.105,4.281,6.991,4.337,7.585a22.483,22.483,0,0,1-10.194,4.56,15.955,15.955,0,0,0-2.562-9.015A23.211,23.211,0,0,0,992.5,2284.362Z" transform="translate(-557.455 -1878.432)" fill="#e5b57e"/>
          <path id="Path_2414" data-name="Path 2414" d="M989.939,2286.021c.386-.212.768-.436,1.138-.683,4.008,2.105,4.281,6.993,4.336,7.586-.361.278-.775.575-1.212.876A17.551,17.551,0,0,0,989.939,2286.021Z" transform="translate(-557.465 -1878.434)" fill="#fff"/>
          <ellipse id="Ellipse_102" data-name="Ellipse 102" cx="6.132" cy="1.97" rx="6.132" ry="1.97" transform="translate(408.098 362.437)" fill="#e2a055"/>
          <path id="Path_2415" data-name="Path 2415" d="M967.8,2250.685c0-.476,1.725-.863,3.852-.863s3.852.386,3.852.863-1.725.863-3.852.863S967.8,2251.162,967.8,2250.685Z" transform="translate(-557.426 -1878.37)" fill="#e2a055"/>
          <path id="Path_2416" data-name="Path 2416" d="M971.656,2254.967a6.841,6.841,0,0,1-3.852-.9v-3.384a13.136,13.136,0,0,0,3.852.456,32.65,32.65,0,0,0,3.852-.456v3.559A9.491,9.491,0,0,1,971.656,2254.967Z" transform="translate(-557.426 -1878.372)" fill="#cf9150"/>
          <path id="Path_2417" data-name="Path 2417" d="M970.173,2250.253l.1-5.323h1.178v5.491A2.059,2.059,0,0,1,970.173,2250.253Z" transform="translate(-557.431 -1878.361)" fill="#cf9150"/>
          <path id="Path_2418" data-name="Path 2418" d="M702.879,2276.561l61.929,49.363c15.084-4.667,73.312-15.36,100.054-11.446a682.619,682.619,0,0,0-59-48.625C789.29,2262.263,720.248,2271.233,702.879,2276.561Z" transform="translate(-556.963 -1878.397)" fill="#b1d5e2"/>
          <g id="Group_2225" data-name="Group 2225" transform="translate(143.904 378.988)">
            <path id="Path_2419" data-name="Path 2419" d="M763.133,2276.961c2.3.368,11.025-1.189,10.744-4.654-.138-1.7-4.038-1.682-5.419-2.075a64.381,64.381,0,0,1-7.34-2.968c-3.386-1.444-6.807-3.024-10.056-4.756-5.14-2.741-9.014-5.772-15.164-5.019-3.41.418-6.775,1.116-10.148,1.761-3.357.642-7.261.6-10.5,1.542-5.306,1.54-8.349,3.186-12.673,11.848-.8,1.606-2.838,10.483-.9,11.962,4.435,3.386,10.022,4.775,14.758,7.6.7,1.417,4,2.9,5.507,3.893,3.059,2.018,6.12,4.031,9.235,5.961,4.4,2.726,11.845,8.553,17.4,8.077,5.163-.443-1.735-6.336-3.189-7.663a124.248,124.248,0,0,0,13.031,6.575c2.244.9,4.956,2.019,7.382.518,3.967-2.452-5.378-8.476-7.114-9.738-4.185-3.042-8.662-5.677-12.859-8.673,3.45,1.686,8.12,4.113,10.089,5.212,3.135,1.75,12.2,5.374,16.595,5.829,2.091.216,5.025-2.974.8-6.7,1.8,1.192,6.786,5.255,9.222,3.7,1.906-1.216.751-3.689-.316-4.984C776.776,2287.611,767.539,2283.243,763.133,2276.961Zm-.124,12.476a32.541,32.541,0,0,1-3.1-2.058c.91-.431,1.4-.838,1.36-1.209,3.154,2.632,6.359,5.2,9.311,7.372C768.443,2292.255,765.736,2290.961,763.009,2289.436Z" transform="translate(-700.864 -2257.372)" fill="#fff"/>
          </g>
          <g id="Group_2226" data-name="Group 2226" transform="translate(143.607 383.835)">
            <path id="Path_2420" data-name="Path 2420" d="M702.278,2272.288c4.323-7.035,7.367-8.372,12.673-9.623a24.634,24.634,0,0,1,2.493-.438c-5.469,7.355-7.053,15.624-6.231,23.951-3.4-1.221-6.872-2.335-9.836-4.174C699.44,2280.8,701.476,2273.594,702.278,2272.288Z" transform="translate(-700.566 -2262.227)" fill="#b1d5e2"/>
          </g>
          <path id="Path_2421" data-name="Path 2421" d="M741.046,2291.558c3.732,1.958,6.938,2.657,10.675,4.467.58.281,3.763.2,4.249.383-10.089-5.212-16.327-8.975-20-12.1a3.588,3.588,0,0,0-4.64-.3C734.456,2286.829,737.511,2289.7,741.046,2291.558Z" transform="translate(-557.013 -1878.43)" fill="#b1d5e2"/>
          <path id="Path_2422" data-name="Path 2422" d="M751.708,2284.293c3.434,2.714,5.647,2.913,10.577,4.7a15.508,15.508,0,0,1,2.942,0c-5.106-3.954-14.817-8.823-19.853-15.206-1.374-1.074-3.214.6-4.917,1.791C743.586,2278.4,748.577,2281.818,751.708,2284.293Z" transform="translate(-557.029 -1878.412)" fill="#b1d5e2"/>
          <path id="Path_2423" data-name="Path 2423" d="M728.523,2295.938c2.883,1.021,5.834,2.079,8.7,3,.443.143.839.255,1.2.34-4.1-3.132-11.082-6.912-14.118-8.723-1.119-.614-2.724.132-3.693,1.072A41.229,41.229,0,0,0,728.523,2295.938Z" transform="translate(-556.994 -1878.442)" fill="#b1d5e2"/>
          <path id="Path_2424" data-name="Path 2424" d="M758.336,2273.425a37.973,37.973,0,0,0,4.885,3.548,11.391,11.391,0,0,0-4.976-9.672c-.915-.888-5.3-3.909-6.489-3.259C751.728,2267.954,756.15,2271.526,758.336,2273.425Z" transform="translate(-557.048 -1878.395)" fill="#b1d5e2"/>
        </g>
      </g>
    </g>
  </g>
</svg>
