<svg width="3531" height="3508" viewBox="0 0 3531 3508" fill="none" xmlns="http://www.w3.org/2000/svg">
<g clip-path="url(#clip0_1_707)">
<path d="M616.106 6448.73H3277.76L3277.76 2678.41L616.106 2678.41L616.106 6448.73Z" fill="#D3C8C1"/>
<path d="M1031.72 2678.4C1039.33 2698.15 1046.9 2717.95 1054.54 2737.65C1183.64 3070.6 1317.04 3396.98 1458.61 3708.22C1590.3 3997.78 1729.23 4274.13 1877.96 4527.19C2020.8 4770.23 2172.63 4991.42 2333.33 5182.56C2499.11 5379.75 2673.95 5544.4 2854.64 5675.9C2985.26 5771.43 3127.14 5853.97 3277.75 5922.06V6448.72H616.099V2678.4H1031.72Z" fill="#BEB3AD"/>
<path d="M617.595 2824.42L616.099 2775.4H1069.2C1089.31 2827.24 1109.76 2878.9 1130.09 2930.38C966.348 2852.89 785.572 2835.8 617.595 2824.42Z" fill="#AAA19E"/>
<path d="M2093.39 384.909C2259.41 418.43 2209.29 706.272 2093.39 793.734C2001.04 863.437 1945.54 865.862 1908.78 751.197C1881.09 664.767 1861.55 513.59 2021.18 419.419C2037.34 409.887 2075.69 381.334 2093.39 384.909Z" fill="#205965"/>
<path d="M1323.79 1098.56C1395.84 1284.04 1712.27 1318.05 1863.41 1185.1C1819.13 1149.8 1770.16 1126.03 1764.5 1120.03C1737.15 1096.92 1793.21 956.893 1793.21 956.893C1855.05 967.308 1978.32 1017.14 2029.39 989.04C2071.66 965.785 2097.68 867.69 2105.47 823.58C2112.94 781.248 2143.9 699.264 2122.45 658.754C2102.73 621.496 2123.21 532.53 2122.85 529.714C2120.81 513.758 2101.45 534.321 2084.87 534.489C2038.89 534.968 1992.83 534.992 1947.03 539.158C1901.23 543.324 1850.08 550.351 1810.67 573.127C1770.26 596.463 1759.69 638.304 1746.39 676.544C1734.35 712.891 1710.07 745.04 1676.85 768.62C1657.42 781.208 1635.01 789.636 1611.35 793.255C1583.68 798.192 1536.01 797.347 1508.14 801.102C1508.14 801.102 1480.66 1002.22 1436.72 1061.08C1422.38 1077.68 1380.95 1098.63 1323.79 1098.56Z" fill="#FCB69E"/>
<path d="M1614.45 991.173C1589.35 930.237 1606.8 795.929 1612.24 793.734C1650.11 837.291 1722.36 907.081 1771.47 940.67C1771.47 940.67 1727.49 1057.29 1718.22 1110.23C1670.83 1080.95 1634.62 1039.4 1614.45 991.173V991.173Z" fill="#DD978D"/>
<path d="M2041.67 827.889C2041.35 810.392 2077.69 819.93 2076.89 786.621C2076.31 761.905 2035.32 643.819 2037.23 626.017C2039.89 601.101 2086.43 571.679 2095.14 575.254C2107.05 580.154 2088.57 600.038 2100.6 630.898C2120 653.737 2109.57 793.883 2097.12 835.257C2085.51 873.715 2071.05 935.062 2034.71 955.948C2034.41 946.975 2042.29 860.944 2041.67 827.889Z" fill="#DD978D"/>
<path d="M465.053 2404.03L616.099 2678.41L3277.75 2678.3L3126.65 2401.98L465.053 2404.03Z" fill="#AAA19E"/>
<path d="M464.969 2403.92L616.099 2678.46V6434.18L464.962 6170.11L464.969 2403.92Z" fill="#AAA19E"/>
<path d="M1653.28 736.952C1668.22 764.634 1672.91 796.053 1689.94 822.803C1705.15 846.674 1726.86 866.894 1746.47 888.054L1803.77 693.886C1776.58 674.231 1747.15 657.305 1718.67 639.168C1702.14 628.597 1723.54 607.867 1739.91 618.294C1769.26 637.01 1799.57 654.42 1827.45 674.878L2060.01 748.001L2129.9 719.498C2125.07 767.295 2102.52 899.247 2082.29 939.738C2078.4 947.504 2067.4 976.914 2033.39 994.915C2017.82 1002.78 2000.36 1007.17 1982.48 1007.73C1982.48 1007.73 1771.19 998.323 1662.57 836.868C1644.01 809.26 1639.61 776.454 1624.03 747.559C1615.2 731.212 1644.47 720.642 1653.28 736.952Z" fill="white"/>
<path d="M1536.29 1564.37C1514.85 1496.37 1472.52 1429.3 1451.32 1361.31C1421.91 1267.03 1396.44 1176.06 1362.59 1082.96C1386.56 1077.34 1408.71 1066.72 1427.2 1051.98C1434.63 1045.76 1439.26 1059.57 1446.2 1066.2C1492.54 1110.46 1525.54 1169.61 1617.92 1175.88C1709.98 1182.13 1736.22 1123.03 1761.5 1094.6C1767.77 1087.55 1772.94 1104.68 1780.86 1110.24C1791.83 1117.93 1811.22 1120 1825.18 1122.59C1747.74 1328.26 1705.48 1544.33 1610.37 1744.55C1579.62 1686.62 1554.82 1626.31 1536.29 1564.37V1564.37Z" fill="white"/>
<path d="M1403.72 1066.98C1368.75 1097.95 1399.21 1165.9 1397.99 1215.43C1384.66 1172.62 1370.79 1129.89 1355.09 1086.72C1372.43 1082.66 1388.88 1075.98 1403.72 1066.98V1066.98Z" fill="#B1D5E2"/>
<path d="M1798.87 1141.23C1797.9 1132.76 1785.46 1124.04 1784.04 1115.69C1795.3 1121.82 1812.44 1123.78 1825.16 1126.16C1815.58 1151.61 1806.49 1177.2 1797.87 1202.93C1793.41 1182.4 1801.27 1162.17 1798.87 1141.23Z" fill="#B1D5E2"/>
<path d="M1594.85 1278.8C1599.72 1279.59 1604.77 1280.29 1610.05 1280.87C1613.36 1281.24 1616.7 1281.45 1620.06 1281.53C1620.29 1281.66 1620.53 1281.74 1620.76 1281.88C1651.04 1299.23 1661.77 1337.58 1668.7 1366.86C1677.92 1410.55 1682.73 1454.89 1683.09 1499.35C1684.06 1511.19 1684.3 1523.08 1683.79 1534.94C1660.04 1609.49 1631.5 1682.75 1598.33 1754.37C1586.5 1741.94 1520.02 1604.83 1495.41 1470.37C1520.73 1367.97 1546.34 1294.42 1594.85 1278.8Z" fill="#BF4F63"/>
<path d="M1577.3 1449.96C1559.55 1449.42 1542.06 1446.02 1525.66 1439.93C1535.21 1369.32 1551.33 1319.47 1586.78 1302.64C1591.74 1302.8 1596.84 1302.85 1602.15 1302.76C1605.49 1302.7 1608.83 1302.49 1612.17 1302.14C1612.43 1302.24 1612.67 1302.29 1612.92 1302.39C1625.28 1307.77 1635.91 1315.85 1643.85 1325.88C1595.47 1348.93 1582.7 1403.58 1577.3 1449.96Z" fill="#A14459"/>
<path d="M1579.73 1573.08C1602.46 1584.96 1627.93 1592.04 1654.19 1593.78C1635.59 1645.84 1615.11 1697.43 1591.19 1747.77C1580.92 1736.97 1529.41 1632.08 1499.93 1516.58C1523.36 1538.73 1550.24 1557.76 1579.73 1573.08V1573.08Z" fill="#A14459"/>
<path d="M820.096 2598.56C820.096 2598.56 982.785 2666.54 1039.34 2644.32C1083.4 2633.63 1131.26 2534.88 1140.6 2488.41C1140.6 2488.41 2007 2482.37 2092.79 2490.05C2089.89 2462.03 2073.57 1818.06 2073.3 1812.48C2089.11 1853.92 2213.91 2074.25 2246.92 2157.01C2312.86 2303.39 2179.6 2502.86 2108.07 2532.62C2136.46 2566.42 2426.85 2615.13 2471.92 2598.53C2497.96 2586.45 2613.06 2403.94 2618.66 2338.11C2624.69 2267.31 2618.07 2168.58 2588.68 2058.45C2557.27 1945.67 2518.31 1834.68 2472 1726.08C2375.69 1496.02 2246.95 1285.49 2161.46 1224.57C2114.79 1200.99 2025.31 1176.88 1950.36 1154.63C1944.18 1152.8 1950.52 1148.46 1944.16 1147.79C1895.56 1142.57 1884.49 1134.81 1856.1 1122.98C1838.57 1115.67 1831.65 1106.63 1825.16 1104.37C1814.46 1100.64 1817.12 1117.04 1813.53 1126.76C1738.77 1329.42 1691.53 1558.08 1598.3 1754.32C1567.54 1696.39 1542.75 1636.08 1524.21 1574.14C1502.77 1506.13 1488.44 1436.5 1467.23 1368.51C1440.95 1284.22 1404.15 1184.96 1372.45 1098.34C1367.45 1084.66 1360.38 1060.33 1346.07 1066.96C1340.08 1069.74 1331.83 1083.78 1307.72 1091.61C1305.98 1092.18 1249.26 1109.82 1247.4 1110.19C1238.56 1111.98 1247.21 1114.16 1237.93 1116.09C1132.62 1137.98 992.792 1168.45 953.216 1188.3C899.673 1223.25 480.891 1680.49 263.316 2124.72C184.832 2285.08 582.82 2487.1 820.096 2598.56ZM653.622 2154.6C745.555 2008.51 862.846 1876.37 1001.12 1763.12C990.119 1931.86 995.554 2192.34 973.432 2326.46C904.627 2282.9 774.041 2204.3 653.622 2154.6V2154.6Z" fill="#4A5E5C"/>
<path d="M1709.98 1345.3C1675.59 1300.32 1651.67 1213.1 1616.91 1182.13C1660.67 1198.41 1667.24 1271.72 1695.44 1311.46C1699.55 1317.26 1707.27 1310.13 1711.54 1305.61C1747.25 1268.15 1760.9 1229.51 1791.69 1182.13C1774.61 1230.96 1765.37 1259.86 1750.28 1309.28C1739.52 1320.21 1721.86 1335.34 1709.98 1345.3Z" fill="#B1D5E2"/>
<path d="M1488.83 1338.16C1480.8 1342.63 1463.38 1327.68 1450.24 1316.34C1432.77 1258.74 1426.54 1239.03 1406.64 1182.13C1425.31 1228.27 1443.72 1276.09 1486.79 1305.61C1492.05 1309.22 1497.75 1316.57 1502.88 1311.46C1535.72 1278.8 1543.39 1201.35 1603.03 1182.13C1549.79 1221.91 1526.29 1317.26 1488.83 1338.16Z" fill="#B1D5E2"/>
<path d="M1065.74 2372.09L1001.12 2334.91C1005.99 2272.52 1022.96 1922.96 1024.73 1846.26C1169.68 2000.01 1351.34 2105.78 1553.62 2173.07C1554.39 2168.54 1558.11 2071.87 1555.81 2005.04C1555.38 1992.42 1561.03 1961.22 1560.19 1948.31C1562.63 1929.97 1574.57 1880.81 1572.09 1879.25C1578.09 1845.36 1586.85 1811.9 1598.32 1779.14L1578.46 1927.54C1578.09 1934.56 1579.85 1958.74 1586.11 1954.47C1658.56 1905.03 1731.01 1802.01 1771.22 1733.38C1825.25 1641.16 1885.16 1553.68 1925.58 1455.6C1882.88 1436.03 1855.92 1394.51 1824.49 1363.73C1823.17 1362.52 1822.23 1361.03 1821.73 1359.4C1821.24 1357.77 1821.21 1356.06 1821.66 1354.42C1822.11 1352.79 1823.02 1351.28 1824.3 1350.04C1825.59 1348.8 1827.2 1347.88 1828.99 1347.35C1851.05 1340.93 1875.78 1333.45 1902.92 1326.89C1926.54 1321.17 1958.76 1313.01 1993.84 1305.18C1993.84 1305.18 1977.14 1267.76 1969.95 1249.68C1959.97 1224.59 1944.82 1178.74 1944.8 1151.65C1951.11 1164.98 1956.5 1178.64 1960.96 1192.55C1978.86 1255.56 2020.04 1327.7 2014.67 1330.64C2003.06 1336.98 1864.72 1366.08 1842.59 1370.79C1868.84 1399.78 1959.77 1463.44 1957.67 1468.72C1936.1 1522.66 1901.65 1559.39 1872.12 1610.21C1845.03 1656.8 1814.11 1701.48 1786.98 1748.05C1742.18 1824.91 1620.94 1920.28 1579.64 2002.45C1554.81 2051.84 1570.94 2150.01 1570.94 2178.73C1709.39 2221.01 1882.58 2253.93 2014.69 2257.3C2020.02 2491.51 2018.71 2477.42 2020.02 2491.51C1969.04 2486.44 1169.35 2485.29 1148.45 2495.01C1130.16 2503.53 1122.08 2519.88 1116.73 2536.83C1105.86 2571.22 1097.31 2598.02 1068.26 2621.44C1038.09 2651.97 967.635 2636.75 958.755 2599.87C948.915 2544.32 1019.29 2445.07 1065.74 2372.09Z" fill="#364442"/>
<path d="M1571.55 1948.31C1524.76 1870.99 1440.63 1779.75 1400.49 1710.88C1373.35 1664.32 1342.44 1619.65 1315.36 1573.04C1285.82 1522.23 1251.33 1485.51 1229.8 1431.56C1227.72 1426.3 1318.64 1362.63 1344.88 1333.63C1322.76 1328.89 1184.41 1299.82 1172.81 1293.48C1167.44 1290.54 1208.61 1218.4 1226.52 1155.39C1230.97 1141.47 1236.37 1127.81 1242.67 1114.48C1242.67 1141.57 1227.5 1187.43 1217.52 1212.51C1210.33 1230.6 1193.64 1268.01 1193.64 1268.01C1228.71 1275.85 1260.93 1284.01 1284.56 1289.72C1311.7 1296.28 1336.42 1303.76 1358.48 1310.19C1360.28 1310.71 1361.9 1311.63 1363.19 1312.87C1364.48 1314.11 1365.39 1315.62 1365.84 1317.26C1366.29 1318.9 1366.27 1320.61 1365.77 1322.24C1365.27 1323.87 1364.31 1325.36 1362.99 1326.56C1331.55 1357.34 1304.59 1398.86 1261.9 1418.44C1302.31 1516.51 1362.22 1604 1416.26 1696.21C1451.97 1757.15 1513.1 1845.2 1577.08 1898.78C1576.76 1915.4 1574.91 1931.97 1571.55 1948.31Z" fill="#364442"/>
<path d="M1259.37 703.947C1245.51 672.655 1237 639.676 1234.14 606.12C1216.96 426.489 1380.38 217.336 1583.29 194.261C1765.44 173.549 1941.73 176.553 2077.46 303.635C2119.1 342.615 2221.75 464.232 2129.6 529.085C2060.52 577.703 1951.36 513.199 1872.87 560.362C1836.85 582.006 1796.33 604.292 1776.44 639.728C1757.79 672.925 1756.21 711.414 1739.07 744.581C1716.48 788.28 1641.1 838.062 1588.28 847.408C1510.65 861.143 1404.13 840.188 1340.15 798.82C1303.75 774.633 1275.74 741.744 1259.37 703.947V703.947Z" fill="#205965"/>
<path d="M1647.63 641.264C1688.77 621.006 1727.89 596.358 1768.59 574.962C1761.72 582.552 1755.9 590.862 1751.28 599.709C1734.16 632.907 1732.71 671.396 1716.96 704.563C1696.23 748.263 1627 798.043 1578.48 807.389C1507.2 821.124 1409.37 800.17 1350.62 758.802C1316.61 733.865 1290.94 701.04 1276.44 663.928C1265.36 636.828 1258.08 608.609 1254.76 579.912C1358.16 675.382 1519.04 704.6 1647.63 641.264Z" fill="#1E4951"/>
<path d="M2395.52 2438.38C2353.53 2388.07 2291.26 2384.68 2227.96 2384.87C2257.42 2322.14 2275.21 2247.05 2259.83 2179.01C2368.12 2142.78 2485.15 2132.59 2599.23 2149.46C2608.91 2216.87 2632.69 2299.17 2617.82 2344.76C2578.06 2466.63 2481.14 2583.18 2456.73 2595.26C2453.81 2596.4 2429.8 2479.45 2395.52 2438.38Z" fill="#364442"/>
<path d="M616.106 3688.45L3277.76 3688.45V3216.63L616.106 3216.63V3688.45Z" fill="#BEB3AD"/>
<path d="M616.106 2775.4L3277.76 2775.4V2678.41L616.106 2678.41V2775.4Z" fill="#BEB3AD"/>
<path d="M1238.66 3216.63C1299.84 3363.14 1362.26 3507.45 1426.43 3648.54C1432.5 3661.88 1438.59 3675.19 1444.7 3688.45H583.948V3216.63H1238.66Z" fill="#AAA19E"/>
<path d="M1579.66 2048.8C1579.97 2044.9 1581.56 2041.17 1584.22 2038.06C1586.88 2034.95 1590.49 2032.61 1594.62 2031.31C1598.75 2030.01 1603.21 2029.82 1607.46 2030.76C1611.71 2031.7 1615.56 2033.72 1618.54 2036.58C1621.52 2039.45 1623.5 2043.03 1624.23 2046.88C1624.97 2050.74 1624.43 2054.7 1622.68 2058.28C1620.93 2061.87 1618.05 2064.92 1614.39 2067.06C1610.73 2069.2 1606.45 2070.34 1602.07 2070.34C1595.9 2070.13 1590.08 2067.75 1585.88 2063.71C1581.68 2059.67 1579.44 2054.31 1579.66 2048.8Z" fill="#364442"/>
<path d="M1579.66 2193.05C1579.97 2189.15 1581.56 2185.42 1584.22 2182.32C1586.88 2179.21 1590.49 2176.86 1594.62 2175.57C1598.75 2174.27 1603.21 2174.08 1607.46 2175.01C1611.71 2175.95 1615.56 2177.98 1618.54 2180.84C1621.52 2183.7 1623.5 2187.28 1624.23 2191.14C1624.97 2194.99 1624.43 2198.95 1622.68 2202.54C1620.93 2206.12 1618.05 2209.17 1614.39 2211.32C1610.73 2213.46 1606.45 2214.6 1602.07 2214.6C1595.9 2214.39 1590.08 2212 1585.88 2207.97C1581.68 2203.93 1579.44 2198.56 1579.66 2193.05Z" fill="#364442"/>
<path d="M1610.27 1315.53C1650.46 1305.32 1679.93 1221.52 1633.5 1217.56C1601.42 1214.81 1565.22 1210.61 1560.95 1235.59C1558.6 1249.17 1572.99 1325 1610.27 1315.53Z" fill="#BF4F63"/>
<path d="M1064.78 1835.29H1323.79V1744.55H1064.78V1835.29Z" fill="#E2A055"/>
<path d="M2247.78 2376.82C2274.22 2376.62 2297.61 2376.82 2321.61 2387.87C2346.36 2399.97 2368.67 2415.67 2387.61 2434.35C2422.95 2467.63 2456.72 2506.68 2456.72 2553.99C2456.72 2576.99 2423.77 2582.31 2417.31 2580.24C2413.32 2578.96 2435.58 2569.05 2434.87 2552.94C2433.07 2511.4 2402.11 2476.22 2371.31 2447.24C2355.83 2432.16 2338.09 2419.09 2318.58 2408.39C2295.05 2395.95 2272.8 2395.63 2246.31 2395.84C2232.18 2395.94 2233.88 2376.94 2247.78 2376.82Z" fill="white"/>
<path d="M2353.86 2571.31C2354.89 2566.78 2354.4 2562.07 2352.46 2557.77C2334.73 2514.94 2281.7 2475.33 2236.78 2454.44C2192.14 2433.68 2116.66 2429.16 2129.06 2486.6C2141.33 2543.5 2213.26 2592.99 2271.47 2612.57C2295.09 2620.51 2324.04 2626.33 2343.99 2616.79C2363.58 2607.43 2362.81 2589.31 2353.86 2571.31Z" fill="#9EBAC3"/>
<path d="M2365.74 2462.51C2364.23 2460.25 2338.6 2448.63 2323.33 2434.73C2308.05 2420.82 2320.82 2416.82 2294.53 2395.47C2287.33 2389.61 2260.49 2392.77 2248.7 2378.72C2241.2 2369.82 2230.89 2363.15 2219.09 2359.56C2191.88 2353.61 2165.43 2355.75 2151.95 2373.63C2146.42 2381.21 2108.29 2406.42 2096.52 2413.03C2085.91 2419 2066 2434.72 2048.13 2443.45C2047.73 2443.62 1980.37 2468.22 1979.24 2468.57C1979 2468.64 1978.79 2468.73 1978.54 2468.8C1965.92 2472.62 1953.75 2499.07 1966.19 2505.08C1973.36 2508.54 2033.25 2512.28 2057.69 2506.6C2066.43 2504.29 2074.7 2500.74 2082.17 2496.08C2058.76 2542.3 2041.48 2590.75 2073.82 2598.28C2104.4 2611.07 2164.98 2506.07 2195.82 2454.15C2205 2449.69 2214.5 2445.76 2224.25 2442.38C2208.19 2459.62 2193.16 2498.59 2171.26 2529.54C2139.82 2573.97 2103.71 2608.74 2143.42 2625.72C2187.96 2651.51 2300.56 2470.81 2301.75 2471.74C2306.1 2475.69 2309.55 2480.36 2311.9 2485.49C2269.96 2534.33 2186.32 2645.14 2205.29 2655.56C2245.8 2677.21 2314.29 2594.63 2336.89 2559.18C2339.21 2566.17 2341.21 2570.64 2342.9 2570.72C2319.35 2593 2271.46 2655.44 2287.93 2673.36C2324.11 2690.27 2397.51 2590.92 2399.58 2564.02C2401.38 2540.63 2396.8 2539.27 2378.01 2511.2C2368.62 2497.11 2375.02 2476.36 2365.74 2462.51Z" fill="white"/>
<path d="M2079.45 2501.55C2079.45 2501.55 2086.65 2464.51 2097.54 2430.67C2138.45 2415.74 2152.86 2379.81 2167.24 2381.25C2157.47 2405.99 2112.72 2477.37 2079.45 2501.55Z" fill="#B1D5E2"/>
<path d="M2354.32 2568.57C2346.24 2586.2 2325.85 2599.77 2313.31 2614.77C2311.37 2617.1 2295.17 2611.93 2293.45 2613.67C2320.73 2588.89 2341.05 2558.7 2352.76 2525.56C2356.64 2518.41 2365.63 2523.27 2374.94 2524.54C2365.33 2542.03 2363.65 2548.19 2354.32 2568.57Z" fill="#B1D5E2"/>
<path d="M2207.02 2484.27C2189.53 2510.01 2174.26 2537.54 2156.28 2562.37C2153.49 2566.22 2144.72 2566.17 2142.22 2569.08C2196.61 2487.29 2201 2452.45 2206.58 2416.87C2211.91 2405.23 2230.44 2400.94 2244.91 2402.09C2233.93 2430.96 2223.58 2459.9 2207.02 2484.27Z" fill="#B1D5E2"/>
<path d="M2288.89 2533.05C2272.54 2554.87 2255.89 2577.28 2239 2598.3C2236.39 2601.55 2224.01 2604.35 2221.65 2606.8C2259.53 2548.88 2283.35 2506.65 2285.89 2474.51C2290.77 2464.57 2308.94 2461.4 2323.33 2462.84C2313.54 2487.58 2304.38 2512.39 2288.89 2533.05Z" fill="#B1D5E2"/>
<path d="M982.339 2627.5C990.614 2631.07 999.8 2632.6 1008.96 2631.96C1018.11 2631.31 1026.92 2628.51 1034.46 2623.83C1038.37 2621.46 1072.13 2588.24 1070.65 2584.65C1069.85 2582.73 1038.32 2603.64 1025.83 2598.03C1000.52 2586.69 986.8 2539.08 1012.26 2475.91C1024.78 2444.89 1058.67 2394.25 1097.6 2383.65L1065.76 2372.09C1031 2391.47 1007.31 2429.59 993.905 2464.59C974.998 2513.94 938.894 2603.2 982.339 2627.5Z" fill="white"/>
<path d="M3190.74 2697.75C3194.92 2697.75 3199.14 2697.88 3203.38 2698.06C3198.68 2697.89 3193.93 2697.81 3189.14 2697.78C3189.67 2697.78 3190.22 2697.75 3190.74 2697.75Z" fill="#E2A055"/>
<path d="M2873.98 2341.36H2901.41V2276.73H2873.98V2341.36Z" fill="#E2A055"/>
<path d="M2741.63 2427.25V2427.31C2741.63 2462.87 2805.05 2491.71 2883.27 2491.71C2961.5 2491.71 3024.92 2462.87 3024.92 2427.31C3024.9 2422.85 3023.92 2418.44 3022.03 2414.31C3046.85 2437.7 3060.57 2468.77 3060.3 2501C3060.3 2501 3028.43 2564.65 2886.79 2568.93C2740.72 2564.65 2715.05 2501.97 2715.05 2501.97C2714.82 2475.18 2724.12 2449.01 2741.63 2427.25Z" fill="#CF9150"/>
<path d="M2887.7 2328.74C2984.55 2328.74 3063.07 2365.96 3063.07 2454.77C3063.07 2454.77 3013.74 2509.83 2887.7 2509.3C2753.98 2509.83 2712.33 2454.77 2712.33 2454.77C2712.33 2365.96 2790.84 2328.74 2887.7 2328.74Z" fill="#E2A055"/>
<path d="M2901.41 2341.36C2971.15 2343.61 3026.53 2378.45 3026.53 2457.89C3004.17 2467.7 2980.94 2475.85 2957.09 2482.27C2958.86 2424.19 2939.79 2376.44 2901.41 2341.36Z" fill="#E5B57E"/>
<path d="M2999.71 2440.25C2996.93 2419.22 2987.42 2399.36 2972.33 2383.04C2956.22 2366.72 2934.41 2357.79 2913.06 2348.22C2964.56 2355.23 3004.85 2382.56 3014.88 2435.86C3009.89 2437.52 3004.87 2439.03 2999.71 2440.25Z" fill="white"/>
<path d="M2887.69 2285.64C2911.3 2285.64 2930.43 2280.14 2930.43 2273.36C2930.43 2266.59 2911.3 2261.09 2887.69 2261.09C2864.09 2261.09 2844.95 2266.59 2844.95 2273.36C2844.95 2280.14 2864.09 2285.64 2887.69 2285.64Z" fill="#CF9150"/>
<path d="M2715.89 2488.24V2488.29C2715.89 2522.08 2790.48 2549.47 2882.49 2549.47H2892.93C2984.94 2549.47 3059.53 2522.08 3059.53 2488.29V2488.24C3079.52 2507.58 3090.67 2532.91 3090.78 2559.23C3090.78 2559.23 3060.58 2618.77 2888.77 2622.83C2888.42 2622.83 2887.05 2622.83 2886.68 2622.83C2714.88 2618.77 2684.68 2559.23 2684.68 2559.23C2684.79 2532.91 2695.92 2507.58 2715.89 2488.24V2488.24Z" fill="#E2A055"/>
<path d="M3032.83 2528.59C3060.77 2541.7 3062.67 2572.11 3063.07 2575.84C3042.43 2590.5 3017.99 2600.27 2992 2604.25C2992.47 2584.35 2986.25 2564.79 2974.14 2548.09C2994.94 2545.07 3014.87 2538.44 3032.83 2528.59V2528.59Z" fill="#E5B57E"/>
<path d="M3014.88 2538.91C3017.58 2537.58 3020.23 2536.19 3022.82 2534.65C3050.76 2547.77 3052.66 2578.21 3053.05 2581.91C3050.53 2583.64 3047.65 2585.49 3044.6 2587.37C3039.5 2569.21 3029.27 2552.52 3014.88 2538.91Z" fill="white"/>
<path d="M2887.69 2282.21C2911.3 2282.21 2930.43 2276.72 2930.43 2269.94C2930.43 2263.16 2911.3 2257.66 2887.69 2257.66C2864.09 2257.66 2844.95 2263.16 2844.95 2269.94C2844.95 2276.72 2864.09 2282.21 2887.69 2282.21Z" fill="#E2A055"/>
<path d="M2860.82 2319.19C2860.82 2316.22 2872.84 2313.82 2887.67 2313.82C2902.5 2313.82 2914.53 2316.22 2914.53 2319.19C2914.53 2322.16 2902.5 2324.57 2887.67 2324.57C2872.84 2324.57 2860.82 2322.16 2860.82 2319.19Z" fill="#E2A055"/>
<path d="M2887.7 2345.86C2878.33 2346.4 2868.98 2344.45 2860.84 2340.26V2319.18C2869.59 2321.31 2878.64 2322.27 2887.7 2322.03C2896.71 2321.56 2905.67 2320.61 2914.55 2319.18V2341.36C2906.05 2344.51 2896.9 2346.04 2887.7 2345.86Z" fill="#CF9150"/>
<path d="M2877.33 2316.56L2878.03 2283.41H2886.24V2317.6C2883.22 2318.12 2880.1 2317.75 2877.33 2316.56V2316.56Z" fill="#CF9150"/>
<path d="M1017.22 2480.21L1448.94 2787.7C1554.09 2758.63 1960.02 2692.02 2146.44 2716.4C2015.79 2608.65 1878.48 2507.53 1735.16 2413.51C1619.61 2391.14 1138.3 2447.02 1017.22 2480.21Z" fill="#B1D5E2"/>
<path d="M1437.29 2482.81C1453.29 2485.1 1514.14 2475.4 1512.19 2453.82C1511.23 2443.21 1484.04 2443.34 1474.41 2440.89C1456.94 2435.68 1439.85 2429.5 1423.24 2422.41C1399.63 2413.42 1375.78 2403.57 1353.13 2392.78C1317.3 2375.7 1290.29 2356.83 1247.42 2361.51C1223.64 2364.12 1200.19 2368.47 1176.67 2372.48C1153.27 2376.48 1126.05 2376.21 1103.48 2382.09C1066.49 2391.68 1045.27 2401.94 1015.1 2455.89C1009.53 2465.9 995.311 2521.18 1008.83 2530.41C1039.75 2551.5 1078.7 2560.15 1111.72 2577.73C1116.63 2586.56 1139.55 2595.76 1150.11 2601.98C1171.43 2614.55 1192.77 2627.1 1214.49 2639.12C1245.18 2656.1 1297.06 2692.4 1335.8 2689.43C1371.79 2686.67 1323.7 2649.97 1313.56 2641.7C1342.92 2656.93 1373.25 2670.6 1404.41 2682.65C1420.05 2688.25 1438.96 2695.23 1455.9 2685.88C1483.56 2670.61 1418.41 2633.08 1406.31 2625.23C1377.14 2606.27 1345.93 2589.86 1316.67 2571.2C1340.72 2581.7 1373.27 2596.82 1387 2603.66C1408.86 2614.56 1472.03 2637.14 1502.69 2639.97C1517.27 2641.31 1537.72 2621.44 1508.26 2598.24C1520.78 2605.66 1555.58 2630.98 1572.54 2621.3C1585.83 2613.73 1577.78 2598.3 1570.34 2590.26C1532.4 2549.12 1468 2521.92 1437.29 2482.81ZM1436.42 2560.53C1428.97 2556.63 1421.76 2552.35 1414.85 2547.71C1421.2 2545.03 1424.64 2542.49 1424.33 2540.18C1446.31 2556.58 1468.66 2572.58 1489.24 2586.1C1474.3 2578.06 1455.44 2570 1436.42 2560.5V2560.53Z" fill="white"/>
<path d="M1013.06 2453.62C1043.2 2409.8 1064.41 2401.47 1101.44 2393.68C1107.18 2392.51 1112.99 2391.59 1118.83 2390.95C1080.71 2436.77 1069.67 2488.27 1075.4 2540.14C1051.74 2532.54 1027.49 2525.6 1006.83 2514.15C993.272 2506.67 1007.47 2461.75 1013.06 2453.62Z" fill="#B1D5E2"/>
<path d="M1282.94 2573.42C1308.96 2585.62 1331.31 2589.98 1357.36 2601.25C1361.41 2603 1383.6 2602.49 1386.98 2603.64C1316.65 2571.17 1273.16 2547.73 1247.54 2528.28C1243.28 2524.59 1237.68 2522.37 1231.75 2522.03C1225.83 2521.69 1219.96 2523.24 1215.2 2526.42C1237 2543.96 1258.3 2561.87 1282.94 2573.42Z" fill="#B1D5E2"/>
<path d="M1357.16 2528.28C1381.1 2545.19 1396.53 2546.43 1430.93 2557.55C1437.75 2556.97 1444.61 2556.97 1451.44 2557.55C1415.84 2532.92 1348.14 2502.59 1313.03 2462.83C1303.46 2456.14 1290.63 2466.56 1278.75 2473.99C1300.53 2491.56 1335.33 2512.86 1357.16 2528.28Z" fill="#B1D5E2"/>
<path d="M1195.77 2600.63C1215.87 2606.99 1236.44 2613.58 1256.39 2619.28C1259.48 2620.17 1262.24 2620.87 1264.74 2621.4C1236.21 2601.88 1187.5 2578.34 1166.32 2567.06C1158.52 2563.23 1147.33 2567.88 1140.57 2573.73C1157.82 2584.48 1176.33 2593.49 1195.77 2600.63V2600.63Z" fill="#B1D5E2"/>
<path d="M1403.23 2460.68C1413.91 2468.85 1425.3 2476.24 1437.29 2482.78C1437.59 2470.95 1434.57 2459.24 1428.51 2448.72C1422.45 2438.2 1413.54 2429.2 1402.6 2422.54C1396.22 2417 1365.62 2398.19 1357.36 2402.24C1357.16 2426.6 1387.99 2448.86 1403.23 2460.68Z" fill="#B1D5E2"/>
</g>
<defs>
<clipPath id="clip0_1_707">
<rect width="3531" height="3508" fill="white"/>
</clipPath>
</defs>
</svg>
