<?xml version="1.0" encoding="UTF-8"?>
<svg xmlns="http://www.w3.org/2000/svg" xmlns:xlink="http://www.w3.org/1999/xlink" width="480px" height="417px" viewBox="0 0 479 417" version="1.1">
<defs>
<clipPath id="clip1">
  <path d="M 87 404 L 474 404 L 474 416.867188 L 87 416.867188 Z M 87 404 "/>
</clipPath>
<clipPath id="clip2">
  <path d="M 55.226562 0 L 681.742188 0 C 712.242188 0 736.96875 24.765625 736.96875 55.316406 L 736.96875 361.550781 C 736.96875 392.101562 712.242188 416.867188 681.742188 416.867188 L 55.226562 416.867188 C 24.726562 416.867188 0 392.101562 0 361.550781 L 0 55.316406 C 0 24.765625 24.726562 0 55.226562 0 Z M 55.226562 0 "/>
</clipPath>
<clipPath id="clip3">
  <path d="M 478.976562 539.207031 L 28.855469 539.207031 C 11.5625 539.207031 -2.457031 525.167969 -2.457031 507.84375 L -2.457031 -0.449219 C -2.457031 -17.769531 11.5625 -31.8125 28.855469 -31.8125 L 478.976562 -31.8125 C 496.269531 -31.8125 510.289062 -17.769531 510.289062 -0.449219 L 510.289062 507.84375 C 510.289062 525.167969 496.269531 539.207031 478.976562 539.207031 Z M 478.976562 539.207031 "/>
</clipPath>
<clipPath id="clip4">
  <path d="M 271 30 L 317 30 L 317 106 L 271 106 Z M 271 30 "/>
</clipPath>
<clipPath id="clip5">
  <path d="M 55.226562 0 L 681.742188 0 C 712.242188 0 736.96875 24.765625 736.96875 55.316406 L 736.96875 361.550781 C 736.96875 392.101562 712.242188 416.867188 681.742188 416.867188 L 55.226562 416.867188 C 24.726562 416.867188 0 392.101562 0 361.550781 L 0 55.316406 C 0 24.765625 24.726562 0 55.226562 0 Z M 55.226562 0 "/>
</clipPath>
<clipPath id="clip6">
  <path d="M 478.976562 539.207031 L 28.855469 539.207031 C 11.5625 539.207031 -2.457031 525.167969 -2.457031 507.84375 L -2.457031 -0.449219 C -2.457031 -17.769531 11.5625 -31.8125 28.855469 -31.8125 L 478.976562 -31.8125 C 496.269531 -31.8125 510.289062 -17.769531 510.289062 -0.449219 L 510.289062 507.84375 C 510.289062 525.167969 496.269531 539.207031 478.976562 539.207031 Z M 478.976562 539.207031 "/>
</clipPath>
<clipPath id="clip7">
  <path d="M 189 53 L 307 53 L 307 175 L 189 175 Z M 189 53 "/>
</clipPath>
<clipPath id="clip8">
  <path d="M 55.226562 0 L 681.742188 0 C 712.242188 0 736.96875 24.765625 736.96875 55.316406 L 736.96875 361.550781 C 736.96875 392.101562 712.242188 416.867188 681.742188 416.867188 L 55.226562 416.867188 C 24.726562 416.867188 0 392.101562 0 361.550781 L 0 55.316406 C 0 24.765625 24.726562 0 55.226562 0 Z M 55.226562 0 "/>
</clipPath>
<clipPath id="clip9">
  <path d="M 478.976562 539.207031 L 28.855469 539.207031 C 11.5625 539.207031 -2.457031 525.167969 -2.457031 507.84375 L -2.457031 -0.449219 C -2.457031 -17.769531 11.5625 -31.8125 28.855469 -31.8125 L 478.976562 -31.8125 C 496.269531 -31.8125 510.289062 -17.769531 510.289062 -0.449219 L 510.289062 507.84375 C 510.289062 525.167969 496.269531 539.207031 478.976562 539.207031 Z M 478.976562 539.207031 "/>
</clipPath>
<clipPath id="clip10">
  <path d="M 230 97 L 255 97 L 255 149 L 230 149 Z M 230 97 "/>
</clipPath>
<clipPath id="clip11">
  <path d="M 55.226562 0 L 681.742188 0 C 712.242188 0 736.96875 24.765625 736.96875 55.316406 L 736.96875 361.550781 C 736.96875 392.101562 712.242188 416.867188 681.742188 416.867188 L 55.226562 416.867188 C 24.726562 416.867188 0 392.101562 0 361.550781 L 0 55.316406 C 0 24.765625 24.726562 0 55.226562 0 Z M 55.226562 0 "/>
</clipPath>
<clipPath id="clip12">
  <path d="M 478.976562 539.207031 L 28.855469 539.207031 C 11.5625 539.207031 -2.457031 525.167969 -2.457031 507.84375 L -2.457031 -0.449219 C -2.457031 -17.769531 11.5625 -31.8125 28.855469 -31.8125 L 478.976562 -31.8125 C 496.269531 -31.8125 510.289062 -17.769531 510.289062 -0.449219 L 510.289062 507.84375 C 510.289062 525.167969 496.269531 539.207031 478.976562 539.207031 Z M 478.976562 539.207031 "/>
</clipPath>
<clipPath id="clip13">
  <path d="M 293 61 L 305 61 L 305 124 L 293 124 Z M 293 61 "/>
</clipPath>
<clipPath id="clip14">
  <path d="M 55.226562 0 L 681.742188 0 C 712.242188 0 736.96875 24.765625 736.96875 55.316406 L 736.96875 361.550781 C 736.96875 392.101562 712.242188 416.867188 681.742188 416.867188 L 55.226562 416.867188 C 24.726562 416.867188 0 392.101562 0 361.550781 L 0 55.316406 C 0 24.765625 24.726562 0 55.226562 0 Z M 55.226562 0 "/>
</clipPath>
<clipPath id="clip15">
  <path d="M 478.976562 539.207031 L 28.855469 539.207031 C 11.5625 539.207031 -2.457031 525.167969 -2.457031 507.84375 L -2.457031 -0.449219 C -2.457031 -17.769531 11.5625 -31.8125 28.855469 -31.8125 L 478.976562 -31.8125 C 496.269531 -31.8125 510.289062 -17.769531 510.289062 -0.449219 L 510.289062 507.84375 C 510.289062 525.167969 496.269531 539.207031 478.976562 539.207031 Z M 478.976562 539.207031 "/>
</clipPath>
<clipPath id="clip16">
  <path d="M 65 359 L 474 359 L 474 405 L 65 405 Z M 65 359 "/>
</clipPath>
<clipPath id="clip17">
  <path d="M 55.226562 0 L 681.742188 0 C 712.242188 0 736.96875 24.765625 736.96875 55.316406 L 736.96875 361.550781 C 736.96875 392.101562 712.242188 416.867188 681.742188 416.867188 L 55.226562 416.867188 C 24.726562 416.867188 0 392.101562 0 361.550781 L 0 55.316406 C 0 24.765625 24.726562 0 55.226562 0 Z M 55.226562 0 "/>
</clipPath>
<clipPath id="clip18">
  <path d="M 478.976562 539.207031 L 28.855469 539.207031 C 11.5625 539.207031 -2.457031 525.167969 -2.457031 507.84375 L -2.457031 -0.449219 C -2.457031 -17.769531 11.5625 -31.8125 28.855469 -31.8125 L 478.976562 -31.8125 C 496.269531 -31.8125 510.289062 -17.769531 510.289062 -0.449219 L 510.289062 507.84375 C 510.289062 525.167969 496.269531 539.207031 478.976562 539.207031 Z M 478.976562 539.207031 "/>
</clipPath>
<clipPath id="clip19">
  <path d="M 65 359 L 88 359 L 88 416.867188 L 65 416.867188 Z M 65 359 "/>
</clipPath>
<clipPath id="clip20">
  <path d="M 55.226562 0 L 681.742188 0 C 712.242188 0 736.96875 24.765625 736.96875 55.316406 L 736.96875 361.550781 C 736.96875 392.101562 712.242188 416.867188 681.742188 416.867188 L 55.226562 416.867188 C 24.726562 416.867188 0 392.101562 0 361.550781 L 0 55.316406 C 0 24.765625 24.726562 0 55.226562 0 Z M 55.226562 0 "/>
</clipPath>
<clipPath id="clip21">
  <path d="M 478.976562 539.207031 L 28.855469 539.207031 C 11.5625 539.207031 -2.457031 525.167969 -2.457031 507.84375 L -2.457031 -0.449219 C -2.457031 -17.769531 11.5625 -31.8125 28.855469 -31.8125 L 478.976562 -31.8125 C 496.269531 -31.8125 510.289062 -17.769531 510.289062 -0.449219 L 510.289062 507.84375 C 510.289062 525.167969 496.269531 539.207031 478.976562 539.207031 Z M 478.976562 539.207031 "/>
</clipPath>
<clipPath id="clip22">
  <path d="M 233 68 L 307 68 L 307 133 L 233 133 Z M 233 68 "/>
</clipPath>
<clipPath id="clip23">
  <path d="M 55.226562 0 L 681.742188 0 C 712.242188 0 736.96875 24.765625 736.96875 55.316406 L 736.96875 361.550781 C 736.96875 392.101562 712.242188 416.867188 681.742188 416.867188 L 55.226562 416.867188 C 24.726562 416.867188 0 392.101562 0 361.550781 L 0 55.316406 C 0 24.765625 24.726562 0 55.226562 0 Z M 55.226562 0 "/>
</clipPath>
<clipPath id="clip24">
  <path d="M 478.976562 539.207031 L 28.855469 539.207031 C 11.5625 539.207031 -2.457031 525.167969 -2.457031 507.84375 L -2.457031 -0.449219 C -2.457031 -17.769531 11.5625 -31.8125 28.855469 -31.8125 L 478.976562 -31.8125 C 496.269531 -31.8125 510.289062 -17.769531 510.289062 -0.449219 L 510.289062 507.84375 C 510.289062 525.167969 496.269531 539.207031 478.976562 539.207031 Z M 478.976562 539.207031 "/>
</clipPath>
<clipPath id="clip25">
  <path d="M 195 139 L 263 139 L 263 253 L 195 253 Z M 195 139 "/>
</clipPath>
<clipPath id="clip26">
  <path d="M 55.226562 0 L 681.742188 0 C 712.242188 0 736.96875 24.765625 736.96875 55.316406 L 736.96875 361.550781 C 736.96875 392.101562 712.242188 416.867188 681.742188 416.867188 L 55.226562 416.867188 C 24.726562 416.867188 0 392.101562 0 361.550781 L 0 55.316406 C 0 24.765625 24.726562 0 55.226562 0 Z M 55.226562 0 "/>
</clipPath>
<clipPath id="clip27">
  <path d="M 478.976562 539.207031 L 28.855469 539.207031 C 11.5625 539.207031 -2.457031 525.167969 -2.457031 507.84375 L -2.457031 -0.449219 C -2.457031 -17.769531 11.5625 -31.8125 28.855469 -31.8125 L 478.976562 -31.8125 C 496.269531 -31.8125 510.289062 -17.769531 510.289062 -0.449219 L 510.289062 507.84375 C 510.289062 525.167969 496.269531 539.207031 478.976562 539.207031 Z M 478.976562 539.207031 "/>
</clipPath>
<clipPath id="clip28">
  <path d="M 194 141 L 202 141 L 202 167 L 194 167 Z M 194 141 "/>
</clipPath>
<clipPath id="clip29">
  <path d="M 55.226562 0 L 681.742188 0 C 712.242188 0 736.96875 24.765625 736.96875 55.316406 L 736.96875 361.550781 C 736.96875 392.101562 712.242188 416.867188 681.742188 416.867188 L 55.226562 416.867188 C 24.726562 416.867188 0 392.101562 0 361.550781 L 0 55.316406 C 0 24.765625 24.726562 0 55.226562 0 Z M 55.226562 0 "/>
</clipPath>
<clipPath id="clip30">
  <path d="M 478.976562 539.207031 L 28.855469 539.207031 C 11.5625 539.207031 -2.457031 525.167969 -2.457031 507.84375 L -2.457031 -0.449219 C -2.457031 -17.769531 11.5625 -31.8125 28.855469 -31.8125 L 478.976562 -31.8125 C 496.269531 -31.8125 510.289062 -17.769531 510.289062 -0.449219 L 510.289062 507.84375 C 510.289062 525.167969 496.269531 539.207031 478.976562 539.207031 Z M 478.976562 539.207031 "/>
</clipPath>
<clipPath id="clip31">
  <path d="M 256 149 L 263 149 L 263 164 L 256 164 Z M 256 149 "/>
</clipPath>
<clipPath id="clip32">
  <path d="M 55.226562 0 L 681.742188 0 C 712.242188 0 736.96875 24.765625 736.96875 55.316406 L 736.96875 361.550781 C 736.96875 392.101562 712.242188 416.867188 681.742188 416.867188 L 55.226562 416.867188 C 24.726562 416.867188 0 392.101562 0 361.550781 L 0 55.316406 C 0 24.765625 24.726562 0 55.226562 0 Z M 55.226562 0 "/>
</clipPath>
<clipPath id="clip33">
  <path d="M 478.976562 539.207031 L 28.855469 539.207031 C 11.5625 539.207031 -2.457031 525.167969 -2.457031 507.84375 L -2.457031 -0.449219 C -2.457031 -17.769531 11.5625 -31.8125 28.855469 -31.8125 L 478.976562 -31.8125 C 496.269531 -31.8125 510.289062 -17.769531 510.289062 -0.449219 L 510.289062 507.84375 C 510.289062 525.167969 496.269531 539.207031 478.976562 539.207031 Z M 478.976562 539.207031 "/>
</clipPath>
<clipPath id="clip34">
  <path d="M 214 176 L 243 176 L 243 254 L 214 254 Z M 214 176 "/>
</clipPath>
<clipPath id="clip35">
  <path d="M 55.226562 0 L 681.742188 0 C 712.242188 0 736.96875 24.765625 736.96875 55.316406 L 736.96875 361.550781 C 736.96875 392.101562 712.242188 416.867188 681.742188 416.867188 L 55.226562 416.867188 C 24.726562 416.867188 0 392.101562 0 361.550781 L 0 55.316406 C 0 24.765625 24.726562 0 55.226562 0 Z M 55.226562 0 "/>
</clipPath>
<clipPath id="clip36">
  <path d="M 478.976562 539.207031 L 28.855469 539.207031 C 11.5625 539.207031 -2.457031 525.167969 -2.457031 507.84375 L -2.457031 -0.449219 C -2.457031 -17.769531 11.5625 -31.8125 28.855469 -31.8125 L 478.976562 -31.8125 C 496.269531 -31.8125 510.289062 -17.769531 510.289062 -0.449219 L 510.289062 507.84375 C 510.289062 525.167969 496.269531 539.207031 478.976562 539.207031 Z M 478.976562 539.207031 "/>
</clipPath>
<clipPath id="clip37">
  <path d="M 219 180 L 237 180 L 237 205 L 219 205 Z M 219 180 "/>
</clipPath>
<clipPath id="clip38">
  <path d="M 55.226562 0 L 681.742188 0 C 712.242188 0 736.96875 24.765625 736.96875 55.316406 L 736.96875 361.550781 C 736.96875 392.101562 712.242188 416.867188 681.742188 416.867188 L 55.226562 416.867188 C 24.726562 416.867188 0 392.101562 0 361.550781 L 0 55.316406 C 0 24.765625 24.726562 0 55.226562 0 Z M 55.226562 0 "/>
</clipPath>
<clipPath id="clip39">
  <path d="M 478.976562 539.207031 L 28.855469 539.207031 C 11.5625 539.207031 -2.457031 525.167969 -2.457031 507.84375 L -2.457031 -0.449219 C -2.457031 -17.769531 11.5625 -31.8125 28.855469 -31.8125 L 478.976562 -31.8125 C 496.269531 -31.8125 510.289062 -17.769531 510.289062 -0.449219 L 510.289062 507.84375 C 510.289062 525.167969 496.269531 539.207031 478.976562 539.207031 Z M 478.976562 539.207031 "/>
</clipPath>
<clipPath id="clip40">
  <path d="M 215 215 L 238 215 L 238 253 L 215 253 Z M 215 215 "/>
</clipPath>
<clipPath id="clip41">
  <path d="M 55.226562 0 L 681.742188 0 C 712.242188 0 736.96875 24.765625 736.96875 55.316406 L 736.96875 361.550781 C 736.96875 392.101562 712.242188 416.867188 681.742188 416.867188 L 55.226562 416.867188 C 24.726562 416.867188 0 392.101562 0 361.550781 L 0 55.316406 C 0 24.765625 24.726562 0 55.226562 0 Z M 55.226562 0 "/>
</clipPath>
<clipPath id="clip42">
  <path d="M 478.976562 539.207031 L 28.855469 539.207031 C 11.5625 539.207031 -2.457031 525.167969 -2.457031 507.84375 L -2.457031 -0.449219 C -2.457031 -17.769531 11.5625 -31.8125 28.855469 -31.8125 L 478.976562 -31.8125 C 496.269531 -31.8125 510.289062 -17.769531 510.289062 -0.449219 L 510.289062 507.84375 C 510.289062 525.167969 496.269531 539.207031 478.976562 539.207031 Z M 478.976562 539.207031 "/>
</clipPath>
<clipPath id="clip43">
  <path d="M 34 141 L 379 141 L 379 400 L 34 400 Z M 34 141 "/>
</clipPath>
<clipPath id="clip44">
  <path d="M 55.226562 0 L 681.742188 0 C 712.242188 0 736.96875 24.765625 736.96875 55.316406 L 736.96875 361.550781 C 736.96875 392.101562 712.242188 416.867188 681.742188 416.867188 L 55.226562 416.867188 C 24.726562 416.867188 0 392.101562 0 361.550781 L 0 55.316406 C 0 24.765625 24.726562 0 55.226562 0 Z M 55.226562 0 "/>
</clipPath>
<clipPath id="clip45">
  <path d="M 478.976562 539.207031 L 28.855469 539.207031 C 11.5625 539.207031 -2.457031 525.167969 -2.457031 507.84375 L -2.457031 -0.449219 C -2.457031 -17.769531 11.5625 -31.8125 28.855469 -31.8125 L 478.976562 -31.8125 C 496.269531 -31.8125 510.289062 -17.769531 510.289062 -0.449219 L 510.289062 507.84375 C 510.289062 525.167969 496.269531 539.207031 478.976562 539.207031 Z M 478.976562 539.207031 "/>
</clipPath>
<clipPath id="clip46">
  <path d="M 232 160 L 258 160 L 258 188 L 232 188 Z M 232 160 "/>
</clipPath>
<clipPath id="clip47">
  <path d="M 55.226562 0 L 681.742188 0 C 712.242188 0 736.96875 24.765625 736.96875 55.316406 L 736.96875 361.550781 C 736.96875 392.101562 712.242188 416.867188 681.742188 416.867188 L 55.226562 416.867188 C 24.726562 416.867188 0 392.101562 0 361.550781 L 0 55.316406 C 0 24.765625 24.726562 0 55.226562 0 Z M 55.226562 0 "/>
</clipPath>
<clipPath id="clip48">
  <path d="M 478.976562 539.207031 L 28.855469 539.207031 C 11.5625 539.207031 -2.457031 525.167969 -2.457031 507.84375 L -2.457031 -0.449219 C -2.457031 -17.769531 11.5625 -31.8125 28.855469 -31.8125 L 478.976562 -31.8125 C 496.269531 -31.8125 510.289062 -17.769531 510.289062 -0.449219 L 510.289062 507.84375 C 510.289062 525.167969 496.269531 539.207031 478.976562 539.207031 Z M 478.976562 539.207031 "/>
</clipPath>
<clipPath id="clip49">
  <path d="M 201 160 L 231 160 L 231 187 L 201 187 Z M 201 160 "/>
</clipPath>
<clipPath id="clip50">
  <path d="M 55.226562 0 L 681.742188 0 C 712.242188 0 736.96875 24.765625 736.96875 55.316406 L 736.96875 361.550781 C 736.96875 392.101562 712.242188 416.867188 681.742188 416.867188 L 55.226562 416.867188 C 24.726562 416.867188 0 392.101562 0 361.550781 L 0 55.316406 C 0 24.765625 24.726562 0 55.226562 0 Z M 55.226562 0 "/>
</clipPath>
<clipPath id="clip51">
  <path d="M 478.976562 539.207031 L 28.855469 539.207031 C 11.5625 539.207031 -2.457031 525.167969 -2.457031 507.84375 L -2.457031 -0.449219 C -2.457031 -17.769531 11.5625 -31.8125 28.855469 -31.8125 L 478.976562 -31.8125 C 496.269531 -31.8125 510.289062 -17.769531 510.289062 -0.449219 L 510.289062 507.84375 C 510.289062 525.167969 496.269531 539.207031 478.976562 539.207031 Z M 478.976562 539.207031 "/>
</clipPath>
<clipPath id="clip52">
  <path d="M 136 155 L 291 155 L 291 398 L 136 398 Z M 136 155 "/>
</clipPath>
<clipPath id="clip53">
  <path d="M 55.226562 0 L 681.742188 0 C 712.242188 0 736.96875 24.765625 736.96875 55.316406 L 736.96875 361.550781 C 736.96875 392.101562 712.242188 416.867188 681.742188 416.867188 L 55.226562 416.867188 C 24.726562 416.867188 0 392.101562 0 361.550781 L 0 55.316406 C 0 24.765625 24.726562 0 55.226562 0 Z M 55.226562 0 "/>
</clipPath>
<clipPath id="clip54">
  <path d="M 478.976562 539.207031 L 28.855469 539.207031 C 11.5625 539.207031 -2.457031 525.167969 -2.457031 507.84375 L -2.457031 -0.449219 C -2.457031 -17.769531 11.5625 -31.8125 28.855469 -31.8125 L 478.976562 -31.8125 C 496.269531 -31.8125 510.289062 -17.769531 510.289062 -0.449219 L 510.289062 507.84375 C 510.289062 525.167969 496.269531 539.207031 478.976562 539.207031 Z M 478.976562 539.207031 "/>
</clipPath>
<clipPath id="clip55">
  <path d="M 167 149 L 227 149 L 227 286 L 167 286 Z M 167 149 "/>
</clipPath>
<clipPath id="clip56">
  <path d="M 55.226562 0 L 681.742188 0 C 712.242188 0 736.96875 24.765625 736.96875 55.316406 L 736.96875 361.550781 C 736.96875 392.101562 712.242188 416.867188 681.742188 416.867188 L 55.226562 416.867188 C 24.726562 416.867188 0 392.101562 0 361.550781 L 0 55.316406 C 0 24.765625 24.726562 0 55.226562 0 Z M 55.226562 0 "/>
</clipPath>
<clipPath id="clip57">
  <path d="M 478.976562 539.207031 L 28.855469 539.207031 C 11.5625 539.207031 -2.457031 525.167969 -2.457031 507.84375 L -2.457031 -0.449219 C -2.457031 -17.769531 11.5625 -31.8125 28.855469 -31.8125 L 478.976562 -31.8125 C 496.269531 -31.8125 510.289062 -17.769531 510.289062 -0.449219 L 510.289062 507.84375 C 510.289062 525.167969 496.269531 539.207031 478.976562 539.207031 Z M 478.976562 539.207031 "/>
</clipPath>
<clipPath id="clip58">
  <path d="M 176 0 L 313 0 L 313 107 L 176 107 Z M 176 0 "/>
</clipPath>
<clipPath id="clip59">
  <path d="M 55.226562 0 L 681.742188 0 C 712.242188 0 736.96875 24.765625 736.96875 55.316406 L 736.96875 361.550781 C 736.96875 392.101562 712.242188 416.867188 681.742188 416.867188 L 55.226562 416.867188 C 24.726562 416.867188 0 392.101562 0 361.550781 L 0 55.316406 C 0 24.765625 24.726562 0 55.226562 0 Z M 55.226562 0 "/>
</clipPath>
<clipPath id="clip60">
  <path d="M 478.976562 539.207031 L 28.855469 539.207031 C 11.5625 539.207031 -2.457031 525.167969 -2.457031 507.84375 L -2.457031 -0.449219 C -2.457031 -17.769531 11.5625 -31.8125 28.855469 -31.8125 L 478.976562 -31.8125 C 496.269531 -31.8125 510.289062 -17.769531 510.289062 -0.449219 L 510.289062 507.84375 C 510.289062 525.167969 496.269531 539.207031 478.976562 539.207031 Z M 478.976562 539.207031 "/>
</clipPath>
<clipPath id="clip61">
  <path d="M 179 61 L 255 61 L 255 101 L 179 101 Z M 179 61 "/>
</clipPath>
<clipPath id="clip62">
  <path d="M 55.226562 0 L 681.742188 0 C 712.242188 0 736.96875 24.765625 736.96875 55.316406 L 736.96875 361.550781 C 736.96875 392.101562 712.242188 416.867188 681.742188 416.867188 L 55.226562 416.867188 C 24.726562 416.867188 0 392.101562 0 361.550781 L 0 55.316406 C 0 24.765625 24.726562 0 55.226562 0 Z M 55.226562 0 "/>
</clipPath>
<clipPath id="clip63">
  <path d="M 478.976562 539.207031 L 28.855469 539.207031 C 11.5625 539.207031 -2.457031 525.167969 -2.457031 507.84375 L -2.457031 -0.449219 C -2.457031 -17.769531 11.5625 -31.8125 28.855469 -31.8125 L 478.976562 -31.8125 C 496.269531 -31.8125 510.289062 -17.769531 510.289062 -0.449219 L 510.289062 507.84375 C 510.289062 525.167969 496.269531 539.207031 478.976562 539.207031 Z M 478.976562 539.207031 "/>
</clipPath>
<clipPath id="clip64">
  <path d="M 321 316 L 379 316 L 379 391 L 321 391 Z M 321 316 "/>
</clipPath>
<clipPath id="clip65">
  <path d="M 55.226562 0 L 681.742188 0 C 712.242188 0 736.96875 24.765625 736.96875 55.316406 L 736.96875 361.550781 C 736.96875 392.101562 712.242188 416.867188 681.742188 416.867188 L 55.226562 416.867188 C 24.726562 416.867188 0 392.101562 0 361.550781 L 0 55.316406 C 0 24.765625 24.726562 0 55.226562 0 Z M 55.226562 0 "/>
</clipPath>
<clipPath id="clip66">
  <path d="M 478.976562 539.207031 L 28.855469 539.207031 C 11.5625 539.207031 -2.457031 525.167969 -2.457031 507.84375 L -2.457031 -0.449219 C -2.457031 -17.769531 11.5625 -31.8125 28.855469 -31.8125 L 478.976562 -31.8125 C 496.269531 -31.8125 510.289062 -17.769531 510.289062 -0.449219 L 510.289062 507.84375 C 510.289062 525.167969 496.269531 539.207031 478.976562 539.207031 Z M 478.976562 539.207031 "/>
</clipPath>
<clipPath id="clip67">
  <path d="M 87 404 L 474 404 L 474 416.867188 L 87 416.867188 Z M 87 404 "/>
</clipPath>
<clipPath id="clip68">
  <path d="M 55.226562 0 L 681.742188 0 C 712.242188 0 736.96875 24.765625 736.96875 55.316406 L 736.96875 361.550781 C 736.96875 392.101562 712.242188 416.867188 681.742188 416.867188 L 55.226562 416.867188 C 24.726562 416.867188 0 392.101562 0 361.550781 L 0 55.316406 C 0 24.765625 24.726562 0 55.226562 0 Z M 55.226562 0 "/>
</clipPath>
<clipPath id="clip69">
  <path d="M 478.976562 539.207031 L 28.855469 539.207031 C 11.5625 539.207031 -2.457031 525.167969 -2.457031 507.84375 L -2.457031 -0.449219 C -2.457031 -17.769531 11.5625 -31.8125 28.855469 -31.8125 L 478.976562 -31.8125 C 496.269531 -31.8125 510.289062 -17.769531 510.289062 -0.449219 L 510.289062 507.84375 C 510.289062 525.167969 496.269531 539.207031 478.976562 539.207031 Z M 478.976562 539.207031 "/>
</clipPath>
<clipPath id="clip70">
  <path d="M 226 298 L 234 298 L 234 306 L 226 306 Z M 226 298 "/>
</clipPath>
<clipPath id="clip71">
  <path d="M 55.226562 0 L 681.742188 0 C 712.242188 0 736.96875 24.765625 736.96875 55.316406 L 736.96875 361.550781 C 736.96875 392.101562 712.242188 416.867188 681.742188 416.867188 L 55.226562 416.867188 C 24.726562 416.867188 0 392.101562 0 361.550781 L 0 55.316406 C 0 24.765625 24.726562 0 55.226562 0 Z M 55.226562 0 "/>
</clipPath>
<clipPath id="clip72">
  <path d="M 478.976562 539.207031 L 28.855469 539.207031 C 11.5625 539.207031 -2.457031 525.167969 -2.457031 507.84375 L -2.457031 -0.449219 C -2.457031 -17.769531 11.5625 -31.8125 28.855469 -31.8125 L 478.976562 -31.8125 C 496.269531 -31.8125 510.289062 -17.769531 510.289062 -0.449219 L 510.289062 507.84375 C 510.289062 525.167969 496.269531 539.207031 478.976562 539.207031 Z M 478.976562 539.207031 "/>
</clipPath>
<clipPath id="clip73">
  <path d="M 226 322 L 234 322 L 234 329 L 226 329 Z M 226 322 "/>
</clipPath>
<clipPath id="clip74">
  <path d="M 55.226562 0 L 681.742188 0 C 712.242188 0 736.96875 24.765625 736.96875 55.316406 L 736.96875 361.550781 C 736.96875 392.101562 712.242188 416.867188 681.742188 416.867188 L 55.226562 416.867188 C 24.726562 416.867188 0 392.101562 0 361.550781 L 0 55.316406 C 0 24.765625 24.726562 0 55.226562 0 Z M 55.226562 0 "/>
</clipPath>
<clipPath id="clip75">
  <path d="M 478.976562 539.207031 L 28.855469 539.207031 C 11.5625 539.207031 -2.457031 525.167969 -2.457031 507.84375 L -2.457031 -0.449219 C -2.457031 -17.769531 11.5625 -31.8125 28.855469 -31.8125 L 478.976562 -31.8125 C 496.269531 -31.8125 510.289062 -17.769531 510.289062 -0.449219 L 510.289062 507.84375 C 510.289062 525.167969 496.269531 539.207031 478.976562 539.207031 Z M 478.976562 539.207031 "/>
</clipPath>
<clipPath id="clip76">
  <path d="M 224 166 L 239 166 L 239 183 L 224 183 Z M 224 166 "/>
</clipPath>
<clipPath id="clip77">
  <path d="M 55.226562 0 L 681.742188 0 C 712.242188 0 736.96875 24.765625 736.96875 55.316406 L 736.96875 361.550781 C 736.96875 392.101562 712.242188 416.867188 681.742188 416.867188 L 55.226562 416.867188 C 24.726562 416.867188 0 392.101562 0 361.550781 L 0 55.316406 C 0 24.765625 24.726562 0 55.226562 0 Z M 55.226562 0 "/>
</clipPath>
<clipPath id="clip78">
  <path d="M 478.976562 539.207031 L 28.855469 539.207031 C 11.5625 539.207031 -2.457031 525.167969 -2.457031 507.84375 L -2.457031 -0.449219 C -2.457031 -17.769531 11.5625 -31.8125 28.855469 -31.8125 L 478.976562 -31.8125 C 496.269531 -31.8125 510.289062 -17.769531 510.289062 -0.449219 L 510.289062 507.84375 C 510.289062 525.167969 496.269531 539.207031 478.976562 539.207031 Z M 478.976562 539.207031 "/>
</clipPath>
<clipPath id="clip79">
  <path d="M 152 252 L 190 252 L 190 267 L 152 267 Z M 152 252 "/>
</clipPath>
<clipPath id="clip80">
  <path d="M 55.226562 0 L 681.742188 0 C 712.242188 0 736.96875 24.765625 736.96875 55.316406 L 736.96875 361.550781 C 736.96875 392.101562 712.242188 416.867188 681.742188 416.867188 L 55.226562 416.867188 C 24.726562 416.867188 0 392.101562 0 361.550781 L 0 55.316406 C 0 24.765625 24.726562 0 55.226562 0 Z M 55.226562 0 "/>
</clipPath>
<clipPath id="clip81">
  <path d="M 478.976562 539.207031 L 28.855469 539.207031 C 11.5625 539.207031 -2.457031 525.167969 -2.457031 507.84375 L -2.457031 -0.449219 C -2.457031 -17.769531 11.5625 -31.8125 28.855469 -31.8125 L 478.976562 -31.8125 C 496.269531 -31.8125 510.289062 -17.769531 510.289062 -0.449219 L 510.289062 507.84375 C 510.289062 525.167969 496.269531 539.207031 478.976562 539.207031 Z M 478.976562 539.207031 "/>
</clipPath>
<clipPath id="clip82">
  <path d="M 322 355 L 355 355 L 355 389 L 322 389 Z M 322 355 "/>
</clipPath>
<clipPath id="clip83">
  <path d="M 55.226562 0 L 681.742188 0 C 712.242188 0 736.96875 24.765625 736.96875 55.316406 L 736.96875 361.550781 C 736.96875 392.101562 712.242188 416.867188 681.742188 416.867188 L 55.226562 416.867188 C 24.726562 416.867188 0 392.101562 0 361.550781 L 0 55.316406 C 0 24.765625 24.726562 0 55.226562 0 Z M 55.226562 0 "/>
</clipPath>
<clipPath id="clip84">
  <path d="M 478.976562 539.207031 L 28.855469 539.207031 C 11.5625 539.207031 -2.457031 525.167969 -2.457031 507.84375 L -2.457031 -0.449219 C -2.457031 -17.769531 11.5625 -31.8125 28.855469 -31.8125 L 478.976562 -31.8125 C 496.269531 -31.8125 510.289062 -17.769531 510.289062 -0.449219 L 510.289062 507.84375 C 510.289062 525.167969 496.269531 539.207031 478.976562 539.207031 Z M 478.976562 539.207031 "/>
</clipPath>
<clipPath id="clip85">
  <path d="M 306 365 L 341 365 L 341 395 L 306 395 Z M 306 365 "/>
</clipPath>
<clipPath id="clip86">
  <path d="M 55.226562 0 L 681.742188 0 C 712.242188 0 736.96875 24.765625 736.96875 55.316406 L 736.96875 361.550781 C 736.96875 392.101562 712.242188 416.867188 681.742188 416.867188 L 55.226562 416.867188 C 24.726562 416.867188 0 392.101562 0 361.550781 L 0 55.316406 C 0 24.765625 24.726562 0 55.226562 0 Z M 55.226562 0 "/>
</clipPath>
<clipPath id="clip87">
  <path d="M 478.976562 539.207031 L 28.855469 539.207031 C 11.5625 539.207031 -2.457031 525.167969 -2.457031 507.84375 L -2.457031 -0.449219 C -2.457031 -17.769531 11.5625 -31.8125 28.855469 -31.8125 L 478.976562 -31.8125 C 496.269531 -31.8125 510.289062 -17.769531 510.289062 -0.449219 L 510.289062 507.84375 C 510.289062 525.167969 496.269531 539.207031 478.976562 539.207031 Z M 478.976562 539.207031 "/>
</clipPath>
<clipPath id="clip88">
  <path d="M 282 351 L 347 351 L 347 404 L 282 404 Z M 282 351 "/>
</clipPath>
<clipPath id="clip89">
  <path d="M 55.226562 0 L 681.742188 0 C 712.242188 0 736.96875 24.765625 736.96875 55.316406 L 736.96875 361.550781 C 736.96875 392.101562 712.242188 416.867188 681.742188 416.867188 L 55.226562 416.867188 C 24.726562 416.867188 0 392.101562 0 361.550781 L 0 55.316406 C 0 24.765625 24.726562 0 55.226562 0 Z M 55.226562 0 "/>
</clipPath>
<clipPath id="clip90">
  <path d="M 478.976562 539.207031 L 28.855469 539.207031 C 11.5625 539.207031 -2.457031 525.167969 -2.457031 507.84375 L -2.457031 -0.449219 C -2.457031 -17.769531 11.5625 -31.8125 28.855469 -31.8125 L 478.976562 -31.8125 C 496.269531 -31.8125 510.289062 -17.769531 510.289062 -0.449219 L 510.289062 507.84375 C 510.289062 525.167969 496.269531 539.207031 478.976562 539.207031 Z M 478.976562 539.207031 "/>
</clipPath>
<clipPath id="clip91">
  <path d="M 299 355 L 313 355 L 313 376 L 299 376 Z M 299 355 "/>
</clipPath>
<clipPath id="clip92">
  <path d="M 55.226562 0 L 681.742188 0 C 712.242188 0 736.96875 24.765625 736.96875 55.316406 L 736.96875 361.550781 C 736.96875 392.101562 712.242188 416.867188 681.742188 416.867188 L 55.226562 416.867188 C 24.726562 416.867188 0 392.101562 0 361.550781 L 0 55.316406 C 0 24.765625 24.726562 0 55.226562 0 Z M 55.226562 0 "/>
</clipPath>
<clipPath id="clip93">
  <path d="M 478.976562 539.207031 L 28.855469 539.207031 C 11.5625 539.207031 -2.457031 525.167969 -2.457031 507.84375 L -2.457031 -0.449219 C -2.457031 -17.769531 11.5625 -31.8125 28.855469 -31.8125 L 478.976562 -31.8125 C 496.269531 -31.8125 510.289062 -17.769531 510.289062 -0.449219 L 510.289062 507.84375 C 510.289062 525.167969 496.269531 539.207031 478.976562 539.207031 Z M 478.976562 539.207031 "/>
</clipPath>
<clipPath id="clip94">
  <path d="M 330 378 L 343 378 L 343 394 L 330 394 Z M 330 378 "/>
</clipPath>
<clipPath id="clip95">
  <path d="M 55.226562 0 L 681.742188 0 C 712.242188 0 736.96875 24.765625 736.96875 55.316406 L 736.96875 361.550781 C 736.96875 392.101562 712.242188 416.867188 681.742188 416.867188 L 55.226562 416.867188 C 24.726562 416.867188 0 392.101562 0 361.550781 L 0 55.316406 C 0 24.765625 24.726562 0 55.226562 0 Z M 55.226562 0 "/>
</clipPath>
<clipPath id="clip96">
  <path d="M 478.976562 539.207031 L 28.855469 539.207031 C 11.5625 539.207031 -2.457031 525.167969 -2.457031 507.84375 L -2.457031 -0.449219 C -2.457031 -17.769531 11.5625 -31.8125 28.855469 -31.8125 L 478.976562 -31.8125 C 496.269531 -31.8125 510.289062 -17.769531 510.289062 -0.449219 L 510.289062 507.84375 C 510.289062 525.167969 496.269531 539.207031 478.976562 539.207031 Z M 478.976562 539.207031 "/>
</clipPath>
<clipPath id="clip97">
  <path d="M 308 359 L 324 359 L 324 387 L 308 387 Z M 308 359 "/>
</clipPath>
<clipPath id="clip98">
  <path d="M 55.226562 0 L 681.742188 0 C 712.242188 0 736.96875 24.765625 736.96875 55.316406 L 736.96875 361.550781 C 736.96875 392.101562 712.242188 416.867188 681.742188 416.867188 L 55.226562 416.867188 C 24.726562 416.867188 0 392.101562 0 361.550781 L 0 55.316406 C 0 24.765625 24.726562 0 55.226562 0 Z M 55.226562 0 "/>
</clipPath>
<clipPath id="clip99">
  <path d="M 478.976562 539.207031 L 28.855469 539.207031 C 11.5625 539.207031 -2.457031 525.167969 -2.457031 507.84375 L -2.457031 -0.449219 C -2.457031 -17.769531 11.5625 -31.8125 28.855469 -31.8125 L 478.976562 -31.8125 C 496.269531 -31.8125 510.289062 -17.769531 510.289062 -0.449219 L 510.289062 507.84375 C 510.289062 525.167969 496.269531 539.207031 478.976562 539.207031 Z M 478.976562 539.207031 "/>
</clipPath>
<clipPath id="clip100">
  <path d="M 320 369 L 335 369 L 335 393 L 320 393 Z M 320 369 "/>
</clipPath>
<clipPath id="clip101">
  <path d="M 55.226562 0 L 681.742188 0 C 712.242188 0 736.96875 24.765625 736.96875 55.316406 L 736.96875 361.550781 C 736.96875 392.101562 712.242188 416.867188 681.742188 416.867188 L 55.226562 416.867188 C 24.726562 416.867188 0 392.101562 0 361.550781 L 0 55.316406 C 0 24.765625 24.726562 0 55.226562 0 Z M 55.226562 0 "/>
</clipPath>
<clipPath id="clip102">
  <path d="M 478.976562 539.207031 L 28.855469 539.207031 C 11.5625 539.207031 -2.457031 525.167969 -2.457031 507.84375 L -2.457031 -0.449219 C -2.457031 -17.769531 11.5625 -31.8125 28.855469 -31.8125 L 478.976562 -31.8125 C 496.269531 -31.8125 510.289062 -17.769531 510.289062 -0.449219 L 510.289062 507.84375 C 510.289062 525.167969 496.269531 539.207031 478.976562 539.207031 Z M 478.976562 539.207031 "/>
</clipPath>
<clipPath id="clip103">
  <path d="M 137 354 L 157 354 L 157 397 L 137 397 Z M 137 354 "/>
</clipPath>
<clipPath id="clip104">
  <path d="M 55.226562 0 L 681.742188 0 C 712.242188 0 736.96875 24.765625 736.96875 55.316406 L 736.96875 361.550781 C 736.96875 392.101562 712.242188 416.867188 681.742188 416.867188 L 55.226562 416.867188 C 24.726562 416.867188 0 392.101562 0 361.550781 L 0 55.316406 C 0 24.765625 24.726562 0 55.226562 0 Z M 55.226562 0 "/>
</clipPath>
<clipPath id="clip105">
  <path d="M 478.976562 539.207031 L 28.855469 539.207031 C 11.5625 539.207031 -2.457031 525.167969 -2.457031 507.84375 L -2.457031 -0.449219 C -2.457031 -17.769531 11.5625 -31.8125 28.855469 -31.8125 L 478.976562 -31.8125 C 496.269531 -31.8125 510.289062 -17.769531 510.289062 -0.449219 L 510.289062 507.84375 C 510.289062 525.167969 496.269531 539.207031 478.976562 539.207031 Z M 478.976562 539.207031 "/>
</clipPath>
<clipPath id="clip106">
  <path d="M 460 407 L 463 407 L 463 408 L 460 408 Z M 460 407 "/>
</clipPath>
<clipPath id="clip107">
  <path d="M 55.226562 0 L 681.742188 0 C 712.242188 0 736.96875 24.765625 736.96875 55.316406 L 736.96875 361.550781 C 736.96875 392.101562 712.242188 416.867188 681.742188 416.867188 L 55.226562 416.867188 C 24.726562 416.867188 0 392.101562 0 361.550781 L 0 55.316406 C 0 24.765625 24.726562 0 55.226562 0 Z M 55.226562 0 "/>
</clipPath>
<clipPath id="clip108">
  <path d="M 478.976562 539.207031 L 28.855469 539.207031 C 11.5625 539.207031 -2.457031 525.167969 -2.457031 507.84375 L -2.457031 -0.449219 C -2.457031 -17.769531 11.5625 -31.8125 28.855469 -31.8125 L 478.976562 -31.8125 C 496.269531 -31.8125 510.289062 -17.769531 510.289062 -0.449219 L 510.289062 507.84375 C 510.289062 525.167969 496.269531 539.207031 478.976562 539.207031 Z M 478.976562 539.207031 "/>
</clipPath>
<clipPath id="clip109">
  <path d="M 414 338 L 419 338 L 419 350 L 414 350 Z M 414 338 "/>
</clipPath>
<clipPath id="clip110">
  <path d="M 55.226562 0 L 681.742188 0 C 712.242188 0 736.96875 24.765625 736.96875 55.316406 L 736.96875 361.550781 C 736.96875 392.101562 712.242188 416.867188 681.742188 416.867188 L 55.226562 416.867188 C 24.726562 416.867188 0 392.101562 0 361.550781 L 0 55.316406 C 0 24.765625 24.726562 0 55.226562 0 Z M 55.226562 0 "/>
</clipPath>
<clipPath id="clip111">
  <path d="M 478.976562 539.207031 L 28.855469 539.207031 C 11.5625 539.207031 -2.457031 525.167969 -2.457031 507.84375 L -2.457031 -0.449219 C -2.457031 -17.769531 11.5625 -31.8125 28.855469 -31.8125 L 478.976562 -31.8125 C 496.269531 -31.8125 510.289062 -17.769531 510.289062 -0.449219 L 510.289062 507.84375 C 510.289062 525.167969 496.269531 539.207031 478.976562 539.207031 Z M 478.976562 539.207031 "/>
</clipPath>
<clipPath id="clip112">
  <path d="M 391 361 L 442 361 L 442 387 L 391 387 Z M 391 361 "/>
</clipPath>
<clipPath id="clip113">
  <path d="M 55.226562 0 L 681.742188 0 C 712.242188 0 736.96875 24.765625 736.96875 55.316406 L 736.96875 361.550781 C 736.96875 392.101562 712.242188 416.867188 681.742188 416.867188 L 55.226562 416.867188 C 24.726562 416.867188 0 392.101562 0 361.550781 L 0 55.316406 C 0 24.765625 24.726562 0 55.226562 0 Z M 55.226562 0 "/>
</clipPath>
<clipPath id="clip114">
  <path d="M 478.976562 539.207031 L 28.855469 539.207031 C 11.5625 539.207031 -2.457031 525.167969 -2.457031 507.84375 L -2.457031 -0.449219 C -2.457031 -17.769531 11.5625 -31.8125 28.855469 -31.8125 L 478.976562 -31.8125 C 496.269531 -31.8125 510.289062 -17.769531 510.289062 -0.449219 L 510.289062 507.84375 C 510.289062 525.167969 496.269531 539.207031 478.976562 539.207031 Z M 478.976562 539.207031 "/>
</clipPath>
<clipPath id="clip115">
  <path d="M 391 347 L 443 347 L 443 377 L 391 377 Z M 391 347 "/>
</clipPath>
<clipPath id="clip116">
  <path d="M 55.226562 0 L 681.742188 0 C 712.242188 0 736.96875 24.765625 736.96875 55.316406 L 736.96875 361.550781 C 736.96875 392.101562 712.242188 416.867188 681.742188 416.867188 L 55.226562 416.867188 C 24.726562 416.867188 0 392.101562 0 361.550781 L 0 55.316406 C 0 24.765625 24.726562 0 55.226562 0 Z M 55.226562 0 "/>
</clipPath>
<clipPath id="clip117">
  <path d="M 478.976562 539.207031 L 28.855469 539.207031 C 11.5625 539.207031 -2.457031 525.167969 -2.457031 507.84375 L -2.457031 -0.449219 C -2.457031 -17.769531 11.5625 -31.8125 28.855469 -31.8125 L 478.976562 -31.8125 C 496.269531 -31.8125 510.289062 -17.769531 510.289062 -0.449219 L 510.289062 507.84375 C 510.289062 525.167969 496.269531 539.207031 478.976562 539.207031 Z M 478.976562 539.207031 "/>
</clipPath>
<clipPath id="clip118">
  <path d="M 418 349 L 438 349 L 438 373 L 418 373 Z M 418 349 "/>
</clipPath>
<clipPath id="clip119">
  <path d="M 55.226562 0 L 681.742188 0 C 712.242188 0 736.96875 24.765625 736.96875 55.316406 L 736.96875 361.550781 C 736.96875 392.101562 712.242188 416.867188 681.742188 416.867188 L 55.226562 416.867188 C 24.726562 416.867188 0 392.101562 0 361.550781 L 0 55.316406 C 0 24.765625 24.726562 0 55.226562 0 Z M 55.226562 0 "/>
</clipPath>
<clipPath id="clip120">
  <path d="M 478.976562 539.207031 L 28.855469 539.207031 C 11.5625 539.207031 -2.457031 525.167969 -2.457031 507.84375 L -2.457031 -0.449219 C -2.457031 -17.769531 11.5625 -31.8125 28.855469 -31.8125 L 478.976562 -31.8125 C 496.269531 -31.8125 510.289062 -17.769531 510.289062 -0.449219 L 510.289062 507.84375 C 510.289062 525.167969 496.269531 539.207031 478.976562 539.207031 Z M 478.976562 539.207031 "/>
</clipPath>
<clipPath id="clip121">
  <path d="M 420 350 L 436 350 L 436 366 L 420 366 Z M 420 350 "/>
</clipPath>
<clipPath id="clip122">
  <path d="M 55.226562 0 L 681.742188 0 C 712.242188 0 736.96875 24.765625 736.96875 55.316406 L 736.96875 361.550781 C 736.96875 392.101562 712.242188 416.867188 681.742188 416.867188 L 55.226562 416.867188 C 24.726562 416.867188 0 392.101562 0 361.550781 L 0 55.316406 C 0 24.765625 24.726562 0 55.226562 0 Z M 55.226562 0 "/>
</clipPath>
<clipPath id="clip123">
  <path d="M 478.976562 539.207031 L 28.855469 539.207031 C 11.5625 539.207031 -2.457031 525.167969 -2.457031 507.84375 L -2.457031 -0.449219 C -2.457031 -17.769531 11.5625 -31.8125 28.855469 -31.8125 L 478.976562 -31.8125 C 496.269531 -31.8125 510.289062 -17.769531 510.289062 -0.449219 L 510.289062 507.84375 C 510.289062 525.167969 496.269531 539.207031 478.976562 539.207031 Z M 478.976562 539.207031 "/>
</clipPath>
<clipPath id="clip124">
  <path d="M 410 336 L 424 336 L 424 341 L 410 341 Z M 410 336 "/>
</clipPath>
<clipPath id="clip125">
  <path d="M 55.226562 0 L 681.742188 0 C 712.242188 0 736.96875 24.765625 736.96875 55.316406 L 736.96875 361.550781 C 736.96875 392.101562 712.242188 416.867188 681.742188 416.867188 L 55.226562 416.867188 C 24.726562 416.867188 0 392.101562 0 361.550781 L 0 55.316406 C 0 24.765625 24.726562 0 55.226562 0 Z M 55.226562 0 "/>
</clipPath>
<clipPath id="clip126">
  <path d="M 478.976562 539.207031 L 28.855469 539.207031 C 11.5625 539.207031 -2.457031 525.167969 -2.457031 507.84375 L -2.457031 -0.449219 C -2.457031 -17.769531 11.5625 -31.8125 28.855469 -31.8125 L 478.976562 -31.8125 C 496.269531 -31.8125 510.289062 -17.769531 510.289062 -0.449219 L 510.289062 507.84375 C 510.289062 525.167969 496.269531 539.207031 478.976562 539.207031 Z M 478.976562 539.207031 "/>
</clipPath>
<clipPath id="clip127">
  <path d="M 387 373 L 447 373 L 447 396 L 387 396 Z M 387 373 "/>
</clipPath>
<clipPath id="clip128">
  <path d="M 55.226562 0 L 681.742188 0 C 712.242188 0 736.96875 24.765625 736.96875 55.316406 L 736.96875 361.550781 C 736.96875 392.101562 712.242188 416.867188 681.742188 416.867188 L 55.226562 416.867188 C 24.726562 416.867188 0 392.101562 0 361.550781 L 0 55.316406 C 0 24.765625 24.726562 0 55.226562 0 Z M 55.226562 0 "/>
</clipPath>
<clipPath id="clip129">
  <path d="M 478.976562 539.207031 L 28.855469 539.207031 C 11.5625 539.207031 -2.457031 525.167969 -2.457031 507.84375 L -2.457031 -0.449219 C -2.457031 -17.769531 11.5625 -31.8125 28.855469 -31.8125 L 478.976562 -31.8125 C 496.269531 -31.8125 510.289062 -17.769531 510.289062 -0.449219 L 510.289062 507.84375 C 510.289062 525.167969 496.269531 539.207031 478.976562 539.207031 Z M 478.976562 539.207031 "/>
</clipPath>
<clipPath id="clip130">
  <path d="M 429 379 L 443 379 L 443 393 L 429 393 Z M 429 379 "/>
</clipPath>
<clipPath id="clip131">
  <path d="M 55.226562 0 L 681.742188 0 C 712.242188 0 736.96875 24.765625 736.96875 55.316406 L 736.96875 361.550781 C 736.96875 392.101562 712.242188 416.867188 681.742188 416.867188 L 55.226562 416.867188 C 24.726562 416.867188 0 392.101562 0 361.550781 L 0 55.316406 C 0 24.765625 24.726562 0 55.226562 0 Z M 55.226562 0 "/>
</clipPath>
<clipPath id="clip132">
  <path d="M 478.976562 539.207031 L 28.855469 539.207031 C 11.5625 539.207031 -2.457031 525.167969 -2.457031 507.84375 L -2.457031 -0.449219 C -2.457031 -17.769531 11.5625 -31.8125 28.855469 -31.8125 L 478.976562 -31.8125 C 496.269531 -31.8125 510.289062 -17.769531 510.289062 -0.449219 L 510.289062 507.84375 C 510.289062 525.167969 496.269531 539.207031 478.976562 539.207031 Z M 478.976562 539.207031 "/>
</clipPath>
<clipPath id="clip133">
  <path d="M 435 380 L 441 380 L 441 390 L 435 390 Z M 435 380 "/>
</clipPath>
<clipPath id="clip134">
  <path d="M 55.226562 0 L 681.742188 0 C 712.242188 0 736.96875 24.765625 736.96875 55.316406 L 736.96875 361.550781 C 736.96875 392.101562 712.242188 416.867188 681.742188 416.867188 L 55.226562 416.867188 C 24.726562 416.867188 0 392.101562 0 361.550781 L 0 55.316406 C 0 24.765625 24.726562 0 55.226562 0 Z M 55.226562 0 "/>
</clipPath>
<clipPath id="clip135">
  <path d="M 478.976562 539.207031 L 28.855469 539.207031 C 11.5625 539.207031 -2.457031 525.167969 -2.457031 507.84375 L -2.457031 -0.449219 C -2.457031 -17.769531 11.5625 -31.8125 28.855469 -31.8125 L 478.976562 -31.8125 C 496.269531 -31.8125 510.289062 -17.769531 510.289062 -0.449219 L 510.289062 507.84375 C 510.289062 525.167969 496.269531 539.207031 478.976562 539.207031 Z M 478.976562 539.207031 "/>
</clipPath>
<clipPath id="clip136">
  <path d="M 410 335 L 424 335 L 424 340 L 410 340 Z M 410 335 "/>
</clipPath>
<clipPath id="clip137">
  <path d="M 55.226562 0 L 681.742188 0 C 712.242188 0 736.96875 24.765625 736.96875 55.316406 L 736.96875 361.550781 C 736.96875 392.101562 712.242188 416.867188 681.742188 416.867188 L 55.226562 416.867188 C 24.726562 416.867188 0 392.101562 0 361.550781 L 0 55.316406 C 0 24.765625 24.726562 0 55.226562 0 Z M 55.226562 0 "/>
</clipPath>
<clipPath id="clip138">
  <path d="M 478.976562 539.207031 L 28.855469 539.207031 C 11.5625 539.207031 -2.457031 525.167969 -2.457031 507.84375 L -2.457031 -0.449219 C -2.457031 -17.769531 11.5625 -31.8125 28.855469 -31.8125 L 478.976562 -31.8125 C 496.269531 -31.8125 510.289062 -17.769531 510.289062 -0.449219 L 510.289062 507.84375 C 510.289062 525.167969 496.269531 539.207031 478.976562 539.207031 Z M 478.976562 539.207031 "/>
</clipPath>
<clipPath id="clip139">
  <path d="M 412 344 L 421 344 L 421 347 L 412 347 Z M 412 344 "/>
</clipPath>
<clipPath id="clip140">
  <path d="M 55.226562 0 L 681.742188 0 C 712.242188 0 736.96875 24.765625 736.96875 55.316406 L 736.96875 361.550781 C 736.96875 392.101562 712.242188 416.867188 681.742188 416.867188 L 55.226562 416.867188 C 24.726562 416.867188 0 392.101562 0 361.550781 L 0 55.316406 C 0 24.765625 24.726562 0 55.226562 0 Z M 55.226562 0 "/>
</clipPath>
<clipPath id="clip141">
  <path d="M 478.976562 539.207031 L 28.855469 539.207031 C 11.5625 539.207031 -2.457031 525.167969 -2.457031 507.84375 L -2.457031 -0.449219 C -2.457031 -17.769531 11.5625 -31.8125 28.855469 -31.8125 L 478.976562 -31.8125 C 496.269531 -31.8125 510.289062 -17.769531 510.289062 -0.449219 L 510.289062 507.84375 C 510.289062 525.167969 496.269531 539.207031 478.976562 539.207031 Z M 478.976562 539.207031 "/>
</clipPath>
<clipPath id="clip142">
  <path d="M 412 345 L 421 345 L 421 351 L 412 351 Z M 412 345 "/>
</clipPath>
<clipPath id="clip143">
  <path d="M 55.226562 0 L 681.742188 0 C 712.242188 0 736.96875 24.765625 736.96875 55.316406 L 736.96875 361.550781 C 736.96875 392.101562 712.242188 416.867188 681.742188 416.867188 L 55.226562 416.867188 C 24.726562 416.867188 0 392.101562 0 361.550781 L 0 55.316406 C 0 24.765625 24.726562 0 55.226562 0 Z M 55.226562 0 "/>
</clipPath>
<clipPath id="clip144">
  <path d="M 478.976562 539.207031 L 28.855469 539.207031 C 11.5625 539.207031 -2.457031 525.167969 -2.457031 507.84375 L -2.457031 -0.449219 C -2.457031 -17.769531 11.5625 -31.8125 28.855469 -31.8125 L 478.976562 -31.8125 C 496.269531 -31.8125 510.289062 -17.769531 510.289062 -0.449219 L 510.289062 507.84375 C 510.289062 525.167969 496.269531 539.207031 478.976562 539.207031 Z M 478.976562 539.207031 "/>
</clipPath>
<clipPath id="clip145">
  <path d="M 415 339 L 417 339 L 417 346 L 415 346 Z M 415 339 "/>
</clipPath>
<clipPath id="clip146">
  <path d="M 55.226562 0 L 681.742188 0 C 712.242188 0 736.96875 24.765625 736.96875 55.316406 L 736.96875 361.550781 C 736.96875 392.101562 712.242188 416.867188 681.742188 416.867188 L 55.226562 416.867188 C 24.726562 416.867188 0 392.101562 0 361.550781 L 0 55.316406 C 0 24.765625 24.726562 0 55.226562 0 Z M 55.226562 0 "/>
</clipPath>
<clipPath id="clip147">
  <path d="M 478.976562 539.207031 L 28.855469 539.207031 C 11.5625 539.207031 -2.457031 525.167969 -2.457031 507.84375 L -2.457031 -0.449219 C -2.457031 -17.769531 11.5625 -31.8125 28.855469 -31.8125 L 478.976562 -31.8125 C 496.269531 -31.8125 510.289062 -17.769531 510.289062 -0.449219 L 510.289062 507.84375 C 510.289062 525.167969 496.269531 539.207031 478.976562 539.207031 Z M 478.976562 539.207031 "/>
</clipPath>
<clipPath id="clip148">
  <path d="M 145 360 L 310 360 L 310 416.867188 L 145 416.867188 Z M 145 360 "/>
</clipPath>
<clipPath id="clip149">
  <path d="M 55.226562 0 L 681.742188 0 C 712.242188 0 736.96875 24.765625 736.96875 55.316406 L 736.96875 361.550781 C 736.96875 392.101562 712.242188 416.867188 681.742188 416.867188 L 55.226562 416.867188 C 24.726562 416.867188 0 392.101562 0 361.550781 L 0 55.316406 C 0 24.765625 24.726562 0 55.226562 0 Z M 55.226562 0 "/>
</clipPath>
<clipPath id="clip150">
  <path d="M 478.976562 539.207031 L 28.855469 539.207031 C 11.5625 539.207031 -2.457031 525.167969 -2.457031 507.84375 L -2.457031 -0.449219 C -2.457031 -17.769531 11.5625 -31.8125 28.855469 -31.8125 L 478.976562 -31.8125 C 496.269531 -31.8125 510.289062 -17.769531 510.289062 -0.449219 L 510.289062 507.84375 C 510.289062 525.167969 496.269531 539.207031 478.976562 539.207031 Z M 478.976562 539.207031 "/>
</clipPath>
<clipPath id="clip151">
  <path d="M 143 352 L 227 352 L 227 407 L 143 407 Z M 143 352 "/>
</clipPath>
<clipPath id="clip152">
  <path d="M 55.226562 0 L 681.742188 0 C 712.242188 0 736.96875 24.765625 736.96875 55.316406 L 736.96875 361.550781 C 736.96875 392.101562 712.242188 416.867188 681.742188 416.867188 L 55.226562 416.867188 C 24.726562 416.867188 0 392.101562 0 361.550781 L 0 55.316406 C 0 24.765625 24.726562 0 55.226562 0 Z M 55.226562 0 "/>
</clipPath>
<clipPath id="clip153">
  <path d="M 478.976562 539.207031 L 28.855469 539.207031 C 11.5625 539.207031 -2.457031 525.167969 -2.457031 507.84375 L -2.457031 -0.449219 C -2.457031 -17.769531 11.5625 -31.8125 28.855469 -31.8125 L 478.976562 -31.8125 C 496.269531 -31.8125 510.289062 -17.769531 510.289062 -0.449219 L 510.289062 507.84375 C 510.289062 525.167969 496.269531 539.207031 478.976562 539.207031 Z M 478.976562 539.207031 "/>
</clipPath>
<clipPath id="clip154">
  <path d="M 142 357 L 161 357 L 161 382 L 142 382 Z M 142 357 "/>
</clipPath>
<clipPath id="clip155">
  <path d="M 55.226562 0 L 681.742188 0 C 712.242188 0 736.96875 24.765625 736.96875 55.316406 L 736.96875 361.550781 C 736.96875 392.101562 712.242188 416.867188 681.742188 416.867188 L 55.226562 416.867188 C 24.726562 416.867188 0 392.101562 0 361.550781 L 0 55.316406 C 0 24.765625 24.726562 0 55.226562 0 Z M 55.226562 0 "/>
</clipPath>
<clipPath id="clip156">
  <path d="M 478.976562 539.207031 L 28.855469 539.207031 C 11.5625 539.207031 -2.457031 525.167969 -2.457031 507.84375 L -2.457031 -0.449219 C -2.457031 -17.769531 11.5625 -31.8125 28.855469 -31.8125 L 478.976562 -31.8125 C 496.269531 -31.8125 510.289062 -17.769531 510.289062 -0.449219 L 510.289062 507.84375 C 510.289062 525.167969 496.269531 539.207031 478.976562 539.207031 Z M 478.976562 539.207031 "/>
</clipPath>
<clipPath id="clip157">
  <path d="M 174 378 L 199 378 L 199 392 L 174 392 Z M 174 378 "/>
</clipPath>
<clipPath id="clip158">
  <path d="M 55.226562 0 L 681.742188 0 C 712.242188 0 736.96875 24.765625 736.96875 55.316406 L 736.96875 361.550781 C 736.96875 392.101562 712.242188 416.867188 681.742188 416.867188 L 55.226562 416.867188 C 24.726562 416.867188 0 392.101562 0 361.550781 L 0 55.316406 C 0 24.765625 24.726562 0 55.226562 0 Z M 55.226562 0 "/>
</clipPath>
<clipPath id="clip159">
  <path d="M 478.976562 539.207031 L 28.855469 539.207031 C 11.5625 539.207031 -2.457031 525.167969 -2.457031 507.84375 L -2.457031 -0.449219 C -2.457031 -17.769531 11.5625 -31.8125 28.855469 -31.8125 L 478.976562 -31.8125 C 496.269531 -31.8125 510.289062 -17.769531 510.289062 -0.449219 L 510.289062 507.84375 C 510.289062 525.167969 496.269531 539.207031 478.976562 539.207031 Z M 478.976562 539.207031 "/>
</clipPath>
<clipPath id="clip160">
  <path d="M 183 368 L 209 368 L 209 385 L 183 385 Z M 183 368 "/>
</clipPath>
<clipPath id="clip161">
  <path d="M 55.226562 0 L 681.742188 0 C 712.242188 0 736.96875 24.765625 736.96875 55.316406 L 736.96875 361.550781 C 736.96875 392.101562 712.242188 416.867188 681.742188 416.867188 L 55.226562 416.867188 C 24.726562 416.867188 0 392.101562 0 361.550781 L 0 55.316406 C 0 24.765625 24.726562 0 55.226562 0 Z M 55.226562 0 "/>
</clipPath>
<clipPath id="clip162">
  <path d="M 478.976562 539.207031 L 28.855469 539.207031 C 11.5625 539.207031 -2.457031 525.167969 -2.457031 507.84375 L -2.457031 -0.449219 C -2.457031 -17.769531 11.5625 -31.8125 28.855469 -31.8125 L 478.976562 -31.8125 C 496.269531 -31.8125 510.289062 -17.769531 510.289062 -0.449219 L 510.289062 507.84375 C 510.289062 525.167969 496.269531 539.207031 478.976562 539.207031 Z M 478.976562 539.207031 "/>
</clipPath>
<clipPath id="clip163">
  <path d="M 163 385 L 182 385 L 182 395 L 163 395 Z M 163 385 "/>
</clipPath>
<clipPath id="clip164">
  <path d="M 55.226562 0 L 681.742188 0 C 712.242188 0 736.96875 24.765625 736.96875 55.316406 L 736.96875 361.550781 C 736.96875 392.101562 712.242188 416.867188 681.742188 416.867188 L 55.226562 416.867188 C 24.726562 416.867188 0 392.101562 0 361.550781 L 0 55.316406 C 0 24.765625 24.726562 0 55.226562 0 Z M 55.226562 0 "/>
</clipPath>
<clipPath id="clip165">
  <path d="M 478.976562 539.207031 L 28.855469 539.207031 C 11.5625 539.207031 -2.457031 525.167969 -2.457031 507.84375 L -2.457031 -0.449219 C -2.457031 -17.769531 11.5625 -31.8125 28.855469 -31.8125 L 478.976562 -31.8125 C 496.269531 -31.8125 510.289062 -17.769531 510.289062 -0.449219 L 510.289062 507.84375 C 510.289062 525.167969 496.269531 539.207031 478.976562 539.207031 Z M 478.976562 539.207031 "/>
</clipPath>
<clipPath id="clip166">
  <path d="M 194 359 L 207 359 L 207 373 L 194 373 Z M 194 359 "/>
</clipPath>
<clipPath id="clip167">
  <path d="M 55.226562 0 L 681.742188 0 C 712.242188 0 736.96875 24.765625 736.96875 55.316406 L 736.96875 361.550781 C 736.96875 392.101562 712.242188 416.867188 681.742188 416.867188 L 55.226562 416.867188 C 24.726562 416.867188 0 392.101562 0 361.550781 L 0 55.316406 C 0 24.765625 24.726562 0 55.226562 0 Z M 55.226562 0 "/>
</clipPath>
<clipPath id="clip168">
  <path d="M 478.976562 539.207031 L 28.855469 539.207031 C 11.5625 539.207031 -2.457031 525.167969 -2.457031 507.84375 L -2.457031 -0.449219 C -2.457031 -17.769531 11.5625 -31.8125 28.855469 -31.8125 L 478.976562 -31.8125 C 496.269531 -31.8125 510.289062 -17.769531 510.289062 -0.449219 L 510.289062 507.84375 C 510.289062 525.167969 496.269531 539.207031 478.976562 539.207031 Z M 478.976562 539.207031 "/>
</clipPath>
</defs>
<g id="surface1">
<g clip-path="url(#clip1)" clip-rule="nonzero">
<g clip-path="url(#clip2)" clip-rule="nonzero">
<g clip-path="url(#clip3)" clip-rule="nonzero">
<path style=" stroke:none;fill-rule:nonzero;fill:rgb(82.745098%,78.431373%,75.686275%);fill-opacity:1;" d="M 473.515625 1017.890625 L 87.007812 1017.890625 L 87.007812 404.167969 L 473.515625 404.167969 Z M 473.515625 1017.890625 "/>
<path style=" stroke:none;fill-rule:nonzero;fill:rgb(74.509804%,70.196078%,67.843137%);fill-opacity:1;" d="M 147.359375 404.167969 C 148.464844 407.382812 149.566406 410.605469 150.675781 413.8125 C 169.421875 468.007812 188.792969 521.136719 209.351562 571.800781 C 228.476562 618.929688 248.648438 663.914062 270.246094 705.109375 C 290.988281 744.667969 313.035156 780.671875 336.375 811.785156 C 360.445312 843.882812 385.835938 870.683594 412.074219 892.089844 C 431.042969 907.640625 451.644531 921.074219 473.515625 932.160156 L 473.515625 1017.886719 L 87.007812 1017.886719 L 87.007812 404.167969 Z M 147.359375 404.167969 "/>
</g>
</g>
</g>
<g clip-path="url(#clip4)" clip-rule="nonzero">
<g clip-path="url(#clip5)" clip-rule="nonzero">
<g clip-path="url(#clip6)" clip-rule="nonzero">
<path style=" stroke:none;fill-rule:nonzero;fill:rgb(12.54902%,34.901961%,39.607843%);fill-opacity:1;" d="M 301.53125 30.84375 C 325.636719 36.296875 318.359375 83.152344 301.53125 97.390625 C 288.121094 108.734375 280.058594 109.128906 274.722656 90.464844 C 270.699219 76.394531 267.863281 51.789062 291.042969 36.460938 C 293.390625 34.90625 298.960938 30.261719 301.53125 30.84375 Z M 301.53125 30.84375 "/>
</g>
</g>
</g>
<g clip-path="url(#clip7)" clip-rule="nonzero">
<g clip-path="url(#clip8)" clip-rule="nonzero">
<g clip-path="url(#clip9)" clip-rule="nonzero">
<path style=" stroke:none;fill-rule:nonzero;fill:rgb(98.823529%,71.372549%,61.960784%);fill-opacity:1;" d="M 189.773438 147.007812 C 200.234375 177.199219 246.1875 182.734375 268.132812 161.09375 C 261.703125 155.347656 254.59375 151.476562 253.769531 150.5 C 249.796875 146.742188 257.941406 123.945312 257.941406 123.945312 C 266.921875 125.640625 284.820312 133.753906 292.238281 129.179688 C 298.375 125.394531 302.152344 109.425781 303.285156 102.246094 C 304.367188 95.355469 308.863281 82.011719 305.75 75.417969 C 302.886719 69.351562 305.859375 54.871094 305.808594 54.414062 C 305.511719 51.816406 302.699219 55.164062 300.292969 55.191406 C 293.617188 55.269531 286.925781 55.273438 280.277344 55.949219 C 273.625 56.628906 266.199219 57.773438 260.476562 61.480469 C 254.605469 65.277344 253.070312 72.089844 251.140625 78.3125 C 249.394531 84.230469 245.867188 89.460938 241.042969 93.300781 C 238.222656 95.351562 234.964844 96.722656 231.53125 97.3125 C 227.515625 98.113281 220.589844 97.976562 216.542969 98.589844 C 216.542969 98.589844 212.554688 131.324219 206.171875 140.90625 C 204.089844 143.609375 198.074219 147.019531 189.773438 147.007812 Z M 189.773438 147.007812 "/>
</g>
</g>
</g>
<g clip-path="url(#clip10)" clip-rule="nonzero">
<g clip-path="url(#clip11)" clip-rule="nonzero">
<g clip-path="url(#clip12)" clip-rule="nonzero">
<path style=" stroke:none;fill-rule:nonzero;fill:rgb(86.666667%,59.215686%,55.294118%);fill-opacity:1;" d="M 231.980469 129.527344 C 228.335938 119.609375 230.871094 97.746094 231.660156 97.390625 C 237.160156 104.480469 247.652344 115.839844 254.78125 121.304688 C 254.78125 121.304688 248.394531 140.289062 247.050781 148.90625 C 240.167969 144.140625 234.910156 137.378906 231.980469 129.527344 Z M 231.980469 129.527344 "/>
</g>
</g>
</g>
<g clip-path="url(#clip13)" clip-rule="nonzero">
<g clip-path="url(#clip14)" clip-rule="nonzero">
<g clip-path="url(#clip15)" clip-rule="nonzero">
<path style=" stroke:none;fill-rule:nonzero;fill:rgb(86.666667%,59.215686%,55.294118%);fill-opacity:1;" d="M 294.019531 102.949219 C 293.972656 100.101562 299.25 101.652344 299.132812 96.230469 C 299.050781 92.207031 293.097656 72.984375 293.375 70.089844 C 293.761719 66.03125 300.519531 61.242188 301.785156 61.824219 C 303.515625 62.621094 300.832031 65.859375 302.578125 70.882812 C 305.394531 74.601562 303.878906 97.414062 302.070312 104.148438 C 300.386719 110.40625 298.285156 120.394531 293.007812 123.792969 C 292.964844 122.332031 294.109375 108.328125 294.019531 102.949219 Z M 294.019531 102.949219 "/>
</g>
</g>
</g>
<g clip-path="url(#clip16)" clip-rule="nonzero">
<g clip-path="url(#clip17)" clip-rule="nonzero">
<g clip-path="url(#clip18)" clip-rule="nonzero">
<path style=" stroke:none;fill-rule:nonzero;fill:rgb(66.666667%,63.137255%,61.960784%);fill-opacity:1;" d="M 65.074219 359.507812 L 87.007812 404.167969 L 473.515625 404.152344 L 451.574219 359.171875 Z M 65.074219 359.507812 "/>
</g>
</g>
</g>
<g clip-path="url(#clip19)" clip-rule="nonzero">
<g clip-path="url(#clip20)" clip-rule="nonzero">
<g clip-path="url(#clip21)" clip-rule="nonzero">
<path style=" stroke:none;fill-rule:nonzero;fill:rgb(66.666667%,63.137255%,61.960784%);fill-opacity:1;" d="M 65.0625 359.488281 L 87.007812 404.175781 L 87.007812 1015.519531 L 65.058594 972.535156 Z M 65.0625 359.488281 "/>
</g>
</g>
</g>
<g clip-path="url(#clip22)" clip-rule="nonzero">
<g clip-path="url(#clip23)" clip-rule="nonzero">
<g clip-path="url(#clip24)" clip-rule="nonzero">
<path style=" stroke:none;fill-rule:nonzero;fill:rgb(100%,100%,100%);fill-opacity:1;" d="M 237.621094 88.144531 C 239.789062 92.652344 240.46875 97.765625 242.945312 102.121094 C 245.152344 106.007812 248.304688 109.296875 251.152344 112.742188 L 259.472656 81.136719 C 255.523438 77.9375 251.25 75.179688 247.117188 72.230469 C 244.714844 70.507812 247.824219 67.132812 250.199219 68.832031 C 254.460938 71.878906 258.863281 74.710938 262.914062 78.042969 L 296.683594 89.945312 L 306.832031 85.304688 C 306.128906 93.085938 302.855469 114.5625 299.917969 121.15625 C 299.355469 122.417969 297.757812 127.207031 292.816406 130.136719 C 290.554688 131.417969 288.019531 132.132812 285.425781 132.222656 C 285.425781 132.222656 254.742188 130.691406 238.96875 104.410156 C 236.273438 99.917969 235.632812 94.574219 233.371094 89.871094 C 232.089844 87.210938 236.339844 85.492188 237.621094 88.144531 Z M 237.621094 88.144531 "/>
</g>
</g>
</g>
<g clip-path="url(#clip25)" clip-rule="nonzero">
<g clip-path="url(#clip26)" clip-rule="nonzero">
<g clip-path="url(#clip27)" clip-rule="nonzero">
<path style=" stroke:none;fill-rule:nonzero;fill:rgb(100%,100%,100%);fill-opacity:1;" d="M 220.632812 222.828125 C 217.519531 211.761719 211.371094 200.84375 208.292969 189.777344 C 204.023438 174.429688 200.324219 159.621094 195.40625 144.46875 C 198.890625 143.550781 202.105469 141.824219 204.789062 139.425781 C 205.867188 138.414062 206.542969 140.660156 207.550781 141.738281 C 214.277344 148.945312 219.070312 158.574219 232.484375 159.59375 C 245.855469 160.609375 249.664062 150.992188 253.335938 146.363281 C 254.246094 145.214844 254.996094 148.003906 256.148438 148.910156 C 257.738281 150.160156 260.554688 150.496094 262.582031 150.917969 C 251.335938 184.398438 245.199219 219.570312 231.390625 252.160156 C 226.921875 242.730469 223.324219 232.914062 220.632812 222.828125 Z M 220.632812 222.828125 "/>
</g>
</g>
</g>
<g clip-path="url(#clip28)" clip-rule="nonzero">
<g clip-path="url(#clip29)" clip-rule="nonzero">
<g clip-path="url(#clip30)" clip-rule="nonzero">
<path style=" stroke:none;fill-rule:nonzero;fill:rgb(69.411765%,83.529412%,88.627451%);fill-opacity:1;" d="M 201.378906 141.867188 C 196.300781 146.910156 200.726562 157.96875 200.546875 166.03125 C 198.613281 159.0625 196.597656 152.105469 194.320312 145.078125 C 196.835938 144.417969 199.226562 143.332031 201.378906 141.867188 Z M 201.378906 141.867188 "/>
</g>
</g>
</g>
<g clip-path="url(#clip31)" clip-rule="nonzero">
<g clip-path="url(#clip32)" clip-rule="nonzero">
<g clip-path="url(#clip33)" clip-rule="nonzero">
<path style=" stroke:none;fill-rule:nonzero;fill:rgb(69.411765%,83.529412%,88.627451%);fill-opacity:1;" d="M 258.761719 153.953125 C 258.621094 152.574219 256.8125 151.15625 256.609375 149.796875 C 258.242188 150.792969 260.734375 151.113281 262.578125 151.5 C 261.1875 155.640625 259.867188 159.808594 258.617188 163.996094 C 257.96875 160.65625 259.109375 157.359375 258.761719 153.953125 Z M 258.761719 153.953125 "/>
</g>
</g>
</g>
<g clip-path="url(#clip34)" clip-rule="nonzero">
<g clip-path="url(#clip35)" clip-rule="nonzero">
<g clip-path="url(#clip36)" clip-rule="nonzero">
<path style=" stroke:none;fill-rule:nonzero;fill:rgb(74.901961%,30.980392%,38.823529%);fill-opacity:1;" d="M 229.136719 176.34375 C 229.84375 176.476562 230.574219 176.589844 231.34375 176.683594 C 231.824219 176.742188 232.308594 176.777344 232.796875 176.789062 C 232.828125 176.8125 232.863281 176.824219 232.898438 176.847656 C 237.296875 179.671875 238.851562 185.914062 239.859375 190.679688 C 241.199219 197.792969 241.898438 205.011719 241.949219 212.246094 C 242.089844 214.175781 242.125 216.109375 242.050781 218.039062 C 238.601562 230.175781 234.457031 242.101562 229.640625 253.757812 C 227.921875 251.734375 218.269531 229.414062 214.695312 207.527344 C 218.371094 190.863281 222.089844 178.886719 229.136719 176.34375 Z M 229.136719 176.34375 "/>
</g>
</g>
</g>
<g clip-path="url(#clip37)" clip-rule="nonzero">
<g clip-path="url(#clip38)" clip-rule="nonzero">
<g clip-path="url(#clip39)" clip-rule="nonzero">
<path style=" stroke:none;fill-rule:nonzero;fill:rgb(63.137255%,26.666667%,34.901961%);fill-opacity:1;" d="M 226.585938 204.207031 C 224.007812 204.117188 221.46875 203.566406 219.089844 202.574219 C 220.472656 191.082031 222.816406 182.964844 227.964844 180.226562 C 228.683594 180.253906 229.425781 180.261719 230.195312 180.246094 C 230.679688 180.238281 231.164062 180.203125 231.652344 180.144531 C 231.6875 180.160156 231.722656 180.171875 231.757812 180.1875 C 233.554688 181.0625 235.097656 182.378906 236.25 184.011719 C 229.226562 187.761719 227.371094 196.65625 226.585938 204.207031 Z M 226.585938 204.207031 "/>
</g>
</g>
</g>
<g clip-path="url(#clip40)" clip-rule="nonzero">
<g clip-path="url(#clip41)" clip-rule="nonzero">
<g clip-path="url(#clip42)" clip-rule="nonzero">
<path style=" stroke:none;fill-rule:nonzero;fill:rgb(63.137255%,26.666667%,34.901961%);fill-opacity:1;" d="M 226.941406 224.246094 C 230.242188 226.179688 233.9375 227.332031 237.753906 227.617188 C 235.050781 236.09375 232.078125 244.488281 228.601562 252.683594 C 227.113281 250.925781 219.632812 233.851562 215.351562 215.050781 C 218.753906 218.65625 222.65625 221.753906 226.941406 224.246094 Z M 226.941406 224.246094 "/>
</g>
</g>
</g>
<g clip-path="url(#clip43)" clip-rule="nonzero">
<g clip-path="url(#clip44)" clip-rule="nonzero">
<g clip-path="url(#clip45)" clip-rule="nonzero">
<path style=" stroke:none;fill-rule:nonzero;fill:rgb(29.019608%,36.862745%,36.078431%);fill-opacity:1;" d="M 116.628906 391.171875 C 116.628906 391.171875 140.253906 402.238281 148.46875 398.621094 C 154.867188 396.878906 161.816406 380.808594 163.171875 373.242188 C 163.171875 373.242188 288.984375 372.257812 301.441406 373.507812 C 301.019531 368.949219 298.652344 264.125 298.613281 263.214844 C 300.910156 269.960938 319.03125 305.828125 323.824219 319.296875 C 333.398438 343.125 314.046875 375.59375 303.660156 380.4375 C 307.785156 385.941406 349.953125 393.867188 356.5 391.167969 C 360.277344 389.199219 376.992188 359.492188 377.808594 348.777344 C 378.683594 337.25 377.722656 321.183594 373.453125 303.253906 C 368.890625 284.898438 363.234375 266.832031 356.507812 249.152344 C 342.523438 211.703125 323.828125 177.433594 311.414062 167.519531 C 304.636719 163.679688 291.644531 159.757812 280.761719 156.132812 C 279.863281 155.835938 280.785156 155.128906 279.859375 155.019531 C 272.800781 154.171875 271.195312 152.90625 267.074219 150.980469 C 264.527344 149.792969 263.523438 148.320312 262.578125 147.953125 C 261.027344 147.347656 261.410156 150.015625 260.890625 151.597656 C 250.035156 184.585938 243.175781 221.804688 229.636719 253.75 C 225.171875 244.320312 221.570312 234.503906 218.878906 224.417969 C 215.765625 213.351562 213.683594 202.015625 210.601562 190.949219 C 206.785156 177.230469 201.441406 161.070312 196.839844 146.972656 C 196.113281 144.746094 195.085938 140.785156 193.007812 141.863281 C 192.136719 142.316406 190.941406 144.601562 187.441406 145.875 C 187.1875 145.96875 178.949219 148.839844 178.679688 148.898438 C 177.398438 149.191406 178.652344 149.546875 177.304688 149.859375 C 162.011719 153.421875 141.707031 158.382812 135.960938 161.613281 C 128.1875 167.304688 67.375 241.734375 35.777344 314.042969 C 24.382812 340.144531 82.175781 373.027344 116.628906 391.171875 Z M 92.457031 318.90625 C 105.804688 295.125 122.839844 273.617188 142.917969 255.183594 C 141.320312 282.648438 142.109375 325.050781 138.898438 346.882812 C 128.90625 339.789062 109.941406 326.996094 92.457031 318.90625 Z M 92.457031 318.90625 "/>
</g>
</g>
</g>
<g clip-path="url(#clip46)" clip-rule="nonzero">
<g clip-path="url(#clip47)" clip-rule="nonzero">
<g clip-path="url(#clip48)" clip-rule="nonzero">
<path style=" stroke:none;fill-rule:nonzero;fill:rgb(69.411765%,83.529412%,88.627451%);fill-opacity:1;" d="M 245.855469 187.171875 C 240.859375 179.847656 237.386719 165.652344 232.339844 160.609375 C 238.691406 163.257812 239.648438 175.195312 243.742188 181.664062 C 244.339844 182.605469 245.460938 181.445312 246.082031 180.710938 C 251.265625 174.613281 253.246094 168.320312 257.71875 160.609375 C 255.238281 168.558594 253.898438 173.261719 251.707031 181.308594 C 250.144531 183.085938 247.578125 185.546875 245.855469 187.171875 Z M 245.855469 187.171875 "/>
</g>
</g>
</g>
<g clip-path="url(#clip49)" clip-rule="nonzero">
<g clip-path="url(#clip50)" clip-rule="nonzero">
<g clip-path="url(#clip51)" clip-rule="nonzero">
<path style=" stroke:none;fill-rule:nonzero;fill:rgb(69.411765%,83.529412%,88.627451%);fill-opacity:1;" d="M 213.738281 186.007812 C 212.574219 186.734375 210.042969 184.300781 208.136719 182.457031 C 205.597656 173.082031 204.695312 169.871094 201.804688 160.609375 C 204.515625 168.121094 207.191406 175.90625 213.441406 180.710938 C 214.207031 181.296875 215.035156 182.496094 215.78125 181.664062 C 220.546875 176.34375 221.660156 163.738281 230.324219 160.609375 C 222.59375 167.085938 219.179688 182.605469 213.738281 186.007812 Z M 213.738281 186.007812 "/>
</g>
</g>
</g>
<g clip-path="url(#clip52)" clip-rule="nonzero">
<g clip-path="url(#clip53)" clip-rule="nonzero">
<g clip-path="url(#clip54)" clip-rule="nonzero">
<path style=" stroke:none;fill-rule:nonzero;fill:rgb(21.176471%,26.666667%,25.882353%);fill-opacity:1;" d="M 152.300781 354.308594 L 142.917969 348.253906 C 143.625 338.101562 146.089844 281.199219 146.347656 268.714844 C 167.394531 293.742188 193.773438 310.960938 223.148438 321.914062 C 223.261719 321.175781 223.800781 305.4375 223.464844 294.5625 C 223.402344 292.507812 224.222656 287.425781 224.101562 285.328125 C 224.457031 282.339844 226.191406 274.339844 225.832031 274.085938 C 226.699219 268.566406 227.972656 263.121094 229.640625 257.789062 L 226.753906 281.945312 C 226.703125 283.089844 226.957031 287.023438 227.867188 286.328125 C 238.386719 278.28125 248.90625 261.511719 254.746094 250.339844 C 262.59375 235.328125 271.292969 221.089844 277.160156 205.125 C 270.960938 201.9375 267.046875 195.179688 262.480469 190.171875 C 262.09375 189.769531 261.9375 189.199219 262.070312 188.65625 C 262.203125 188.113281 262.605469 187.679688 263.136719 187.503906 C 266.339844 186.457031 269.929688 185.242188 273.871094 184.171875 C 277.300781 183.242188 281.980469 181.914062 287.074219 180.640625 C 287.074219 180.640625 284.648438 174.550781 283.605469 171.605469 C 282.15625 167.523438 279.957031 160.058594 279.953125 155.648438 C 280.867188 157.816406 281.652344 160.042969 282.296875 162.308594 C 284.898438 172.5625 290.878906 184.304688 290.097656 184.785156 C 288.414062 185.816406 268.324219 190.554688 265.109375 191.320312 C 268.921875 196.039062 282.128906 206.402344 281.820312 207.261719 C 278.6875 216.042969 273.6875 222.019531 269.398438 230.292969 C 265.464844 237.875 260.976562 245.148438 257.035156 252.726562 C 250.527344 265.242188 232.925781 280.765625 226.925781 294.140625 C 223.320312 302.179688 225.664062 318.15625 225.664062 322.832031 C 245.765625 329.714844 270.917969 335.074219 290.101562 335.625 C 290.875 373.746094 290.683594 371.453125 290.875 373.746094 C 283.472656 372.921875 167.347656 372.734375 164.3125 374.316406 C 161.65625 375.703125 160.480469 378.363281 159.703125 381.125 C 158.125 386.722656 156.886719 391.085938 152.667969 394.898438 C 148.285156 399.867188 138.054688 397.386719 136.765625 391.386719 C 135.335938 382.34375 145.554688 366.1875 152.300781 354.308594 Z M 152.300781 354.308594 "/>
</g>
</g>
</g>
<g clip-path="url(#clip55)" clip-rule="nonzero">
<g clip-path="url(#clip56)" clip-rule="nonzero">
<g clip-path="url(#clip57)" clip-rule="nonzero">
<path style=" stroke:none;fill-rule:nonzero;fill:rgb(21.176471%,26.666667%,25.882353%);fill-opacity:1;" d="M 225.75 285.328125 C 218.957031 272.742188 206.738281 257.886719 200.914062 246.679688 C 196.972656 239.097656 192.480469 231.828125 188.550781 224.242188 C 184.261719 215.96875 179.253906 209.992188 176.125 201.210938 C 175.824219 200.355469 189.027344 189.992188 192.835938 185.269531 C 189.625 184.5 169.535156 179.765625 167.847656 178.734375 C 167.070312 178.257812 173.046875 166.511719 175.648438 156.257812 C 176.296875 153.992188 177.078125 151.769531 177.992188 149.597656 C 177.992188 154.007812 175.789062 161.472656 174.34375 165.554688 C 173.296875 168.5 170.875 174.589844 170.875 174.589844 C 175.96875 175.867188 180.644531 177.195312 184.078125 178.125 C 188.019531 179.191406 191.609375 180.410156 194.8125 181.457031 C 195.34375 181.628906 195.746094 182.0625 195.878906 182.605469 C 196.011719 183.148438 195.855469 183.722656 195.464844 184.121094 C 190.902344 189.128906 186.984375 195.890625 180.785156 199.074219 C 186.65625 215.039062 195.355469 229.28125 203.199219 244.292969 C 208.386719 254.210938 217.265625 268.542969 226.554688 277.265625 C 226.507812 279.96875 226.238281 282.667969 225.75 285.328125 Z M 225.75 285.328125 "/>
</g>
</g>
</g>
<g clip-path="url(#clip58)" clip-rule="nonzero">
<g clip-path="url(#clip59)" clip-rule="nonzero">
<g clip-path="url(#clip60)" clip-rule="nonzero">
<path style=" stroke:none;fill-rule:nonzero;fill:rgb(12.54902%,34.901961%,39.607843%);fill-opacity:1;" d="M 180.417969 82.773438 C 178.40625 77.679688 177.171875 72.3125 176.753906 66.847656 C 174.261719 37.609375 197.992188 3.566406 227.457031 -0.191406 C 253.90625 -3.5625 279.507812 -3.074219 299.21875 17.613281 C 305.261719 23.957031 320.171875 43.753906 306.789062 54.308594 C 296.757812 62.222656 280.90625 51.722656 269.507812 59.402344 C 264.277344 62.925781 258.390625 66.550781 255.503906 72.320312 C 252.796875 77.722656 252.566406 83.988281 250.078125 89.386719 C 246.796875 96.5 235.851562 104.605469 228.179688 106.125 C 216.90625 108.359375 201.441406 104.949219 192.148438 98.214844 C 186.863281 94.28125 182.796875 88.925781 180.417969 82.773438 Z M 180.417969 82.773438 "/>
</g>
</g>
</g>
<g clip-path="url(#clip61)" clip-rule="nonzero">
<g clip-path="url(#clip62)" clip-rule="nonzero">
<g clip-path="url(#clip63)" clip-rule="nonzero">
<path style=" stroke:none;fill-rule:nonzero;fill:rgb(11.764706%,28.627451%,31.764706%);fill-opacity:1;" d="M 236.800781 72.570312 C 242.773438 69.273438 248.453125 65.261719 254.363281 61.777344 C 253.367188 63.011719 252.523438 64.367188 251.851562 65.804688 C 249.363281 71.210938 249.152344 77.476562 246.867188 82.875 C 243.855469 89.988281 233.804688 98.089844 226.757812 99.613281 C 216.40625 101.847656 202.203125 98.4375 193.667969 91.703125 C 188.730469 87.644531 185.003906 82.300781 182.898438 76.257812 C 181.289062 71.847656 180.230469 67.253906 179.75 62.582031 C 194.765625 78.125 218.125 82.878906 236.800781 72.570312 Z M 236.800781 72.570312 "/>
</g>
</g>
</g>
<g clip-path="url(#clip64)" clip-rule="nonzero">
<g clip-path="url(#clip65)" clip-rule="nonzero">
<g clip-path="url(#clip66)" clip-rule="nonzero">
<path style=" stroke:none;fill-rule:nonzero;fill:rgb(21.176471%,26.666667%,25.882353%);fill-opacity:1;" d="M 345.402344 365.097656 C 339.304688 356.910156 330.261719 356.355469 321.070312 356.386719 C 325.347656 346.179688 327.933594 333.953125 325.699219 322.878906 C 341.425781 316.980469 358.417969 315.324219 374.984375 318.070312 C 376.390625 329.042969 379.84375 342.4375 377.683594 349.859375 C 371.910156 369.695312 357.835938 388.667969 354.292969 390.636719 C 353.867188 390.820312 350.382812 371.785156 345.402344 365.097656 Z M 345.402344 365.097656 "/>
</g>
</g>
</g>
<g clip-path="url(#clip67)" clip-rule="nonzero">
<g clip-path="url(#clip68)" clip-rule="nonzero">
<g clip-path="url(#clip69)" clip-rule="nonzero">
<path style=" stroke:none;fill-rule:nonzero;fill:rgb(74.509804%,70.196078%,67.843137%);fill-opacity:1;" d="M 473.515625 419.957031 L 87.007812 419.957031 L 87.007812 404.167969 L 473.515625 404.167969 Z M 473.515625 419.957031 "/>
</g>
</g>
</g>
<g clip-path="url(#clip70)" clip-rule="nonzero">
<g clip-path="url(#clip71)" clip-rule="nonzero">
<g clip-path="url(#clip72)" clip-rule="nonzero">
<path style=" stroke:none;fill-rule:nonzero;fill:rgb(21.176471%,26.666667%,25.882353%);fill-opacity:1;" d="M 226.929688 301.683594 C 227.058594 299.914062 228.574219 298.570312 230.34375 298.65625 C 232.113281 298.742188 233.492188 300.226562 233.449219 302 C 233.402344 303.773438 231.957031 305.191406 230.183594 305.191406 C 228.320312 305.121094 226.863281 303.550781 226.929688 301.683594 Z M 226.929688 301.683594 "/>
</g>
</g>
</g>
<g clip-path="url(#clip73)" clip-rule="nonzero">
<g clip-path="url(#clip74)" clip-rule="nonzero">
<g clip-path="url(#clip75)" clip-rule="nonzero">
<path style=" stroke:none;fill-rule:nonzero;fill:rgb(21.176471%,26.666667%,25.882353%);fill-opacity:1;" d="M 226.929688 325.164062 C 227.058594 323.394531 228.574219 322.050781 230.34375 322.136719 C 232.113281 322.222656 233.492188 323.707031 233.449219 325.480469 C 233.402344 327.257812 231.957031 328.671875 230.183594 328.671875 C 228.320312 328.601562 226.863281 327.03125 226.929688 325.164062 Z M 226.929688 325.164062 "/>
</g>
</g>
</g>
<g clip-path="url(#clip76)" clip-rule="nonzero">
<g clip-path="url(#clip77)" clip-rule="nonzero">
<g clip-path="url(#clip78)" clip-rule="nonzero">
<path style=" stroke:none;fill-rule:nonzero;fill:rgb(74.901961%,30.980392%,38.823529%);fill-opacity:1;" d="M 231.375 182.324219 C 237.210938 180.664062 241.488281 167.023438 234.75 166.375 C 230.089844 165.929688 224.832031 165.246094 224.210938 169.3125 C 223.871094 171.523438 225.960938 183.867188 231.375 182.324219 Z M 231.375 182.324219 "/>
</g>
</g>
</g>
<g clip-path="url(#clip79)" clip-rule="nonzero">
<g clip-path="url(#clip80)" clip-rule="nonzero">
<g clip-path="url(#clip81)" clip-rule="nonzero">
<path style=" stroke:none;fill-rule:nonzero;fill:rgb(88.627451%,62.745098%,33.333333%);fill-opacity:1;" d="M 189.773438 266.929688 L 152.160156 266.929688 L 152.160156 252.160156 L 189.773438 252.160156 Z M 189.773438 266.929688 "/>
</g>
</g>
</g>
<g clip-path="url(#clip82)" clip-rule="nonzero">
<g clip-path="url(#clip83)" clip-rule="nonzero">
<g clip-path="url(#clip84)" clip-rule="nonzero">
<path style=" stroke:none;fill-rule:nonzero;fill:rgb(100%,100%,100%);fill-opacity:1;" d="M 323.949219 355.078125 C 327.789062 355.046875 331.183594 355.078125 334.671875 356.878906 C 338.265625 358.84375 341.503906 361.402344 344.253906 364.441406 C 349.386719 369.859375 354.289062 376.214844 354.292969 383.917969 C 354.292969 387.660156 349.503906 388.527344 348.566406 388.191406 C 347.988281 387.980469 351.21875 386.367188 351.117188 383.746094 C 350.855469 376.984375 346.359375 371.257812 341.886719 366.539062 C 339.640625 364.085938 337.0625 361.957031 334.230469 360.214844 C 330.8125 358.191406 327.582031 358.140625 323.734375 358.171875 C 321.683594 358.191406 321.929688 355.097656 323.949219 355.078125 Z M 323.949219 355.078125 "/>
</g>
</g>
</g>
<g clip-path="url(#clip85)" clip-rule="nonzero">
<g clip-path="url(#clip86)" clip-rule="nonzero">
<g clip-path="url(#clip87)" clip-rule="nonzero">
<path style=" stroke:none;fill-rule:nonzero;fill:rgb(61.960784%,72.941176%,76.470588%);fill-opacity:1;" d="M 339.351562 386.738281 C 339.503906 386 339.433594 385.230469 339.152344 384.53125 C 336.574219 377.5625 328.875 371.113281 322.351562 367.714844 C 315.871094 364.332031 304.910156 363.597656 306.710938 372.949219 C 308.492188 382.210938 318.9375 390.265625 327.390625 393.453125 C 330.820312 394.746094 335.023438 395.691406 337.921875 394.140625 C 340.765625 392.617188 340.652344 389.667969 339.351562 386.738281 Z M 339.351562 386.738281 "/>
</g>
</g>
</g>
<g clip-path="url(#clip88)" clip-rule="nonzero">
<g clip-path="url(#clip89)" clip-rule="nonzero">
<g clip-path="url(#clip90)" clip-rule="nonzero">
<path style=" stroke:none;fill-rule:nonzero;fill:rgb(100%,100%,100%);fill-opacity:1;" d="M 341.078125 369.027344 C 340.859375 368.660156 337.136719 366.765625 334.921875 364.503906 C 332.703125 362.242188 334.554688 361.589844 330.738281 358.113281 C 329.691406 357.160156 325.796875 357.671875 324.082031 355.386719 C 322.996094 353.9375 321.496094 352.851562 319.785156 352.269531 C 315.832031 351.300781 311.992188 351.648438 310.035156 354.558594 C 309.230469 355.792969 303.695312 359.894531 301.984375 360.972656 C 300.445312 361.941406 297.554688 364.503906 294.957031 365.921875 C 294.898438 365.949219 285.117188 369.953125 284.953125 370.011719 C 284.917969 370.023438 284.890625 370.039062 284.851562 370.050781 C 283.019531 370.671875 281.25 374.976562 283.058594 375.953125 C 284.101562 376.519531 292.796875 377.125 296.34375 376.203125 C 297.613281 375.828125 298.816406 375.25 299.902344 374.492188 C 296.5 382.011719 293.992188 389.902344 298.6875 391.125 C 303.128906 393.207031 311.925781 376.117188 316.402344 367.664062 C 317.738281 366.9375 319.117188 366.300781 320.53125 365.75 C 318.199219 368.554688 316.019531 374.898438 312.835938 379.9375 C 308.273438 387.167969 303.027344 392.828125 308.796875 395.59375 C 315.261719 399.789062 331.613281 370.378906 331.789062 370.527344 C 332.417969 371.171875 332.917969 371.933594 333.261719 372.765625 C 327.171875 380.71875 315.023438 398.753906 317.78125 400.449219 C 323.664062 403.976562 333.605469 390.53125 336.890625 384.761719 C 337.226562 385.898438 337.515625 386.625 337.761719 386.640625 C 334.34375 390.265625 327.386719 400.429688 329.78125 403.347656 C 335.035156 406.101562 345.691406 389.925781 345.992188 385.550781 C 346.253906 381.742188 345.589844 381.523438 342.859375 376.953125 C 341.496094 374.660156 342.425781 371.28125 341.078125 369.027344 Z M 341.078125 369.027344 "/>
</g>
</g>
</g>
<g clip-path="url(#clip91)" clip-rule="nonzero">
<g clip-path="url(#clip92)" clip-rule="nonzero">
<g clip-path="url(#clip93)" clip-rule="nonzero">
<path style=" stroke:none;fill-rule:nonzero;fill:rgb(69.411765%,83.529412%,88.627451%);fill-opacity:1;" d="M 299.503906 375.382812 C 299.503906 375.382812 300.550781 369.351562 302.132812 363.84375 C 308.074219 361.414062 310.164062 355.5625 312.253906 355.800781 C 310.835938 359.824219 304.335938 371.445312 299.503906 375.382812 Z M 299.503906 375.382812 "/>
</g>
</g>
</g>
<g clip-path="url(#clip94)" clip-rule="nonzero">
<g clip-path="url(#clip95)" clip-rule="nonzero">
<g clip-path="url(#clip96)" clip-rule="nonzero">
<path style=" stroke:none;fill-rule:nonzero;fill:rgb(69.411765%,83.529412%,88.627451%);fill-opacity:1;" d="M 339.421875 386.289062 C 338.246094 389.160156 335.285156 391.367188 333.464844 393.8125 C 333.183594 394.191406 330.832031 393.347656 330.582031 393.628906 C 334.542969 389.597656 337.492188 384.683594 339.195312 379.289062 C 339.757812 378.125 341.0625 378.917969 342.414062 379.125 C 341.019531 381.972656 340.777344 382.972656 339.421875 386.289062 Z M 339.421875 386.289062 "/>
</g>
</g>
</g>
<g clip-path="url(#clip97)" clip-rule="nonzero">
<g clip-path="url(#clip98)" clip-rule="nonzero">
<g clip-path="url(#clip99)" clip-rule="nonzero">
<path style=" stroke:none;fill-rule:nonzero;fill:rgb(69.411765%,83.529412%,88.627451%);fill-opacity:1;" d="M 318.03125 372.566406 C 315.492188 376.757812 313.273438 381.238281 310.660156 385.28125 C 310.257812 385.90625 308.984375 385.898438 308.621094 386.371094 C 316.519531 373.058594 317.15625 367.386719 317.96875 361.597656 C 318.742188 359.703125 321.433594 359.003906 323.53125 359.191406 C 321.9375 363.890625 320.433594 368.601562 318.03125 372.566406 Z M 318.03125 372.566406 "/>
</g>
</g>
</g>
<g clip-path="url(#clip100)" clip-rule="nonzero">
<g clip-path="url(#clip101)" clip-rule="nonzero">
<g clip-path="url(#clip102)" clip-rule="nonzero">
<path style=" stroke:none;fill-rule:nonzero;fill:rgb(69.411765%,83.529412%,88.627451%);fill-opacity:1;" d="M 329.917969 380.507812 C 327.546875 384.058594 325.128906 387.707031 322.675781 391.128906 C 322.296875 391.660156 320.496094 392.113281 320.15625 392.511719 C 325.65625 383.085938 329.117188 376.210938 329.484375 370.980469 C 330.191406 369.359375 332.832031 368.84375 334.921875 369.082031 C 333.5 373.105469 332.167969 377.144531 329.917969 380.507812 Z M 329.917969 380.507812 "/>
</g>
</g>
</g>
<g clip-path="url(#clip103)" clip-rule="nonzero">
<g clip-path="url(#clip104)" clip-rule="nonzero">
<g clip-path="url(#clip105)" clip-rule="nonzero">
<path style=" stroke:none;fill-rule:nonzero;fill:rgb(100%,100%,100%);fill-opacity:1;" d="M 140.191406 395.882812 C 142.636719 397.0625 145.527344 396.835938 147.757812 395.285156 C 148.328125 394.898438 153.226562 389.492188 153.015625 388.90625 C 152.898438 388.59375 148.320312 392 146.503906 391.085938 C 142.828125 389.238281 140.839844 381.488281 144.535156 371.207031 C 146.355469 366.15625 151.273438 357.914062 156.929688 356.1875 L 152.304688 354.308594 C 147.257812 357.464844 143.816406 363.667969 141.871094 369.363281 C 139.125 377.398438 133.882812 391.925781 140.191406 395.882812 Z M 140.191406 395.882812 "/>
</g>
</g>
</g>
<g clip-path="url(#clip106)" clip-rule="nonzero">
<g clip-path="url(#clip107)" clip-rule="nonzero">
<g clip-path="url(#clip108)" clip-rule="nonzero">
<path style=" stroke:none;fill-rule:nonzero;fill:rgb(88.627451%,62.745098%,33.333333%);fill-opacity:1;" d="M 460.882812 407.316406 C 461.488281 407.316406 462.097656 407.339844 462.714844 407.367188 C 462.035156 407.339844 461.34375 407.328125 460.648438 407.320312 C 460.726562 407.320312 460.804688 407.316406 460.882812 407.316406 Z M 460.882812 407.316406 "/>
</g>
</g>
</g>
<g clip-path="url(#clip109)" clip-rule="nonzero">
<g clip-path="url(#clip110)" clip-rule="nonzero">
<g clip-path="url(#clip111)" clip-rule="nonzero">
<path style=" stroke:none;fill-rule:nonzero;fill:rgb(88.627451%,62.745098%,33.333333%);fill-opacity:1;" d="M 418.867188 349.304688 L 414.882812 349.304688 L 414.882812 338.785156 L 418.867188 338.785156 Z M 418.867188 349.304688 "/>
</g>
</g>
</g>
<g clip-path="url(#clip112)" clip-rule="nonzero">
<g clip-path="url(#clip113)" clip-rule="nonzero">
<g clip-path="url(#clip114)" clip-rule="nonzero">
<path style=" stroke:none;fill-rule:nonzero;fill:rgb(81.176471%,56.862745%,31.372549%);fill-opacity:1;" d="M 395.664062 363.285156 L 395.664062 363.296875 C 395.664062 369.085938 404.871094 373.777344 416.230469 373.777344 C 427.589844 373.777344 436.800781 369.085938 436.800781 363.296875 C 436.796875 362.570312 436.65625 361.851562 436.382812 361.179688 C 439.984375 364.988281 441.976562 370.042969 441.9375 375.289062 C 441.9375 375.289062 437.3125 385.652344 416.742188 386.347656 C 395.53125 385.652344 391.804688 375.449219 391.804688 375.449219 C 391.769531 371.089844 393.121094 366.828125 395.664062 363.285156 Z M 395.664062 363.285156 "/>
</g>
</g>
</g>
<g clip-path="url(#clip115)" clip-rule="nonzero">
<g clip-path="url(#clip116)" clip-rule="nonzero">
<g clip-path="url(#clip117)" clip-rule="nonzero">
<path style=" stroke:none;fill-rule:nonzero;fill:rgb(88.627451%,62.745098%,33.333333%);fill-opacity:1;" d="M 416.875 347.25 C 430.9375 347.25 442.339844 353.308594 442.339844 367.765625 C 442.339844 367.765625 435.175781 376.730469 416.875 376.640625 C 397.457031 376.730469 391.410156 367.765625 391.410156 367.765625 C 391.410156 353.308594 402.808594 347.25 416.875 347.25 Z M 416.875 347.25 "/>
</g>
</g>
</g>
<g clip-path="url(#clip118)" clip-rule="nonzero">
<g clip-path="url(#clip119)" clip-rule="nonzero">
<g clip-path="url(#clip120)" clip-rule="nonzero">
<path style=" stroke:none;fill-rule:nonzero;fill:rgb(89.803922%,70.980392%,49.411765%);fill-opacity:1;" d="M 418.867188 349.304688 C 428.992188 349.671875 437.035156 355.34375 437.035156 368.273438 C 433.789062 369.871094 430.414062 371.199219 426.953125 372.242188 C 427.207031 362.789062 424.4375 355.015625 418.867188 349.304688 Z M 418.867188 349.304688 "/>
</g>
</g>
</g>
<g clip-path="url(#clip121)" clip-rule="nonzero">
<g clip-path="url(#clip122)" clip-rule="nonzero">
<g clip-path="url(#clip123)" clip-rule="nonzero">
<path style=" stroke:none;fill-rule:nonzero;fill:rgb(100%,100%,100%);fill-opacity:1;" d="M 433.140625 365.402344 C 432.738281 361.980469 431.355469 358.746094 429.164062 356.089844 C 426.824219 353.433594 423.65625 351.980469 420.558594 350.421875 C 428.035156 351.5625 433.886719 356.011719 435.34375 364.6875 C 434.617188 364.960938 433.890625 365.203125 433.140625 365.402344 Z M 433.140625 365.402344 "/>
</g>
</g>
</g>
<g clip-path="url(#clip124)" clip-rule="nonzero">
<g clip-path="url(#clip125)" clip-rule="nonzero">
<g clip-path="url(#clip126)" clip-rule="nonzero">
<path style=" stroke:none;fill-rule:nonzero;fill:rgb(81.176471%,56.862745%,31.372549%);fill-opacity:1;" d="M 423.082031 338.238281 C 423.082031 337.132812 420.300781 336.238281 416.875 336.238281 C 413.445312 336.238281 410.667969 337.132812 410.667969 338.238281 C 410.667969 339.339844 413.445312 340.234375 416.875 340.234375 C 420.300781 340.234375 423.082031 339.339844 423.082031 338.238281 Z M 423.082031 338.238281 "/>
</g>
</g>
</g>
<g clip-path="url(#clip127)" clip-rule="nonzero">
<g clip-path="url(#clip128)" clip-rule="nonzero">
<g clip-path="url(#clip129)" clip-rule="nonzero">
<path style=" stroke:none;fill-rule:nonzero;fill:rgb(88.627451%,62.745098%,33.333333%);fill-opacity:1;" d="M 391.925781 373.214844 L 391.925781 373.222656 C 391.925781 378.722656 402.757812 383.179688 416.117188 383.179688 L 417.632812 383.179688 C 430.996094 383.179688 441.828125 378.722656 441.828125 373.222656 L 441.828125 373.214844 C 444.730469 376.363281 446.347656 380.484375 446.363281 384.769531 C 446.363281 384.769531 441.980469 394.460938 417.03125 395.121094 C 416.980469 395.121094 416.78125 395.121094 416.726562 395.121094 C 391.777344 394.460938 387.394531 384.769531 387.394531 384.769531 C 387.410156 380.484375 389.027344 376.363281 391.925781 373.214844 Z M 391.925781 373.214844 "/>
</g>
</g>
</g>
<g clip-path="url(#clip130)" clip-rule="nonzero">
<g clip-path="url(#clip131)" clip-rule="nonzero">
<g clip-path="url(#clip132)" clip-rule="nonzero">
<path style=" stroke:none;fill-rule:nonzero;fill:rgb(89.803922%,70.980392%,49.411765%);fill-opacity:1;" d="M 437.949219 379.78125 C 442.007812 381.917969 442.28125 386.867188 442.339844 387.472656 C 439.34375 389.859375 435.792969 391.449219 432.019531 392.097656 C 432.089844 388.859375 431.183594 385.675781 429.425781 382.957031 C 432.445312 382.464844 435.34375 381.386719 437.949219 379.78125 Z M 437.949219 379.78125 "/>
</g>
</g>
</g>
<g clip-path="url(#clip133)" clip-rule="nonzero">
<g clip-path="url(#clip134)" clip-rule="nonzero">
<g clip-path="url(#clip135)" clip-rule="nonzero">
<path style=" stroke:none;fill-rule:nonzero;fill:rgb(100%,100%,100%);fill-opacity:1;" d="M 435.34375 381.460938 C 435.734375 381.246094 436.121094 381.019531 436.496094 380.769531 C 440.550781 382.902344 440.828125 387.859375 440.886719 388.460938 C 440.519531 388.742188 440.101562 389.042969 439.660156 389.351562 C 438.917969 386.394531 437.433594 383.679688 435.34375 381.460938 Z M 435.34375 381.460938 "/>
</g>
</g>
</g>
<g clip-path="url(#clip136)" clip-rule="nonzero">
<g clip-path="url(#clip137)" clip-rule="nonzero">
<g clip-path="url(#clip138)" clip-rule="nonzero">
<path style=" stroke:none;fill-rule:nonzero;fill:rgb(88.627451%,62.745098%,33.333333%);fill-opacity:1;" d="M 423.082031 337.679688 C 423.082031 336.578125 420.300781 335.683594 416.875 335.683594 C 413.445312 335.683594 410.667969 336.578125 410.667969 337.679688 C 410.667969 338.785156 413.445312 339.679688 416.875 339.679688 C 420.300781 339.679688 423.082031 338.785156 423.082031 337.679688 Z M 423.082031 337.679688 "/>
</g>
</g>
</g>
<g clip-path="url(#clip139)" clip-rule="nonzero">
<g clip-path="url(#clip140)" clip-rule="nonzero">
<g clip-path="url(#clip141)" clip-rule="nonzero">
<path style=" stroke:none;fill-rule:nonzero;fill:rgb(88.627451%,62.745098%,33.333333%);fill-opacity:1;" d="M 412.972656 345.695312 C 412.972656 345.214844 414.71875 344.824219 416.871094 344.824219 C 419.023438 344.824219 420.769531 345.214844 420.769531 345.695312 C 420.769531 346.179688 419.023438 346.574219 416.871094 346.574219 C 414.71875 346.574219 412.972656 346.179688 412.972656 345.695312 Z M 412.972656 345.695312 "/>
</g>
</g>
</g>
<g clip-path="url(#clip142)" clip-rule="nonzero">
<g clip-path="url(#clip143)" clip-rule="nonzero">
<g clip-path="url(#clip144)" clip-rule="nonzero">
<path style=" stroke:none;fill-rule:nonzero;fill:rgb(81.176471%,56.862745%,31.372549%);fill-opacity:1;" d="M 416.875 350.039062 C 415.511719 350.125 414.15625 349.808594 412.976562 349.128906 L 412.976562 345.695312 C 414.246094 346.042969 415.558594 346.199219 416.875 346.160156 C 418.183594 346.082031 419.484375 345.925781 420.773438 345.695312 L 420.773438 349.304688 C 419.539062 349.820312 418.210938 350.066406 416.875 350.039062 Z M 416.875 350.039062 "/>
</g>
</g>
</g>
<g clip-path="url(#clip145)" clip-rule="nonzero">
<g clip-path="url(#clip146)" clip-rule="nonzero">
<g clip-path="url(#clip147)" clip-rule="nonzero">
<path style=" stroke:none;fill-rule:nonzero;fill:rgb(81.176471%,56.862745%,31.372549%);fill-opacity:1;" d="M 415.367188 345.269531 L 415.46875 339.871094 L 416.664062 339.871094 L 416.664062 345.4375 C 416.222656 345.523438 415.769531 345.460938 415.367188 345.269531 Z M 415.367188 345.269531 "/>
</g>
</g>
</g>
<g clip-path="url(#clip148)" clip-rule="nonzero">
<g clip-path="url(#clip149)" clip-rule="nonzero">
<g clip-path="url(#clip150)" clip-rule="nonzero">
<path style=" stroke:none;fill-rule:nonzero;fill:rgb(69.411765%,83.529412%,88.627451%);fill-opacity:1;" d="M 145.253906 371.90625 L 207.949219 421.960938 C 223.21875 417.226562 282.164062 406.382812 309.234375 410.351562 C 290.261719 392.8125 270.320312 376.355469 249.511719 361.050781 C 232.730469 357.410156 162.835938 366.503906 145.253906 371.90625 Z M 145.253906 371.90625 "/>
</g>
</g>
</g>
<g clip-path="url(#clip151)" clip-rule="nonzero">
<g clip-path="url(#clip152)" clip-rule="nonzero">
<g clip-path="url(#clip153)" clip-rule="nonzero">
<path style=" stroke:none;fill-rule:nonzero;fill:rgb(100%,100%,100%);fill-opacity:1;" d="M 206.253906 372.332031 C 208.578125 372.703125 217.414062 371.125 217.132812 367.613281 C 216.992188 365.886719 213.042969 365.90625 211.644531 365.507812 C 209.109375 364.660156 206.628906 363.652344 204.214844 362.5 C 200.785156 361.035156 197.324219 359.433594 194.035156 357.675781 C 188.832031 354.894531 184.910156 351.824219 178.683594 352.585938 C 175.230469 353.011719 171.824219 353.71875 168.410156 354.371094 C 165.011719 355.023438 161.058594 354.980469 157.78125 355.9375 C 152.410156 357.496094 149.328125 359.167969 144.945312 367.949219 C 144.136719 369.578125 142.074219 378.578125 144.039062 380.078125 C 148.527344 383.511719 154.183594 384.917969 158.976562 387.78125 C 159.691406 389.21875 163.019531 390.71875 164.550781 391.730469 C 167.648438 393.777344 170.75 395.816406 173.902344 397.773438 C 178.359375 400.539062 185.890625 406.445312 191.515625 405.964844 C 196.742188 405.515625 189.761719 399.539062 188.289062 398.195312 C 192.550781 400.671875 196.957031 402.898438 201.480469 404.859375 C 203.75 405.769531 206.496094 406.90625 208.957031 405.386719 C 212.972656 402.898438 203.515625 396.792969 201.757812 395.511719 C 197.519531 392.425781 192.988281 389.757812 188.738281 386.71875 C 192.230469 388.425781 196.957031 390.886719 198.953125 392.003906 C 202.125 393.777344 211.300781 397.453125 215.753906 397.914062 C 217.871094 398.128906 220.839844 394.898438 216.5625 391.121094 C 218.378906 392.328125 223.433594 396.449219 225.894531 394.875 C 227.824219 393.640625 226.65625 391.128906 225.574219 389.820312 C 220.066406 383.125 210.714844 378.695312 206.253906 372.332031 Z M 206.128906 384.980469 C 205.046875 384.347656 204 383.648438 202.996094 382.894531 C 203.917969 382.457031 204.417969 382.042969 204.375 381.667969 C 207.566406 384.339844 210.808594 386.945312 213.796875 389.144531 C 211.628906 387.835938 208.890625 386.523438 206.128906 384.976562 Z M 206.128906 384.980469 "/>
</g>
</g>
</g>
<g clip-path="url(#clip154)" clip-rule="nonzero">
<g clip-path="url(#clip155)" clip-rule="nonzero">
<g clip-path="url(#clip156)" clip-rule="nonzero">
<path style=" stroke:none;fill-rule:nonzero;fill:rgb(69.411765%,83.529412%,88.627451%);fill-opacity:1;" d="M 144.652344 367.578125 C 149.027344 360.445312 152.109375 359.089844 157.484375 357.824219 C 158.320312 357.632812 159.160156 357.484375 160.011719 357.378906 C 154.472656 364.835938 152.871094 373.21875 153.703125 381.664062 C 150.265625 380.425781 146.746094 379.296875 143.746094 377.429688 C 141.777344 376.214844 143.839844 368.902344 144.652344 367.578125 Z M 144.652344 367.578125 "/>
</g>
</g>
</g>
<g clip-path="url(#clip157)" clip-rule="nonzero">
<g clip-path="url(#clip158)" clip-rule="nonzero">
<g clip-path="url(#clip159)" clip-rule="nonzero">
<path style=" stroke:none;fill-rule:nonzero;fill:rgb(69.411765%,83.529412%,88.627451%);fill-opacity:1;" d="M 183.84375 387.082031 C 187.621094 389.066406 190.867188 389.773438 194.648438 391.609375 C 195.234375 391.894531 198.457031 391.8125 198.949219 392 C 188.734375 386.714844 182.421875 382.898438 178.703125 379.730469 C 177.421875 378.492188 175.433594 378.363281 174.003906 379.429688 C 177.171875 382.285156 180.261719 385.199219 183.84375 387.082031 Z M 183.84375 387.082031 "/>
</g>
</g>
</g>
<g clip-path="url(#clip160)" clip-rule="nonzero">
<g clip-path="url(#clip161)" clip-rule="nonzero">
<g clip-path="url(#clip162)" clip-rule="nonzero">
<path style=" stroke:none;fill-rule:nonzero;fill:rgb(69.411765%,83.529412%,88.627451%);fill-opacity:1;" d="M 194.621094 379.730469 C 198.097656 382.484375 200.335938 382.6875 205.332031 384.496094 C 206.320312 384.402344 207.320312 384.402344 208.308594 384.496094 C 203.140625 380.488281 193.308594 375.550781 188.210938 369.078125 C 186.820312 367.988281 184.957031 369.6875 183.234375 370.894531 C 186.398438 373.753906 191.449219 377.222656 194.621094 379.730469 Z M 194.621094 379.730469 "/>
</g>
</g>
</g>
<g clip-path="url(#clip163)" clip-rule="nonzero">
<g clip-path="url(#clip164)" clip-rule="nonzero">
<g clip-path="url(#clip165)" clip-rule="nonzero">
<path style=" stroke:none;fill-rule:nonzero;fill:rgb(69.411765%,83.529412%,88.627451%);fill-opacity:1;" d="M 171.183594 391.507812 C 174.101562 392.542969 177.089844 393.617188 179.988281 394.542969 C 180.433594 394.691406 180.835938 394.804688 181.199219 394.890625 C 177.054688 391.710938 169.980469 387.878906 166.90625 386.042969 C 165.773438 385.421875 164.148438 386.175781 163.167969 387.128906 C 165.671875 388.878906 168.359375 390.347656 171.183594 391.507812 Z M 171.183594 391.507812 "/>
</g>
</g>
</g>
<g clip-path="url(#clip166)" clip-rule="nonzero">
<g clip-path="url(#clip167)" clip-rule="nonzero">
<g clip-path="url(#clip168)" clip-rule="nonzero">
<path style=" stroke:none;fill-rule:nonzero;fill:rgb(69.411765%,83.529412%,88.627451%);fill-opacity:1;" d="M 201.308594 368.730469 C 202.859375 370.058594 204.515625 371.261719 206.253906 372.328125 C 206.34375 368.414062 204.445312 364.722656 201.21875 362.519531 C 200.289062 361.617188 195.847656 358.554688 194.648438 359.214844 C 194.621094 363.183594 199.097656 366.804688 201.308594 368.730469 Z M 201.308594 368.730469 "/>
</g>
</g>
</g>
</g>
</svg>
