<?xml version="1.0" standalone="no"?>
<!DOCTYPE svg PUBLIC "-//W3C//DTD SVG 1.0//EN" "http://www.w3.org/TR/2001/REC-SVG-20010904/DTD/svg10.dtd">
<svg xmlns="http://www.w3.org/2000/svg" xmlns:xlink="http://www.w3.org/1999/xlink" id="body_1" width="728" height="411">

<defs>
        <clipPath  id="1">

            <path clip-rule="evenodd" d="M0 54.652C 0 24.468534 24.468534 0 54.652 0L54.652 0L673.348 0C 703.5315 0 728 24.468534 728 54.652L728 54.652L728 356.477C 728 386.66046 703.5315 411.129 673.348 411.129L673.348 411.129L54.652 411.129C 24.468534 411.129 0 386.66046 0 356.477L0 356.477L0 54.652z" />        </clipPath>
                <clipPath  id="2">

                    <path clip-rule="evenodd" d="M0 0L506.51 0L506.51 446.162L0 446.162z" />                </clipPath>
                    <clipPath  id="3">

                        <path clip-rule="evenodd" d="M0 30.986C 0 13.872905 13.872905 0 30.986 0L30.986 0L475.52402 0C 492.63712 0 506.51 13.872905 506.51 30.986L506.51 30.986L506.51 532.17596C 506.51 549.28906 492.63712 563.162 475.52402 563.162L475.52402 563.162L30.986 563.162C 13.872905 563.162 0 549.28906 0 532.17596L0 532.17596L0 30.986z" />                    </clipPath>
</defs>

<g transform="matrix(1 0 0 0.9996863 0 0)">
	<g clip-path="url(#1)" >
		<g transform="matrix(1 0 0 1 -2.428 -31.374)">
			<g clip-path="url(#2)" >
				<g clip-path="url(#3)" >
                    <path transform="matrix(-1 1.5099579E-07 -1.5099579E-07 -1 470.182 1035.256)"  d="M0 0L381.805 0L381.805 605.274L0 605.274z" stroke="none" fill="#D3C8C1" fill-rule="nonzero" />
                    <path transform="matrix(1 0 0 1 -556.862 -1878.475)"  d="M704.859 2308.456C 705.95 2311.626 707.036 2314.8062 708.132 2317.968C 726.65204 2371.418 745.787 2423.814 766.094 2473.78C 784.985 2520.264 804.91296 2564.628 826.248 2605.254C 846.737 2644.27 868.51697 2679.7788 891.57 2710.468C 915.349 2742.123 940.43 2768.556 966.35 2789.668C 985.0873 2805.0044 1005.4389 2818.255 1027.0449 2829.185L1027.0449 2829.185L1027.0449 2913.732L645.239 2913.732L645.239 2308.456L704.859 2308.456z" stroke="none" fill="#BEB3AD" fill-rule="nonzero" />
                    <path transform="matrix(1 0 0 1 -556.862 -1878.503)"  d="M645.454 2331.926L645.23895 2324.056L710.23895 2324.056C 713.12396 2332.378 716.05695 2340.671 718.97394 2348.9358C 695.481 2336.5 669.549 2333.753 645.454 2331.926z" stroke="none" fill="#AAA19E" fill-rule="nonzero" />
                    <path transform="matrix(1 0 0 1 -557.182 -1877.814)"  d="M857.472 1939.606C 881.286 1944.9869 874.097 1991.1959 857.472 2005.2369C 844.224 2016.4269 836.263 2016.813 830.99 1998.408C 827.01697 1984.538 824.21497 1960.263 847.113 1945.146C 849.431 1943.616 854.932 1939.032 857.472 1939.606z" stroke="none" fill="#205965" fill-rule="nonzero" />
                    <path transform="matrix(1 0 0 1 -557.04 -1877.854)"  d="M746.933 2054.212C 757.268 2083.99 802.65796 2089.45 824.339 2068.105C 817.987 2062.438 810.959 2058.624 810.151 2057.659C 806.227 2053.95 814.269 2031.47 814.269 2031.47C 823.13995 2033.142 840.82196 2041.143 848.149 2036.631C 854.212 2032.898 857.949 2017.15 859.062 2010.069C 860.13403 2003.2689 864.575 1990.1119 861.499 1983.6079C 858.669 1977.627 861.60803 1963.346 861.556 1962.892C 861.26404 1960.33 858.486 1963.632 856.10803 1963.658C 849.50806 1963.735 842.908 1963.739 836.33606 1964.408C 829.7641 1965.0769 822.4291 1966.208 816.77606 1969.861C 810.9761 1973.6069 809.46204 1980.324 807.55505 1986.4609C 805.82715 1992.2958 802.3439 1997.4568 797.57904 2001.242C 794.7903 2003.2634 791.5741 2004.6166 788.179 2005.1969C 784.211 2005.9899 777.372 2005.8539 773.374 2006.4569C 773.374 2006.4569 769.43304 2038.7439 763.129 2048.1929C 761.079 2050.861 755.132 2054.224 746.933 2054.212z" stroke="none" fill="#FCB69E" fill-rule="nonzero" />
                    <path transform="matrix(1 0 0 1 -557.11 -1877.932)"  d="M788.694 2037.051C 785.094 2027.2681 787.594 2005.711 788.378 2005.3511C 793.809 2012.343 804.178 2023.551 811.218 2028.9401C 811.218 2028.9401 804.909 2047.6621 803.58 2056.1611C 796.7828 2051.461 791.5879 2044.7919 788.694 2037.051z" stroke="none" fill="#DD978D" fill-rule="nonzero" />
                    <path transform="matrix(1 0 0 1 -557.219 -1877.869)"  d="M850.089 2010.775C 850.04297 2007.9661 855.255 2009.4971 855.141 2004.15C 855.057 2000.182 849.177 1981.225 849.45 1978.3671C 849.83203 1974.3671 856.50903 1969.644 857.757 1970.218C 859.466 1971.004 856.815 1974.197 858.54004 1979.151C 861.32306 1982.817 859.82806 2005.316 858.04004 2011.958C 856.37506 2018.132 854.301 2027.98 849.088 2031.333C 849.047 2029.889 850.177 2016.081 850.089 2010.775z" stroke="none" fill="#DD978D" fill-rule="nonzero" />
                    <path transform="matrix(1 0 0 1 -556.824 -1878.396)"  d="M623.534 2264.329L645.201 2308.3772L1027.006 2308.36L1005.328 2264L623.534 2264.329z" stroke="none" fill="#AAA19E" fill-rule="nonzero" />
                    <path transform="matrix(1 0 0 1 -556.824 -1878.396)"  d="M623.522 2264.312L645.201 2308.385L645.201 2911.315L623.521 2868.9219L623.522 2264.312z" stroke="none" fill="#AAA19E" fill-rule="nonzero" />
                    <path transform="matrix(1 0 0 1 -557.115 -1877.88)"  d="M794.271 1996.188C 796.414 2000.632 797.087 2005.676 799.531 2009.97C 801.71204 2013.802 804.831 2017.048 807.64 2020.445L807.64 2020.445L815.86 1989.2739C 811.95996 1986.1189 807.738 1983.4009 803.652 1980.4869C 801.281 1978.7949 804.352 1975.4619 806.699 1977.136C 810.91 1980.136 815.25696 1982.936 819.25696 1986.216L819.25696 1986.216L852.61694 1997.964L862.64197 1993.388C 861.949 2001.0609 858.71497 2022.2439 855.81195 2028.745C 855.25494 2029.992 853.67694 2034.713 848.798 2037.603C 846.5651 2038.865 844.06116 2039.5706 841.498 2039.66C 841.498 2039.66 811.18896 2038.15 795.608 2012.23C 792.94495 2007.798 792.316 2002.53 790.079 1997.893C 788.81 1995.27 793.007 1993.568 794.271 1996.188z" stroke="none" fill="#FFFFFF" fill-rule="nonzero" />
                    <path transform="matrix(1 0 0 1 -557.05 -1878.006)"  d="M777.425 2129.144C 774.349 2118.227 768.277 2107.46 765.235 2096.544C 761.01697 2081.409 757.363 2066.805 752.50696 2051.859C 755.9461 2050.956 759.12244 2049.2515 761.77594 2046.8849C 762.84094 2045.8909 763.5059 2048.104 764.5009 2049.168C 771.1469 2056.273 775.8839 2065.768 789.13293 2066.776C 802.3399 2067.776 806.09894 2058.2878 809.7329 2053.7258C 810.63293 2052.5947 811.3729 2055.3447 812.5099 2056.2378C 814.0829 2057.473 816.8639 2057.8037 818.8669 2058.2197C 807.7589 2091.2378 801.69885 2125.9258 788.0539 2158.0676C 783.6416 2148.7686 780.0841 2139.0876 777.425 2129.144z" stroke="none" fill="#FFFFFF" fill-rule="nonzero" />
                    <path transform="matrix(1 0 0 1 -557.048 -1878.01)"  d="M758.406 2049.3C 753.39 2054.272 757.75903 2065.179 757.584 2073.131C 755.672 2066.258 753.68396 2059.3992 751.43 2052.466C 753.9182 2051.8145 756.2773 2050.7437 758.406 2049.3z" stroke="none" fill="#B1D5E2" fill-rule="nonzero" />
                    <path transform="matrix(1 0 0 1 -557.156 -1878.024)"  d="M815.2 2061.233C 815.06104 2059.8718 813.276 2058.4739 813.07404 2057.1328C 814.68805 2058.1167 817.148 2058.4329 818.97406 2058.8137C 817.6007 2062.8984 816.2961 2067.006 815.06006 2071.1367C 814.414 2067.843 815.541 2064.594 815.2 2061.233z" stroke="none" fill="#B1D5E2" fill-rule="nonzero" />
                    <path transform="matrix(1 0 0 1 -556.872 -1878.211)"  d="M700.479 2161.255C 698.901 2188.345 699.679 2230.161 696.507 2251.6958C 686.635 2244.6958 667.90704 2232.0818 650.63104 2224.1028C 663.81866 2200.649 680.64386 2179.436 700.479 2161.255z" stroke="none" fill="none" />
                    <path transform="matrix(1 0 0 1 -557.083 -1878.072)"  d="M785.858 2083.365C 786.558 2083.493 787.282 2083.605 788.03796 2083.698C 788.51294 2083.757 788.99194 2083.791 789.47394 2083.804C 789.50696 2083.825 789.54095 2083.838 789.5739 2083.8599C 793.9179 2086.6448 795.4579 2092.8018 796.4519 2097.503C 797.77344 2104.517 798.4642 2111.6355 798.5159 2118.773C 798.6549 2120.6738 798.68823 2122.5813 798.6159 2124.4858C 795.20856 2136.4534 791.11584 2148.215 786.3579 2159.713C 784.6579 2157.713 775.1239 2135.7058 771.59393 2114.1199C 775.227 2097.681 778.9 2085.872 785.858 2083.365z" stroke="none" fill="#BF4F63" fill-rule="nonzero" />
                    <path transform="matrix(1 0 0 1 -557.091 -1878.078)"  d="M783.348 2110.849C 780.80237 2110.7627 778.29315 2110.2175 775.94104 2109.2402C 777.31104 2097.9043 779.62305 2089.9011 784.70905 2087.1982C 785.421 2087.224 786.15204 2087.2332 786.91406 2087.2183C 787.39307 2087.2092 787.8721 2087.1743 788.35205 2087.1182C 788.38806 2087.1343 788.42303 2087.143 788.45905 2087.1592C 790.23145 2088.023 791.75726 2089.3198 792.895 2090.9302C 785.956 2094.63 784.124 2103.4 783.348 2110.849z" stroke="none" fill="#A14459" fill-rule="nonzero" />
                    <path transform="matrix(1 0 0 1 -557.084 -1878.14)"  d="M783.691 2130.677C 786.9525 2132.5842 790.60693 2133.721 794.375 2134C 791.707 2142.358 788.769 2150.64 785.337 2158.722C 783.865 2156.988 776.475 2140.149 772.246 2121.607C 775.6073 2125.1626 779.4616 2128.217 783.691 2130.677z" stroke="none" fill="#A14459" fill-rule="nonzero" />
                    <path transform="matrix(1 0 0 1 -556.771 -1878.01)"  d="M674.41 2295.174C 674.41 2295.174 697.74695 2306.0862 705.86 2302.52C 712.18 2300.804 719.04596 2284.947 720.386 2277.491C 720.386 2277.491 844.667 2276.522 856.974 2277.754C 856.558 2273.254 854.218 2169.876 854.182 2168.979C 856.45 2175.632 874.352 2211.008 879.08704 2224.289C 888.54504 2247.789 869.429 2279.811 859.16907 2284.589C 863.24207 2290.0151 904.8971 2297.8342 911.36304 2295.175C 915.09705 2293.236 931.609 2263.936 932.41205 2253.367C 933.27704 2242.002 932.327 2226.1528 928.11206 2208.467C 923.6072 2190.3628 918.0178 2172.545 911.37506 2155.111C 897.5591 2118.175 879.0931 2084.3792 866.82904 2074.6C 860.129 2070.8142 847.29803 2066.945 836.54803 2063.372C 835.66003 2063.0781 836.57104 2062.382 835.65704 2062.272C 828.68604 2061.4329 827.098 2060.188 823.02606 2058.289C 820.5101 2057.116 819.51807 2055.664 818.58704 2055.301C 817.05304 2054.701 817.434 2057.334 816.919 2058.9011C 806.196 2091.436 799.419 2128.145 786.045 2159.6482C 781.6335 2150.3481 778.0765 2140.666 775.41797 2130.7222C 772.342 2119.8052 770.28595 2108.622 767.24396 2097.7112C 763.47394 2084.1802 758.19495 2068.245 753.644 2054.339C 752.92596 2052.1392 751.91296 2048.239 749.86096 2049.301C 748.99994 2049.747 747.81793 2052.001 744.36096 2053.259C 744.11096 2053.35 735.972 2056.1821 735.709 2056.242C 734.44 2056.529 735.682 2056.88 734.35 2057.189C 719.243 2060.703 699.186 2065.5889 693.509 2068.781C 685.82794 2074.392 625.756 2147.796 594.545 2219.112C 583.284 2244.844 640.374 2277.28 674.41 2295.174zM650.53 2223.9C 663.7178 2200.4468 680.5429 2179.2341 700.37805 2161.053C 698.80005 2188.143 699.57806 2229.959 696.40607 2251.494C 686.534 2244.5 667.8 2231.881 650.53 2223.9z" stroke="none" fill="#4A5E5C" fill-rule="nonzero" />
                    <path transform="matrix(1 0 0 1 -557.228 -1878.226)"  d="" stroke="none" fill="#4A5E5C" fill-rule="nonzero" />
                    <path transform="matrix(1 0 0 1 -557.114 -1878.044)"  d="M802.4 2094.014C 797.466 2086.792 794.03503 2072.7898 789.04803 2067.8188C 795.325 2070.431 796.268 2082.201 800.31305 2088.5808C 800.9031 2089.5107 802.00604 2088.3667 802.62305 2087.6418C 807.74506 2081.627 809.70306 2075.4238 814.12305 2067.8188C 811.67303 2075.658 810.348 2080.2979 808.18207 2088.2297C 806.641 2089.985 804.109 2092.414 802.4 2094.014z" stroke="none" fill="#B1D5E2" fill-rule="nonzero" />
                    <path transform="matrix(1 0 0 1 -557.061 -1878.044)"  d="M770.627 2092.867C 769.476 2093.585 766.976 2091.1838 765.09204 2089.367C 762.58606 2080.119 761.692 2076.9548 758.838 2067.822C 761.516 2075.229 764.158 2082.906 770.338 2087.645C 771.093 2088.224 771.911 2089.404 772.64703 2088.584C 777.35706 2083.34 778.45703 2070.906 787.01306 2067.822C 779.373 2074.2 776 2089.512 770.627 2092.867z" stroke="none" fill="#B1D5E2" fill-rule="nonzero" />
                    <path transform="matrix(1 0 0 1 -556.948 -1878.035)"  d="M709.825 2258.842L700.555 2252.873C 701.255 2242.857 703.688 2186.739 703.942 2174.427C 724.734 2199.11 750.792 2216.09 779.809 2226.893C 779.92004 2226.165 780.453 2210.645 780.122 2199.917C 780.06 2197.891 780.872 2192.882 780.75104 2190.81C 781.101 2187.865 782.81305 2179.9731 782.458 2179.7231C 783.31793 2174.28 784.5753 2168.9072 786.22003 2163.6482L786.22003 2163.6482L783.37103 2187.4712C 783.31805 2188.5981 783.57104 2192.4792 784.471 2191.7942C 794.864 2183.8572 805.256 2167.319 811.024 2156.3013C 818.774 2141.5012 827.368 2127.4521 833.165 2111.7083C 827.04095 2108.5662 823.173 2101.9001 818.665 2096.9592C 818.27905 2096.5654 818.12427 2096.0002 818.2558 2095.4648C 818.3874 2094.9294 818.78656 2094.5002 819.311 2094.3303C 822.475 2093.2993 826.02295 2092.0984 829.91095 2091.0454C 833.2999 2090.1284 837.92194 2088.8184 842.95294 2087.5603C 842.95294 2087.5603 840.5579 2081.5532 839.5269 2078.6504C 838.0949 2074.6233 835.9209 2067.2625 835.91895 2062.9124C 836.8235 2065.0522 837.5973 2067.2454 838.23596 2069.4792C 840.80396 2079.5942 846.71094 2091.1792 845.936 2091.6472C 844.272 2092.6653 824.427 2097.3333 821.25195 2098.0923C 825.01697 2102.7473 838.061 2112.9692 837.75995 2113.8142C 834.6699 2122.4731 829.72394 2128.3691 825.488 2136.527C 821.60297 2144.008 817.16797 2151.1802 813.27496 2158.655C 806.84796 2170.995 789.45795 2186.31 783.53296 2199.497C 779.97095 2207.425 782.28394 2223.184 782.28394 2227.797C 802.1439 2234.5872 826.98395 2239.87 845.93896 2240.4111C 846.704 2278.0112 846.51495 2275.747 846.704 2278.0112C 839.391 2277.1982 724.678 2277.0112 721.67896 2278.5732C 719.05695 2279.9402 717.897 2282.5662 717.12897 2285.2874C 715.56995 2290.8074 714.344 2295.1104 710.17596 2298.8704C 705.84894 2303.7703 695.74194 2301.3274 694.469 2295.4075C 693.066 2286.492 703.162 2270.558 709.825 2258.842z" stroke="none" fill="#364442" fill-rule="nonzero" />
                    <path transform="matrix(1 0 0 1 -557.002 -1878.024)"  d="M782.435 2190.8C 775.724 2178.386 763.65497 2163.738 757.898 2152.684C 754.006 2145.208 749.571 2138.037 745.685 2130.5562C 741.448 2122.3992 736.502 2116.5032 733.412 2107.8433C 733.112 2106.9983 746.156 2096.7773 749.92 2092.1213C 746.746 2091.3613 726.89996 2086.6943 725.23596 2085.6763C 724.46497 2085.2043 730.37195 2073.6223 732.936 2063.5083C 733.5748 2061.2744 734.3486 2059.0815 735.253 2056.9414C 735.253 2061.2905 733.07697 2068.6523 731.645 2072.6794C 730.614 2075.5793 728.219 2081.5894 728.219 2081.5894C 733.25 2082.8474 737.872 2084.1562 741.261 2085.0745C 745.153 2086.1274 748.701 2087.3284 751.86096 2088.3604C 752.3854 2088.53 752.78467 2088.959 752.9162 2089.4941C 753.0478 2090.0295 752.89294 2090.5947 752.50696 2090.9883C 747.998 2095.9292 744.131 2102.5952 738.00696 2105.7383C 743.80695 2121.4834 752.39795 2135.5273 760.149 2150.3313C 765.272 2160.1152 774.041 2174.2493 783.219 2182.8513C 783.1766 2185.518 782.91437 2188.1765 782.435 2190.8z" stroke="none" fill="#364442" fill-rule="nonzero" />
                    <path transform="matrix(1 0 0 1 -557.017 -1877.756)"  d="M737.668 1990.765C 735.6802 1985.743 734.46014 1980.4503 734.049 1975.0651C 731.585 1946.228 755.02704 1912.6511 784.133 1908.947C 810.262 1905.6221 835.55 1906.104 855.021 1926.505C 860.994 1932.7631 875.721 1952.287 862.5 1962.698C 852.59 1970.503 836.932 1960.148 825.674 1967.719C 820.507 1971.194 814.695 1974.771 811.84 1980.46C 809.166 1985.789 808.94 1991.968 806.479 1997.293C 803.24 2004.309 792.427 2012.2999 784.849 2013.7999C 773.714 2016.0049 758.433 2012.6409 749.255 2005.9999C 744.0333 2002.1158 740.0165 1996.8344 737.668 1990.765z" stroke="none" fill="#205965" fill-rule="nonzero" />
                    <path transform="matrix(1 0 0 1 -557.023 -1877.869)"  d="M793.369 1980.815C 799.26904 1977.563 804.882 1973.606 810.721 1970.1709C 809.7347 1971.3895 808.9006 1972.7236 808.237 1974.1439C 805.781 1979.4729 805.573 1985.652 803.315 1990.9769C 800.34 1997.992 790.415 2005.9839 783.452 2007.4839C 773.22705 2009.6838 759.19403 2006.3248 750.76605 1999.6838C 745.88763 1995.6804 742.20605 1990.4108 740.12506 1984.4529C 738.5363 1980.1023 737.4917 1975.5719 737.0151 1970.9648C 751.845 1986.292 774.923 1990.983 793.369 1980.815z" stroke="none" fill="#1E4951" fill-rule="nonzero" />
                    <path transform="matrix(1 0 0 1 -557.267 -1878.32)"  d="M900.9 2269.769C 894.877 2261.6921 885.94403 2261.147 876.864 2261.178C 881.09 2251.108 883.641 2239.053 881.43604 2228.13C 896.9695 2222.3132 913.7578 2220.677 930.122 2223.3848C 931.51 2234.2068 934.922 2247.4197 932.788 2254.7378C 927.088 2274.3047 913.181 2293.0127 909.68005 2294.953C 909.257 2295.138 905.813 2276.362 900.9 2269.769z" stroke="none" fill="#364442" fill-rule="nonzero" />
                    <path transform="matrix(-1 1.5099579E-07 -1.5099579E-07 -1 470.182 592.131)"  d="M0 0L381.805 0L381.805 75.745L0 75.745z" stroke="none" fill="#BEB3AD" fill-rule="nonzero" />
                    <path transform="matrix(-1 1.5099579E-07 -1.5099579E-07 -1 470.182 445.553)"  d="M0 0L381.805 0L381.805 15.571L0 15.571z" stroke="none" fill="#BEB3AD" fill-rule="nonzero" />
                    <path transform="matrix(-1 1.5099579E-07 -1.5099579E-07 -1 470.182 760.909)"  d="M0 0L381.805 0L381.805 75.745L0 75.745z" stroke="none" fill="#BEB3AD" fill-rule="nonzero" />
                    <path transform="matrix(-1 1.5099579E-07 -1.5099579E-07 -1 470.182 924.003)"  d="M0 0L381.805 0L381.805 75.745L0 75.745z" stroke="none" fill="#BEB3AD" fill-rule="nonzero" />
                    <path transform="matrix(1 0 0 1 -556.854 -1878.63)"  d="M734.539 2395.016C 743.315 2418.5361 752.269 2441.704 761.474 2464.353C 762.3447 2466.495 763.218 2468.6306 764.094 2470.76L764.094 2470.76L640.619 2470.76L640.619 2395.015L734.539 2395.016z" stroke="none" fill="#AAA19E" fill-rule="nonzero" />
                    <path transform="matrix(1 0 0 1 -556.854 -1878.933)"  d="M805.457 2564.1C 810.759 2575.0054 816.14966 2585.683 821.62897 2596.133L821.62897 2596.133L640.619 2596.133L640.619 2564.1L805.457 2564.1z" stroke="none" fill="#AAA19E" fill-rule="nonzero" />
                    <path transform="matrix(1 0 0 1 -556.846 -1879.226)"  d="M902.92 2727.484C 919.30774 2746.8557 937.4077 2764.7122 957 2780.836C 966.8469 2788.864 977.1313 2796.3398 987.806 2803.229L987.806 2803.229L635.887 2803.229L635.887 2727.484L902.92 2727.484z" stroke="none" fill="#AAA19E" fill-rule="nonzero" />
                    <path transform="matrix(1 0 0 1 -557.104 -1878.287)"  d="M783.7 2207.192C 783.8275 2205.4463 785.3243 2204.1213 787.07227 2204.2065C 788.82025 2204.2917 790.18115 2205.7559 790.1384 2207.5054C 790.09576 2209.255 788.6651 2210.651 786.91504 2210.651C 785.07324 2210.581 783.6353 2209.034 783.7 2207.192z" stroke="none" fill="#364442" fill-rule="nonzero" />
                    <path transform="matrix(1 0 0 1 -557.104 -1878.329)"  d="M783.7 2230.4C 783.8275 2228.6543 785.3243 2227.3293 787.07227 2227.4146C 788.82025 2227.4998 790.18115 2228.9639 790.1384 2230.7134C 790.09576 2232.463 788.6651 2233.859 786.91504 2233.859C 785.07324 2233.789 783.6353 2232.242 783.7 2230.4z" stroke="none" fill="#364442" fill-rule="nonzero" />
                    <path transform="matrix(1 0 0 1 -557.1 -1878.053)"  d="M788.084 2089.243C 793.849 2087.604 798.075 2074.1519 791.41595 2073.515C 786.816 2073.075 781.621 2072.4 781.00793 2076.4148C 780.676 2078.594 782.739 2090.763 788.084 2089.243z" stroke="none" fill="#BF4F63" fill-rule="nonzero" />
                    <path transform="matrix(-1 1.5099579E-07 -1.5099579E-07 -1 189.893 294.631)"  d="M0 0L37.155 0L37.155 14.567L0 14.567z" stroke="none" fill="#E2A055" fill-rule="nonzero" />
                    <path transform="matrix(1 0 0 1 -557.269 -1878.388)"  d="M879.705 2259.955C 883.505 2259.922 886.852 2259.955 890.29504 2261.728C 893.8451 2263.6697 897.0452 2266.1914 899.76306 2269.189C 904.83203 2274.532 909.6761 2280.801 909.67706 2288.395C 909.67706 2292.086 904.94904 2292.943 904.0231 2292.61C 903.45105 2292.405 906.64307 2290.818 906.5431 2288.227C 906.2841 2281.558 901.8431 2275.9111 897.4251 2271.2551C 895.205 2268.8357 892.6593 2266.7366 889.8611 2265.018C 886.4851 2263.018 883.2951 2262.971 879.4941 2263.0042C 877.468 2263.023 877.712 2259.973 879.705 2259.955z" stroke="none" fill="#FFFFFF" fill-rule="nonzero" />
                    <path transform="matrix(1 0 0 1 -557.242 -1878.406)"  d="M894.894 2291.2C 895.0434 2290.4717 894.9756 2289.7158 894.699 2289.026C 892.154 2282.15 884.548 2275.792 878.105 2272.438C 871.70496 2269.105 860.87396 2268.379 862.652 2277.601C 864.412 2286.736 874.72797 2294.6802 883.07996 2297.823C 886.46796 2299.098 890.62195 2300.032 893.48 2298.5C 896.289 2296.994 896.178 2294.085 894.894 2291.2z" stroke="none" fill="#9EBAC3" fill-rule="nonzero" />
                    <path transform="matrix(1 0 0 1 -557.2 -1878.382)"  d="M896.557 2273.705C 896.34 2273.342 892.657 2271.476 890.473 2269.2441C 888.28906 2267.0122 890.114 2266.3691 886.34204 2262.944C 885.309 2262.0051 881.46 2262.511 879.76807 2260.2551C 878.6926 2258.8276 877.21295 2257.7563 875.52106 2257.1802C 871.62103 2256.225 867.82104 2256.569 865.8901 2259.4392C 865.09607 2260.6562 859.6271 2264.7031 857.9391 2265.7651C 856.4171 2266.7222 853.5611 2269.247 850.9971 2270.6482C 850.94006 2270.6753 841.2771 2274.6243 841.11505 2274.6812C 841.08105 2274.693 841.051 2274.706 841.0151 2274.7183C 839.2051 2275.3313 837.45807 2279.5771 839.2431 2280.5413C 840.2721 2281.0972 848.8631 2281.6973 852.3681 2280.7852C 853.6222 2280.4153 854.80817 2279.845 855.8801 2279.0962C 852.52216 2286.5151 850.04315 2294.2961 854.6801 2295.5022C 859.0661 2297.5552 867.7621 2280.7021 872.1801 2272.3652C 873.4981 2271.6492 874.86053 2271.0178 876.2591 2270.4753C 873.9591 2273.2424 871.7991 2279.4993 868.6591 2284.4683C 864.1491 2291.6003 858.9701 2297.1824 864.6691 2299.9072C 871.0581 2304.0483 887.2111 2275.0393 887.3811 2275.1873C 888.0047 2275.822 888.4989 2276.572 888.8361 2277.3953C 882.8201 2285.2363 870.82214 2303.0251 873.5441 2304.6953C 879.3551 2308.1714 889.17914 2294.9133 892.42114 2289.2244C 892.75415 2290.3455 893.04114 2291.0635 893.28314 2291.0764C 889.9041 2294.6523 883.03516 2304.6765 885.3992 2307.5544C 890.5882 2310.2686 901.11816 2294.3184 901.4162 2290.0005C 901.6742 2286.2466 901.0162 2286.0286 898.3222 2281.5215C 896.971 2279.26 897.888 2275.927 896.557 2273.705z" stroke="none" fill="#FFFFFF" fill-rule="nonzero" />
                    <path transform="matrix(1 0 0 1 -557.23 -1878.389)"  d="M855.519 2279.979C 855.519 2279.979 856.552 2274.033 858.11896 2268.6C 863.98694 2266.209 866.05396 2260.436 868.11896 2260.667C 866.711 2264.638 860.291 2276.1 855.519 2279.979z" stroke="none" fill="#B1D5E2" fill-rule="nonzero" />
                    <path transform="matrix(1 0 0 1 -557.284 -1878.43)"  d="M895 2290.778C 893.841 2293.6082 890.916 2295.787 889.117 2298.196C 888.838 2298.57 886.517 2297.74 886.268 2298.018C 890.18024 2294.0408 893.09564 2289.1938 894.776 2283.874C 895.33203 2282.725 896.622 2283.506 897.956 2283.71C 896.581 2286.519 896.341 2287.507 895 2290.778z" stroke="none" fill="#B1D5E2" fill-rule="nonzero" />
                    <path transform="matrix(1 0 0 1 -557.246 -1878.395)"  d="M873.835 2277.211C 871.32605 2281.342 869.135 2285.763 866.556 2289.748C 866.156 2290.366 864.898 2290.3591 864.54004 2290.825C 872.34 2277.6938 872.97107 2272.1008 873.77203 2266.3909C 874.53705 2264.5208 877.195 2263.8328 879.27203 2264.0178C 877.695 2268.654 876.21 2273.3 873.835 2277.211z" stroke="none" fill="#B1D5E2" fill-rule="nonzero" />
                    <path transform="matrix(1 0 0 1 -557.266 -1878.413)"  d="M885.6 2285.06C 883.25397 2288.56 880.86597 2292.1602 878.444 2295.5342C 878.069 2296.0571 876.29297 2296.506 875.954 2296.8992C 881.388 2287.599 884.80597 2280.8213 885.17 2275.662C 885.865 2274.062 888.476 2273.5571 890.54 2273.788C 889.135 2277.76 887.82 2281.743 885.6 2285.06z" stroke="none" fill="#B1D5E2" fill-rule="nonzero" />
                    <path transform="matrix(1 0 0 1 -556.949 -1878.387)"  d="M697.862 2300.2C 700.2786 2301.3645 703.135 2301.1392 705.339 2299.6099C 705.899 2299.231 710.739 2293.897 710.527 2293.3208C 710.412 2293.0127 705.889 2296.369 704.097 2295.4688C 700.466 2293.6467 698.497 2286.0046 702.14996 2275.8628C 703.943 2270.8828 708.80695 2262.754 714.39197 2261.0508L714.39197 2261.0508L709.82495 2259.1968C 704.8389 2262.3079 701.43896 2268.4268 699.51697 2274.0447C 696.809 2281.966 691.63 2296.294 697.862 2300.2z" stroke="none" fill="#FFFFFF" fill-rule="nonzero" />
                    <path transform="matrix(1 0 0 1 -557.509 -1878.481)"  d="M1015.21 2311.568C 1015.81 2311.568 1016.41003 2311.5881 1017.02203 2311.6182C 1016.34906 2311.591 1015.66705 2311.5771 1014.981 2311.5723C 1015.056 2311.572 1015.134 2311.568 1015.21 2311.568z" stroke="none" fill="#E2A055" fill-rule="nonzero" />
                    <path transform="matrix(-1 1.5099579E-07 -1.5099579E-07 -1 416.197 375.874)"  d="M0 0L3.935 0L3.935 10.376L0 10.376z" stroke="none" fill="#E2A055" fill-rule="nonzero" />
                    <path transform="matrix(1 0 0 1 -557.39 -1878.399)"  d="M950.666 2268.061L950.666 2268.07C 950.666 2273.78 959.766 2278.408 970.984 2278.408C 982.202 2278.408 991.302 2273.779 991.302 2268.07C 991.29974 2267.3547 991.1592 2266.6465 990.888 2265.9841C 994.4503 2269.7373 996.41925 2274.7253 996.381 2279.9001C 996.381 2279.9001 991.80896 2290.1191 971.492 2290.8062C 950.539 2290.1191 946.856 2280.0571 946.856 2280.0571C 946.82135 2275.7554 948.15564 2271.5542 950.666 2268.061z" stroke="none" fill="#CF9150" fill-rule="nonzero" />
                    <path transform="matrix(1 0 0 1 -557.389 -1878.374)"  d="M971.619 2252.222C 985.512 2252.222 996.775 2258.196 996.775 2272.4548C 996.775 2272.4548 989.69904 2281.294 971.619 2281.2078C 952.438 2281.2937 946.463 2272.4548 946.463 2272.4548C 946.463 2258.2 957.725 2252.222 971.619 2252.222z" stroke="none" fill="#E2A055" fill-rule="nonzero" />
                    <path transform="matrix(1 0 0 1 -557.437 -1878.378)"  d="M973.634 2254.252C 983.634 2254.614 991.582 2260.206 991.582 2272.96C 988.3737 2274.534 985.0423 2275.8428 981.621 2276.874C 981.874 2267.548 979.138 2259.883 973.634 2254.252z" stroke="none" fill="#E5B57E" fill-rule="nonzero" />
                    <path transform="matrix(1 0 0 1 -557.44 -1878.38)"  d="M987.737 2270.129C 987.3385 2266.7532 985.9747 2263.5645 983.809 2260.9448C 981.49805 2258.3247 978.37 2256.8909 975.309 2255.359C 982.693 2256.484 988.476 2260.8718 989.914 2269.428C 989.2 2269.691 988.475 2269.933 987.737 2270.129z" stroke="none" fill="#FFFFFF" fill-rule="nonzero" />
                    <path transform="matrix(1 0 0 1 408.098 362.987)"  d="M0 1.97C 0 0.881999 2.7453897 0 6.132 0C 9.51861 0 12.264 0.881999 12.264 1.97C 12.264 3.058001 9.51861 3.94 6.132 3.94C 2.7453897 3.94 0 3.058001 0 1.97" stroke="none" fill="#CF9150" fill-rule="nonzero" />
                    <path transform="matrix(1 0 0 1 -557.382 -1878.42)"  d="M946.967 2277.873L946.967 2277.882C 946.967 2283.3062 957.667 2287.7031 970.867 2287.7031L970.867 2287.7031L972.36 2287.7031C 985.56 2287.7031 996.26 2283.3032 996.26 2277.882L996.26 2277.882L996.26 2277.873C 999.1278 2280.9783 1000.72705 2285.046 1000.742 2289.273C 1000.742 2289.273 996.411 2298.832 971.765 2299.484C 971.714 2299.484 971.518 2299.484 971.465 2299.484C 946.82 2298.8318 942.489 2289.273 942.489 2289.273C 942.5032 2285.0466 944.10095 2280.9792 946.967 2277.873z" stroke="none" fill="#E2A055" fill-rule="nonzero" />
                    <path transform="matrix(1 0 0 1 -557.455 -1878.432)"  d="M992.5 2284.362C 996.508 2286.467 996.781 2291.353 996.837 2291.947C 993.8766 2294.3003 990.3704 2295.8687 986.64294 2296.507C 986.71063 2293.3132 985.8181 2290.1726 984.08093 2287.4922C 987.06433 2287.007 989.92426 2285.9436 992.5 2284.362z" stroke="none" fill="#E5B57E" fill-rule="nonzero" />
                    <path transform="matrix(1 0 0 1 -557.465 -1878.434)"  d="M989.939 2286.021C 990.325 2285.809 990.70703 2285.585 991.077 2285.338C 995.085 2287.4429 995.35803 2292.3308 995.413 2292.9238C 995.052 2293.202 994.638 2293.4988 994.20105 2293.7998C 993.46985 2290.8848 992.0023 2288.2063 989.939 2286.021z" stroke="none" fill="#FFFFFF" fill-rule="nonzero" />
                    <path transform="matrix(1 0 0 1 408.098 362.437)"  d="M0 1.97C 0 0.881999 2.7453897 0 6.132 0C 9.51861 0 12.264 0.881999 12.264 1.97C 12.264 3.058001 9.51861 3.94 6.132 3.94C 2.7453897 3.94 0 3.058001 0 1.97" stroke="none" fill="#E2A055" fill-rule="nonzero" />
                    <path transform="matrix(1 0 0 1 -557.426 -1878.37)"  d="M967.8 2250.685C 967.8 2250.209 969.52496 2249.822 971.652 2249.822C 973.779 2249.822 975.50397 2250.208 975.50397 2250.685C 975.50397 2251.162 973.779 2251.548 971.652 2251.548C 969.52496 2251.548 967.8 2251.162 967.8 2250.685z" stroke="none" fill="#E2A055" fill-rule="nonzero" />
                    <path transform="matrix(1 0 0 1 -557.426 -1878.372)"  d="M971.656 2254.967C 970.31134 2255.053 968.9713 2254.7397 967.804 2254.0671L967.804 2254.0671L967.804 2250.683C 969.05835 2251.025 970.3565 2251.1787 971.656 2251.1392C 972.948 2251.0637 974.2342 2250.9114 975.508 2250.683L975.508 2250.683L975.508 2254.2422C 974.28845 2254.749 972.9765 2254.996 971.656 2254.967z" stroke="none" fill="#CF9150" fill-rule="nonzero" />
                    <path transform="matrix(1 0 0 1 -557.431 -1878.361)"  d="M970.173 2250.253L970.27295 2244.93L971.4509 2244.93L971.4509 2250.421C 971.01794 2250.503 970.57 2250.444 970.173 2250.253z" stroke="none" fill="#CF9150" fill-rule="nonzero" />
                    <path transform="matrix(1 0 0 1 -556.963 -1878.397)"  d="M702.879 2276.561L764.80804 2325.924C 779.892 2321.257 838.12006 2310.564 864.86206 2314.478C 846.119 2297.18 826.422 2280.9468 805.86206 2265.853C 789.29 2262.263 720.248 2271.233 702.879 2276.561z" stroke="none" fill="#B1D5E2" fill-rule="nonzero" />
					<g transform="matrix(1 0 0 1 143.904 378.988)">
                        <path transform="matrix(1 0 0 1 -700.864 -2257.372)"  d="M763.133 2276.961C 765.433 2277.3289 774.158 2275.772 773.877 2272.307C 773.739 2270.607 769.839 2270.625 768.458 2270.232C 765.95276 2269.394 763.50146 2268.4028 761.118 2267.264C 757.732 2265.8198 754.311 2264.24 751.062 2262.5078C 745.922 2259.7668 742.04803 2256.7358 735.898 2257.4888C 732.48804 2257.9067 729.123 2258.6047 725.75 2259.2498C 722.393 2259.8918 718.489 2259.8499 715.25 2260.7917C 709.944 2262.3318 706.901 2263.9778 702.577 2272.6396C 701.77704 2274.2456 699.739 2283.1226 701.677 2284.6016C 706.112 2287.9875 711.699 2289.3765 716.435 2292.2017C 717.135 2293.6187 720.435 2295.1016 721.942 2296.0947C 725.00104 2298.1128 728.062 2300.1257 731.177 2302.0557C 735.577 2304.7817 743.022 2310.6086 748.577 2310.1326C 753.74005 2309.6895 746.84204 2303.7966 745.388 2302.4695C 749.5991 2304.9146 753.9502 2307.1099 758.419 2309.0444C 760.663 2309.9443 763.375 2311.0635 765.801 2309.5625C 769.768 2307.1106 760.42303 2301.0864 758.687 2299.8245C 754.502 2296.7825 750.025 2294.1475 745.828 2291.1514C 749.278 2292.8374 753.948 2295.2644 755.917 2296.3633C 759.052 2298.1133 768.117 2301.7373 772.51196 2302.1924C 774.60297 2302.4084 777.537 2299.2183 773.31195 2295.4924C 775.11194 2296.6843 780.09796 2300.7473 782.53394 2299.1924C 784.43994 2297.9763 783.2849 2295.5034 782.21796 2294.2085C 776.776 2287.611 767.539 2283.243 763.133 2276.961zM763.009 2289.437C 761.93726 2288.8105 760.9022 2288.1235 759.909 2287.379C 760.819 2286.948 761.309 2286.541 761.269 2286.17C 764.423 2288.802 767.628 2291.3699 770.57996 2293.542C 768.443 2292.255 765.736 2290.961 763.009 2289.436z" stroke="none" fill="#FFFFFF" fill-rule="nonzero" />
					</g>
					<g transform="matrix(1 0 0 1 143.607 383.835)">
                        <path transform="matrix(1 0 0 1 -700.566 -2262.227)"  d="M702.278 2272.288C 706.601 2265.2532 709.645 2263.916 714.951 2262.665C 715.774 2262.4766 716.6061 2262.3303 717.444 2262.227C 711.975 2269.582 710.391 2277.851 711.21295 2286.178C 707.8129 2284.957 704.34094 2283.843 701.37695 2282.004C 699.44 2280.8 701.476 2273.594 702.278 2272.288z" stroke="none" fill="#B1D5E2" fill-rule="nonzero" />
					</g>
                    <path transform="matrix(1 0 0 1 -557.013 -1878.43)"  d="M741.046 2291.558C 744.778 2293.516 747.984 2294.215 751.721 2296.0251C 752.301 2296.3062 755.484 2296.225 755.97003 2296.4082C 745.88104 2291.1963 739.643 2287.433 735.97003 2284.308C 734.7062 2283.084 732.741 2282.957 731.33 2284.008C 734.456 2286.829 737.511 2289.7 741.046 2291.558z" stroke="none" fill="#B1D5E2" fill-rule="nonzero" />
                    <path transform="matrix(1 0 0 1 -557.029 -1878.412)"  d="M751.708 2284.293C 755.142 2287.007 757.355 2287.206 762.28503 2288.993C 763.2635 2288.8997 764.2486 2288.8997 765.22705 2288.993C 760.12103 2285.0388 750.41003 2280.17 745.374 2273.7869C 744 2272.713 742.16003 2274.387 740.45703 2275.578C 743.586 2278.4 748.577 2281.818 751.708 2284.293z" stroke="none" fill="#B1D5E2" fill-rule="nonzero" />
                    <path transform="matrix(1 0 0 1 -556.994 -1878.442)"  d="M728.523 2295.938C 731.406 2296.959 734.357 2298.017 737.223 2298.938C 737.666 2299.081 738.062 2299.1929 738.42303 2299.278C 734.32306 2296.146 727.34106 2292.366 724.30505 2290.5552C 723.18604 2289.9412 721.58105 2290.6873 720.61206 2291.6272C 723.0836 2293.3489 725.73645 2294.7944 728.523 2295.938z" stroke="none" fill="#B1D5E2" fill-rule="nonzero" />
                    <path transform="matrix(1 0 0 1 -557.048 -1878.395)"  d="M758.336 2273.425C 759.86755 2274.7356 761.5011 2275.922 763.221 2276.9731C 763.3082 2273.1145 761.4353 2269.4739 758.245 2267.301C 757.33 2266.413 752.945 2263.392 751.756 2264.042C 751.728 2267.954 756.15 2271.526 758.336 2273.425z" stroke="none" fill="#B1D5E2" fill-rule="nonzero" />
				</g>
			</g>
		</g>
	</g>
</g>
</svg>