<svg xmlns="http://www.w3.org/2000/svg" xmlns:xlink="http://www.w3.org/1999/xlink" width="463.255" height="411.868" viewBox="0 0 463.255 411.868">
  <defs>
    <clipPath id="clip-path">
      <rect width="463.255" height="411.868" fill="none"/>
    </clipPath>
    <clipPath id="clip-path-2">
      <path id="Rectangle_1014" data-name="Rectangle 1014" d="M54.653,0H674.623a54.652,54.652,0,0,1,54.652,54.652V357.216a54.653,54.653,0,0,1-54.653,54.653H54.652A54.652,54.652,0,0,1,0,357.217V54.653A54.653,54.653,0,0,1,54.653,0Z" transform="translate(559.14 2397.51)" fill="none"/>
    </clipPath>
    <clipPath id="clip-path-3">
      <rect id="Rectangle_1013" data-name="Rectangle 1013" width="507.397" height="564.173" rx="30.986" transform="translate(1048.987 2888.031) rotate(-180)" fill="none"/>
    </clipPath>
  </defs>
  <g id="Repeat_Grid_1" data-name="Repeat Grid 1" clip-path="url(#clip-path)">
    <g id="Group_2253" data-name="Group 2253" transform="translate(-559.14 -2397.51)">
      <g id="Group_2252" data-name="Group 2252" clip-path="url(#clip-path-2)">
        <g id="Group_2251" data-name="Group 2251">
          <g id="Group_2250" data-name="Group 2250" clip-path="url(#clip-path-3)">
            <g id="Group_2249" data-name="Group 2249">
              <g id="Group_2241" data-name="Group 2241">
                <path id="Path_2425" data-name="Path 2425" d="M755.709,3266.278c.751,7.4-2.9,28.375-4.162,35.711,4.664,3.286,14.666,12.6,17.071,14.11,6.6,4.159,34.13-3.522,40.182-5.647.965-.338,11.811-3.156,14.191-5.507-4.562-5.528-20.484-12.358-25.341-17.28-6.266-6.351-14.741-32.006-15.283-42.609-6.154,2.938-26.4,4.826-30.973,4.133C752.608,3252.724,755.54,3264.612,755.709,3266.278Z" fill="#205965"/>
                <path id="Path_2426" data-name="Path 2426" d="M779.092,3288.595c-7.3-2.731-14.855-5.4-21.48-9.582-.648-2.464-1.277-4.7-1.7-5.927,4.577.692,24.818-1.2,30.973-4.134.3,5.9,3.974,15.775,8.253,24.466A120.492,120.492,0,0,1,779.092,3288.595Z" fill="#1e4951"/>
                <path id="Path_2427" data-name="Path 2427" d="M878.777,3331.622c-5.945,3.774-12.232,6.195-18.887,8.4-5.9,1.952-11.672,4.437-17.767,5.677-26.1,5.308-34.6-5.389-65.29,1.138-11.054,2.351-26.811-2.454-29.64-5.4-4.522-4.594-5.32-12.458-4.744-20.115.384-5.117,2.829-12.321,6.228-18.733a2.119,2.119,0,0,1,3.113-.706,36.038,36.038,0,0,0,12.508,5.274c4.289,1.045,22.067,6.889,33.521-4.824,5.982-6.117-2.3-15.894,6.347-15.713,8.911.185,15.068,10.788,32.453,18.855,11.85,5.5,21.8,6.016,28.517,6.3,5.785.243,11.837-1.692,17.364.082,5.277,1.693,6.922,4.582,7.106,5.973C890.262,3322.8,883.632,3328.54,878.777,3331.622Z" fill="#1e4951"/>
                <g id="Group_2240" data-name="Group 2240">
                  <path id="Path_2428" data-name="Path 2428" d="M744.923,3338.4a13.417,13.417,0,0,0,1.866,2.419c2.829,2.943,18.586,7.748,29.64,5.4a94.606,94.606,0,0,1,16.9-2.144,11.873,11.873,0,0,0-3.895,3.3,5.148,5.148,0,0,1-3.356,1.963c-2.418.331-4.984.776-7.729,1.36-11.054,2.351-23.852.62-29.64-5.4A16.243,16.243,0,0,1,744.923,3338.4Z" fill="#4a5e5c"/>
                  <path id="Path_2429" data-name="Path 2429" d="M809.642,3345.04c9.666,1.224,18.486,2.8,32.076.036,6.095-1.24,11.865-3.725,17.768-5.677,6.655-2.2,12.941-4.621,18.886-8.4,4.428-2.811,10.313-7.827,10.821-12.463a5.692,5.692,0,0,1,1.934,3.148c.657,4.977-5.974,10.713-10.829,13.795-5.945,3.774-12.232,6.2-18.887,8.4-5.9,1.952-11.672,4.437-17.767,5.677-11.911,2.422-20.157,1.511-28.52.425a6.247,6.247,0,0,1-5.077-3.99A9.7,9.7,0,0,0,809.642,3345.04Z" fill="#4a5e5c"/>
                </g>
              </g>
              <g id="Group_2243" data-name="Group 2243">
                <path id="Path_2430" data-name="Path 2430" d="M444.86,3178.925c-5.371,5.137-24.164,15.153-30.727,18.666.275,5.7-.921,19.31-.637,22.138.779,7.766,23.756,24.758,29.152,28.225.86.553,9.749,7.376,13.067,7.809,1.557-7-2.843-23.754-1.946-30.61,1.159-8.847,16.186-31.3,24.217-38.245-6.1-3.049-20.031-17.855-22.3-21.891C453.646,3168.147,446.071,3177.767,444.86,3178.925Z" fill="#205965"/>
                <path id="Path_2431" data-name="Path 2431" d="M437.653,3214.184c-2.333-7.438-4.871-15.037-5.644-22.832,1.545-2.027,2.922-3.9,3.631-4.984,2.267,4.036,16.2,18.842,22.3,21.891-4.47,3.866-10,12.831-14.225,21.548A120.319,120.319,0,0,1,437.653,3214.184Z" fill="#1e4951"/>
                <path id="Path_2432" data-name="Path 2432" d="M468.96,3316.164c-6.631-2.37-12.4-5.841-18.23-9.737-5.168-3.457-10.675-6.481-15.4-10.527-20.227-17.323-17.016-30.6-41.028-50.8-8.649-7.274-14.544-22.656-13.961-26.7.843-6.391,6.556-11.854,12.95-16.106,4.272-2.842,11.458-5.342,18.605-6.6a2.12,2.12,0,0,1,2.47,2.022,36.026,36.026,0,0,0,3.528,13.108c1.812,4.025,8.129,21.641,24.408,23.476,8.5.959,11.123-11.585,16.3-4.652,5.33,7.143.751,18.517,5.074,37.189,2.946,12.727,8.657,20.9,12.56,26.365,3.364,4.712,8.61,8.3,10.608,13.747,1.907,5.2.641,8.277-.344,9.277C482.976,3319.8,474.376,3318.1,468.96,3316.164Z" fill="#1e4951"/>
                <g id="Group_2242" data-name="Group 2242">
                  <path id="Path_2433" data-name="Path 2433" d="M381.342,3214.744a13.5,13.5,0,0,0-.761,2.959c-.583,4.041,5.313,19.423,13.961,26.7a94.621,94.621,0,0,1,12.082,12.018,11.88,11.88,0,0,0-5-1.044,5.15,5.15,0,0,1-3.611-1.441c-1.747-1.7-3.675-3.454-5.823-5.26-8.649-7.275-15.15-18.433-13.962-26.7A16.249,16.249,0,0,1,381.342,3214.744Z" fill="#4a5e5c"/>
                  <path id="Path_2434" data-name="Path 2434" d="M415.883,3269.878c4.976,8.376,9.154,16.3,19.687,25.323,4.725,4.046,10.231,7.07,15.4,10.526,5.826,3.9,11.6,7.368,18.231,9.738,4.938,1.765,12.512,3.324,16.481.875a5.693,5.693,0,0,1-1.294,3.46c-3.522,3.577-12.122,1.873-17.538-.063-6.631-2.369-12.4-5.84-18.23-9.737-5.168-3.457-10.675-6.481-15.4-10.526-9.232-7.907-13.582-14.971-17.865-22.236a6.246,6.246,0,0,1,.027-6.456A9.646,9.646,0,0,0,415.883,3269.878Z" fill="#4a5e5c"/>
                </g>
              </g>
              <path id="Path_2435" data-name="Path 2435" d="M1033.181,2754.224c-12.021-8.766-20.556,2.218-41.234,1.846-4.022-.073-9.945-.6-13.334-2.949,0,0,10.651-3.887,14.305-4.545,5.491-.989,7.453-3.225,12.83-4.833,5.838-1.746,12.246-3.354,17.79-5.907,4.586-2.112-1.013-4.816-7.076-4.365-14.651,1.092-19.081,4.31-37.088,6.015-6.15.582-12.033,3.136-18.166,1.563-3.888-1-9.769-2.894-8.632-7.889.642-2.819,2.91-5.139,4.248-7.639a38.029,38.029,0,0,0,2.726-6.723c1.207-3.915,3.068-11.193-.728-14.285-2.788,2.919-6.663,13.283-17.6,18.061-4.614,2.015-7.3,7.536-9.715,11.975-2.43,4.472-5.219,8.711-11.492,8.9a61.843,61.843,0,0,1-7.691-.014c-5.141,16.785-.378,19.549-.378,19.549s32.433,8,52.585,9.038c24.7,1.273,36.013-.579,43.157-3.452,1.909-.768-.774-1.468-2.783-2.354a17.958,17.958,0,0,0-7.368-1.216,28.626,28.626,0,0,1-3.8-.319c7.835-1.424,15.677-2.853,20.274-4C1014.013,2760.681,1035.531,2755.937,1033.181,2754.224Z" fill="#fff"/>
              <path id="Path_2436" data-name="Path 2436" d="M803.654,3017.264c-1.99-23.132-32.111-131.562-62.716-220.268q-9.912-.291-19.813-.9c-44.022-2.749-87.947-10.085-130.048-23.373a1.664,1.664,0,0,1-.622-.35,6.335,6.335,0,0,0-1.672.491c3.539,28.986-9.294,139.911-11.407,229.42a58.391,58.391,0,0,1-25.468,46.839c-52.936,36.173-114.465,102.677-138.456,120.724l48.467,51.641S637.59,3076.3,635.931,3060.735c0-.013-.009-.034-.012-.05,16.875-30.808,30.441-102.2,39.069-157.968,19.948,28.051,43.016,67.027,53.821,111.667a119.042,119.042,0,0,1,2.34,29.155c-2.1,67.31-3.341,93.043,3.105,232.892L804,3273.993S809.086,3080.392,803.654,3017.264Z" fill="#4a5e5c"/>
              <path id="Path_2437" data-name="Path 2437" d="M507.939,3094.1c-35.834,29.214-69.743,62.12-85.547,73.2l40.565,50s5.235-4.043,13.823-10.764C485.633,3168.624,497.937,3131.684,507.939,3094.1Z" fill="#364442"/>
              <path id="Path_2438" data-name="Path 2438" d="M777.385,3123.25c-17.407,29.424-31.116,61.583-43.873,93.976-.183.464-.363.93-.546,1.4.546,16,1.214,33.927,2.022,54.277l60.124-2.438s2.2-97.241,1.815-176.362A294,294,0,0,0,777.385,3123.25Z" fill="#364442"/>
              <path id="Path_2439" data-name="Path 2439" d="M648.065,2815.909c-18.509-2.967-36.442-8.408-54.518-13.247-.089,8.953-.127,17.829-.1,26.531,15.947,4.934,32.064,9.225,48.459,12.613,21.3,4.4,52.4-11.674,49.559-23.246C676.95,2818.378,662.44,2818.214,648.065,2815.909Z" fill="#364442"/>
              <path id="Path_2440" data-name="Path 2440" d="M687.557,2881.114c-6.612,2.631-11.955,8-9.492,15.382,2.236,6.7,10.006,14.174,13.8,20.323,3.75,6.085,31.783,62.5,38.241,65.778,3.711,1.881-10.524-94.741-31.141-103.172C695.793,2878.129,691.352,2879.6,687.557,2881.114Z" fill="#364442"/>
              <g id="Group_2245" data-name="Group 2245">
                <g id="Group_2244" data-name="Group 2244">
                  <path id="Path_2441" data-name="Path 2441" d="M712.74,2445.56c.08-.168.163-.315.247-.459-1.222.764-2.414,2-3.415,2.5-1.194.6-1.874,1.1-2.984.156a17.054,17.054,0,0,1-2.5-3.374,34.567,34.567,0,0,1-5.33-14.721c-.456-3.568-1.462-13.672,4.013-14.246,2.426-.254,5,1.746,7.32,1.531,7.757-.717,11.636-9.441,12.6-10.81a258.762,258.762,0,0,0,35.937,10.242c8.676,1.705,17.778,3.57,26.635,2.187.172.256.354.513.523.784a8.2,8.2,0,0,1,.9,2.073,17.107,17.107,0,0,0,7.583-3.727,13.377,13.377,0,0,0,3.223-4.315c3.528-7.475.4-17.9-3.727-24.392-11.521-18.128-37.016-26.946-57.384-29.1-30.037-3.185-52.209,28.958-50.135,56.111.9,11.73,1.888,24.869,11.82,32.577,3.946,3.062,7.863,6.121,11.148,5.624A25.928,25.928,0,0,0,712.74,2445.56Z" fill="#b76336"/>
                  <path id="Path_2442" data-name="Path 2442" d="M706.588,2447.762a17.054,17.054,0,0,1-2.5-3.374,34.567,34.567,0,0,1-5.33-14.721c-.456-3.568-1.462-13.672,4.013-14.246a4.414,4.414,0,0,1,.779,0c-4.64-10.153-8.071-21.488-8.59-32.815-6.279,10.085-9.573,22.168-8.715,33.4.9,11.73,1.888,24.869,11.82,32.577,3.946,3.062,7.863,6.121,11.148,5.624a25.928,25.928,0,0,0,3.524-8.641c.08-.168.163-.315.247-.459-1.222.764-2.415,2-3.415,2.5C708.378,2448.207,707.7,2448.711,706.588,2447.762Z" fill="#9f4b33"/>
                  <path id="Path_2443" data-name="Path 2443" d="M793.352,2389.27a46.12,46.12,0,0,0-10.987-12.073c.306,1.711.533,3.432.692,5.142.935,10.094-.614,24.379-10.777,29.176-5.114,2.414-11.547,2.077-17.009,1.692-2.356-.167-4.742-.4-7.118-.736,4.2,1.177,8.428,2.222,12.667,3.086,8.033,1.636,16.46,3.427,24.66,2.1.16.246.328.492.484.753a8.022,8.022,0,0,1,.833,1.989,15.611,15.611,0,0,0,7.021-3.577,12.808,12.808,0,0,0,2.984-4.141C800.068,2405.506,797.17,2395.5,793.352,2389.27Z" fill="#9f4b33"/>
                  <path id="Path_2444" data-name="Path 2444" d="M792.139,2457.151c.142-11.566-2.719-22.664-5.015-33.884-.132-.65-.265-1.253-.436-1.839a8.2,8.2,0,0,0-.9-2.073c-.169-.271-.351-.528-.523-.784-8.857,1.383-17.959-.482-26.635-2.187a258.762,258.762,0,0,1-35.937-10.242c-.964,1.369-4.843,10.093-12.6,10.81-2.321.215-4.894-1.785-7.32-1.531-5.475.574-4.469,10.678-4.013,14.246a34.567,34.567,0,0,0,5.33,14.721,17.054,17.054,0,0,0,2.5,3.374c1.11.949,1.79.445,2.984-.156,1-.5,2.193-1.741,3.415-2.5-.084.144-.167.291-.247.459a25.928,25.928,0,0,1-3.524,8.641c-1.171,2-2.447,3.943-3.589,5.907-3.368,5.793-14.8,21.762-16.2,24.628-1.192,2.435-8.9,12.012-12.191,13.137,0,0-8.62,2.927-10.291,3.074-1.367,5.584,4.03,22.7,22.112,33.92,12.407,7.7,23.533,13.833,44.9,12.686,3.631-.2,19.919-7.84,23.245-12.03-.549-1-11.35-11.415-12.088-15.043-2.248-8.242-.638-10.641,2.841-16.082,1.925-3.011,3.833-6.008,5.832-8.972a24.745,24.745,0,0,1,2.028-3.634c.686.421,1.377.832,2.079,1.224a42.686,42.686,0,0,0,15.866,5.342c5.387.507,10.251-2.9,12.595-7.522C791.584,2480.531,792,2468.471,792.139,2457.151Z" fill="#fcb69e"/>
                  <path id="Path_2445" data-name="Path 2445" d="M733.657,2501.415a41.44,41.44,0,0,0,11.232,3.691,33.358,33.358,0,0,1,3.069-5.44c1.925-3.011,3.833-6.009,5.832-8.973a22.437,22.437,0,0,1,1.174-2.271,105.1,105.1,0,0,1-39.831-29.806C716.308,2474.648,718.154,2493.537,733.657,2501.415Z" fill="#dd978d"/>
                  <path id="Path_2446" data-name="Path 2446" d="M777.167,2435.94c-.126,6.253,2.034,12.447,2.048,18.758a17.782,17.782,0,0,1-.605,5.877c-.661,1.893-2.091,3.289-3.063,5-2.5,4.39.642,9.116,1.495,13.592.863,4.53.36,9.235,1.354,13.77a15.893,15.893,0,0,0,.894,2.833,14.228,14.228,0,0,0,6.6-6.46c5.226-10.3,5.642-22.366,5.781-33.686.119-9.69-1.87-19.052-3.869-28.432C782.677,2428.275,777.28,2430.339,777.167,2435.94Z" fill="#dd978d"/>
                </g>
                <path id="Path_2447" data-name="Path 2447" d="M713.346,2444.205c2.426,4.117,16.733,25.782,19.437,29.73,2.413,3.523,5.68,6.406,8.669,9.458l5.425-30.747c-21.455-15.017-34.438-27.275-36.783-35.694l3.356-.864c.276.963,10.625,17.529,36.46,33.333l28.06,8.936,14.95-5.75c-.051,7.462-.459,29.132-3.222,35.449-1.289,2.947-2.667,5.405-7.143,8.587a15.478,15.478,0,0,1-6.883,2.572s-29.374.98-46.5-22.783c-2.928-4.063-15.228-25.862-17.761-30.158Z" fill="#fff"/>
              </g>
              <g id="Group_2246" data-name="Group 2246">
                <path id="Path_2448" data-name="Path 2448" d="M924.393,2741.8c-11.857-4.483-40.7-6.872-52.223-12.17-9.1-4.184-17.962-9.19-25.191-16.211-14.917-14.488-48.39-163.03-53.279-167.3-12.048-10.524-40.228-22.084-41.528-23.369-2.4-4.127,1.2-10.284,1.495-14.307.346-4.685.322-4.183-3.753-7.1-2.923,5.407-5.879,4.857-10.638,5.827-3.162.646-2,4.869-2.721,8.269-.788,3.722-1.207,7.345-2.754,10.726a63.093,63.093,0,0,1-14.756-3.4c2.45-4.583,5.16-9.085,5.653-14.35.408-4.362-2.6-5.809-5.949-7.82-5.411-3.255-11.24-6.55-15.637-11.123-9.125-9.491-2.4-21.734-2.4-21.734-12.627.092-17.723,19.122-29.7,22.687-7.507,2.236-63.845,6.952-77.668,13.687a15.338,15.338,0,0,0-4.221,4.134c-30.383,56.141-14.3,172.332-12.75,183.63,1.874,13.662,10.08,23.756,12.255,26.334a60.776,60.776,0,0,1,.407,20.266l166.333,69.968s5.856-27.66,12.469-66.087c6.419,7.661,13.92,14.691,20.525,16.659,14.42,4.3,62.1,7.2,94.2,11.97l3.306,2.7c5.7.77,37.579,4.444,37.579,4.444C924.371,2766.1,924.393,2741.8,924.393,2741.8Z" fill="#fff"/>
                <path id="Path_2449" data-name="Path 2449" d="M656.818,2738.472c-19.716-10.9-39.458-17.125-53.711-37.342-10.309-14.623-14.162-39.779-26.572-52.63,0,31.464,4.084,41.347,12.392,57.954,12.078,24.14,74.506,49.975,112.148,49.963C690.648,2751.151,667.041,2744.124,656.818,2738.472Z" fill="#b1d5e2"/>
                <path id="Path_2450" data-name="Path 2450" d="M670.821,2491c-1.812.345-21.529,3.032-41.074,6.3,5.224,2.184,14-1,19.331.846,15.947,5.528,29.087,15.011,45.946,16.473-.542-.688-1.071-1.384-1.6-2.078C682.806,2509.55,672.8,2502.38,670.821,2491Z" fill="#b1d5e2"/>
                <path id="Path_2451" data-name="Path 2451" d="M922,2727.294c-11.857-4.484-39.791-9.667-52.223-12.171-64.349-12.957-69.314-52.346-69.252-53,1.174-12.281-6.594-60.988-9.191-74.039-4.587,19.012-10.073,37.825-13.291,57.131-2.989,17.939-12.9,54.136-13.4,72.2,0,0,14.508,37.969,18.532,39.169,15.7,4.677,63.639-4.873,97.4-.176,2.724.379,3.526,10.268,6.123,10.559,4.465.5,37.313-.209,37.526-2.986C925.145,2751.963,922,2727.294,922,2727.294Z" fill="#b1d5e2"/>
                <path id="Path_2452" data-name="Path 2452" d="M734.572,2529.7c11.373,12.3,20.074.8,19.353-4.7C747.193,2530.082,741.833,2530.939,734.572,2529.7Z" fill="#b1d5e2"/>
                <path id="Path_2453" data-name="Path 2453" d="M717.8,2594.717a220.375,220.375,0,0,0-1.337,33.574c.507,10.257,2.2,20.257,3.929,30.359.785,4.59,1.606,9.346,2.074,14.128.5.54,1,1.071,1.533,1.578a9.475,9.475,0,0,0,2.679,1.889c-.228-3.956-.728-7.9-1.3-11.769-1.5-10.187-3.721-20.239-4.543-30.522a186.6,186.6,0,0,1,.426-33.715c1.132-11.169,2.056-22.375,3.485-33.512,1.631-12.706,4.075-25.475,9.308-37.241,1.024-2.3-2.818-3.583-3.853-1.255C720.968,2549.007,720.1,2572.431,717.8,2594.717Z" fill="#b1d5e2"/>
              </g>
              <g id="Group_2247" data-name="Group 2247">
                <path id="Path_2454" data-name="Path 2454" d="M638.8,2563.949c3.472,83.13-5.3,98.716-3.472,107.851,1.331,6.637,30.225,17.93,35.571,21.086,17.556,10.364,79.7,35.593,87.759,31.908,8.154-3.725,10.471-27.806,12.225-36.535,1.816-9.037,19.141-117.228,22.812-142.142-.343-.393-14.306-12.289-23.58-14.537-3.3,32.584-21.35,98.541-47.489,111.781a7.9,7.9,0,0,1-2.744.59c-36.547,5.023-32.654-136.461-86.558-148.185-1.83-.4-13.1.511-19.265,1.8-7.156,1.492-13.643,3.008-20.716,6.545C616.159,2500.463,637.446,2531.4,638.8,2563.949Z" fill="#5d7977"/>
                <path id="Path_2455" data-name="Path 2455" d="M766.948,2653.346a166.934,166.934,0,0,1-34.179,10.134c-.976-7.662-4.054-16.334-4.727-23.854l-2.284,1.877c1.179,4.543,2.367,14.658,3.377,22.537-13.224,1.811-26.6,1.241-39.47-3.311-21.3-7.534-37.342-24.363-49.784-43.705-.34,26.577-1.7,51.327-.736,56.845,1.163,6.656,28.593,17.929,33.65,21.085,16.607,10.364,75.391,35.594,83.02,31.909,7.713-3.726,9.9-27.806,11.564-36.536.618-3.252,3.138-19.352,6.271-39.79Q770.315,2651.984,766.948,2653.346Z" fill="#4a5e5c"/>
                <path id="Path_2456" data-name="Path 2456" d="M580.619,2800.793c13.121,3.416,26.262,6.76,39.466,9.843,26.491,6.186,56.6,12.86,80.99,15.958,0,0,13.666-12.4,15.2-12.568l9.61,14.05c10.421-.13,25.926-.971,37.1-2.711.471-6.89,5.115-52.933,7.279-68.948-14.927.983-28.944,6.169-43.9,5.824-31.044-.715-63.456-4.125-92.132-16.793-12.922-5.708-35.748-20.289-45.6-27.242-.28,15.345.763,11.624-.393,26.958C586.831,2763.846,580.994,2782.021,580.619,2800.793Z" fill="#5d7977"/>
                <path id="Path_2457" data-name="Path 2457" d="M768.41,2752.469c-14.927.984-109.359,3.76-133.763-7.021-12.922-5.708-44.79-25.85-46.015-27.242-.28,15.345,1.174,11.624.018,26.958-1.408,18.682-7.245,36.857-7.62,55.629q9.76,2.541,19.541,5.006a101.655,101.655,0,0,1,23.241-18.494c21.57-12.224,51.912-24.349,103.625-20.809,41.924,16.012,29.231,35.779,24.931,56.11,2.892-.338,5.809-.728,8.764-1.188C761.563,2815.106,768.244,2753.7,768.41,2752.469Z" fill="#4a5e5c"/>
              </g>
              <path id="Path_2458" data-name="Path 2458" d="M704.867,2712.711l232.676,18.716,73.192,24.99-232.55-19.238Z" fill="#5d7977"/>
              <path id="Path_2459" data-name="Path 2459" d="M704.867,2712.711l73.668,24.514-.356,6.6-73.312-26.4Z" fill="#aaa19e"/>
              <path id="Path_2460" data-name="Path 2460" d="M778.535,2737.225l232.118,19.123-.265,6.608-232.208-19.13Z" fill="#364442"/>
              <path id="Path_2461" data-name="Path 2461" d="M760.157,2726.384c-.108-.346-13.928.1-14.664,0a84.743,84.743,0,0,0-2.869,32.53s13.934-1.255,25.7-2.036C765.709,2746.22,763.42,2736.865,760.157,2726.384Z" fill="#fcb69e"/>
              <path id="Path_2462" data-name="Path 2462" d="M699.743,2512.176c-10.166-3.062-18.488-13.63-21.012-24.5-.559-2.41-6.483,1.383-5.921,3.805,2.831,12.187,13.1,23.664,24.613,27.133C699.782,2519.328,702.052,2512.871,699.743,2512.176Z" fill="#a14459"/>
              <path id="Path_2463" data-name="Path 2463" d="M754.4,2521.123c-2.963-1.982-7.263.647-9.971,1.934-2.636,1.254-5.435,1.685-8.229,2.348-4.188-3.35-8.807-5.821-16.417-3.872-6.076-3.039-9.406-10.137-15.69-12.644-7.02-2.8-7.621,8.244-8.343,12.411-.461,2.657-2,6.387-1.489,9.141.434,2.333,2.724,3.021,4.794,3.366,4.134.689,8.542.265,12.7-.07,1.921-.155,3.873-.329,5.779-.658,2.912,4.635,11.046,5.519,14.632,4.938.174-.029.294-.172.441-.258a19.883,19.883,0,0,0,4.064,2.137c3.289,1.388,7.109,3.863,10.723,3.875,3.88.013,4.154-3.673,5.164-6.686C753.379,2534.622,760.456,2525.174,754.4,2521.123Z" fill="#bf4f63"/>
              <path id="Path_2464" data-name="Path 2464" d="M741.691,2530.676c-.3-.217-.621-.421-.952-.615-1.371-.8-4.444-3.153-4.107-1.324a10.732,10.732,0,0,1-2.57,8.142c-.9,1.115,1.249.461,2.138,1.591.954,1.213,2.659,1.655,4.007,2.31a24.406,24.406,0,0,0,5.989,2.285c.819.155,2.226.578,2.509-.511a5.015,5.015,0,0,0-.5-2.712,23.727,23.727,0,0,0-4.412-7.272A12.255,12.255,0,0,0,741.691,2530.676Z" fill="#a14459"/>
              <path id="Path_2465" data-name="Path 2465" d="M720.947,2530.084c-.12,1.826-.38,3.935,1.339,5.511a34.1,34.1,0,0,0,7.6.848c1.5-1.427,2.332-3.5,3.964-5.164Q727.333,2530.859,720.947,2530.084Z" fill="#a14459"/>
              <path id="Path_2466" data-name="Path 2466" d="M718.983,2523.808c-.2-1.179-.594-2.111-1.335-2.436-1.5-.658-4.99,1.318-6.286,1.894-1.591.708-3.142,1.515-4.758,2.165a36.922,36.922,0,0,1-11.893,2.37,7.976,7.976,0,0,0,.039,2.292c.434,2.332,2.724,3.02,4.794,3.365,4.134.69,8.542.265,12.7-.07,1.867-.15,3.762-.321,5.617-.632A19.483,19.483,0,0,1,718.983,2523.808Z" fill="#a14459"/>
              <ellipse id="Ellipse_103" data-name="Ellipse 103" cx="5.586" cy="5.965" rx="5.586" ry="5.965" transform="translate(713.993 2660.196)" fill="#cf9150"/>
              <path id="Path_2467" data-name="Path 2467" d="M724.5,2664.256a5.419,5.419,0,0,0-9.84-.21C717.847,2664.337,721.338,2664.749,724.5,2664.256Z" fill="#e5b57e"/>
              <ellipse id="Ellipse_104" data-name="Ellipse 104" cx="5.586" cy="5.965" rx="5.586" ry="5.965" transform="translate(713.993 2689.238)" fill="#cf9150"/>
              <ellipse id="Ellipse_105" data-name="Ellipse 105" cx="5.586" cy="5.965" rx="5.586" ry="5.965" transform="translate(710.693 2779.702)" fill="#e5b57e"/>
              <path id="Path_2468" data-name="Path 2468" d="M727.823,2752.084c-2.795,15.009-.825,41.661-5.262,54.251v4.565c6.937-14.3,7.549-42.695,10.418-58.1C733.416,2750.449,728.277,2749.646,727.823,2752.084Z" fill="#4a5e5c"/>
              <path id="Path_2469" data-name="Path 2469" d="M746.793,2723.823,697.01,2707.3l-4.708,57.79,42.469,11.043C745.5,2764.14,747.24,2733.016,746.793,2723.823Z" fill="#fff"/>
              <path id="Path_2470" data-name="Path 2470" d="M707.95,2755.533a3.438,3.438,0,1,0-3.437,3.381A3.41,3.41,0,0,0,707.95,2755.533Z" fill="#b1d5e2"/>
              <path id="Path_2471" data-name="Path 2471" d="M718.57,2547.691a3.438,3.438,0,1,0-3.437,3.382A3.41,3.41,0,0,0,718.57,2547.691Z" fill="#b1d5e2"/>
              <path id="Path_2472" data-name="Path 2472" d="M715.133,2582.855a3.438,3.438,0,1,0-3.438,3.382A3.41,3.41,0,0,0,715.133,2582.855Z" fill="#b1d5e2"/>
              <path id="Path_2473" data-name="Path 2473" d="M713.1,2620.405a3.438,3.438,0,1,0-3.438,3.382A3.41,3.41,0,0,0,713.1,2620.405Z" fill="#b1d5e2"/>
              <g id="Group_2248" data-name="Group 2248">
                <path id="Path_2474" data-name="Path 2474" d="M922.47,2730.237s-97.323-3.986-125.038-21.913c0,0-16.005-10.712-22.423-2.626-2.633,3.317-.494,6.527,2.694,9.673,7.869,7.766,33.2,20.582,88.911,27.6,54.167,5.61,72.661.548,83.156-5.1,6.744-3.629-2.008-5.38-10.01-6.946C934.867,2729.965,922.47,2730.237,922.47,2730.237Z" fill="#cf9150"/>
                <path id="Path_2475" data-name="Path 2475" d="M916.138,2725.356s-99.318-13.272-113.881-17.831c0,0-21.913-5.853-24.078-1.457-1.871,3.8,7.007,25.095,87.25,35.194,54.167,5.61,72.661.548,83.156-5.1,6.744-3.628,3.948-5.9-5.167-8.935C938.726,2725.665,916.138,2725.356,916.138,2725.356Z" fill="#e5b57e"/>
                <path id="Path_2476" data-name="Path 2476" d="M863.51,2736.838c29.465,3.734,64.248,2.662,76.25-5.915-7.736-40.4-18.9-66.75-70.194-74-57.538-8.127-78.693,56.018-78.869,57.292C798.881,2720.606,848.666,2734.957,863.51,2736.838Z" fill="#aaa19e"/>
                <path id="Path_2477" data-name="Path 2477" d="M854.168,2702.31c2.267-14.19,6.64-28.289,14.476-40.172-2.168-.444-4.424-.842-6.783-1.189a58.047,58.047,0,0,0-9.792-.617,59.662,59.662,0,0,0-11.256,4.835c-18.844,10.465-33.3,29.456-41.788,50.351,12.276,5.62,39.274,13.735,52.938,16.548A185.967,185.967,0,0,1,854.168,2702.31Z" fill="#d3c8c1"/>
                <path id="Path_2478" data-name="Path 2478" d="M871.24,2660.035c2.783.2,4.705.24,6.95-.879l.617-5.96c-1.254.4-4.46.351-6.869.1a58,58,0,0,1-6.7-1.506l-.649,6.271A16.8,16.8,0,0,0,871.24,2660.035Z" fill="#beb3ad"/>
                <path id="Path_2479" data-name="Path 2479" d="M878.8,2653.05c.085-.84-2.885-1.827-6.634-2.2s-6.856,0-6.94.837,2.885,1.827,6.634,2.2S878.721,2653.89,878.8,2653.05Z" fill="#aaa19e"/>
                <path id="Path_2480" data-name="Path 2480" d="M854.393,2665.065c-28.69,4.98-42.926,41.9-43.112,42.772a14.908,14.908,0,0,0,2.261,1.888C812.557,2709.024,828.477,2670.941,854.393,2665.065Z" fill="#fff"/>
                <path id="Path_2481" data-name="Path 2481" d="M876.215,2645.669l-6.932-.718-.731,7.057c2.2,1.088,5.418,1.571,6.932.718Q875.85,2649.2,876.215,2645.669Z" fill="#beb3ad"/>
                <path id="Path_2482" data-name="Path 2482" d="M874.622,2652.8l.46-6.1-2.075-.215-.65,6.275A5.481,5.481,0,0,0,874.622,2652.8Z" fill="#aaa19e"/>
                <path id="Path_2483" data-name="Path 2483" d="M884.115,2643.814c.2-1.916-4.477-3.971-10.442-4.589s-10.962.435-11.161,2.352,4.477,3.971,10.442,4.589S883.916,2645.731,884.115,2643.814Z" fill="#aaa19e"/>
                <ellipse id="Ellipse_106" data-name="Ellipse 106" cx="3.489" cy="10.859" rx="3.489" ry="10.859" transform="matrix(0.103, -0.995, 0.995, 0.103, 862.253, 2644.078)" fill="#d3c8c1"/>
                <path id="Path_2484" data-name="Path 2484" d="M868.954,2642.24c-1.045-.836-1.749-2.046-1.095-3.192-2.072.249-3.464.811-3.555,1.58-.144,1.218,3.014,2.517,7.208,3.029A9.28,9.28,0,0,1,868.954,2642.24Z" fill="#fff"/>
              </g>
              <path id="Path_2485" data-name="Path 2485" d="M866.393,2736.711c-12.055-8.719-20.548,2.3-41.227,2-4.023-.057-9.948-.558-13.345-2.9,0,0,10.635-3.927,14.287-4.6,5.487-1.01,7.441-3.253,12.812-4.882,5.831-1.768,12.232-3.4,17.767-5.975,4.577-2.13-1.031-4.812-7.092-4.337-14.648,1.147-19.065,4.382-37.066,6.156-6.147.6-12.021,3.182-18.16,1.632-3.891-.983-9.779-2.856-8.661-7.856.631-2.821,2.89-5.15,4.218-7.655a37.935,37.935,0,0,0,2.7-6.733c1.192-3.921,3.025-11.2-.782-14.283-2.778,2.93-6.613,13.308-17.534,18.128-4.607,2.033-7.275,7.564-9.669,12.012-1.761,3.272-6.042,4.394-9.408,5.938,3.424,10.878,3.061,28.525,5.782,39.594,4.568-.386,12.246-6.539,19.739-6.385,15.491.318,16.047-2.746,24.15-4.744,4.565,1.261,9.061,3.1,13.639,2.86,9.031-.474,15.275-.631,22.408-3.532,1.906-.774-.779-1.465-2.791-2.343a17.972,17.972,0,0,0-7.373-1.188,28.69,28.69,0,0,1-3.8-.3c7.83-1.454,15.667-2.914,20.259-4.079C848.278,2742.153,868.749,2738.415,866.393,2736.711Z" fill="#fff"/>
            </g>
          </g>
        </g>
      </g>
    </g>
  </g>
</svg>
