<svg width="3395" height="3282" viewBox="0 0 3395 3282" fill="none" xmlns="http://www.w3.org/2000/svg">
<g clip-path="url(#clip0_2_1061)">
<path d="M3289.24 2503.6C3208.81 2452.61 3151.7 2516.51 3013.34 2514.34C2986.43 2513.92 2946.8 2510.85 2924.13 2497.19C2924.13 2497.19 2995.39 2474.57 3019.84 2470.75C3056.58 2464.99 3069.71 2451.98 3105.69 2442.63C3144.75 2432.47 3187.63 2423.12 3224.72 2408.27C3255.41 2395.98 3217.94 2380.25 3177.37 2382.87C3079.34 2389.23 3049.7 2407.95 2929.22 2417.87C2888.07 2421.25 2848.71 2436.11 2807.67 2426.96C2781.65 2421.14 2742.3 2410.12 2749.91 2381.06C2754.21 2364.67 2769.38 2351.17 2778.34 2336.63C2785.84 2324.12 2791.94 2311.03 2796.58 2297.52C2804.65 2274.74 2817.1 2232.4 2791.7 2214.41C2773.05 2231.4 2747.12 2291.69 2673.94 2319.48C2643.07 2331.2 2625.1 2363.32 2608.94 2389.15C2592.68 2415.16 2574.02 2439.82 2532.05 2440.92C2514.91 2441.82 2497.72 2441.79 2480.59 2440.84C2446.19 2538.48 2478.06 2554.56 2478.06 2554.56C2478.06 2554.56 2695.07 2601.1 2829.9 2607.14C2995.17 2614.54 3070.87 2603.77 3118.67 2587.06C3131.44 2582.59 3113.49 2578.52 3100.05 2573.36C3084.37 2568.03 3067.57 2565.62 3050.75 2566.29C3042.23 2566.16 3033.74 2565.54 3025.32 2564.43C3077.75 2556.15 3130.22 2547.84 3160.97 2541.16C3160.99 2541.16 3304.97 2513.57 3289.24 2503.6Z" fill="white"/>
<path d="M1753.47 4033.8C1740.16 3899.23 1538.62 3268.46 1333.84 2752.42C1289.63 2751.29 1245.44 2749.55 1201.27 2747.19C906.719 2731.19 612.817 2688.52 331.118 2611.22C329.578 2610.81 328.158 2610.11 326.956 2609.18C323.094 2609.68 319.329 2610.64 315.769 2612.04C339.449 2780.66 253.583 3425.95 239.444 3946.66C237.961 4000.58 221.731 4053.41 192.098 4100.79C162.466 4148.18 120.283 4188.74 69.038 4219.14C-285.157 4429.57 -696.849 4816.45 -857.373 4921.43L-533.08 5221.85C-533.08 5221.85 642.337 4377.24 631.237 4286.69C631.237 4286.61 631.177 4286.49 631.157 4286.4C744.067 4107.18 834.837 3691.86 892.568 3367.44C1026.04 3530.62 1180.39 3757.36 1252.68 4017.05C1265.9 4072.81 1271.16 4129.77 1268.34 4186.65C1254.29 4578.22 1245.99 4727.92 1289.12 5541.47L1755.79 5527.29C1755.79 5527.29 1789.82 4401.04 1753.47 4033.8Z" fill="#4A5E5C"/>
<path d="M712.426 2862.45C588.582 2845.19 468.592 2813.53 347.645 2785.38C347.05 2837.47 346.795 2889.1 346.976 2939.72C453.678 2968.43 561.517 2993.39 671.216 3013.1C813.734 3038.69 1021.83 2945.19 1002.82 2877.87C905.696 2876.81 808.609 2875.85 712.426 2862.45Z" fill="#364442"/>
<path d="M976.667 3241.77C932.426 3257.07 896.676 3288.31 913.156 3331.25C928.117 3370.23 980.106 3413.71 1005.49 3449.48C1030.58 3484.88 1218.15 3813.06 1261.36 3832.13C1286.19 3843.07 1190.95 3280.99 1053 3231.94C1031.77 3224.4 1002.06 3232.96 976.667 3241.77Z" fill="#364442"/>
<path d="M1145.17 707.991C1145.7 707.014 1146.26 706.159 1146.82 705.321C1138.64 709.766 1130.67 716.956 1123.97 719.865C1115.98 723.355 1111.43 726.264 1104 720.772C1097.52 714.854 1091.9 708.261 1087.28 701.144C1068.01 675.345 1055.81 646.049 1051.61 615.507C1048.56 594.751 1041.83 535.972 1078.46 532.632C1094.7 531.155 1111.92 542.79 1127.44 541.539C1179.34 537.368 1205.3 486.617 1211.75 478.653C1290.14 503.526 1370.51 523.438 1452.2 538.234C1510.26 548.152 1571.16 559.002 1630.42 550.957C1631.57 552.446 1632.79 553.942 1633.92 555.518C1636.56 559.277 1638.58 563.336 1639.94 567.578C1658.67 564.153 1676.12 556.698 1690.68 545.896C1699.75 538.887 1707.09 530.346 1712.24 520.795C1735.85 477.31 1714.92 416.663 1687.31 378.897C1610.22 273.44 1439.63 222.142 1303.35 209.611C1102.37 191.083 954.018 378.071 967.895 536.03C973.917 604.267 980.528 680.701 1046.98 725.541C1073.39 743.354 1099.59 761.15 1121.57 758.258C1132.87 742.881 1140.86 725.85 1145.17 707.991Z" fill="#B76336"/>
<path d="M1104 720.801C1097.52 714.882 1091.9 708.29 1087.28 701.173C1068.01 675.374 1055.81 646.077 1051.61 615.536C1048.56 594.779 1041.83 536 1078.46 532.661C1080.2 532.527 1081.94 532.527 1083.68 532.661C1052.63 473.597 1029.67 407.658 1026.2 341.765C984.188 400.433 962.148 470.725 967.889 536.065C973.911 604.303 980.521 680.737 1046.98 725.577C1073.38 743.39 1099.59 761.185 1121.57 758.294C1132.86 742.916 1140.85 725.884 1145.15 708.026C1145.68 707.048 1146.24 706.193 1146.8 705.356C1138.62 709.8 1130.64 716.99 1123.95 719.899C1115.98 723.389 1111.44 726.321 1104 720.801Z" fill="#9F4B33"/>
<path d="M1684.54 380.532C1665.04 353.507 1640.14 329.723 1611.03 310.299C1613.08 320.252 1614.59 330.265 1615.66 340.212C1621.91 398.933 1611.55 482.033 1543.55 509.938C1509.33 523.982 1466.29 522.022 1429.74 519.782C1413.98 518.811 1398.01 517.455 1382.12 515.5C1410.22 522.347 1438.51 528.426 1466.87 533.452C1520.62 542.969 1577 553.389 1631.87 545.669C1632.94 547.1 1634.07 548.531 1635.11 550.049C1637.56 553.671 1639.43 557.563 1640.68 561.62C1658.13 558.29 1674.31 551.127 1687.66 540.812C1696.11 534.028 1702.9 525.835 1707.63 516.722C1729.48 474.982 1710.09 416.774 1684.54 380.532Z" fill="#9F4B33"/>
<path d="M1676.43 775.42C1677.38 708.136 1658.23 643.576 1642.87 578.305C1641.99 574.524 1641.1 571.015 1639.95 567.606C1638.6 563.364 1636.57 559.306 1633.93 555.547C1632.8 553.971 1631.58 552.476 1630.43 550.987C1571.17 559.032 1510.27 548.183 1452.22 538.264C1370.52 523.468 1290.16 503.556 1211.76 478.683C1205.31 486.647 1179.36 537.396 1127.46 541.567C1111.93 542.818 1094.71 531.183 1078.48 532.661C1041.84 536 1048.58 594.779 1051.63 615.536C1055.82 646.077 1068.03 675.374 1087.29 701.173C1091.91 708.29 1097.53 714.882 1104.02 720.801C1111.44 726.322 1115.99 723.39 1123.98 719.893C1130.67 716.985 1138.66 709.765 1146.83 705.35C1146.27 706.188 1145.72 707.043 1145.18 708.02C1140.88 725.878 1132.89 742.91 1121.6 758.288C1113.77 769.923 1105.23 781.226 1097.59 792.652C1075.05 826.352 998.56 919.249 989.193 935.921C981.217 950.087 929.643 1005.8 907.622 1012.34C907.622 1012.34 849.946 1029.37 838.765 1030.23C829.619 1062.71 865.73 1162.28 986.717 1227.55C1069.73 1272.35 1144.18 1308.02 1287.14 1301.35C1311.44 1300.19 1420.42 1255.74 1442.68 1231.37C1439 1225.55 1366.73 1164.96 1361.8 1143.86C1346.75 1095.91 1357.53 1081.96 1380.8 1050.3C1393.68 1032.79 1406.45 1015.35 1419.83 998.109C1423.66 990.743 1428.2 983.672 1433.4 976.969C1437.99 979.419 1442.61 981.809 1447.31 984.089C1479.99 1000.44 1516.07 1011 1553.47 1015.17C1589.51 1018.12 1622.06 998.296 1637.74 971.408C1672.71 911.431 1675.5 841.272 1676.43 775.42Z" fill="#FCB69E"/>
<path d="M1285.12 1032.92C1308.86 1043.16 1334.17 1050.39 1360.28 1054.39C1365.97 1043.31 1372.84 1032.71 1380.81 1022.75C1393.69 1005.23 1406.46 987.79 1419.83 970.547C1422.16 966.017 1424.78 961.606 1427.69 957.336C1324.17 918.914 1232.78 859.45 1161.18 783.942C1169.04 877.206 1181.39 987.091 1285.12 1032.92Z" fill="#DD978D"/>
<path d="M1576.25 652.028C1575.41 688.404 1589.86 724.437 1589.95 761.15C1590.81 772.663 1589.44 784.218 1585.9 795.339C1581.48 806.351 1571.91 814.472 1565.41 824.425C1548.68 849.964 1569.71 877.457 1575.41 903.495C1581.19 929.848 1577.82 957.219 1584.47 983.601C1585.87 989.244 1587.87 994.762 1590.45 1000.08C1609.57 992.172 1625.11 978.949 1634.61 962.501C1669.58 902.582 1672.37 832.39 1673.3 766.537C1674.09 710.167 1660.78 655.704 1647.41 601.137C1613.12 607.437 1577 619.445 1576.25 652.028Z" fill="#DD978D"/>
<path d="M1149.22 700.109C1165.45 724.059 1261.18 850.092 1279.27 873.059C1295.42 893.554 1317.28 910.325 1337.28 928.08L1373.58 749.213C1230.02 661.854 1143.15 590.544 1127.46 541.567L1149.92 536.541C1151.76 542.143 1221.01 638.514 1393.87 730.451L1581.62 782.436L1681.65 748.986C1681.31 792.395 1678.58 918.457 1660.09 955.205C1651.47 972.349 1642.25 986.649 1612.3 1005.16C1598.55 1013.29 1582.76 1018.42 1566.25 1020.12C1566.25 1020.12 1369.7 1025.82 1255.11 887.584C1235.52 863.948 1153.22 737.136 1136.27 712.144L1149.22 700.109Z" fill="white"/>
<path d="M2561.34 2431.33C2482 2405.25 2289.02 2391.35 2211.91 2360.53C2151.03 2336.19 2091.73 2307.07 2043.36 2266.22C1943.55 2181.94 1719.58 1317.82 1686.87 1292.98C1606.26 1231.76 1417.71 1164.51 1409.01 1157.03C1392.95 1133.03 1417.04 1097.21 1419.01 1073.81C1421.33 1046.55 1421.16 1049.47 1393.9 1032.5C1374.34 1063.96 1354.56 1060.76 1322.72 1066.4C1301.56 1070.16 1309.34 1094.72 1304.51 1114.5C1299.24 1136.15 1296.44 1157.23 1286.09 1176.9C1252.38 1173.78 1219.23 1167.14 1187.35 1157.12C1203.75 1130.46 1221.88 1104.27 1225.18 1073.64C1227.91 1048.27 1207.78 1039.85 1185.37 1028.15C1149.17 1009.21 1110.17 990.046 1080.75 963.443C1019.69 908.23 1064.69 837.009 1064.69 837.009C980.2 837.544 946.103 948.249 865.965 968.987C815.735 981.995 438.777 1009.43 346.287 1048.61C335.169 1054.96 325.577 1063.13 318.044 1072.66C114.751 1399.25 222.362 2075.18 232.734 2140.9C245.272 2220.38 300.179 2279.1 314.732 2294.1C323.224 2332.98 324.144 2372.84 317.455 2411.99L1430.39 2819.02C1430.39 2819.02 1469.57 2658.11 1513.82 2434.57C1556.77 2479.13 1606.96 2520.03 1651.15 2531.48C1747.64 2556.49 2066.67 2573.36 2281.45 2601.11L2303.57 2616.82C2341.71 2621.3 2555.01 2642.67 2555.01 2642.67C2561.19 2572.69 2561.34 2431.33 2561.34 2431.33Z" fill="white"/>
<path d="M770.992 2411.97C639.072 2348.56 506.978 2312.34 411.611 2194.73C342.633 2109.67 316.853 1963.33 233.817 1888.57C233.817 2071.6 261.144 2129.1 316.733 2225.71C397.547 2366.14 815.253 2516.43 1067.12 2516.36C997.349 2485.73 839.394 2444.85 770.992 2411.97Z" fill="#B1D5E2"/>
<path d="M864.686 972.332C852.562 974.339 720.636 989.971 589.86 1008.98C624.814 1021.69 683.534 1003.16 719.204 1013.9C825.905 1046.06 913.825 1101.23 1026.63 1109.73C1023 1105.73 1019.46 1101.68 1015.92 1097.64C944.878 1080.24 877.928 1038.53 864.686 972.332Z" fill="#B1D5E2"/>
<path d="M2545.33 2346.94C2465.99 2320.85 2279.09 2290.7 2195.9 2276.14C1765.34 2200.76 1732.12 1971.62 1732.54 1967.82C1740.39 1896.37 1688.42 1613.03 1671.04 1537.1C1640.35 1647.7 1603.64 1757.15 1582.11 1869.46C1562.11 1973.82 1495.8 2184.39 1492.45 2289.47C1492.45 2289.47 1589.52 2510.35 1616.45 2517.33C1721.5 2544.54 2042.26 2488.98 2268.15 2516.31C2286.38 2518.51 2291.75 2576.04 2309.12 2577.73C2339 2580.64 2558.78 2576.52 2560.21 2560.36C2566.37 2490.45 2545.33 2346.94 2545.33 2346.94Z" fill="#B1D5E2"/>
<path d="M1291.25 1197.46C1367.34 1269.02 1425.56 1202.12 1420.74 1170.12C1375.69 1199.69 1339.83 1204.67 1291.25 1197.46Z" fill="#B1D5E2"/>
<path d="M1179.02 1575.69C1170.33 1640.5 1167.34 1705.8 1170.08 1771C1173.47 1830.67 1184.8 1888.85 1196.37 1947.61C1201.62 1974.31 1207.11 2001.98 1210.24 2029.8C1213.59 2032.94 1216.94 2036.03 1220.5 2038.98C1225.7 2043.52 1231.76 2047.24 1238.43 2049.97C1236.9 2026.96 1233.56 2004.01 1229.73 1981.51C1219.69 1922.24 1204.83 1863.77 1199.33 1803.95C1193.47 1738.63 1194.43 1672.98 1202.18 1607.82C1209.76 1542.84 1215.94 1477.65 1225.5 1412.86C1236.41 1338.95 1252.77 1264.67 1287.78 1196.22C1294.63 1182.84 1268.92 1175.38 1262 1188.92C1200.22 1309.78 1194.41 1446.05 1179.02 1575.69Z" fill="#B1D5E2"/>
<path d="M650.433 1396.7C673.665 1880.3 614.971 1970.97 627.202 2024.11C636.108 2062.72 829.438 2128.42 865.208 2146.78C982.676 2207.07 1398.48 2353.83 1452.41 2332.4C1506.96 2310.73 1522.47 2170.64 1534.2 2119.86C1546.35 2067.29 1662.28 1437.9 1686.84 1292.97C1684.54 1290.68 1591.12 1221.48 1529.06 1208.4C1506.98 1397.95 1386.21 1781.65 1211.31 1858.67C1205.48 1860.76 1199.26 1861.92 1192.95 1862.1C948.418 1891.32 974.466 1068.26 613.793 1000.06C601.549 997.731 526.141 1003.03 484.891 1010.53C437.01 1019.21 393.606 1028.03 346.28 1048.6C498.942 1027.38 641.374 1207.35 650.433 1396.7Z" fill="#5D7977"/>
<path d="M1507.87 1916.76C1434.28 1943.45 1357.61 1963.21 1279.18 1975.71C1272.65 1931.14 1252.06 1880.69 1247.55 1836.94L1232.27 1847.86C1240.16 1874.29 1248.11 1933.13 1254.87 1978.97C1166.38 1989.5 1076.88 1986.19 990.772 1959.71C848.253 1915.88 740.916 1817.98 657.666 1705.46C655.391 1860.07 646.292 2004.05 652.742 2036.15C660.523 2074.87 844.058 2140.45 877.894 2158.81C989.012 2219.1 1382.34 2365.87 1433.38 2344.43C1484.99 2322.76 1499.62 2182.67 1510.76 2131.89C1514.89 2112.97 1531.75 2019.31 1552.72 1900.42C1537.84 1906.03 1522.89 1911.48 1507.87 1916.76Z" fill="#4A5E5C"/>
<path d="M261.144 2774.51C348.936 2794.38 436.863 2813.84 525.211 2831.77C702.463 2867.76 903.922 2906.58 1067.12 2924.6C1067.12 2924.6 1158.56 2852.47 1168.82 2851.49L1233.12 2933.23C1302.85 2932.47 1406.59 2927.58 1481.36 2917.46C1484.51 2877.37 1515.58 2609.52 1530.06 2516.36C1430.18 2522.08 1336.4 2552.25 1236.33 2550.24C1028.61 2546.08 811.74 2526.24 619.869 2452.55C533.407 2419.34 380.679 2334.52 314.759 2294.07C312.885 2383.34 319.864 2361.69 312.129 2450.9C302.708 2559.58 263.653 2665.31 261.144 2774.51Z" fill="#5D7977"/>
<path d="M1517.66 2493.39C1417.78 2499.12 785.933 2515.27 622.645 2452.55C536.184 2419.34 322.955 2302.17 314.759 2294.07C312.885 2383.34 322.614 2361.69 314.879 2450.9C305.458 2559.58 266.403 2665.31 263.894 2774.51C307.43 2784.37 351.012 2794.07 394.642 2803.63C440.14 2761.35 492.534 2725.1 550.148 2696.05C694.473 2624.93 897.492 2554.4 1243.5 2574.99C1524.02 2668.14 1439.09 2783.13 1410.32 2901.4C1429.67 2899.44 1449.19 2897.17 1468.96 2894.49C1471.84 2857.77 1516.54 2500.55 1517.66 2493.39Z" fill="#4A5E5C"/>
<path d="M1092.49 2262.11L2649.33 2370.98L3139.06 2516.36L1583.06 2404.44L1092.49 2262.11Z" fill="#5D7977"/>
<path d="M1092.49 2262.11L1585.4 2404.71L1583.02 2443.11L1092.49 2289.53V2262.11Z" fill="#AAA19E"/>
<path d="M1585.4 2404.71L3138.51 2515.96L3136.73 2554.4L1583.03 2443.11L1585.4 2404.71Z" fill="#364442"/>
<path d="M1462.43 2341.65C1461.71 2339.63 1369.24 2342.23 1364.32 2341.65C1343.87 2403.05 1337.35 2467.32 1345.12 2530.89C1345.12 2530.89 1438.35 2523.58 1517.08 2519.04C1499.58 2457.04 1484.27 2402.62 1462.43 2341.65Z" fill="#FCB69E"/>
<path d="M1058.2 1095.52C990.183 1077.71 934.501 1016.23 917.613 952.995C913.872 938.975 874.235 961.04 877.995 975.13C896.937 1046.03 965.647 1112.79 1042.68 1132.97C1058.46 1137.13 1073.65 1099.56 1058.2 1095.52Z" fill="#A14459"/>
<path d="M1423.91 1147.57C1404.09 1136.04 1375.32 1151.33 1357.2 1158.82C1339.56 1166.11 1320.83 1168.62 1302.14 1172.48C1274.12 1152.99 1243.21 1138.62 1192.29 1149.95C1151.64 1132.27 1129.36 1090.98 1087.31 1076.4C1040.34 1060.11 1036.32 1124.36 1031.49 1148.6C1028.4 1164.06 1018.1 1185.75 1021.52 1201.77C1024.43 1215.35 1039.75 1219.35 1053.6 1221.36C1081.26 1225.36 1110.76 1222.9 1138.58 1220.95C1151.43 1220.05 1164.49 1219.04 1177.24 1217.12C1196.73 1244.09 1251.15 1249.23 1275.15 1245.85C1276.31 1245.68 1277.11 1244.85 1278.1 1244.35C1286.58 1249.39 1295.7 1253.56 1305.29 1256.78C1327.3 1264.85 1352.86 1279.25 1377.04 1279.32C1403 1279.4 1404.83 1257.95 1411.59 1240.43C1417.08 1226.1 1464.44 1171.14 1423.91 1147.57Z" fill="#BF4F63"/>
<path d="M1338.88 1203.14C1336.87 1201.88 1334.72 1200.69 1332.51 1199.57C1323.34 1194.91 1302.77 1181.22 1305.03 1191.86C1306.04 1200.36 1305.04 1208.95 1302.08 1217.1C1299.12 1225.24 1294.27 1232.78 1287.83 1239.23C1281.81 1245.71 1296.19 1241.91 1302.14 1248.48C1308.52 1255.54 1319.93 1258.11 1328.95 1261.92C1341.58 1267.86 1355.05 1272.33 1369.02 1275.21C1374.5 1276.12 1383.92 1278.58 1385.81 1272.24C1386.41 1266.81 1385.25 1261.35 1382.46 1256.46C1375.64 1240.93 1365.63 1226.6 1352.94 1214.16C1348.76 1210.03 1344.04 1206.33 1338.88 1203.14V1203.14Z" fill="#A14459"/>
<path d="M1200.08 1199.7C1199.28 1210.32 1197.54 1222.59 1209.04 1231.76C1225.72 1235.05 1242.78 1236.71 1259.89 1236.69C1269.93 1228.39 1275.49 1216.33 1286.41 1206.65C1257.34 1205.02 1228.57 1202.7 1200.08 1199.7Z" fill="#A14459"/>
<path d="M1186.94 1163.19C1185.6 1156.33 1182.96 1150.91 1178.01 1149.02C1167.97 1145.19 1144.62 1156.68 1135.95 1160.04C1125.3 1164.15 1114.92 1168.85 1104.11 1172.63C1078.64 1181.01 1051.75 1185.67 1024.53 1186.42C1023.88 1190.85 1023.97 1195.34 1024.8 1199.75C1027.7 1213.32 1043.02 1217.32 1056.87 1219.33C1084.53 1223.34 1114.03 1220.87 1141.85 1218.92C1154.34 1218.05 1167.02 1217.05 1179.43 1215.24C1177.22 1197.62 1179.79 1179.79 1186.94 1163.19V1163.19Z" fill="#A14459"/>
<path d="M1190.93 2026.01C1211.57 2026.01 1228.3 2010.47 1228.3 1991.31C1228.3 1972.14 1211.57 1956.61 1190.93 1956.61C1170.28 1956.61 1153.55 1972.14 1153.55 1991.31C1153.55 2010.47 1170.28 2026.01 1190.93 2026.01Z" fill="#CF9150"/>
<path d="M1223.85 1980.23C1221.09 1974.7 1216.56 1969.98 1210.8 1966.63C1205.05 1963.27 1198.31 1961.42 1191.38 1961.29C1184.46 1961.17 1177.63 1962.77 1171.72 1965.9C1165.8 1969.04 1161.05 1973.59 1158.01 1979C1179.34 1980.7 1202.7 1983.09 1223.85 1980.23Z" fill="#E5B57E"/>
<path d="M1190.93 2194.96C1211.57 2194.96 1228.3 2179.42 1228.3 2160.26C1228.3 2141.09 1211.57 2125.56 1190.93 2125.56C1170.28 2125.56 1153.55 2141.09 1153.55 2160.26C1153.55 2179.42 1170.28 2194.96 1190.93 2194.96Z" fill="#CF9150"/>
<path d="M1168.85 2721.22C1189.49 2721.22 1206.22 2705.68 1206.22 2686.52C1206.22 2667.35 1189.49 2651.82 1168.85 2651.82C1148.2 2651.82 1131.47 2667.35 1131.47 2686.52C1131.47 2705.68 1148.2 2721.22 1168.85 2721.22Z" fill="#E5B57E"/>
<path d="M1246.09 2491.15C1227.39 2578.47 1240.57 2733.51 1210.88 2806.75V2833.31C1257.29 2750.12 1261.39 2584.94 1280.59 2495.32C1283.51 2481.64 1249.12 2476.97 1246.09 2491.15Z" fill="#4A5E5C"/>
<path d="M1373.02 2326.75L1039.92 2230.63L1008.42 2566.81L1292.58 2631.06C1364.36 2561.29 1376.01 2380.23 1373.02 2326.75Z" fill="white"/>
<path d="M1113.12 2511.22C1113.19 2507.25 1111.91 2503.35 1109.43 2500.02C1106.95 2496.68 1103.38 2494.07 1099.18 2492.5C1094.99 2490.94 1090.35 2490.5 1085.86 2491.23C1081.37 2491.97 1077.24 2493.84 1073.98 2496.63C1070.73 2499.41 1068.5 2502.98 1067.58 2506.86C1066.66 2510.75 1067.1 2514.79 1068.83 2518.47C1070.56 2522.14 1073.51 2525.28 1077.3 2527.49C1081.09 2529.71 1085.55 2530.89 1090.12 2530.89C1096.17 2530.93 1101.99 2528.88 1106.3 2525.19C1110.61 2521.5 1113.07 2516.48 1113.12 2511.22V2511.22Z" fill="#B1D5E2"/>
<path d="M1184.18 1302.12C1184.25 1298.16 1182.96 1294.26 1180.48 1290.93C1178 1287.59 1174.43 1284.98 1170.24 1283.42C1166.04 1281.85 1161.4 1281.41 1156.92 1282.14C1152.43 1282.88 1148.3 1284.76 1145.04 1287.54C1141.79 1290.33 1139.56 1293.89 1138.64 1297.78C1137.72 1301.67 1138.16 1305.71 1139.89 1309.38C1141.62 1313.05 1144.57 1316.2 1148.36 1318.41C1152.15 1320.62 1156.61 1321.8 1161.18 1321.8C1167.23 1321.84 1173.05 1319.79 1177.36 1316.1C1181.68 1312.41 1184.13 1307.39 1184.18 1302.12V1302.12Z" fill="#B1D5E2"/>
<path d="M1161.18 1506.69C1161.25 1502.72 1159.97 1498.82 1157.48 1495.49C1155 1492.16 1151.44 1489.54 1147.24 1487.98C1143.04 1486.41 1138.41 1485.97 1133.92 1486.71C1129.43 1487.44 1125.3 1489.32 1122.05 1492.1C1118.79 1494.89 1116.56 1498.45 1115.64 1502.34C1114.73 1506.23 1115.16 1510.26 1116.89 1513.94C1118.62 1517.61 1121.57 1520.75 1125.36 1522.97C1129.15 1525.18 1133.61 1526.36 1138.17 1526.36C1141.17 1526.38 1144.14 1525.89 1146.92 1524.91C1149.7 1523.94 1152.23 1522.49 1154.36 1520.67C1156.5 1518.84 1158.2 1516.66 1159.37 1514.27C1160.54 1511.87 1161.15 1509.29 1161.18 1506.69Z" fill="#B1D5E2"/>
<path d="M1147.58 1725.13C1147.65 1721.16 1146.36 1717.26 1143.88 1713.93C1141.4 1710.6 1137.83 1707.98 1133.64 1706.42C1129.44 1704.86 1124.8 1704.41 1120.32 1705.15C1115.83 1705.88 1111.7 1707.76 1108.44 1710.55C1105.19 1713.33 1102.96 1716.89 1102.04 1720.78C1101.12 1724.67 1101.56 1728.71 1103.29 1732.38C1105.02 1736.05 1107.96 1739.2 1111.75 1741.41C1115.54 1743.62 1120.01 1744.8 1124.57 1744.8C1127.57 1744.83 1130.54 1744.33 1133.32 1743.36C1136.1 1742.38 1138.62 1740.94 1140.76 1739.11C1142.9 1737.28 1144.6 1735.11 1145.77 1732.71C1146.94 1730.31 1147.55 1727.73 1147.58 1725.13V1725.13Z" fill="#B1D5E2"/>
<path d="M2548.47 2364.06C2548.47 2364.06 1897.28 2340.87 1711.84 2236.58C1711.84 2236.58 1604.75 2174.27 1561.81 2221.31C1544.19 2240.6 1558.5 2259.28 1579.84 2277.58C1632.49 2322.76 1801.98 2397.31 2174.74 2438.14C2537.17 2470.77 2660.92 2441.33 2731.14 2408.47C2776.26 2387.36 2717.7 2377.17 2664.16 2368.06C2631.42 2362.48 2548.47 2364.06 2548.47 2364.06Z" fill="#CF9150"/>
<path d="M2506.11 2335.67C2506.11 2335.67 1841.57 2258.46 1744.13 2231.94C1744.13 2231.94 1597.51 2197.89 1583.02 2223.46C1570.5 2245.57 1629.9 2369.45 2166.81 2428.2C2529.24 2460.83 2652.99 2431.39 2723.21 2398.53C2768.33 2377.42 2749.63 2364.21 2688.64 2346.55C2657.24 2337.46 2506.11 2335.67 2506.11 2335.67Z" fill="#E5B57E"/>
<path d="M2153.97 2402.46C2351.12 2424.18 2583.86 2417.95 2664.16 2368.05C2612.4 2133.03 2537.7 1979.74 2194.49 1937.57C1809.5 1890.29 1667.96 2263.44 1666.78 2270.86C1721.54 2308.03 2054.65 2391.52 2153.97 2402.46Z" fill="#AAA19E"/>
<path d="M2091.46 2201.6C2106.63 2119.05 2135.89 2037.03 2188.32 1967.9C2173.82 1965.32 2158.72 1963.01 2142.94 1960.99C2121.25 1958.19 2099.34 1956.98 2077.42 1957.4C2051.27 1964.5 2026.03 1973.93 2002.1 1985.52C1876.02 2046.4 1779.29 2156.88 1722.5 2278.44C1804.64 2311.13 1985.28 2358.34 2076.71 2374.7C2076.29 2316.75 2081.22 2258.86 2091.46 2201.6V2201.6Z" fill="#D3C8C1"/>
<path d="M2205.69 1955.67C2224.31 1956.83 2237.17 1957.07 2252.19 1950.56L2256.32 1915.89C2247.93 1918.21 2226.48 1917.93 2210.36 1916.47C2195.23 1914.32 2180.26 1911.39 2165.53 1907.71L2161.19 1944.19C2174.94 1950.67 2190.1 1954.58 2205.69 1955.67V1955.67Z" fill="#BEB3AD"/>
<path d="M2256.28 1915.04C2256.85 1910.15 2236.97 1904.41 2211.89 1902.24C2186.8 1900.07 2166.02 1902.24 2165.45 1907.11C2164.89 1911.98 2184.76 1917.74 2209.84 1919.91C2234.93 1922.08 2255.75 1919.92 2256.28 1915.04Z" fill="#AAA19E"/>
<path d="M2092.97 1984.93C1901 2013.9 1805.75 2228.68 1804.51 2233.75C1809.12 2237.84 1814.19 2241.52 1819.63 2244.74C1813.04 2240.66 1919.56 2019.11 2092.97 1984.93Z" fill="white"/>
<path d="M2238.98 1872.1L2192.6 1867.92L2187.71 1908.97C2202.43 1915.3 2223.96 1918.11 2234.09 1913.15C2235.72 1899.48 2237.35 1885.79 2238.98 1872.1Z" fill="#BEB3AD"/>
<path d="M2228.32 1913.58L2231.4 1878.1L2217.52 1876.85L2213.17 1913.35C2218.14 1914.34 2223.31 1914.42 2228.32 1913.58Z" fill="#AAA19E"/>
<path d="M2291.84 1861.31C2293.18 1850.16 2261.88 1838.21 2221.97 1834.61C2182.06 1831.02 2148.63 1837.14 2147.29 1848.29C2145.96 1859.44 2177.25 1871.39 2217.16 1874.99C2257.07 1878.58 2290.51 1872.46 2291.84 1861.31Z" fill="#AAA19E"/>
<path d="M2292.55 1855.66C2293.88 1844.51 2262.59 1832.55 2222.66 1828.96C2182.74 1825.36 2149.29 1831.49 2147.96 1842.65C2146.64 1853.8 2177.93 1865.76 2217.85 1869.35C2257.78 1872.94 2291.23 1866.81 2292.55 1855.66Z" fill="#D3C8C1"/>
<path d="M2190.4 1852.15C2183.4 1847.29 2178.69 1840.25 2183.07 1833.58C2169.21 1835.03 2159.89 1838.3 2159.28 1842.77C2158.32 1849.86 2179.45 1857.42 2207.51 1860.39C2201.34 1858.45 2195.56 1855.67 2190.4 1852.15V1852.15Z" fill="white"/>
<path d="M2173.26 2401.72C2092.6 2351 2035.77 2415.1 1897.41 2413.36C1870.49 2413.03 1830.85 2410.11 1808.12 2396.49C1808.12 2396.49 1879.28 2373.64 1903.71 2369.73C1940.43 2363.85 1953.5 2350.8 1989.44 2341.33C2028.45 2331.04 2071.28 2321.55 2108.32 2306.57C2138.94 2294.18 2101.42 2278.58 2060.87 2281.34C1962.86 2288.01 1933.3 2306.83 1812.86 2317.15C1771.73 2320.64 1732.42 2335.66 1691.35 2326.64C1665.31 2320.92 1625.92 2310.03 1633.4 2280.94C1637.62 2264.53 1652.73 2250.98 1661.62 2236.41C1669.07 2223.89 1675.12 2210.77 1679.68 2197.24C1687.66 2174.43 1699.93 2132.09 1674.45 2114.15C1655.86 2131.2 1630.2 2191.57 1557.13 2219.61C1526.31 2231.44 1508.46 2263.61 1492.44 2289.49C1480.65 2308.52 1452.01 2315.05 1429.49 2324.03C1452.4 2387.31 1449.97 2489.97 1468.18 2554.36C1498.74 2552.12 1550.11 2516.32 1600.25 2517.22C1703.9 2519.07 1707.62 2501.25 1761.84 2489.62C1792.38 2496.96 1822.46 2507.66 1853.1 2506.26C1913.52 2503.5 1955.3 2502.59 2003.03 2485.71C2015.78 2481.21 1997.82 2477.19 1984.35 2472.08C1968.65 2466.8 1951.84 2464.45 1935.02 2465.17C1926.51 2465.08 1918.02 2464.5 1909.59 2463.43C1961.99 2454.97 2014.42 2446.48 2045.15 2439.7C2052.05 2433.38 2189.02 2411.64 2173.26 2401.72Z" fill="white"/>
</g>
<defs>
<clipPath id="clip0_2_1061">
<rect width="3395" height="3282" fill="white"/>
</clipPath>
</defs>
</svg>
