<svg xmlns="http://www.w3.org/2000/svg" width="28.9" height="34.469" viewBox="0 0 28.9 34.469">
  <g id="Group_881" data-name="Group 881" transform="translate(-10789.572 -932.143)">
    <g id="Group_880" data-name="Group 880">
      <g id="Group_878" data-name="Group 878">
        <path id="Path_846" data-name="Path 846" d="M10804.022,952.374a5.781,5.781,0,1,1,5.779-5.78A5.787,5.787,0,0,1,10804.022,952.374Zm0-9.634a3.854,3.854,0,1,0,3.854,3.854A3.858,3.858,0,0,0,10804.022,942.74Z" fill="#232020"/>
      </g>
      <g id="Group_879" data-name="Group 879">
        <path id="Path_847" data-name="Path 847" d="M10804.022,966.612a.963.963,0,0,1-.682-.282l-9.836-9.836a14.431,14.431,0,0,1-2.685-4.028,14.274,14.274,0,0,1-1.248-5.872,14.45,14.45,0,1,1,28.9,0,14.434,14.434,0,0,1-3.912,9.878l-9.857,9.858A.961.961,0,0,1,10804.022,966.612Zm0-32.542a12.538,12.538,0,0,0-12.523,12.524,12.5,12.5,0,0,0,3.39,8.56l9.134,9.132,9.154-9.154a12.518,12.518,0,0,0-9.154-21.062Z" fill="#232020"/>
      </g>
    </g>
  </g>
</svg>
