<svg xmlns="http://www.w3.org/2000/svg" width="310.984" height="466.652" viewBox="0 0 310.984 466.652">
  <g id="Group_2063" data-name="Group 2063" transform="translate(-1349.886 -5071.661)" opacity="0.64" style="mix-blend-mode: multiply;isolation: isolate">
    <path id="Path_2330" data-name="Path 2330" d="M1612.9,5080.979a9.2,9.2,0,0,0-3.64-7.375,9.675,9.675,0,0,0-8.121-1.679l-171.82,45.082h183.59Z" fill="#00170f" opacity="0.3" style="mix-blend-mode: multiply;isolation: isolate"/>
    <path id="Path_2331" data-name="Path 2331" d="M1651.538,5135.669h-292.32a9.36,9.36,0,0,0-9.332,9.332v383.98a9.3,9.3,0,0,0,9.332,9.332h292.32a9.3,9.3,0,0,0,9.332-9.332v-383.97a9.363,9.363,0,0,0-9.332-9.336Zm-54.973,339.83h-189.56a9.332,9.332,0,0,1,0-18.664h189.56a9.332,9.332,0,0,1,0,18.664Zm0-62.625h-189.56a9.332,9.332,0,0,1,0-18.664h189.56a9.332,9.332,0,0,1,0,18.664Zm-39.293-91a85.325,85.325,0,0,1-148.863-57.023v-29.586c0-25.2,44.238-36.68,85.4-36.68s85.4,11.48,85.4,36.68v10.359c8.121-.933,16.8-.187,23.613,4.762,4.481,3.266,9.989,9.895,10.266,22.492.653,27.434-33.6,42.273-55.812,49Z" fill="#00170f" opacity="0.22"/>
    <path id="Path_2332" data-name="Path 2332" d="M1594.418,5273.249c.188,8.493-8.867,16.238-21,22.309a83.9,83.9,0,0,0,5.785-30.707v-.375c5.692-.933,10.359-.652,12.6.934,1.68,1.215,2.52,3.828,2.614,7.84Z" fill="#00170f" opacity="0.3" style="mix-blend-mode: multiply;isolation: isolate"/>
    <path id="Path_2333" data-name="Path 2333" d="M1560.538,5235.259c0,5.227-23.332,18.1-66.734,18.1-43.309,0-66.734-12.879-66.734-18.1s23.426-18.012,66.734-18.012C1537.206,5217.243,1560.538,5230.032,1560.538,5235.259Z" fill="#00170f" opacity="0.3" style="mix-blend-mode: multiply;isolation: isolate"/>
  </g>
</svg>
