<svg xmlns="http://www.w3.org/2000/svg" xmlns:xlink="http://www.w3.org/1999/xlink" width="416.276" height="411.868" viewBox="0 0 416.276 411.868">
  <defs>
    <clipPath id="clip-path">
      <rect width="416.276" height="411.868" fill="none"/>
    </clipPath>
    <clipPath id="clip-path-2">
      <path id="Rectangle_1106" data-name="Rectangle 1106" d="M54.653,0H674.623a54.652,54.652,0,0,1,54.652,54.652V357.216a54.652,54.652,0,0,1-54.652,54.652H54.652A54.652,54.652,0,0,1,0,357.217V54.653A54.653,54.653,0,0,1,54.653,0Z" transform="translate(2244.432 2397.51)" fill="none"/>
    </clipPath>
  </defs>
  <g id="Scroll_Group_2" data-name="Scroll Group 2" clip-path="url(#clip-path)" style="isolation: isolate">
    <g id="Group_2701" data-name="Group 2701" transform="translate(-2244.432 -2397.51)">
      <g id="Group_2700" data-name="Group 2700" clip-path="url(#clip-path-2)">
        <g id="Group_2569" data-name="Group 2569">
          <g id="Group_2567" data-name="Group 2567">
            <g id="Group_2521" data-name="Group 2521">
              <path id="Path_2746" data-name="Path 2746" d="M2437.075,2360.466s40.73-15.128,27.929-44.221-54.694-32.584-93.1-20.947-44.221,38.4-38.4,55.858,48.876,17.456,48.876,17.456Z" fill="#f6dfd9"/>
            </g>
            <g id="Group_2539" data-name="Group 2539">
              <g id="Group_2522" data-name="Group 2522">
                <path id="Path_2747" data-name="Path 2747" d="M2372.489,2482.655s-5.236-4.655-6.982-7.565a12.508,12.508,0,0,1-1.745-5.818s-5.237,6.982-5.819.582,8.146-26.765,8.146-26.765l-2.327-24.438,25.6-14.546,4.655,38.984Z" fill="#d9513c"/>
              </g>
              <g id="Group_2523" data-name="Group 2523">
                <path id="Path_2748" data-name="Path 2748" d="M2370.319,2451.264v73.455a27.033,27.033,0,0,0,27.033,27.033h18.4a27.032,27.032,0,0,0,27.032-27.033v-73.455Z" fill="#fcc2b0"/>
              </g>
              <g id="Group_2524" data-name="Group 2524">
                <path id="Path_2749" data-name="Path 2749" d="M2420.988,2504.2l21.8,11.289V2495.62Z" fill="#383255"/>
              </g>
              <g id="Group_2525" data-name="Group 2525">
                <path id="Path_2750" data-name="Path 2750" d="M2358.432,2461.452c.192.436.4.844.611,1.228,3.1,5.585,8.134,5.777,11.276,5.236a12.97,12.97,0,0,0,2.834-.8s-1.537,5.109.8,12.842a40.9,40.9,0,0,0,6.836,12.917c6.587,8.611,26.312,20.435,46.234,14.453a39.221,39.221,0,0,0,8.967-3.98,20.478,20.478,0,0,0,6.79-7.273c12.236-20.435,8.256-87.313,8.256-87.313l1.024-.011-68.158-5.8-.139,4.061-.146,4.375-.343,10.014-1.018,29.861-.053,1.513-4.241.471s-.268-.774-.745-1.984c-1.641-4.213-5.772-13.715-9.729-14.151a4.107,4.107,0,0,0-2.659.832C2360,2441.169,2354.632,2452.905,2358.432,2461.452Z" fill="#fcc2b0"/>
              </g>
              <g id="Group_2527" data-name="Group 2527">
                <g id="Group_2526" data-name="Group 2526">
                  <path id="Path_2751" data-name="Path 2751" d="M2365.119,2447.5c2.54,4.567,3.957,9.727,2.616,14.9a.738.738,0,0,1-1.421-.392c1.242-4.789-.122-9.543-2.468-13.761-.462-.83.811-1.575,1.273-.744Z" fill="#383255"/>
                </g>
              </g>
              <g id="Group_2529" data-name="Group 2529">
                <g id="Group_2528" data-name="Group 2528">
                  <path id="Path_2752" data-name="Path 2752" d="M2366.321,2452.915a10.915,10.915,0,0,0-3.5,5.69.738.738,0,0,1-1.421-.392,12.261,12.261,0,0,1,3.878-6.341c.728-.6,1.777.439,1.043,1.043Z" fill="#383255"/>
                </g>
              </g>
              <g id="Group_2531" data-name="Group 2531">
                <g id="Group_2530" data-name="Group 2530">
                  <path id="Path_2753" data-name="Path 2753" d="M2423.849,2477.527c-.844,3.418-4.252,4.592-7.455,4.854-3.842.314-5.833-2.109-7.375-5.334-.47-.981.994-1.843,1.466-.857,1.065,2.228,2.289,4.539,5.113,4.551,2.56.011,5.931-.9,6.613-3.666a.85.85,0,0,1,1.638.452Z" fill="#383255"/>
                </g>
              </g>
              <g id="Group_2533" data-name="Group 2533">
                <g id="Group_2532" data-name="Group 2532">
                  <path id="Path_2754" data-name="Path 2754" d="M2438.8,2431.506a6.871,6.871,0,0,0-3.8-1.208,3.491,3.491,0,0,1,0-6.982,14.237,14.237,0,0,1,8.74,3.252c1.486,1.164,1.22,3.718,0,4.938-1.466,1.466-3.448,1.167-4.937,0Z" fill="#d9513c"/>
                </g>
              </g>
              <g id="Group_2535" data-name="Group 2535">
                <g id="Group_2534" data-name="Group 2534">
                  <path id="Path_2755" data-name="Path 2755" d="M2407.537,2430.4a5.74,5.74,0,0,0-4.324,1.057,3.591,3.591,0,0,1-4.937,0c-1.233-1.232-1.465-3.735,0-4.937a12.692,12.692,0,0,1,9.261-3.1,3.587,3.587,0,0,1,3.492,3.491c0,1.754-1.6,3.667-3.492,3.492Z" fill="#d9513c"/>
                </g>
              </g>
              <g id="Group_2536" data-name="Group 2536">
                <path id="Path_2756" data-name="Path 2756" d="M2432.593,2438.526c0,2.5,1.141,4.529,2.548,4.529s2.547-2.027,2.547-4.529-1.14-4.528-2.547-4.528S2432.593,2436.025,2432.593,2438.526Z" fill="#383255"/>
              </g>
              <g id="Group_2537" data-name="Group 2537">
                <ellipse id="Ellipse_134" data-name="Ellipse 134" cx="2.548" cy="4.529" rx="2.548" ry="4.529" transform="translate(2402.588 2433.998)" fill="#383255"/>
              </g>
              <g id="Group_2538" data-name="Group 2538">
                <path id="Path_2757" data-name="Path 2757" d="M2370.744,2402.941l9.222,6.051,3.654,2.4,5.743,3.771a16.4,16.4,0,0,0,1.42.855c.756.407,1.827.943,3.235,1.536a60.605,60.605,0,0,0,8.728,2.845c9.146,2.287,20.539-3.851,20.935-4.061-.262.274-4.859,5.2,8.157,4.061,5.016-.436,10.689-2.507,15.815-5.015,1.554-.762,3.468-13.767,3.386-18.259l-19.2-13.964Z" fill="#d9513c"/>
              </g>
            </g>
            <g id="Group_2540" data-name="Group 2540">
              <path id="Path_2758" data-name="Path 2758" d="M2354.452,2360.466l7.587,57.847,1.723,13.139a113.612,113.612,0,0,1,19.515-10.049c2.42-.989,5.027-1.972,7.8-2.9.961-.326,1.938-.64,2.939-.949a119.879,119.879,0,0,1,14.546-3.555c18.265-3.247,32.281-.547,39.089,1.385a39.437,39.437,0,0,1,4.55,1.524s-.023-1.437-.07-3.9c-.017-1.193-.04-2.63-.07-4.259-.058-3.293-.122-7.378-.2-11.87-.344-20.231-.821-48.672-.821-49.795,0,0-13.964-17.456-50.621-12.8S2354.452,2360.466,2354.452,2360.466Z" fill="#f6dfd9"/>
            </g>
            <g id="Group_2542" data-name="Group 2542">
              <g id="Group_2541" data-name="Group 2541">
                <path id="Path_2759" data-name="Path 2759" d="M2447.346,2397.785a103.734,103.734,0,0,0-78.615,10.18,1.747,1.747,0,0,1-1.762-3.014,107.341,107.341,0,0,1,81.3-10.533,1.747,1.747,0,0,1-.928,3.367Z" fill="#7597c4"/>
              </g>
            </g>
            <g id="Group_2544" data-name="Group 2544">
              <g id="Group_2543" data-name="Group 2543">
                <path id="Path_2760" data-name="Path 2760" d="M2441.45,2395.18a127.134,127.134,0,0,1-.449,13.028c-.139,1.1-1.886,1.113-1.746,0a126.945,126.945,0,0,0,.449-13.028.873.873,0,0,1,1.746,0Z" fill="#7597c4"/>
              </g>
            </g>
            <g id="Group_2546" data-name="Group 2546">
              <g id="Group_2545" data-name="Group 2545">
                <path id="Path_2761" data-name="Path 2761" d="M2429.15,2393.445q-.444,6.794-1.06,13.572c-.1,1.11-1.848,1.12-1.746,0q.616-6.78,1.06-13.572c.073-1.115,1.819-1.123,1.746,0Z" fill="#7597c4"/>
              </g>
            </g>
            <g id="Group_2548" data-name="Group 2548">
              <g id="Group_2547" data-name="Group 2547">
                <path id="Path_2762" data-name="Path 2762" d="M2413.106,2393.631q.093,7.179-.049,14.355a.873.873,0,0,1-1.745,0q.141-7.178.048-14.355a.873.873,0,0,1,1.746,0Z" fill="#7597c4"/>
              </g>
            </g>
            <g id="Group_2550" data-name="Group 2550">
              <g id="Group_2549" data-name="Group 2549">
                <path id="Path_2763" data-name="Path 2763" d="M2395.871,2396.33q1.051,7.449,1.629,14.944c.086,1.121-1.66,1.115-1.745,0q-.555-7.266-1.567-14.48c-.155-1.1,1.526-1.573,1.683-.464Z" fill="#7597c4"/>
              </g>
            </g>
            <g id="Group_2552" data-name="Group 2552">
              <g id="Group_2551" data-name="Group 2551">
                <path id="Path_2764" data-name="Path 2764" d="M2381.94,2401a75.3,75.3,0,0,0,1.134,13.338c.193,1.1-1.489,1.57-1.684.464a77.966,77.966,0,0,1-1.195-13.8.873.873,0,0,1,1.745,0Z" fill="#7597c4"/>
              </g>
            </g>
            <g id="Group_2554" data-name="Group 2554">
              <g id="Group_2553" data-name="Group 2553">
                <path id="Path_2765" data-name="Path 2765" d="M2371.229,2405.656v10.474a.874.874,0,0,1-1.746,0v-10.474a.874.874,0,0,1,1.746,0Z" fill="#7597c4"/>
              </g>
            </g>
            <g id="Group_2556" data-name="Group 2556">
              <g id="Group_2555" data-name="Group 2555">
                <path id="Path_2766" data-name="Path 2766" d="M2448,2349.4c-5.6-6.425-13.3-10.048-21.5-11.939-8.658-2-18.052-2.919-26.83-1.273-8.4,1.576-17.465,3.323-24.9,7.727a38.588,38.588,0,0,0-15.144,16.844c-.959,2.03-3.97.26-3.014-1.762a41.88,41.88,0,0,1,15.64-17.637c8.112-5.059,18.22-7.119,27.527-8.726,9.225-1.594,19.1-.584,28.172,1.586,8.542,2.045,16.681,6.012,22.519,12.712,1.47,1.687-.989,4.166-2.468,2.468Z" fill="#7597c4"/>
              </g>
            </g>
            <g id="Group_2558" data-name="Group 2558">
              <g id="Group_2557" data-name="Group 2557">
                <path id="Path_2767" data-name="Path 2767" d="M2361.569,2354.277a35.263,35.263,0,0,1-17.682-8.259c-.852-.735.388-1.965,1.234-1.234a33.652,33.652,0,0,0,16.912,7.81c1.106.176.637,1.858-.464,1.683Z" fill="#7597c4"/>
              </g>
            </g>
            <g id="Group_2560" data-name="Group 2560">
              <g id="Group_2559" data-name="Group 2559">
                <path id="Path_2768" data-name="Path 2768" d="M2364.722,2349.984a17.309,17.309,0,0,1-5.661-3.63c-.811-.781.424-2.014,1.234-1.235a15.107,15.107,0,0,0,4.891,3.182c1.03.412.581,2.1-.464,1.683Z" fill="#7597c4"/>
              </g>
            </g>
            <g id="Group_2562" data-name="Group 2562">
              <g id="Group_2561" data-name="Group 2561">
                <path id="Path_2769" data-name="Path 2769" d="M2398.886,2333.449a55.255,55.255,0,0,0,.164-16.981c-.159-1.1,1.522-1.573,1.683-.464a58.137,58.137,0,0,1-.164,17.909c-.182,1.106-1.864.637-1.683-.464Z" fill="#7597c4"/>
              </g>
            </g>
            <g id="Group_2564" data-name="Group 2564">
              <g id="Group_2563" data-name="Group 2563">
                <path id="Path_2770" data-name="Path 2770" d="M2408.864,2332.421a13.408,13.408,0,0,0,1.687-6.092c.04-1.12,1.785-1.125,1.745,0a15.4,15.4,0,0,1-1.925,6.973c-.543.984-2.051.1-1.507-.881Z" fill="#7597c4"/>
              </g>
            </g>
            <g id="Group_2566" data-name="Group 2566">
              <g id="Group_2565" data-name="Group 2565">
                <path id="Path_2771" data-name="Path 2771" d="M2441.3,2340.593c3.094-2.339,4.377-6.123,5.543-9.67.35-1.063,2.036-.608,1.684.464-1.331,4.048-2.837,8.061-6.346,10.714-.9.677-1.767-.838-.881-1.508Z" fill="#7597c4"/>
              </g>
            </g>
          </g>
          <g id="Group_2568" data-name="Group 2568">
            <path id="Path_2772" data-name="Path 2772" d="M2424.166,2436.256l6.11,10.44c1.436,2.455,3.369,5.075,3.642,8a5.375,5.375,0,0,1-2.98,5.367c-3.207,1.872-7.026,3.053-10.441,4.5-1,.422-1.862-1.04-.858-1.467,2.61-1.107,5.222-2.208,7.828-3.323,1.253-.536,2.936-1.04,3.875-2.081,1.7-1.88.726-4.213-.2-6.064-2.477-4.98-5.637-9.714-8.446-14.514a.85.85,0,0,1,1.466-.858Z" fill="#383255"/>
          </g>
          <path id="Path_2773" data-name="Path 2773" d="M2425.632,2455.366a1.747,1.747,0,0,1,0-3.492,1.747,1.747,0,0,1,0,3.492Z" fill="#d9513c"/>
          <path id="Path_2774" data-name="Path 2774" d="M2415.934,2447.22a1.747,1.747,0,0,1,0-3.492,1.747,1.747,0,0,1,0,3.492Z" fill="#d9513c"/>
          <path id="Path_2775" data-name="Path 2775" d="M2407.4,2458.469a1.747,1.747,0,0,1,0-3.491,1.747,1.747,0,0,1,0,3.491Z" fill="#d9513c"/>
          <path id="Path_2776" data-name="Path 2776" d="M2394.212,2451.486a1.747,1.747,0,0,1,0-3.491,1.747,1.747,0,0,1,0,3.491Z" fill="#d9513c"/>
          <path id="Path_2777" data-name="Path 2777" d="M2439.984,2452.262a1.747,1.747,0,0,1,0-3.491,1.747,1.747,0,0,1,0,3.491Z" fill="#d9513c"/>
        </g>
        <g id="Group_2585" data-name="Group 2585">
          <g id="Group_2570" data-name="Group 2570">
            <rect id="Rectangle_1102" data-name="Rectangle 1102" width="190.847" height="406.133" transform="translate(2310.934 3005.448)" fill="#7597c4"/>
          </g>
          <g id="Group_2574" data-name="Group 2574">
            <g id="Group_2571" data-name="Group 2571">
              <rect id="Rectangle_1103" data-name="Rectangle 1103" width="4.073" height="406.133" transform="translate(2404.322 3005.448)" fill="#383255"/>
            </g>
            <g id="Group_2572" data-name="Group 2572">
              <rect id="Rectangle_1104" data-name="Rectangle 1104" width="4.073" height="406.133" transform="translate(2452.324 3005.448)" fill="#f6dfd9"/>
            </g>
            <g id="Group_2573" data-name="Group 2573">
              <rect id="Rectangle_1105" data-name="Rectangle 1105" width="4.073" height="406.133" transform="translate(2356.319 3005.448)" fill="#f6dfd9"/>
            </g>
          </g>
          <g id="Group_2576" data-name="Group 2576">
            <g id="Group_2575" data-name="Group 2575">
              <path id="Path_2778" data-name="Path 2778" d="M2451.267,3396.547a128.765,128.765,0,0,1,9.141-16.578c1.461-2.161,5.641-8.373,8.985-6.653,3.162,1.627.314,6.542-1.061,8.288-4.042,5.129-8.742,9.847-13.093,14.717l-1.234-1.234c3.8-3.92,7.667-7.905,12.328-10.811,2.1-1.31,7.426-4.689,9.6-1.594,2.329,3.319-4.054,6.78-6.092,8.117a54.739,54.739,0,0,1-16.017,7.067q-.116-.858-.232-1.715a54.994,54.994,0,0,0,22.928-4.159c1.037-.428,1.49,1.26.464,1.683a56.209,56.209,0,0,1-23.392,4.222.877.877,0,0,1-.232-1.714,53.645,53.645,0,0,0,10.892-4.139,53,53,0,0,0,5.123-3.025q1.031-.688,2.026-1.429c1.548-1.15,2.579-1.275,1.957-3.124-.608-1.809-1.378-1.134-2.822-.488a26.581,26.581,0,0,0-2.512,1.315,36.9,36.9,0,0,0-4.839,3.423,97.855,97.855,0,0,0-7.943,7.6c-.787.813-1.978-.4-1.234-1.234l8.582-9.607c1.313-1.47,2.676-2.91,3.94-4.422a13.082,13.082,0,0,0,1.893-2.727q1.611-2.012-.39-2.5-1.254-1.247-2.269.5c-2.905,2.506-4.861,5.991-6.761,9.269-2.237,3.857-4.3,7.806-6.226,11.827-.485,1.013-1.99.128-1.507-.881Z" fill="#875063"/>
            </g>
          </g>
          <g id="Group_2578" data-name="Group 2578">
            <g id="Group_2577" data-name="Group 2577">
              <path id="Path_2779" data-name="Path 2779" d="M2359.076,3397.4a34.015,34.015,0,0,0,13.106-18.925c.173-.657.93-2.5-.139-2.832a21.528,21.528,0,0,0-2.314,2.852c-1.176,1.552-2.274,3.167-3.291,4.828a60.84,60.84,0,0,0-5.337,11.209.877.877,0,0,1-1.714-.232,33.106,33.106,0,0,0-.973-8.372,20.48,20.48,0,0,0-1.584-4.167c-.513-.987-1.53-3.256-2.54-3.6-2.57-.871-1.557,2.81-1.344,4.025a23.783,23.783,0,0,0,1.038,3.936,24.975,24.975,0,0,0,4.872,8.092c.793.9,2.151,2.042,1.312,3.354-.621.972-1.818.88-2.792.53-2.63-.945-5.192-3.05-7.553-4.523q-4.36-2.721-8.651-5.55c-.935-.615-.061-2.127.881-1.507q4.521,2.971,9.11,5.836,2.527,1.572,5.076,3.106c.408.246,1.539,1.273,2.011.641.015-.019-1.43-1.571-1.518-1.678a25.776,25.776,0,0,1-5.855-15.15c-.064-1.38-.269-3.63,1.563-3.921,1.8-.287,3.4,1.819,4.324,3.036,3.429,4.521,4.335,10.377,4.368,15.91l-1.714-.232a62.145,62.145,0,0,1,7.939-15.276c.9-1.251,5.282-8.247,7-4.326.74,1.685-.491,4.622-.993,6.192a35.8,35.8,0,0,1-2.959,6.755,36.156,36.156,0,0,1-10.451,11.494c-.914.656-1.786-.857-.881-1.507Z" fill="#875063"/>
            </g>
          </g>
          <g id="Group_2584" data-name="Group 2584">
            <g id="Group_2581" data-name="Group 2581">
              <g id="Group_2579" data-name="Group 2579">
                <path id="Path_2780" data-name="Path 2780" d="M2419.742,3421.182h66.332a25.568,25.568,0,0,0-25.6-25.6h-15.128a25.568,25.568,0,0,0-25.6,25.6Z" fill="#383255"/>
              </g>
              <g id="Group_2580" data-name="Group 2580">
                <path id="Path_2781" data-name="Path 2781" d="M2326.646,3421.182h66.331a25.565,25.565,0,0,0-25.6-25.6h-15.128a25.568,25.568,0,0,0-25.6,25.6Z" fill="#383255"/>
              </g>
            </g>
            <g id="Group_2582" data-name="Group 2582">
              <path id="Path_2782" data-name="Path 2782" d="M2421.063,3413.036a25.654,25.654,0,0,0-1.321,8.146h66.332a25.654,25.654,0,0,0-1.321-8.146Z" fill="#875063"/>
            </g>
            <g id="Group_2583" data-name="Group 2583">
              <path id="Path_2783" data-name="Path 2783" d="M2326.646,3421.182h66.331a25.654,25.654,0,0,0-1.32-8.146h-63.69A25.654,25.654,0,0,0,2326.646,3421.182Z" fill="#875063"/>
            </g>
          </g>
        </g>
        <g id="Group_2612" data-name="Group 2612">
          <g id="Group_2586" data-name="Group 2586">
            <path id="Path_2784" data-name="Path 2784" d="M2422.529,2661.283s83.2,114.625,133.826,102.406c22.591-5.453,68.571-107.619,89.541-157.752q.89-2.138,1.722-4.137c6.168-14.8,9.979-24.3,9.979-24.3s-16.292,2.91-28.511.582-25.6-19.783-25.6-19.783l-14.134,29.221-1.64,3.386-36.011,74.454s-26.123-136.735-49.4-133.826S2422.529,2661.283,2422.529,2661.283Z" fill="#383255"/>
          </g>
          <g id="Group_2589" data-name="Group 2589">
            <g id="Group_2587" data-name="Group 2587">
              <path id="Path_2785" data-name="Path 2785" d="M2360.1,2519.311v43.057h92.514v-43.057l-1.786.658a128.393,128.393,0,0,1-66.7,6.016q-1.753-.306-3.491-.663A128.533,128.533,0,0,1,2360.1,2519.311Z" fill="#383255"/>
            </g>
            <g id="Group_2588" data-name="Group 2588">
              <path id="Path_2786" data-name="Path 2786" d="M2311.456,2531.53l-1.1,252.523h192.011l-.061-252.523Z" fill="#383255"/>
            </g>
          </g>
          <g id="Group_2590" data-name="Group 2590">
            <path id="Path_2787" data-name="Path 2787" d="M2502.242,2747.4l23.274,347.366s-37.992,46.043-120.529,46.877-144.213-39.313-144.213-39.313l49.457-354.93Z" fill="#f6dfd9"/>
          </g>
          <g id="Group_2592" data-name="Group 2592">
            <g id="Group_2591" data-name="Group 2591">
              <path id="Path_2788" data-name="Path 2788" d="M2485.09,2864.969a369.744,369.744,0,0,1-73.134,192.727c-6.06,8.02-12.678,15.987-21.492,20.821Z" fill="#fff"/>
            </g>
          </g>
          <g id="Group_2594" data-name="Group 2594">
            <g id="Group_2593" data-name="Group 2593">
              <path id="Path_2789" data-name="Path 2789" d="M2492.206,2939.166c.776,17.146-.012,34.558-4.886,51.015-3.127,10.56-7.883,20.552-12.619,30.5-5.584,11.723-11.923,24.247-23.492,30.144Z" fill="#fff"/>
            </g>
          </g>
          <g id="Group_2596" data-name="Group 2596">
            <g id="Group_2595" data-name="Group 2595">
              <path id="Path_2790" data-name="Path 2790" d="M2321.06,2824.749c-1.637,30.785,5.4,61.537,16.449,90.316s26.061,55.845,41.018,82.8Z" fill="#fff"/>
            </g>
          </g>
          <g id="Group_2597" data-name="Group 2597">
            <path id="Path_2791" data-name="Path 2791" d="M2611.59,2574.209a55.95,55.95,0,0,0,23.774,11.817c10.043,2.118,19.289.315,22.233-8.53,1-3.008-2.706-7.319-8.594-11.514-8.664-6.174-22.047-12.1-32.107-13.307-6.9-.833-12.23.564-13.411,5.62C2602.286,2563.433,2605.812,2569.205,2611.59,2574.209Z" fill="#875063"/>
          </g>
          <g id="Group_2599" data-name="Group 2599">
            <g id="Group_2598" data-name="Group 2598">
              <path id="Path_2792" data-name="Path 2792" d="M2380.635,2525.322v28.126a17.074,17.074,0,0,0,17.066,17.066h28.8a15.245,15.245,0,0,1,15.227,15.227v84.852h3.491v-84.852a18.738,18.738,0,0,0-18.718-18.718h-28.8a13.6,13.6,0,0,1-13.575-13.575v-27.463Q2382.373,2525.679,2380.635,2525.322Z" fill="#7597c4"/>
            </g>
          </g>
          <g id="Group_2601" data-name="Group 2601">
            <g id="Group_2600" data-name="Group 2600">
              <path id="Path_2793" data-name="Path 2793" d="M2587.711,2590.9a66.89,66.89,0,0,0,19.113,13.779,46.358,46.358,0,0,0,19.481,3.881,81.486,81.486,0,0,0,19.591-2.625q.89-2.138,1.722-4.137c-11.1,3.09-26.806,5.493-39.327-.285a64.09,64.09,0,0,1-18.94-14Z" fill="#7597c4"/>
            </g>
          </g>
          <g id="Group_2603" data-name="Group 2603">
            <g id="Group_2602" data-name="Group 2602">
              <path id="Path_2794" data-name="Path 2794" d="M2595.533,2613.571c-4.493,0-4.5-6.982,0-6.982s4.5,6.982,0,6.982Z" fill="#7597c4"/>
            </g>
          </g>
          <g id="Group_2605" data-name="Group 2605">
            <g id="Group_2604" data-name="Group 2604">
              <path id="Path_2795" data-name="Path 2795" d="M2587.387,2632.578c-4.493,0-4.5-6.982,0-6.982s4.5,6.982,0,6.982Z" fill="#7597c4"/>
            </g>
          </g>
          <g id="Group_2607" data-name="Group 2607">
            <g id="Group_2606" data-name="Group 2606">
              <path id="Path_2796" data-name="Path 2796" d="M2579.241,2651.585c-4.493,0-4.5-6.982,0-6.982s4.5,6.982,0,6.982Z" fill="#7597c4"/>
            </g>
          </g>
          <g id="Group_2609" data-name="Group 2609">
            <g id="Group_2608" data-name="Group 2608">
              <path id="Path_2797" data-name="Path 2797" d="M2428.735,2553.059c-4.493,0-4.5-6.983,0-6.983s4.5,6.983,0,6.983Z" fill="#7597c4"/>
            </g>
          </g>
          <g id="Group_2611" data-name="Group 2611">
            <g id="Group_2610" data-name="Group 2610">
              <path id="Path_2798" data-name="Path 2798" d="M2395.763,2553.059c-4.492,0-4.5-6.983,0-6.983s4.5,6.983,0,6.983Z" fill="#7597c4"/>
            </g>
          </g>
        </g>
        <g id="Group_2651" data-name="Group 2651">
          <g id="Group_2613" data-name="Group 2613">
            <path id="Path_2799" data-name="Path 2799" d="M2493.514,2706.377s41.894,8.145,38.4,20.364-38.4-4.073-38.4-4.073Z" fill="#7a98c4"/>
          </g>
          <g id="Group_2614" data-name="Group 2614">
            <path id="Path_2800" data-name="Path 2800" d="M2330.014,2706.377s-41.893,8.145-38.4,20.364,38.4-4.073,38.4-4.073Z" fill="#7a98c4"/>
          </g>
          <g id="Group_2615" data-name="Group 2615">
            <path id="Path_2801" data-name="Path 2801" d="M2324.417,2685.476v137.271a56.163,56.163,0,0,0,.424,6.965,57.316,57.316,0,0,0,56.888,50.347h56.37a57.278,57.278,0,0,0,57.312-57.312l.722-120.979.1-16.617Z" fill="#7a98c4"/>
          </g>
          <g id="Group_2616" data-name="Group 2616">
            <path id="Path_2802" data-name="Path 2802" d="M2413.8,2646.155s18.037-17.456,12.8-27.347-9.892-11.637-9.31-19.783,6.982-22.11,6.982-22.11-13.382,10.473-13.964,22.11,11.055,13.964,10.473,22.692S2413.8,2646.155,2413.8,2646.155Z" fill="#fff"/>
          </g>
          <g id="Group_2617" data-name="Group 2617">
            <path id="Path_2803" data-name="Path 2803" d="M2396.924,2632.191s11.937-11.553,8.472-18.1-6.546-7.7-6.162-13.092,4.621-14.632,4.621-14.632S2395,2593.3,2394.614,2601s7.316,9.242,6.931,15.018S2396.924,2632.191,2396.924,2632.191Z" fill="#fff"/>
          </g>
          <g id="Group_2618" data-name="Group 2618">
            <path id="Path_2804" data-name="Path 2804" d="M2324.417,2685.476v19.2c16.071,5.87,41.527,11.52,81.238,13.045,50.7,1.949,77.078-7.355,90.478-15.955l.1-16.617Z" fill="#fff"/>
          </g>
          <g id="Group_2645" data-name="Group 2645">
            <g id="Group_2619" data-name="Group 2619">
              <path id="Path_2805" data-name="Path 2805" d="M2337.581,2700.711c28.607,11.163,96.131,9.513,133.195-.064,15.247-3.941,25.34-9.223,25.458-15.5,1.474-23.586-164.446-34.558-171.817.329C2323.032,2692.038,2328.226,2697.06,2337.581,2700.711Z" fill="#875063"/>
            </g>
            <g id="Group_2620" data-name="Group 2620">
              <path id="Path_2806" data-name="Path 2806" d="M2337.581,2700.711c28.607,11.163,96.131,9.513,133.195-.064C2435.943,2691.2,2368.881,2688.913,2337.581,2700.711Z" fill="#d9513c"/>
            </g>
            <g id="Group_2623" data-name="Group 2623">
              <g id="Group_2622" data-name="Group 2622">
                <g id="Group_2621" data-name="Group 2621">
                  <path id="Path_2807" data-name="Path 2807" d="M2392.891,2661.006a1.508,1.508,0,0,0-.905-1.915,2.993,2.993,0,0,0-2.3.213,4.4,4.4,0,0,0-2.282,2.159,2.81,2.81,0,0,0,.432,3,4.064,4.064,0,0,0,1.593.908,8.518,8.518,0,0,0,5.967.259c2.816-1.118,4.323-4.486,3.857-7.479a10.9,10.9,0,0,0-5.122-7.179,26.465,26.465,0,0,0-8.474-3.154,10.626,10.626,0,0,0-5.345-.248c-3.146.926-4.817,4.315-5.774,7.452a3.454,3.454,0,0,0-.2,1.808,2.9,2.9,0,0,0,1.587,1.71,4.122,4.122,0,0,0,3.051.473,2.265,2.265,0,0,0,1.666-2.37c-.123-.719-.677-1.319-.743-2.044-.136-1.488,2.085-2.307,3.247-1.368a3.46,3.46,0,0,1,.566,4.113,13.58,13.58,0,0,1-2.851,3.427,16.8,16.8,0,0,0-4.955,9.163,2.4,2.4,0,0,0,.093,1.343,1.788,1.788,0,0,0,2.149.76,4.468,4.468,0,0,0,1.94-1.507,20.571,20.571,0,0,0,3.868-6.94c.655-2.018,1.026-4.2,2.293-5.9s3.873-2.681,5.537-1.365c1.285,1.016,1.452,2.869,1.515,4.506Z" fill="#f6dfd9"/>
                </g>
              </g>
            </g>
            <g id="Group_2626" data-name="Group 2626">
              <g id="Group_2625" data-name="Group 2625">
                <g id="Group_2624" data-name="Group 2624">
                  <path id="Path_2808" data-name="Path 2808" d="M2365.089,2686.128a1.218,1.218,0,0,0-1.54.745,2.417,2.417,0,0,0,.188,1.858,3.553,3.553,0,0,0,1.759,1.827,2.268,2.268,0,0,0,2.42-.37,3.279,3.279,0,0,0,.723-1.293,6.878,6.878,0,0,0,.166-4.819,5.616,5.616,0,0,0-6.066-3.06,8.8,8.8,0,0,0-5.759,4.186,21.38,21.38,0,0,0-2.486,6.863,8.589,8.589,0,0,0-.162,4.318c.77,2.533,3.518,3.858,6.057,4.607a2.792,2.792,0,0,0,1.461.15,2.337,2.337,0,0,0,1.369-1.294,3.325,3.325,0,0,0,.361-2.467,1.829,1.829,0,0,0-1.926-1.328c-.579.1-1.059.556-1.644.615-1.2.12-1.877-1.667-1.128-2.612a2.8,2.8,0,0,1,3.317-.487,11.014,11.014,0,0,1,2.787,2.278,13.563,13.563,0,0,0,7.432,3.935,1.944,1.944,0,0,0,1.084-.085,1.442,1.442,0,0,0,.6-1.74,3.6,3.6,0,0,0-1.23-1.556,16.625,16.625,0,0,0-5.63-3.073c-1.634-.514-3.4-.8-4.78-1.809s-2.193-3.107-1.142-4.461c.811-1.044,2.306-1.192,3.627-1.255Z" fill="#f6dfd9"/>
                </g>
              </g>
            </g>
            <g id="Group_2629" data-name="Group 2629">
              <g id="Group_2628" data-name="Group 2628">
                <g id="Group_2627" data-name="Group 2627">
                  <path id="Path_2809" data-name="Path 2809" d="M2438.984,2666.927a1.218,1.218,0,0,0-1.54.745,2.417,2.417,0,0,0,.188,1.858,3.547,3.547,0,0,0,1.759,1.826,2.267,2.267,0,0,0,2.421-.369,3.294,3.294,0,0,0,.722-1.293,6.881,6.881,0,0,0,.166-4.82,5.618,5.618,0,0,0-6.066-3.06,8.8,8.8,0,0,0-5.758,4.187,21.359,21.359,0,0,0-2.487,6.863,8.588,8.588,0,0,0-.162,4.318c.77,2.533,3.518,3.858,6.058,4.607a2.781,2.781,0,0,0,1.461.149,2.339,2.339,0,0,0,1.369-1.293,3.33,3.33,0,0,0,.36-2.467,1.829,1.829,0,0,0-1.926-1.328c-.578.1-1.059.556-1.644.614-1.2.121-1.877-1.666-1.128-2.611a2.794,2.794,0,0,1,3.317-.487,11.009,11.009,0,0,1,2.787,2.278,13.562,13.562,0,0,0,7.433,3.935,1.942,1.942,0,0,0,1.083-.085,1.444,1.444,0,0,0,.6-1.74,3.611,3.611,0,0,0-1.231-1.556,16.621,16.621,0,0,0-5.63-3.073c-1.634-.514-3.4-.8-4.78-1.809s-2.193-3.107-1.142-4.461c.811-1.044,2.306-1.192,3.627-1.255Z" fill="#f6dfd9"/>
                </g>
              </g>
            </g>
            <g id="Group_2634" data-name="Group 2634">
              <g id="Group_2631" data-name="Group 2631">
                <g id="Group_2630" data-name="Group 2630">
                  <path id="Path_2810" data-name="Path 2810" d="M2411.5,2676.84l4.689,1.319a.748.748,0,0,0,.454.031.613.613,0,0,0,.324-.39c.38-1.044-.349-2.385.359-3.242.571-.692,1.818-.657,2.183-1.476.324-.726-.3-1.485-.718-2.163a4.53,4.53,0,0,1-.3-4.086,1.3,1.3,0,0,1-1.749-.284,4.387,4.387,0,0,1-.758-1.8,2.949,2.949,0,0,0-.946-1.687l-1.987,3.131a1.057,1.057,0,0,1-.506.5,1.153,1.153,0,0,1-.877-.242,7.139,7.139,0,0,0-2.1-.8,1.313,1.313,0,0,0-.622-.018c-.631.179-.7,1.017-.794,1.666a4.673,4.673,0,0,1-3.009,3.688c-.464.163-1.025.313-1.191.776a1.677,1.677,0,0,0,.227,1.171,4.818,4.818,0,0,1,.317,2.551,1.765,1.765,0,0,0-.009.889c.212.555.947.649,1.541.634a30.36,30.36,0,0,0,5.66-.681Z" fill="#649877"/>
                </g>
              </g>
              <g id="Group_2633" data-name="Group 2633">
                <g id="Group_2632" data-name="Group 2632">
                  <path id="Path_2811" data-name="Path 2811" d="M2413.722,2671.275q-2.3,7.388-4.97,14.647c-.443,1.2-2.386.683-1.938-.534q2.672-7.261,4.969-14.647c.383-1.232,2.324-.706,1.939.534Z" fill="#256c6d"/>
                </g>
              </g>
            </g>
            <g id="Group_2639" data-name="Group 2639">
              <g id="Group_2636" data-name="Group 2636">
                <g id="Group_2635" data-name="Group 2635">
                  <path id="Path_2812" data-name="Path 2812" d="M2425.826,2701.625c-8.986,0-9-13.965,0-13.965,8.985,0,9,13.965,0,13.965Z" fill="#256c6d"/>
                </g>
              </g>
              <g id="Group_2638" data-name="Group 2638">
                <g id="Group_2637" data-name="Group 2637">
                  <path id="Path_2813" data-name="Path 2813" d="M2427.377,2696.1c-3.369,0-3.375-5.236,0-5.236s3.375,5.236,0,5.236Z" fill="#649877"/>
                </g>
              </g>
            </g>
            <g id="Group_2644" data-name="Group 2644">
              <g id="Group_2641" data-name="Group 2641">
                <g id="Group_2640" data-name="Group 2640">
                  <path id="Path_2814" data-name="Path 2814" d="M2390.915,2702.207c-8.986,0-9-13.965,0-13.965,8.985,0,9,13.965,0,13.965Z" fill="#256c6d"/>
                </g>
              </g>
              <g id="Group_2643" data-name="Group 2643">
                <g id="Group_2642" data-name="Group 2642">
                  <path id="Path_2815" data-name="Path 2815" d="M2392.466,2696.679c-3.369,0-3.375-5.237,0-5.237s3.375,5.237,0,5.237Z" fill="#649877"/>
                </g>
              </g>
            </g>
          </g>
          <g id="Group_2650" data-name="Group 2650">
            <g id="Group_2647" data-name="Group 2647">
              <g id="Group_2646" data-name="Group 2646">
                <path id="Path_2816" data-name="Path 2816" d="M2351.32,2661.517l7.773-3.342a1.288,1.288,0,0,0,.646-.455,1.056,1.056,0,0,0,.012-.879c-.627-1.825-3.077-2.841-3.058-4.77.016-1.558,1.738-2.873,1.337-4.379-.356-1.334-2.031-1.675-3.333-2.136a7.866,7.866,0,0,1-4.864-5.195,2.256,2.256,0,0,1-2.672,1.528,7.641,7.641,0,0,1-2.991-1.6,5.116,5.116,0,0,0-3.119-1.243q.367,3.2.736,6.4a1.835,1.835,0,0,1-.142,1.223,1.993,1.993,0,0,1-1.448.631,12.4,12.4,0,0,0-3.712,1.213,2.281,2.281,0,0,0-.861.654c-.655.931.16,2.143.749,3.118a8.114,8.114,0,0,1-.036,8.267c-.447.727-1.04,1.542-.76,2.349.232.67.963,1,1.587,1.333a8.365,8.365,0,0,1,3.214,3.1,3.07,3.07,0,0,0,.96,1.21c.892.519,1.987-.159,2.773-.829a52.561,52.561,0,0,0,6.9-7.1Z" fill="#649877"/>
              </g>
            </g>
            <g id="Group_2649" data-name="Group 2649">
              <g id="Group_2648" data-name="Group 2648">
                <path id="Path_2817" data-name="Path 2817" d="M2348.323,2651.809q4.975,12.481,9.29,25.207c.723,2.133-2.647,3.048-3.366.928q-4.314-12.725-9.291-25.207c-.832-2.087,2.544-2.993,3.367-.928Z" fill="#256c6d"/>
              </g>
            </g>
          </g>
        </g>
        <g id="Group_2669" data-name="Group 2669">
          <g id="Group_2652" data-name="Group 2652">
            <path id="Path_2818" data-name="Path 2818" d="M2658.179,2535.021l9.891-37.239-18.037,9.892Z" fill="#f4aa97"/>
          </g>
          <g id="Group_2667" data-name="Group 2667">
            <g id="Group_2656" data-name="Group 2656">
              <g id="Group_2653" data-name="Group 2653">
                <path id="Path_2819" data-name="Path 2819" d="M2714.618,2479.163c7.879-25.212-58.767,5.819-73.313,29.675s-94.26,122.189-94.26,122.189-20.365,12.8-51.2,2.909-33.166-22.11-33.166-22.11-26.765,31.42,2.328,59.349,73.313-15.129,87.278-34.911,86.114-112.3,97.751-121.026S2711.709,2488.473,2714.618,2479.163Z" fill="#7a98c4"/>
              </g>
              <g id="Group_2654" data-name="Group 2654">
                <path id="Path_2820" data-name="Path 2820" d="M2463.584,2626.454c10.485,12.183,44.634,18.392,65.33,16.4,9.246-.884,15.8-3.4,16.385-7.756,2.328-17.456-74.477-36.075-82.623-23.274C2459.162,2617.353,2459.965,2622.258,2463.584,2626.454Z" fill="#875063"/>
              </g>
              <g id="Group_2655" data-name="Group 2655">
                <path id="Path_2821" data-name="Path 2821" d="M2463.584,2626.454c10.485,12.183,44.634,18.392,65.33,16.4C2513.856,2632.679,2480.533,2624.667,2463.584,2626.454Z" fill="#d9513c"/>
              </g>
            </g>
            <g id="Group_2657" data-name="Group 2657">
              <path id="Path_2822" data-name="Path 2822" d="M2474.313,2638.591s8.146,21.528,1.164,23.274S2474.313,2638.591,2474.313,2638.591Z" fill="#d9513c"/>
            </g>
            <g id="Group_2658" data-name="Group 2658">
              <path id="Path_2823" data-name="Path 2823" d="M2466.168,2665.938s6.982,22.11.581,22.692S2466.168,2665.938,2466.168,2665.938Z" fill="#d9513c"/>
            </g>
            <g id="Group_2661" data-name="Group 2661">
              <g id="Group_2660" data-name="Group 2660">
                <g id="Group_2659" data-name="Group 2659">
                  <path id="Path_2824" data-name="Path 2824" d="M2488.72,2619.739a1.045,1.045,0,0,0-1.382-.494,2.07,2.07,0,0,0-1.023,1.232,3.044,3.044,0,0,0-.06,2.174,1.944,1.944,0,0,0,1.681,1.258,2.823,2.823,0,0,0,1.225-.335,5.9,5.9,0,0,0,3.048-2.795,4.817,4.817,0,0,0-1.774-5.55,7.548,7.548,0,0,0-6.022-1.007,18.32,18.32,0,0,0-5.693,2.6,7.371,7.371,0,0,0-2.739,2.5c-1.087,1.994-.246,4.471.822,6.475a2.4,2.4,0,0,0,.787.984,2.009,2.009,0,0,0,1.614.06,2.862,2.862,0,0,0,1.726-1.262,1.569,1.569,0,0,0-.345-1.977c-.412-.291-.977-.314-1.364-.636-.795-.662-.109-2.15.92-2.26a2.4,2.4,0,0,1,2.291,1.737,9.425,9.425,0,0,1,.282,3.073,11.626,11.626,0,0,0,2.06,6.913,1.657,1.657,0,0,0,.7.611,1.236,1.236,0,0,0,1.424-.68,3.085,3.085,0,0,0,.212-1.687,14.241,14.241,0,0,0-1.5-5.292,13.607,13.607,0,0,1-1.766-4.011c-.213-1.454.583-3.209,2.042-3.38,1.127-.131,2.116.694,2.948,1.465Z" fill="#f6dfd9"/>
                </g>
              </g>
            </g>
            <g id="Group_2666" data-name="Group 2666">
              <g id="Group_2663" data-name="Group 2663">
                <g id="Group_2662" data-name="Group 2662">
                  <path id="Path_2825" data-name="Path 2825" d="M2507.688,2627.2q1.592,2.076,3.182,4.154a.807.807,0,0,0,.371.318.657.657,0,0,0,.529-.126c1-.653,1.237-2.276,2.4-2.557.936-.227,1.986.607,2.828.138.746-.416.7-1.472.775-2.322a4.866,4.866,0,0,1,2.377-3.7c-.7.059-1.268-.667-1.321-1.371a4.731,4.731,0,0,1,.508-2.036,3.165,3.165,0,0,0,.273-2.059l-3.724,1.412a1.145,1.145,0,0,1-.755.1c-.318-.11-.466-.464-.6-.773a7.692,7.692,0,0,0-1.29-2.042,1.4,1.4,0,0,0-.523-.417c-.657-.251-1.261.421-1.756.922a5.015,5.015,0,0,1-4.961,1.232c-.5-.158-1.083-.39-1.524-.1a1.805,1.805,0,0,0-.559,1.154,5.171,5.171,0,0,1-1.371,2.4,1.909,1.909,0,0,0-.58.759c-.175.614.4,1.167.918,1.537a32.474,32.474,0,0,0,5.3,3.059Z" fill="#649877"/>
                </g>
              </g>
              <g id="Group_2665" data-name="Group 2665">
                <g id="Group_2664" data-name="Group 2664">
                  <path id="Path_2826" data-name="Path 2826" d="M2513.066,2623.921q-6.732,4.872-13.7,9.392c-1.169.758-2.252-1.11-1.089-1.864q6.972-4.521,13.7-9.392c1.127-.816,2.206,1.056,1.09,1.864Z" fill="#256c6d"/>
                </g>
              </g>
            </g>
          </g>
          <g id="Group_2668" data-name="Group 2668">
            <path id="Path_2827" data-name="Path 2827" d="M2611.59,2574.209a55.95,55.95,0,0,0,23.774,11.817c3.806-5.289,8.949-12.649,13.639-20.044,6.336-9.991,11.841-20.045,12.085-25.142.582-12.219-11.637-57.022-18.038-56.44s1.746,27.929,1.746,27.929c-2.909.582-6.4-24.438-13.383-23.274s8.146,30.838,4.073,29.965-9.891-13.091-14.546-11.346-12.8,27.347-7.564,26.184,9.892-13.383,11.055-11.638-6.4,16.874-6.982,26.184a41.249,41.249,0,0,1-.553,4.271C2615.826,2558.819,2613.492,2567.547,2611.59,2574.209Z" fill="#fcc2b0"/>
          </g>
        </g>
        <g id="Group_2699" data-name="Group 2699">
          <g id="Group_2690" data-name="Group 2690">
            <g id="Group_2670" data-name="Group 2670">
              <path id="Path_2828" data-name="Path 2828" d="M2446.384,2774.744c-2.468-2.468-79.713-27.929-82.622-27.638s-36.075,69.532-36.075,73.6,88.441,44.221,92.514,40.73S2448.712,2777.072,2446.384,2774.744Z" fill="#fcdb8a"/>
            </g>
            <g id="Group_2672" data-name="Group 2672">
              <g id="Group_2671" data-name="Group 2671">
                <path id="Path_2829" data-name="Path 2829" d="M2431.8,2778.709q-11.265,33.927-23.413,67.55c-.758,2.1-4.133,1.192-3.367-.928q12.149-33.621,23.413-67.551c.705-2.122,4.077-1.212,3.367.929Z" fill="#875063" opacity="0.56"/>
              </g>
            </g>
            <g id="Group_2674" data-name="Group 2674">
              <g id="Group_2673" data-name="Group 2673">
                <path id="Path_2830" data-name="Path 2830" d="M2409.2,2770.793q-10.016,34.107-23.182,67.163c-.822,2.063-4.2,1.163-3.367-.928q13.155-33.023,23.182-67.163c.632-2.151,4-1.236,3.367.928Z" fill="#875063" opacity="0.56"/>
              </g>
            </g>
            <g id="Group_2676" data-name="Group 2676">
              <g id="Group_2675" data-name="Group 2675">
                <path id="Path_2831" data-name="Path 2831" d="M2389.514,2766.142c-9.823,21.439-13.252,45.136-22.924,66.644-.92,2.045-3.929.272-3.014-1.762,9.669-21.5,13.095-45.194,22.924-66.644.934-2.04,3.944-.268,3.014,1.762Z" fill="#875063" opacity="0.56"/>
              </g>
            </g>
            <g id="Group_2678" data-name="Group 2678">
              <g id="Group_2677" data-name="Group 2677">
                <path id="Path_2832" data-name="Path 2832" d="M2371.67,2758.742q-12.359,32.984-27.153,64.976c-.942,2.038-3.952.266-3.014-1.762q14.595-31.56,26.8-64.142c.781-2.085,4.157-1.182,3.367.928Z" fill="#875063" opacity="0.56"/>
              </g>
            </g>
            <g id="Group_2680" data-name="Group 2680">
              <g id="Group_2679" data-name="Group 2679">
                <path id="Path_2833" data-name="Path 2833" d="M2415.887,2840.175c-6.045-3.267-12.628-5.1-19.222-6.9-6.631-1.809-13.188-3.818-19.634-6.209A251.254,251.254,0,0,1,2340,2809.583c-1.951-1.113-.2-4.131,1.762-3.015a243.911,243.911,0,0,0,38.2,17.863c12.408,4.463,26.018,6.424,37.687,12.729,1.977,1.069.217,4.084-1.762,3.015Z" fill="#875063" opacity="0.56"/>
              </g>
            </g>
            <g id="Group_2682" data-name="Group 2682">
              <g id="Group_2681" data-name="Group 2681">
                <path id="Path_2834" data-name="Path 2834" d="M2422.966,2821.636a278.22,278.22,0,0,0-40.647-15.6c-11.89-3.6-23.963-7.468-33.4-15.9-1.679-1.5.8-3.962,2.468-2.468,9.7,8.66,22.449,12.13,34.6,15.834a268.773,268.773,0,0,1,38.74,15.119c2.022.978.253,3.989-1.762,3.014Z" fill="#875063" opacity="0.56"/>
              </g>
            </g>
            <g id="Group_2684" data-name="Group 2684">
              <g id="Group_2683" data-name="Group 2683">
                <path id="Path_2835" data-name="Path 2835" d="M2430.932,2801.851q-37.3-11.091-74.147-23.641c-2.115-.72-1.207-4.093.928-3.366q36.839,12.547,74.147,23.641c2.148.638,1.233,4.009-.928,3.366Z" fill="#875063" opacity="0.56"/>
              </g>
            </g>
            <g id="Group_2686" data-name="Group 2686">
              <g id="Group_2685" data-name="Group 2685">
                <path id="Path_2836" data-name="Path 2836" d="M2434.656,2787.545c-12.328-3.874-24.69-7.654-36.976-11.659-11.538-3.761-22.952-7.985-33.624-13.815-1.972-1.077-.212-4.093,1.762-3.015,10.725,5.859,22.2,10.035,33.8,13.791,11.958,3.872,23.977,7.564,35.969,11.332,2.136.671,1.223,4.043-.929,3.366Z" fill="#875063" opacity="0.56"/>
              </g>
            </g>
            <g id="Group_2687" data-name="Group 2687">
              <path id="Path_2837" data-name="Path 2837" d="M2443.475,2776.49s7.564-29.675,16.874-21.529-15.71,23.856-15.71,23.856l-2.618,5.237s37.529-18.619,22.4-30.838-25.6,21.528-25.6,21.528Z" fill="#fcdb8a"/>
            </g>
            <g id="Group_2688" data-name="Group 2688">
              <path id="Path_2838" data-name="Path 2838" d="M2334.669,2763.107s26.183-5.236,32-4.655,34.911,6.983,29.092,10.474-20.364-2.91-21.528-.582,44.8,15.128,42.184,19.783-35.2-11.055-38.111-7.564,38.4,13.382,36.075,16.873-38.984-12.218-40.148-8.727,31.42,12.219,28.511,15.128-27.929-8.728-29.675-6.982,20.365,7.564,15.71,9.891-39.566-10.473-46.548-15.71-19.2-13.383-19.2-13.383Z" fill="#fcc2b0"/>
            </g>
            <g id="Group_2689" data-name="Group 2689">
              <path id="Path_2839" data-name="Path 2839" d="M2192.115,2725.287c4.073,24.438,68.967,48.055,110.628,64.463,1.117.442,2.205.867,3.258,1.286,12.731,4.992,21.1,8.146,21.1,8.146l7.128-13.883,12.556-24.444,2.426-4.73s-8.355-3.858-20.155-9.525c-1.024-.5-2.077-1-3.148-1.513-28.964-13.982-62.84-33.439-61.647-39,1.746-8.146,75.641-76.8,75.641-76.8l-28.45-97.751C2287.018,2528.039,2182,2664.588,2192.115,2725.287Z" fill="#383255"/>
            </g>
          </g>
          <g id="Group_2692" data-name="Group 2692">
            <g id="Group_2691" data-name="Group 2691">
              <path id="Path_2840" data-name="Path 2840" d="M2296.655,2776.684c-4.493,0-4.5-6.983,0-6.983s4.5,6.983,0,6.983Z" fill="#7597c4"/>
            </g>
          </g>
          <g id="Group_2694" data-name="Group 2694">
            <g id="Group_2693" data-name="Group 2693">
              <path id="Path_2841" data-name="Path 2841" d="M2277.26,2768.926c-4.493,0-4.5-6.983,0-6.983s4.5,6.983,0,6.983Z" fill="#7597c4"/>
            </g>
          </g>
          <g id="Group_2696" data-name="Group 2696">
            <g id="Group_2695" data-name="Group 2695">
              <path id="Path_2842" data-name="Path 2842" d="M2257.865,2761.168c-4.493,0-4.5-6.983,0-6.983s4.5,6.983,0,6.983Z" fill="#7597c4"/>
            </g>
          </g>
          <g id="Group_2698" data-name="Group 2698">
            <g id="Group_2697" data-name="Group 2697">
              <path id="Path_2843" data-name="Path 2843" d="M2302.743,2789.75c1.117.442,2.205.867,3.258,1.286,6.674-12.841,17.386-33.456,23.059-44.436-1.024-.5-2.077-1-3.148-1.513C2320.193,2756.16,2309.387,2776.961,2302.743,2789.75Z" fill="#7597c4"/>
            </g>
          </g>
        </g>
      </g>
    </g>
  </g>
</svg>
