<svg xmlns="http://www.w3.org/2000/svg" width="421.513" height="161.022" viewBox="0 0 421.513 161.022">
  <g id="Group_1867" data-name="Group 1867" transform="translate(-1940.618 -6348.176)">
    <path id="Path_2242" data-name="Path 2242" d="M2010.352,6356.647l14.715-7.408,20.228,43.492c1.633-3.271,3.309-6.2,4.519-9.31.363-.934-.438-2.429-.931-3.57-3.148-7.287-6.36-14.546-9.624-21.982l13.931-6.974,30.422,67.192c-5.721,0-11.011.058-16.3-.077-.632-.016-1.493-.966-1.817-1.679-4.068-8.935-8.056-17.908-12.071-26.868a10.358,10.358,0,0,0-.687-1.029c-1.642,3.464-3.46,6.61-4.559,9.99-.388,1.192.919,2.982,1.555,4.454,2.124,4.92,4.295,9.82,6.665,15.223-4.192,0-8.058-.411-11.8.1-4.927.676-7.316-1.3-9.093-5.723-2.765-6.883-6.154-13.515-9.289-20.249-.427-.918-.918-1.806-1.606-3.151-1.29,2.8-2.267,5.289-3.536,7.616-3.759,6.894-7.163,14.05-11.585,20.5-5.454,7.957-12.776,9.017-22.255,3.536,2.592-4.286,5.126-8.606,7.84-12.811a2.869,2.869,0,0,1,2.462-.648c5.077,1.135,8.962-.978,12.565-4.208,3.846-3.448,6.029-7.993,8.748-12.249,3.617-5.659,3.428-10.5.04-16.19C2015.553,6369.012,2013.221,6362.8,2010.352,6356.647Z" fill="#f5f5f5"/>
    <path id="Path_2243" data-name="Path 2243" d="M2333.4,6491.187c.541,1.479.353,2.215-1.4,2.447-24.163,3.2-48.277,6.807-72.486,9.587-17.844,2.049-35.792,3.319-53.726,4.406q-23.064,1.4-46.2,1.54-25,.188-50.016-.754c-13.931-.529-27.856-1.592-41.742-2.88q-26.829-2.49-53.584-5.763c-14.514-1.773-28.959-4.107-43.441-6.143-1.581-.222-2.106-.824-1.5-2.44A2045.6,2045.6,0,0,0,2333.4,6491.187Z" fill="#f5f5f5"/>
    <path id="Path_2244" data-name="Path 2244" d="M2085.716,6376.987c-.449-7.54,3.3-12.432,10.293-13.524a54.044,54.044,0,0,1,9.184-.68c7.931.13,12.663,5.078,12.69,13.023.027,8.149-.092,16.3.086,24.447a97.128,97.128,0,0,0,1.207,9.88c-3.107,0-6.846.1-10.57-.088-.745-.039-1.58-1.112-2.106-1.889a19.692,19.692,0,0,1-1.413-3.158,53.571,53.571,0,0,1-4.573,3.407c-10.2,6.065-17.693-1.314-19.024-9.411-1.461-8.886,1.744-14.645,9.941-18.311,3.506-1.568,7.087-2.968,10.6-4.521,1.61-.712,3.448-1.849,2.634-3.747-.469-1.093-2.445-2.04-3.818-2.155-5.405-.453-9.606,2.454-13.668,5.534C2086.784,6376.092,2086.411,6376.418,2085.716,6376.987Zm19.277,12.874a24.3,24.3,0,0,0-.366-3.454c-.31-1.337-.81-3.664-1.379-3.71a8.127,8.127,0,0,0-4.961,1.178c-4.467,3.073-5.652,7.773-5.328,12.883.228,3.6,2.1,5.455,4.913,5.391,3.587-.082,6.473-2.51,6.756-5.77C2104.8,6394.337,2104.862,6392.285,2104.993,6389.861Z" fill="#f5f5f5"/>
    <path id="Path_2245" data-name="Path 2245" d="M2252.913,6387.793c1.433,10.082-4.678,16.253-12.736,21.281-5.875,3.666-11.1,1.575-16.154-1.831-5.719-3.857-8.32-9.327-8.162-16.167.095-4.1.224-8.21.295-12.315.088-5.122,2.662-8.736,6.964-11.146,2.9-1.622,5.92-3.039,8.967-4.365,5.443-2.368,9.285.972,13.187,3.929C2252.013,6372.285,2253.364,6379.481,2252.913,6387.793Zm-24.53-1.208.471.029a36.192,36.192,0,0,0,.054,5.63c.478,3,.874,6.128,2.084,8.857,1.586,3.576,4.722,3.515,6.851.233a6.867,6.867,0,0,0,.913-1.825,45.433,45.433,0,0,0-.444-26.691,5.325,5.325,0,0,0-3.768-3.117c-1.3-.058-2.785,1.685-3.988,2.844a4.145,4.145,0,0,0-.862,2.354C2229.208,6378.788,2228.811,6382.689,2228.383,6386.585Z" fill="#f5f5f5"/>
    <path id="Path_2246" data-name="Path 2246" d="M2276.711,6410.142c-3.145,0-6.73.065-10.311-.023-2.375-.058-4.6-3.383-4.686-7.074-.1-4.372-.046-8.747-.049-13.12-.005-6.947-.049-13.894.031-20.839.02-1.723-.563-2.284-2.237-2.149-1.594.129-3.207.028-4.793.028-.131-5.283,3.826-3.882,7-4.2,0-2.71-.052-5.338.036-7.962.022-.655.331-1.7.784-1.881,4.006-1.624,8.073-3.095,12.477-4.743v14.634h6.088c-.736,3.98-.736,3.98-5.93,4.305-.053.706-.157,1.445-.157,2.183-.011,10.634-.125,21.27.071,31.9C2275.087,6404.092,2276.088,6406.968,2276.711,6410.142Z" fill="#f5f5f5"/>
    <path id="Path_2247" data-name="Path 2247" d="M2305.141,6410.139a86.086,86.086,0,0,1-10.671-.159c-1.272-.154-2.72-1.958-3.368-3.345a13.532,13.532,0,0,1-1.032-5.484c-.091-10.291-.044-20.584-.044-30.876v-3.068h-7.248c.617-1.676,1.092-2.967,1.586-4.311h5.666c0-2.724-.084-5.35.052-7.965a2.858,2.858,0,0,1,1.116-2.169c3.858-1.568,7.8-2.931,12.038-4.481v14.483h6.47l-1.323,4.049-4.859.418c-.07.839-.183,1.574-.184,2.31-.011,10.208-.145,20.418.073,30.622C2303.481,6403.386,2304.5,6406.59,2305.141,6410.139Z" fill="#f5f5f5"/>
    <path id="Path_2248" data-name="Path 2248" d="M2175.776,6410.141c-3.175,0-6.72.315-10.158-.154-1.384-.189-2.977-1.876-3.676-3.28a13.42,13.42,0,0,1-1.127-5.707c-.1-10.211-.012-20.423-.081-30.634-.015-2.176-.417-4.349-.678-6.889,3.652,0,7.627-.142,11.575.121.782.052,1.461,1.659,2.31,2.7,2.794-2.054,5.946-3.892,9.728-2.823,1.791.507,3.4,1.66,5.334,2.645l-5.583,8.543c-.52-.206-.969-.368-1.405-.559-5.373-2.36-8-.716-7.995,5.017,0,7.6-.135,15.21.087,22.807C2174.185,6404.578,2175.151,6407.2,2175.776,6410.141Z" fill="#f5f5f5"/>
    <path id="Path_2249" data-name="Path 2249" d="M2127.2,6363.433c3.481,0,7.175-.169,10.836.1,1.111.082,2.133,1.375,3.521,2.34,4.413-3.1,9.412-4.244,14.494.52l-4.827,7.584c-3.109-.121-5.655-.4-8.176-.246-1.341.082-1.991,1.184-1.973,2.775.089,8.055-.123,16.117.125,24.166.095,3.063,1.138,6.1,1.8,9.422-3.233,0-7.078.4-10.789-.136-2.6-.374-3.259-3.261-3.839-5.571a17.117,17.117,0,0,1-.26-4.09c-.019-10.2.035-20.4-.049-30.6A49.474,49.474,0,0,0,2127.2,6363.433Z" fill="#f5f5f5"/>
    <path id="Path_2250" data-name="Path 2250" d="M2208.743,6410.14c-3.154,0-6.741.139-10.3-.092a3.733,3.733,0,0,1-2.66-1.956,22.005,22.005,0,0,1-1.949-7.285c-.217-9.7-.051-19.411-.114-29.117-.018-2.677-.34-5.353-.538-8.254,3.3,0,6.96-.067,10.612.066a2.4,2.4,0,0,1,1.724,1.425,30.907,30.907,0,0,1,1.4,7.221c.162,9.766-.041,19.539.167,29.3C2207.141,6404.258,2208.124,6407.046,2208.743,6410.14Z" fill="#f5f5f5"/>
    <path id="Path_2251" data-name="Path 2251" d="M2278.613,6454.511c0,8.324-4.535,12.861-12.858,12.848-7.612-.012-12.242-4.817-12.278-12.74-.035-8.068,4.759-12.968,12.655-12.935C2273.922,6441.718,2278.608,6446.533,2278.613,6454.511Zm-6.32.665c-.358-2.067-.479-3.528-.877-4.91-.8-2.768-2.948-4.6-5.284-4.5-2.7.108-4.342,1.618-5.24,4.139a12.687,12.687,0,0,0,.439,10.223,6.247,6.247,0,0,0,4.287,2.987,6.147,6.147,0,0,0,4.662-2.261C2271.5,6459.165,2271.769,6456.786,2272.293,6455.176Z" fill="#f5f5f5"/>
    <path id="Path_2252" data-name="Path 2252" d="M1984.96,6467.359c-7.9,0-12.366-4.582-12.379-12.718-.012-8.265,4.518-12.97,12.476-12.956,7.9.014,12.583,4.837,12.557,12.922C1997.587,6462.784,1993.05,6467.356,1984.96,6467.359Zm6.424-11.957c-.516-2.157-.925-4.123-1.464-6.053a4.7,4.7,0,0,0-4.764-3.546,4.959,4.959,0,0,0-4.876,3.13,12.977,12.977,0,0,0,.3,11.823,4.959,4.959,0,0,0,8.495.481C1990.191,6459.541,1990.623,6457.4,1991.384,6455.4Z" fill="#f5f5f5"/>
    <path id="Path_2253" data-name="Path 2253" d="M1956.4,6466.675v-10.5h-8.916v10.536h-6.156c-.054-.914-.151-1.815-.153-2.715-.015-5.312.04-10.625-.033-15.936-.026-1.914-.341-3.824-.524-5.729h6.764v9.594h9.048v-9.671c1.88,0,3.631-.087,5.362.065.4.035,1.03.888,1.034,1.369.066,7.608.046,15.216.046,22.991Z" fill="#f5f5f5"/>
    <path id="Path_2254" data-name="Path 2254" d="M2186.916,6456.439,2194,6466.5c-5.646,1.1-6.891.606-9.888-3.876-.951-1.423-1.82-2.907-2.851-4.268a16.825,16.825,0,0,0-2.555-2.077v10.4h-5.925V6442.51c4.037,0,8.04-.185,12.015.06,3.094.191,5.623,1.645,6.279,5.037.644,3.331-.218,6.111-3.353,7.881a4.064,4.064,0,0,0-.612.454C2187.054,6455.99,2187.047,6456.1,2186.916,6456.439Zm-8.118-2.687c2.271-.923,4.258-1.351,5.68-2.486.607-.484.524-3.172-.1-3.59-1.495-1-3.493-1.259-5.582-1.907Z" fill="#f5f5f5"/>
    <path id="Path_2255" data-name="Path 2255" d="M2309.8,6466.534c-5.071,1.313-8.309-.482-10.413-4.752a19.851,19.851,0,0,0-2.49-3.566,15.534,15.534,0,0,0-2.263-1.791v10.26h-6.007V6442.49c4.013,0,7.949-.272,11.83.075,4.076.364,6.06,2.293,6.566,5.378.584,3.561-.617,5.854-4.458,8.113Zm-15.077-13.624c2.136.046,4.421.735,5.584-1.489a4.465,4.465,0,0,0-.03-3.751c-1.26-2.054-3.5-1.4-5.554-1.378Z" fill="#f5f5f5"/>
    <path id="Path_2256" data-name="Path 2256" d="M2146.323,6461.675l4.377,5.363c-3.3-.732-6.314,1.083-8.63-1.651-5.163,2.768-11.154,3.033-13.784-1.337-2.157-3.585-.921-6.659,3.633-10.2-.4-2.817-1.1-5.316-.941-7.757.079-1.19,1.584-2.593,2.791-3.338,3.17-1.958,7.515-1.238,9.319,1.245,2.108,2.9,1.368,5.351-3.056,9.762l3.455,4.335c.959-1.476,1.778-2.739,2.777-4.277l3.686,2.42Zm-6.939.086c-1.085-1.409-1.961-2.551-2.84-3.69-.9-1.17-2.046-.885-2.423.168-.393,1.1-.574,2.858.037,3.61C2135.535,6463.545,2137.416,6463.1,2139.384,6461.761Zm-2.135-11.591c1.633-1.042,2.831-2.283,1.7-4.151a2.662,2.662,0,0,0-2.567-.218C2134.734,6447.47,2136.161,6448.795,2137.249,6450.17Z" fill="#f5f5f5"/>
    <path id="Path_2257" data-name="Path 2257" d="M2042.308,6455.98v6.811h11.049v3.9h-17.215v-24.3h16.889v3.75h-10.609v6.237h8.836v3.6Z" fill="#f5f5f5"/>
    <path id="Path_2258" data-name="Path 2258" d="M2201.942,6466.68v-24.291h16.945v3.807h-10.676v6.236h8.9v3.479h-8.919v6.964h10.962v3.805Z" fill="#f5f5f5"/>
    <path id="Path_2259" data-name="Path 2259" d="M2244.848,6442.362c-.922,1.8-1.462,2.85-1.769,3.45a43.186,43.186,0,0,0-6.151.087,3.219,3.219,0,0,0-2.309,1.869,3.471,3.471,0,0,0,1.511,2.588,55.28,55.28,0,0,0,4.956,2.683c3.516,1.974,4.892,4.292,4.46,7.379a7.3,7.3,0,0,1-6.744,6.712c-3.406.37-6.907-.132-10.705-.26,1.107-2.962,1.893-4.75,5.116-3.714,1.882.606,4.694.912,5.62-1.628,1.048-2.877-1.621-3.686-3.583-4.716a36.364,36.364,0,0,1-3.55-2.061c-2.843-1.929-4.008-4.584-3.356-7.423.709-3.091,3.133-5.292,6.912-5.5C2238.28,6441.652,2241.34,6442.138,2244.848,6442.362Z" fill="#f5f5f5"/>
    <path id="Path_2260" data-name="Path 2260" d="M2089.676,6466.3c.786-2.839,1.995-4.02,5-3.125,1.866.557,4.656.928,5.464-1.842.8-2.747-1.762-3.5-3.555-4.592a29.416,29.416,0,0,1-4.92-3.193,6.482,6.482,0,0,1,2.451-11.107c3.864-1.326,7.675-.9,11.473.358-.568,2.586-1.554,4.189-4.4,2.983a2.179,2.179,0,0,0-1.518-.049c-1.324.547-3.27.926-3.728,1.935-.789,1.739,1.114,2.544,2.464,3.284,1.5.82,3.034,1.57,4.5,2.445,3.348,2,4.364,4.142,3.649,7.957-.584,3.115-2.655,4.89-5.667,5.575A21.008,21.008,0,0,1,2089.676,6466.3Z" fill="#f5f5f5"/>
    <path id="Path_2261" data-name="Path 2261" d="M2360.979,6442.786c-.529,2.517-1.4,4.283-4.3,2.944a.628.628,0,0,0-.255-.02c-1.938.014-4.377-.522-5.075,1.872-.692,2.375,1.694,3,3.3,3.894.9.5,1.83.936,2.74,1.414,3.843,2.015,5.183,4.412,4.624,8.255-.457,3.142-2.892,5.643-6.77,6-3.327.3-6.723-.147-10.268-.27,1.219-4.186,1.253-4.1,4.873-3.689,2.036.234,4.63,1,5.656-1.615,1.1-2.82-1.612-3.543-3.313-4.667-1.354-.893-2.846-1.58-4.192-2.484a6.435,6.435,0,0,1-2.971-7.1c.577-2.858,2.539-4.371,5.181-5.1A17.949,17.949,0,0,1,2360.979,6442.786Z" fill="#f5f5f5"/>
    <path id="Path_2262" data-name="Path 2262" d="M2338.177,6442.218c-.888,5.4-4.941,4.37-8.479,4.567v19.84h-6.328v-19.91h-8.285c.9-3.832,1.69-4.484,5.534-4.493C2326.439,6442.207,2332.258,6442.218,2338.177,6442.218Z" fill="#f5f5f5"/>
    <path id="Path_2263" data-name="Path 2263" d="M2027.8,6442.223c-.9,5.332-4.907,4.393-8.556,4.529v19.956h-6.222v-19.974h-8.438c1.686-4.311,1.943-4.5,6.109-4.509C2016.33,6442.218,2021.972,6442.223,2027.8,6442.223Z" fill="#f5f5f5"/>
    <path id="Path_2264" data-name="Path 2264" d="M2063.652,6466.634V6442.26h6.257V6462.7h11.469c.068,1.424.123,2.568.188,3.933Z" fill="#f5f5f5"/>
  </g>
</svg>
