<svg id="Component_1_1" data-name="Component 1 – 1" xmlns="http://www.w3.org/2000/svg" xmlns:xlink="http://www.w3.org/1999/xlink" width="415.857" height="411.868" viewBox="0 0 415.857 411.868">
  <defs>
    <clipPath id="clip-path">
      <rect width="415.857" height="411.868" fill="none"/>
    </clipPath>
    <clipPath id="clip-path-2">
      <path id="Rectangle_1097" data-name="Rectangle 1097" d="M54.653,0H674.623a54.652,54.652,0,0,1,54.652,54.652V357.216a54.652,54.652,0,0,1-54.652,54.652H54.652A54.652,54.652,0,0,1,0,357.216V54.653A54.653,54.653,0,0,1,54.653,0Z" transform="translate(2244.432 1897.72)" fill="none"/>
    </clipPath>
  </defs>
  <g id="Repeat_Grid_1" data-name="Repeat Grid 1" clip-path="url(#clip-path)">
    <g id="Group_2512" data-name="Group 2512" transform="translate(-2244.432 -1897.72)">
      <text id="_190_jobs" data-name="190 jobs" transform="translate(2660.289 2159.645)" fill="#fff" font-size="19.275" font-family="SegoeUI, Segoe UI" letter-spacing="-0.04em"><tspan x="0" y="0">190 jobs</tspan></text>
      <g id="Group_2511" data-name="Group 2511">
        <g id="Group_2510" data-name="Group 2510" clip-path="url(#clip-path-2)">
          <g id="Group_2494" data-name="Group 2494">
            <path id="Path_2665" data-name="Path 2665" d="M2382.535,2107.941c-1.05.73-9.849,12.591-12.371,17.183,2.669,1.853,6.758,5.114,11.51,7.057,3.7-5.189,7.609-8.536,10.475-18.831C2391.735,2113.165,2382.878,2108.3,2382.535,2107.941Z" fill="#fcb69e"/>
            <path id="Path_2666" data-name="Path 2666" d="M2344.936,2090.2c2.2,1.074,5.3,2.932,7.8,2.828.712-2.537-2.026-5.077-3.687-6.6a88.431,88.431,0,0,1-7.187-7.043,82.931,82.931,0,0,1-7.207-8.824c-1.666-2.577-.565-5.477,2.4-3.272a134.425,134.425,0,0,1,19.73,18.5c2.495,2.806,5.155,5.527,8.815,6.717,2.32.753,5.955,1.7,7-1.239.588-1.656.18-3.585.307-5.3a23.1,23.1,0,0,1,.79-4.338c.655-2.4,2.069-6.744,5.024-7.095.48,2.406-.9,8.987,3.154,15,1.712,2.537,1.3,6.246,1.088,9.31-.209,3.086,1.472,5.483,4.629,7.623,0,0-12.07,17.4-15.8,22.623-6.879-2.157-8.642-4.328-14.572-5.807-2.918-.728-5.634-2.027-8.531-2.815-2.93-.8-5.914-1.424-8.869-2.116-5.724-1.342-11.5-2.648-17.119-4.384-1.577-.488-5.732-1.646-6.02-3.694-.28-1.994,2.909-2.147,4.229-2.193,4.106-.145,8.308.37,12.412.632,1.566.1,7.389,1.027,8.169-.994.845-2.189-4.46-5.117-5.874-5.974-4.632-2.8-9.71-4.42-14.612-6.616-1.466-.657-7.624-3.853-4.424-5.691,1.705-.98,4.879-.256,6.094-2.118.947-1.452-.251-2.687-1.742-3.907-1.748-1.43-3.9-2.839-3.462-4.551C2318.781,2073.718,2342.472,2088.991,2344.936,2090.2Z" fill="#b1d5e2"/>
            <g id="Group_2490" data-name="Group 2490">
              <g id="Group_2487" data-name="Group 2487">
                <path id="Path_2667" data-name="Path 2667" d="M2652.439,2499.055c3.066,3.911,14.55,12.326,18.559,15.275-.724,3.745-1.227,12.867-1.684,14.711-1.254,5.066-18.076,14.125-21.976,15.907-.622.284-7.154,3.954-9.39,3.925-.365-4.778,4.14-15.45,4.2-20.072.075-5.965-7.734-22.254-12.388-27.613,4.327-1.438,14.954-9.911,16.838-12.366C2647.65,2491.087,2651.748,2498.174,2652.439,2499.055Z" fill="#205965"/>
                <path id="Path_2668" data-name="Path 2668" d="M2650.809,2519.212c2.251-4.7,4.653-9.487,5.906-14.573-.83-1.488-1.563-2.856-1.929-3.643-1.884,2.455-12.511,10.928-16.838,12.366,2.59,2.983,5.4,9.442,7.365,15.613A80.646,80.646,0,0,0,2650.809,2519.212Z" fill="#1e4951"/>
                <path id="Path_2669" data-name="Path 2669" d="M2623.437,2587.585a55.369,55.369,0,0,0,12.991-4.71c3.749-1.8,7.681-3.274,11.192-5.5,15.033-9.54,14.172-18.635,31.983-29.717,6.415-3.991,11.78-13.61,11.778-16.339.05-4.31-3.211-8.468-7.038-11.89-2.557-2.287-7.075-4.625-11.685-6.138a1.416,1.416,0,0,0-1.827,1.1,24.085,24.085,0,0,1-3.581,8.339c-1.582,2.492-7.438,13.549-18.386,13.215-5.718-.174-6.259-8.724-10.342-4.628-4.207,4.22-2.258,12.182-6.9,24.128a47.024,47.024,0,0,1-10.819,16.253c-2.674,2.8-6.488,4.672-8.328,8.089-1.757,3.262-1.211,5.416-.655,6.172C2613.816,2588.661,2619.67,2588.351,2623.437,2587.585Z" fill="#1e4951"/>
                <g id="Group_2486" data-name="Group 2486">
                  <path id="Path_2670" data-name="Path 2670" d="M2691.067,2528.8a8.971,8.971,0,0,1,.222,2.03c0,2.729-5.363,12.348-11.778,16.34a63.279,63.279,0,0,0-9.139,6.8,7.925,7.925,0,0,1,3.407-.215,3.444,3.444,0,0,0,2.527-.611c1.319-.961,2.761-1.936,4.354-2.927,6.416-3.992,11.779-10.758,11.779-16.34A10.86,10.86,0,0,0,2691.067,2528.8Z" fill="#4a5e5c"/>
                  <path id="Path_2671" data-name="Path 2671" d="M2662.965,2562c-4.089,5.07-7.608,9.918-15.437,14.886-3.511,2.228-7.443,3.705-11.192,5.5a55.366,55.366,0,0,1-12.99,4.711c-3.436.7-8.6,1.009-10.991-.989a3.806,3.806,0,0,0,.528,2.413c1.99,2.7,7.844,2.392,11.612,1.627a55.381,55.381,0,0,0,12.991-4.711c3.748-1.8,7.68-3.273,11.191-5.5,6.862-4.354,10.412-8.616,13.938-13.016a4.178,4.178,0,0,0,.6-4.275A6.47,6.47,0,0,1,2662.965,2562Z" fill="#4a5e5c"/>
                </g>
              </g>
              <g id="Group_2489" data-name="Group 2489">
                <path id="Path_2672" data-name="Path 2672" d="M2444.261,2508.757c-1.308,4.794-1.206,19.031-1.178,24.008-3.437,1.654-11.056,6.7-12.808,7.43-4.813,2.017-22.122-6.072-25.88-8.138-.6-.33-7.442-3.38-8.754-5.191,3.616-3.145,14.867-5.9,18.611-8.612,4.83-3.5,13.237-19.488,14.759-26.422,3.737,2.614,16.878,6.083,19.973,6.129C2447.795,2500.158,2444.555,2507.676,2444.261,2508.757Z" fill="#205965"/>
                <path id="Path_2673" data-name="Path 2673" d="M2425.835,2524.23c5.115-1,10.39-1.929,15.218-3.96.7-1.554,1.358-2.959,1.771-3.722-3.094-.046-16.236-3.515-19.972-6.129-.847,3.86-4.354,9.967-8.13,15.228A80.491,80.491,0,0,0,2425.835,2524.23Z" fill="#1e4951"/>
                <path id="Path_2674" data-name="Path 2674" d="M2355.92,2538.33a55.323,55.323,0,0,0,11.533,7.612c3.679,1.935,7.211,4.208,11.094,5.7,16.628,6.368,23.411.248,42.933,7.924,7.032,2.764,17.951,1.327,20.14-.3,3.487-2.532,4.877-7.631,5.339-12.744.308-3.417-.512-8.437-2.05-13.039a1.416,1.416,0,0,0-1.975-.807,24.087,24.087,0,0,1-8.828,2.1c-2.944.218-15.31,2.119-21.577-6.864-3.273-4.691,3.264-10.229-2.459-11.06-5.9-.857-11.123,5.459-23.474,8.869a47.027,47.027,0,0,1-19.5,1.021c-3.842-.475-7.62-2.416-11.46-1.854-3.666.538-5.069,2.262-5.343,3.159C2349.314,2531.253,2353.057,2535.764,2355.92,2538.33Z" fill="#1e4951"/>
                <g id="Group_2488" data-name="Group 2488">
                  <path id="Path_2675" data-name="Path 2675" d="M2443.451,2557.5a8.945,8.945,0,0,1-1.5,1.39c-2.189,1.63-13.108,3.068-20.14.3a63.34,63.34,0,0,0-10.914-3.271,7.937,7.937,0,0,1,2.207,2.6,3.439,3.439,0,0,0,2,1.663c1.558.485,3.2,1.06,4.948,1.746,7.032,2.765,15.662,3.03,20.14-.3A10.852,10.852,0,0,0,2443.451,2557.5Z" fill="#1e4951"/>
                  <path id="Path_2676" data-name="Path 2676" d="M2400.04,2554.774c-6.509-.254-12.5-.184-21.158-3.5-3.883-1.487-7.415-3.76-11.094-5.7a55.359,55.359,0,0,1-11.533-7.611c-2.611-2.34-5.942-6.295-5.767-9.408a3.8,3.8,0,0,0-1.621,1.864c-.98,3.21,2.763,7.721,5.626,10.287a55.359,55.359,0,0,0,11.533,7.611c3.679,1.936,7.211,4.209,11.094,5.7,7.589,2.906,13.127,3.211,18.762,3.414a4.178,4.178,0,0,0,3.786-2.074A6.8,6.8,0,0,1,2400.04,2554.774Z" fill="#1e4951"/>
                </g>
              </g>
              <path id="Path_2677" data-name="Path 2677" d="M2605.961,2401.414a39.038,39.038,0,0,1-9.691-34.3c11.837-58.678,19.847-132.9,26.433-151.283-.945-.825-5.134-2-10.634-3.423,1.651-11.082-1.408-18.516-.071-20.04-.6-1.259-27.517-10.141-45.9-28.165-1.739,1.852-37.043,33.1-40.706,36.167-34.472,54.557-78.365,130.461-83.923,147.618-7.346,22.675-30.721,156.549-30.721,156.549l47.367,12.234c23.246-94.586,21.545-108.145,30.112-152.346,1.771-9.138,41.948-61.3,59.1-76.645-2.609,37.64-4.3,86.195,2.153,108.775a.312.312,0,0,0-.016.031c-3.379,9.9,84.832,126.224,84.832,126.224l36.709-25.3C2665.571,2483.306,2635.139,2432.817,2605.961,2401.414Z" fill="#4a5e5c"/>
              <path id="Path_2678" data-name="Path 2678" d="M2531.012,2214.357c-8.423,7.459-16.331,14.415-17.963,15.782l-.593.941c12.836,21.1,25.73,42.264,41.319,61.462,12.008,14.789,25.746,28.2,41.5,38.687,3.529-22.759,6.64-44.11,9.461-60.289C2578.551,2254.284,2555.575,2233.23,2531.012,2214.357Z" fill="#364442"/>
              <path id="Path_2679" data-name="Path 2679" d="M2622.254,2422.327q-2.277,8.631-4.386,17.309-5.49,22.587-9.972,45.419c14.3,20.18,25.878,35.926,25.878,35.926L2668,2496.653C2663.864,2485.491,2644.163,2451.033,2622.254,2422.327Z" fill="#364442"/>
              <path id="Path_2680" data-name="Path 2680" d="M2547.364,2258.124a43.541,43.541,0,0,0-1.013-10.592c-.685-2.648-1.78-4.847-4.608-5.517-6.593-1.564-13.758,3.517-18.67,7.261a109.84,109.84,0,0,0-17.377,16.948c-9.595,11.457-16.451,25.574-20.53,39.884-7.537,26.444-5.937,54.464-2.194,59.735.852-9.5,47.028-70.192,63.4-85.326C2546.6,2273.047,2547.411,2265.6,2547.364,2258.124Z" fill="#364442"/>
            </g>
            <path id="Path_2681" data-name="Path 2681" d="M2556.066,1953.235c-.762-2.118-4.929-1.107-5.106-3.349-.205-2.582.424-5.168.666-7.725.246-2.6.765-5.146,1.221-7.706a28.923,28.923,0,0,0-24.665-10.756c-13.674.737-31.416.793-39.735,12.5-2.978,4.191-2.229,18.26-1.329,19.15a11.431,11.431,0,0,0,4.935,2.75,5.413,5.413,0,0,1,.672-1.352c.122-.176.252-.341.376-.506,5.866,1.23,12.007.3,17.859-.54a172.813,172.813,0,0,0,24.349-5.6c.6.948,2.885,6.907,8.039,7.654,1.542.224,3.33-1.023,4.94-.769,3.636.572,2.615,7.284,2.187,9.65a23.12,23.12,0,0,1-4.067,9.645,11.426,11.426,0,0,1-1.784,2.166c-.774.595-1.211.236-1.987-.207-.651-.372-1.4-1.238-2.194-1.79.051.1.1.2.149.315a17.361,17.361,0,0,0,2.054,5.89c11.017.013,15.327-10.724,15.865-18.265C2559,1957.478,2557.188,1956.357,2556.066,1953.235Z" fill="#1e4951"/>
            <path id="Path_2682" data-name="Path 2682" d="M2487.178,1981.761c.3-7.727,2.6-15.039,4.52-22.451.111-.429.22-.827.355-1.213a5.43,5.43,0,0,1,.672-1.352c.122-.176.252-.341.376-.506,5.866,1.23,12.007.3,17.859-.54a172.946,172.946,0,0,0,24.349-5.595c.6.947,2.885,6.906,8.039,7.653,1.542.224,3.33-1.023,4.941-.769,3.635.572,2.614,7.284,2.186,9.65a23.12,23.12,0,0,1-4.067,9.645,11.426,11.426,0,0,1-1.784,2.166c-.774.595-1.211.236-1.987-.207-.651-.371-1.4-1.238-2.194-1.79.051.1.1.2.149.315a17.361,17.361,0,0,0,2.054,5.89c.713,1.374,1.5,2.718,2.193,4.069,2.048,3.984,9.127,15.041,9.965,17,.712,1.666,5.526,8.328,7.685,9.192,0,0,5.655,2.253,6.765,2.409.72,3.775-3.476,15.017-15.936,21.883-8.55,4.712-16.191,8.423-30.42,6.918-2.418-.256-13.028-5.923-15.1-8.836.4-.649,7.972-7.229,8.591-9.626,1.786-5.425.793-7.083-1.341-10.836-1.182-2.077-2.352-4.144-3.584-6.192a16.575,16.575,0,0,0-1.229-2.5c-.472.257-.947.508-1.43.745a28.531,28.531,0,0,1-10.778,3.018,8.79,8.79,0,0,1-8.15-5.457C2486.741,1997.391,2486.88,1989.324,2487.178,1981.761Z" fill="#fcb69e"/>
            <path id="Path_2683" data-name="Path 2683" d="M2529.209,2030.4s-3.15-7.769-3.957-10.311c-.357-1.122-.5-1.719-.7-2.36a2.9,2.9,0,0,0-2.447-2.022c-3.319-.377-5.67-.9-8.146-2.78.412.721-.066,5.794,0,6.624C2514.306,2023.93,2515.145,2030.9,2529.209,2030.4Z" fill="#fff"/>
            <path id="Path_2684" data-name="Path 2684" d="M2529.209,2030.4c7.272,1.241,17-7.757,22.7-11.7,1.682-1.163,4.745-4.967,4.737-10.572,0-1.1-6.765-12.819-8.974-16.455-1.026,12.695-5.083,17.38-18.176,23.028a3.409,3.409,0,0,0-2.087,3.554C2527.823,2021.462,2529.516,2029.262,2529.209,2030.4Z" fill="#fff"/>
            <path id="Path_2685" data-name="Path 2685" d="M2515.207,2011.675c-1.181-2.077-2.351-4.145-3.583-6.193a15.375,15.375,0,0,0-.706-1.557,70.261,70.261,0,0,0,27.625-18.524C2537.2,1996.065,2516.029,2013.12,2515.207,2011.675Z" fill="#dd978d"/>
            <path id="Path_2686" data-name="Path 2686" d="M2497.908,1968.116c-.132,4.179-1.788,8.24-2.016,12.454a11.9,11.9,0,0,0,.2,3.944,21.222,21.222,0,0,0,1.872,3.442c1.518,3.018-.744,6.065-1.468,9.024-.733,2.994-.559,6.153-1.38,9.147a10.516,10.516,0,0,1-.695,1.86,9.51,9.51,0,0,1-4.185-4.541c-3.133-7.061-2.994-15.128-2.7-22.691.255-6.474,1.907-12.656,3.566-18.85C2494.494,1962.808,2498.026,1964.373,2497.908,1968.116Z" fill="#dd978d"/>
            <g id="Group_2491" data-name="Group 2491">
              <path id="Path_2687" data-name="Path 2687" d="M2553.047,1923.652l-68.937,7.642,1.232,24.056s-1.408.749-5.773,5.069c-3.06,3.028-.39,8.063,5.315,9.187,32.463,6.4,45.761-7.085,45.761-7.085,3.009-.5,25.421-6.675,25.421-9.979C2556.066,1950.273,2553.326,1925.577,2553.047,1923.652Z" fill="#5d7977"/>
            </g>
            <g id="Group_2492" data-name="Group 2492">
              <path id="Path_2688" data-name="Path 2688" d="M2504.581,1963.482c-1.614.522-10.715,4.956-15.2,5.153,18.308,2.855,29.669-.894,37.749-5.967A186.337,186.337,0,0,1,2504.581,1963.482Z" fill="#4a5e5c"/>
              <path id="Path_2689" data-name="Path 2689" d="M2548.61,1931.334c-.752,2.685,2.037,5.8.313,11.189-2.1,6.548-3.986,10.631-10.38,15.811,7.23-2.216,15.717-5.337,15.717-7.37,0-1.66-1.468-15.336-2.364-23.3A5.075,5.075,0,0,0,2548.61,1931.334Z" fill="#4a5e5c"/>
            </g>
            <path id="Path_2690" data-name="Path 2690" d="M2537.56,1978.315c-2.181,2.334-9.752,14.162-11.7,16.7a49.45,49.45,0,0,1-6.114,6.016l-2.56-20.717c14.844-9.285,18.079-14.308,19.088-19.411l-3.144.592c-.5.889-.062,6.9-17.857,16.561l-19.045,5-9.058-3.485c-.223,4.983-.352,18.17.945,22.594a11.149,11.149,0,0,0,3.729,6.295,10.338,10.338,0,0,0,4.506,1.956s19.579,1.67,31.833-13.6c2.095-2.612,10.3-16.878,12.136-19.659C2541.364,1975.579,2539.125,1976.641,2537.56,1978.315Z" fill="#fff"/>
            <g id="Group_2493" data-name="Group 2493">
              <path id="Path_2691" data-name="Path 2691" d="M2386.148,2137.361c1.156-3.752,2.2-7.536,3.4-11.274,2.023-6.31,4.507-12.557,8.457-17.892l-8.257-3.091-16.713,31.666c.068-.013,4.622,1.924,11.565,4.8C2385.166,2140.186,2385.707,2138.791,2386.148,2137.361Z" fill="#fff"/>
              <path id="Path_2692" data-name="Path 2692" d="M2490.844,2133.249s-12.537,30.534-28.053,36.924c-8.7,3.581-88.308-30.976-88.6-30.918l17.963-34.151,56.155,21.1c10.673-22.542,27.536-79.313,34.757-84.99,8.408-6.611,27.622-13.355,28.535-14.168,1.742-2.672-.444-6.908-.5-9.6-.069-3.139.044-2.6,2.866-4.409,1.765,3.711,3.643,3.246,6.787,4.058,2.089.54,1.167,3.32,1.531,5.615a33.422,33.422,0,0,0,1.468,7.257,42.23,42.23,0,0,0,9.969-1.762c-1.477-3.145-3.13-6.245-3.277-9.777-.122-2.926,1.94-3.788,4.242-5.015,3.725-1.987,8.57-3.3,10.825-6.887,5.163-8.225,2.165-14.744,2.165-14.744,9.074-1.3,13.988,9.99,19.232,16.49.138.172,52.786,14.1,55.944,20.943,23.682,51.284,17.893,107.7,14.938,125.067-1.483,8.717-1.023,15.9-7.631,54.281-1.116,6.486-1.724,56.756-1.724,56.756-36.036,4.627-148.189-30.024-149.507-24.037C2478.027,2245.33,2493.779,2174.84,2490.844,2133.249Z" fill="#5d7977"/>
              <path id="Path_2693" data-name="Path 2693" d="M2397.145,2128.283c-2.96,5.621-5.408,11.618-9.551,16.407,2.92,1.218.956.418,4.692,1.95.2-.474,7.377-13.371,8.276-16.814C2399.861,2129.44,2397.632,2128.444,2397.145,2128.283Z" fill="#e2a055"/>
              <path id="Path_2694" data-name="Path 2694" d="M2404.114,2131.222c-2.96,5.621-5.408,11.619-9.551,16.408,2.919,1.218.956.418,4.692,1.95.2-.474,7.377-13.371,8.276-16.814C2406.83,2132.38,2404.6,2131.384,2404.114,2131.222Z" fill="#e2a055"/>
              <path id="Path_2695" data-name="Path 2695" d="M2411.656,2134.077c-2.96,5.621-5.408,11.618-9.551,16.408,2.919,1.217.956.418,4.692,1.95.2-.474,7.376-13.371,8.276-16.814C2414.372,2135.235,2412.143,2134.239,2411.656,2134.077Z" fill="#e2a055"/>
              <path id="Path_2696" data-name="Path 2696" d="M2490.844,2133.146a185.464,185.464,0,0,0-.755-25.327c-1.481-13-4.494-25.753-6.9-38.6-2.185,8.624-9.056,40.877-8.7,49.117.028.655-7.608,3.977-11.7,4.7l18.1,17.961A119.812,119.812,0,0,0,2490.844,2133.146Z" fill="#4a5e5c"/>
              <path id="Path_2697" data-name="Path 2697" d="M2523.107,2032.189c-8.019,7.817-13.431-.157-12.759-3.808C2514.666,2032.009,2518.216,2032.767,2523.107,2032.189Z" fill="#4a5e5c"/>
              <path id="Path_2698" data-name="Path 2698" d="M2564.748,2100.989c7.332-15.743,18.027-37.474,25.952-42.76,3.31,13.709,7.368,39.585,7.526,46.875.211,9.735,1.756,47.852-.338,53.253-8.52,21.976-47.654,57.475-47.654,57.475l-42.349-69.284C2510.524,2142.5,2557.1,2117.412,2564.748,2100.989Z" fill="#4a5e5c"/>
              <path id="Path_2699" data-name="Path 2699" d="M2532.054,2076.181a147.334,147.334,0,0,1-.268,22.463,169.8,169.8,0,0,1-3.672,20.135c-.684,3.037-1.4,6.184-1.874,9.361-.35.343-.706.68-1.078,1a6.332,6.332,0,0,1-1.854,1.168c.289-2.633.76-5.251,1.274-7.813,1.356-6.75,3.183-13.385,4.088-20.222a124.694,124.694,0,0,0,.881-22.525c-.37-7.5-.6-15.011-1.169-22.5-.649-8.541-1.84-17.15-4.927-25.187-.6-1.574,2.006-2.3,2.617-.706C2531.523,2045.552,2531.293,2061.222,2532.054,2076.181Z" fill="#4a5e5c"/>
              <path id="Path_2700" data-name="Path 2700" d="M2630.927,2193.034s-7.858,8.271-14.96,16.742c-14.564,16.087-20.876,25.807-41.7,36.883,1.383.292,7.112.8,7.492.756,0,0,26.883-1.032,35.752-21.555C2624.747,2209.125,2633.267,2202.356,2630.927,2193.034Z" fill="#4a5e5c"/>
            </g>
            <ellipse id="Ellipse_121" data-name="Ellipse 121" cx="34.679" cy="8.653" rx="34.679" ry="8.653" transform="translate(2483.13 1922.881) rotate(-6.326)" fill="#4a5e5c"/>
            <path id="Path_2701" data-name="Path 2701" d="M2529.1,1954.686c-2.874.518-5.907.962-9.054,1.311-16.731,1.855-31,.426-34.573-3.173a3.063,3.063,0,0,0-.848,2.272c.526,4.75,16.385,6.89,35.421,4.779,3.437-.381,6.739-.876,9.845-1.456A16.344,16.344,0,0,0,2529.1,1954.686Z" fill="#4a5e5c"/>
            <ellipse id="Ellipse_122" data-name="Ellipse 122" cx="2.801" cy="2.586" rx="2.801" ry="2.586" transform="translate(2527.126 1954.237)" fill="#e2a055"/>
            <ellipse id="Ellipse_123" data-name="Ellipse 123" cx="2.801" cy="2.586" rx="2.801" ry="2.586" transform="translate(2532.728 2037.433)" fill="#e2a055"/>
            <ellipse id="Ellipse_124" data-name="Ellipse 124" cx="2.801" cy="2.586" rx="2.801" ry="2.586" transform="translate(2535.529 2058.229)" fill="#e2a055"/>
            <ellipse id="Ellipse_125" data-name="Ellipse 125" cx="2.801" cy="2.586" rx="2.801" ry="2.586" transform="translate(2535.742 2077.803)" fill="#e2a055"/>
            <ellipse id="Ellipse_126" data-name="Ellipse 126" cx="2.801" cy="2.586" rx="2.801" ry="2.586" transform="translate(2535.742 2099.933)" fill="#e2a055"/>
          </g>
          <g id="Group_2507" data-name="Group 2507">
            <path id="Path_2702" data-name="Path 2702" d="M2492.316,2027.93c-2.924-3.034-13.912,7.856-10.485,12.113,32.235,32.92,49.369,78.247,49.369,148.847l-1.244,297.574,9.153-.288V2174.822C2539.109,2103.341,2522.623,2065.11,2492.316,2027.93Z" fill="#e2a055"/>
            <path id="Path_2703" data-name="Path 2703" d="M2305.532,2495.263h-2.876V2181.935c0-84.921,11.437-150.765,60.929-164.259-.237-3.119-.532-6.232-.9-9.336-53.9,15.672-67.935,78.377-67.935,171.22v342.295h10.317C2304.847,2512.986,2304.957,2504.116,2305.532,2495.263Z" fill="#e2a055"/>
            <g id="Group_2496" data-name="Group 2496">
              <g id="Group_2495" data-name="Group 2495">
                <path id="Path_2704" data-name="Path 2704" d="M2545.126,2543.6c-.045-20.527-13.109-23.654-27.578-23.654-13.387,0-23.482,9.375-23.482,23.654s10.852,25.853,24.238,25.853C2526.166,2569.457,2545.171,2563.9,2545.126,2543.6Z" fill="#1e4951"/>
                <ellipse id="Ellipse_127" data-name="Ellipse 127" cx="24.238" cy="25.854" rx="24.238" ry="25.854" transform="translate(2488.16 2517.75)" fill="#205965"/>
              </g>
              <path id="Path_2705" data-name="Path 2705" d="M2499.868,2509.751v21.883c0,6.6,3.7,11.945,8.265,11.945h8.031c4.565,0,8.265-5.348,8.265-11.945v-21.883S2501.173,2509.428,2499.868,2509.751Z" fill="#d3c8c1"/>
            </g>
            <g id="Group_2498" data-name="Group 2498">
              <g id="Group_2497" data-name="Group 2497">
                <path id="Path_2706" data-name="Path 2706" d="M2344.533,2543.6c-.045-20.527-13.109-23.654-27.579-23.654-13.386,0-23.481,9.375-23.481,23.654s10.851,25.853,24.237,25.853C2325.573,2569.457,2344.578,2563.9,2344.533,2543.6Z" fill="#1e4951"/>
                <ellipse id="Ellipse_128" data-name="Ellipse 128" cx="24.238" cy="25.854" rx="24.238" ry="25.854" transform="translate(2287.566 2517.75)" fill="#205965"/>
              </g>
              <path id="Path_2707" data-name="Path 2707" d="M2299.275,2509.751v21.883c0,6.6,3.7,11.945,8.265,11.945h8.031c4.565,0,8.265-5.348,8.265-11.945v-21.883S2300.58,2509.428,2299.275,2509.751Z" fill="#d3c8c1"/>
            </g>
            <path id="Path_2708" data-name="Path 2708" d="M2427.074,2000.622h-48.65c-58.808,0-92.883,56.587-92.883,158.047v348.142h261.611V2158.669C2547.152,2057.209,2485.882,2000.622,2427.074,2000.622Zm107,479.6H2298.621V2166.89c0-91.314,29.091-150.413,82.018-150.413h43.785c52.927,0,109.648,59.1,109.648,150.413Z" fill="#cf9150"/>
            <path id="Path_2709" data-name="Path 2709" d="M2547.152,2480.218l-27.927,48.891h-260.88l27.2-48.891Z" fill="#a14459"/>
            <path id="Path_2710" data-name="Path 2710" d="M2296.686,2257.714l-27.363,48.891h-9.9l28.057-48.891Z" fill="#e5b57e"/>
            <path id="Path_2711" data-name="Path 2711" d="M2296.686,2270.21l-28.057,48.891v-12.5l28.057-48.891Z" fill="#cf9150"/>
            <path id="Path_2712" data-name="Path 2712" d="M2544.956,2253.717l-27.363,48.891h-9.9l28.057-48.891Z" fill="#e5b57e"/>
            <path id="Path_2713" data-name="Path 2713" d="M2544.956,2266.213,2516.9,2315.1v-12.5l28.057-48.891Z" fill="#e2a055"/>
            <g id="Group_2500" data-name="Group 2500">
              <path id="Path_2714" data-name="Path 2714" d="M2477.978,2551.083v21.882c0,6.6,3.7,11.945,8.265,11.945h8.031c4.564,0,8.265-5.348,8.265-11.945v-21.882S2479.282,2550.76,2477.978,2551.083Z" fill="#cf9150"/>
              <g id="Group_2499" data-name="Group 2499">
                <path id="Path_2715" data-name="Path 2715" d="M2514.617,2587.233c-.045-20.526-13.109-23.654-27.578-23.654-13.387,0-23.482,9.376-23.482,23.654s10.852,25.854,24.238,25.854C2495.657,2613.087,2514.662,2607.533,2514.617,2587.233Z" fill="#1e4951"/>
                <ellipse id="Ellipse_129" data-name="Ellipse 129" cx="24.238" cy="25.854" rx="24.238" ry="25.854" transform="translate(2457.651 2561.38)" fill="#205965"/>
                <ellipse id="Ellipse_130" data-name="Ellipse 130" cx="12.119" cy="12.927" rx="12.119" ry="12.927" transform="translate(2469.77 2574.306)" fill="#1e4951"/>
              </g>
              <path id="Path_2716" data-name="Path 2716" d="M2469.359,2553.381v21.882c0,6.6,3.7,11.946,8.265,11.946h8.031c4.565,0,8.265-5.348,8.265-11.946v-21.882S2470.664,2553.058,2469.359,2553.381Z" fill="#e2a055"/>
            </g>
            <g id="Group_2502" data-name="Group 2502">
              <path id="Path_2717" data-name="Path 2717" d="M2277.384,2551.083v21.882c0,6.6,3.7,11.945,8.265,11.945h8.031c4.565,0,8.265-5.348,8.265-11.945v-21.882S2278.689,2550.76,2277.384,2551.083Z" fill="#cf9150"/>
              <g id="Group_2501" data-name="Group 2501">
                <path id="Path_2718" data-name="Path 2718" d="M2314.024,2587.233c-.045-20.526-13.109-23.654-27.579-23.654-13.386,0-23.481,9.376-23.481,23.654s10.851,25.854,24.238,25.854C2295.064,2613.087,2314.069,2607.533,2314.024,2587.233Z" fill="#1e4951"/>
                <ellipse id="Ellipse_131" data-name="Ellipse 131" cx="24.238" cy="25.854" rx="24.238" ry="25.854" transform="translate(2257.058 2561.38)" fill="#205965"/>
                <ellipse id="Ellipse_132" data-name="Ellipse 132" cx="12.119" cy="12.927" rx="12.119" ry="12.927" transform="translate(2269.177 2574.306)" fill="#1e4951"/>
              </g>
              <path id="Path_2719" data-name="Path 2719" d="M2268.766,2553.381v21.882c0,6.6,3.7,11.946,8.265,11.946h8.031c4.565,0,8.265-5.348,8.265-11.946v-21.882S2270.071,2553.058,2268.766,2553.381Z" fill="#e2a055"/>
            </g>
            <path id="Path_2720" data-name="Path 2720" d="M2547.152,2506.811l-27.927,48.891v-26.593l27.927-48.891Z" fill="#e2a055"/>
            <g id="Group_2503" data-name="Group 2503">
              <path id="Path_2721" data-name="Path 2721" d="M2510.048,2412.7h-199.1c-5.946,0-21.681,22.979-21.681,28.925l10.915,41.752a10.766,10.766,0,0,0,10.766,10.767l197.441,14.972c4.453-6.834,12.422-19.792,12.422-25.739v-59.91A10.767,10.767,0,0,0,2510.048,2412.7Z" fill="#aaa19e"/>
              <rect id="Rectangle_1065" data-name="Rectangle 1065" width="220.63" height="81.443" rx="24.984" transform="translate(2287.763 2436.35)" fill="#d3c8c1"/>
              <path id="Rectangle_1066" data-name="Rectangle 1066" d="M3.9,0H19.33a0,0,0,0,1,0,0V12.066a0,0,0,0,1,0,0H3.9A3.9,3.9,0,0,1,0,8.17V3.9A3.9,3.9,0,0,1,3.9,0Z" transform="translate(2278.097 2499.752)" fill="#5d7977"/>
              <path id="Rectangle_1067" data-name="Rectangle 1067" d="M3.9,0H19.33a0,0,0,0,1,0,0V12.066a0,0,0,0,1,0,0H3.9A3.9,3.9,0,0,1,0,8.17V3.9A3.9,3.9,0,0,1,3.9,0Z" transform="translate(2278.097 2448.847)" fill="#5d7977"/>
              <rect id="Rectangle_1068" data-name="Rectangle 1068" width="221.441" height="4.74" transform="translate(2287.357 2474.702)" fill="#aaa19e"/>
              <path id="Path_2722" data-name="Path 2722" d="M2524.741,2455.536a2.178,2.178,0,0,0-3.97-.339l-9.291,16.709c-.275.494-.968,4.461-.313,5.166,1.534,1.652,3.965,1.187,4.551.138l8.611-16.3C2525.629,2457.9,2525.155,2456.843,2524.741,2455.536Z" fill="#5d7977"/>
              <path id="Path_2723" data-name="Path 2723" d="M2520.817,2451.863l-12.424,23.108v4.471l12.424-23.1Z" fill="#d3c8c1"/>
              <rect id="Rectangle_1069" data-name="Rectangle 1069" width="196.744" height="2.919" transform="translate(2302.895 2464.457)" fill="#aaa19e"/>
              <rect id="Rectangle_1070" data-name="Rectangle 1070" width="196.744" height="2.919" transform="translate(2302.895 2453.42)" fill="#aaa19e"/>
              <rect id="Rectangle_1071" data-name="Rectangle 1071" width="196.744" height="2.919" transform="translate(2302.895 2442.814)" fill="#aaa19e"/>
              <rect id="Rectangle_1072" data-name="Rectangle 1072" width="196.744" height="2.919" transform="translate(2300.185 2509.114)" fill="#aaa19e"/>
              <rect id="Rectangle_1073" data-name="Rectangle 1073" width="196.744" height="2.919" transform="translate(2300.185 2498.077)" fill="#aaa19e"/>
              <rect id="Rectangle_1074" data-name="Rectangle 1074" width="196.744" height="2.919" transform="translate(2300.185 2487.471)" fill="#aaa19e"/>
            </g>
            <g id="Group_2504" data-name="Group 2504">
              <path id="Path_2724" data-name="Path 2724" d="M2491.189,2346.75H2311.732c-5.36,0-19.542,16.933-19.542,21.315l9.838,30.768c0,4.382,4.344,7.934,9.7,7.934L2489.7,2417.8c4.013-5.036,11.2-14.585,11.2-18.967v-44.149C2500.893,2350.3,2496.549,2346.75,2491.189,2346.75Z" fill="#aaa19e"/>
              <rect id="Rectangle_1075" data-name="Rectangle 1075" width="198.866" height="60.017" rx="19.38" transform="translate(2290.831 2364.179)" fill="#d3c8c1"/>
              <path id="Rectangle_1076" data-name="Rectangle 1076" d="M2.871,0H17.424a0,0,0,0,1,0,0V8.891a0,0,0,0,1,0,0H2.871A2.871,2.871,0,0,1,0,6.02V2.871A2.871,2.871,0,0,1,2.871,0Z" transform="translate(2280.732 2373.89)" fill="#5d7977"/>
              <path id="Rectangle_1077" data-name="Rectangle 1077" d="M2.871,0H17.424a0,0,0,0,1,0,0V8.891a0,0,0,0,1,0,0H2.871A2.871,2.871,0,0,1,0,6.02V2.871A2.871,2.871,0,0,1,2.871,0Z" transform="translate(2282.119 2415.849)" fill="#5d7977"/>
              <rect id="Rectangle_1078" data-name="Rectangle 1078" width="199.597" height="3.493" transform="translate(2290.465 2392.441)" fill="#aaa19e"/>
              <path id="Path_2725" data-name="Path 2725" d="M2500.9,2375.611l-11.2,17.029v3.295l11.2-17.025Z" fill="#d3c8c1"/>
              <rect id="Rectangle_1079" data-name="Rectangle 1079" width="177.337" height="2.151" transform="translate(2304.471 2384.892)" fill="#aaa19e"/>
              <rect id="Rectangle_1080" data-name="Rectangle 1080" width="177.337" height="2.151" transform="translate(2304.471 2376.759)" fill="#aaa19e"/>
              <rect id="Rectangle_1081" data-name="Rectangle 1081" width="177.337" height="2.151" transform="translate(2304.471 2368.942)" fill="#aaa19e"/>
              <rect id="Rectangle_1082" data-name="Rectangle 1082" width="177.337" height="2.151" transform="translate(2302.028 2417.8)" fill="#aaa19e"/>
              <rect id="Rectangle_1083" data-name="Rectangle 1083" width="177.337" height="2.151" transform="translate(2302.028 2409.667)" fill="#aaa19e"/>
              <rect id="Rectangle_1084" data-name="Rectangle 1084" width="177.337" height="2.151" transform="translate(2302.028 2401.851)" fill="#aaa19e"/>
              <path id="Path_2726" data-name="Path 2726" d="M2504.432,2378.318c-.513-1.324-2.753-1.463-3.578-.25l-8.374,12.313c-.248.364-.873,3.287-.282,3.807,1.383,1.217,3.574.875,4.1.1l7.762-12.015C2505.233,2380.057,2504.806,2379.281,2504.432,2378.318Z" fill="#5d7977"/>
            </g>
            <g id="Group_2505" data-name="Group 2505">
              <path id="Path_2727" data-name="Path 2727" d="M2472.767,2276.238H2318.715c-4.6,0-16.776,17-16.776,21.394l8.446,30.882a8.152,8.152,0,0,0,8.33,7.963l152.771,11.074c3.445-5.054,9.612-14.639,9.612-19.037V2284.2A8.153,8.153,0,0,0,2472.767,2276.238Z" fill="#aaa19e"/>
              <rect id="Rectangle_1085" data-name="Rectangle 1085" width="170.713" height="60.239" rx="18.901" transform="translate(2300.773 2293.731)" fill="#d3c8c1"/>
              <path id="Rectangle_1086" data-name="Rectangle 1086" d="M2.882,0H14.957a0,0,0,0,1,0,0V8.924a0,0,0,0,1,0,0H2.882A2.882,2.882,0,0,1,0,6.043V2.882A2.882,2.882,0,0,1,2.882,0Z" transform="translate(2292.104 2303.46)" fill="#5d7977"/>
              <path id="Rectangle_1087" data-name="Rectangle 1087" d="M2.882,0H14.957a0,0,0,0,1,0,0V8.924a0,0,0,0,1,0,0H2.882A2.882,2.882,0,0,1,0,6.043V2.882A2.882,2.882,0,0,1,2.882,0Z" transform="translate(2292.104 2337.084)" fill="#5d7977"/>
              <rect id="Rectangle_1088" data-name="Rectangle 1088" width="171.341" height="3.506" transform="translate(2300.459 2322.098)" fill="#aaa19e"/>
              <path id="Path_2728" data-name="Path 2728" d="M2481.1,2305.206l-9.613,17.092v3.307l9.613-17.088Z" fill="#d3c8c1"/>
              <rect id="Rectangle_1089" data-name="Rectangle 1089" width="152.232" height="2.159" transform="translate(2312.482 2314.521)" fill="#aaa19e"/>
              <rect id="Rectangle_1090" data-name="Rectangle 1090" width="152.232" height="2.159" transform="translate(2312.482 2306.357)" fill="#aaa19e"/>
              <rect id="Rectangle_1091" data-name="Rectangle 1091" width="152.232" height="2.159" transform="translate(2312.482 2298.512)" fill="#aaa19e"/>
              <rect id="Rectangle_1092" data-name="Rectangle 1092" width="152.232" height="2.159" transform="translate(2310.385 2347.551)" fill="#aaa19e"/>
              <rect id="Rectangle_1093" data-name="Rectangle 1093" width="152.232" height="2.159" transform="translate(2310.385 2339.387)" fill="#aaa19e"/>
              <rect id="Rectangle_1094" data-name="Rectangle 1094" width="152.232" height="2.159" transform="translate(2310.385 2331.542)" fill="#aaa19e"/>
              <path id="Path_2729" data-name="Path 2729" d="M2484.136,2307.922a1.717,1.717,0,0,0-3.072-.25l-7.189,12.358c-.213.366-.749,3.3-.242,3.821,1.187,1.222,3.068.879,3.521.1l6.663-12.06C2484.823,2309.668,2484.457,2308.889,2484.136,2307.922Z" fill="#5d7977"/>
            </g>
            <g id="Group_2506" data-name="Group 2506">
              <rect id="Rectangle_1095" data-name="Rectangle 1095" width="14.651" height="35.836" transform="translate(2394.104 1969.935)" fill="#e2a055"/>
              <path id="Path_2730" data-name="Path 2730" d="M2400.64,1968.1c.321,11.96,1.389,23.889,2.018,35.836h4.021V1968.1Z" fill="#cf9150"/>
              <ellipse id="Ellipse_133" data-name="Ellipse 133" cx="20.791" cy="21.63" rx="20.791" ry="21.63" transform="translate(2380.639 1938.355)" fill="#e5b57e"/>
              <path id="Path_2731" data-name="Path 2731" d="M2387.19,1954.166c3.308-3.36,6.568-6.745,10.136-9.807C2391.86,1944.543,2386.7,1948.61,2387.19,1954.166Z" fill="#fff"/>
              <path id="Path_2732" data-name="Path 2732" d="M2415.739,1951.17a15.4,15.4,0,0,1-.968,8c-2.034,4.545-7.4,7.167-12.153,8.425a26.331,26.331,0,0,1-15.6-.606,13.606,13.606,0,0,1-1.6-.755,17.113,17.113,0,0,0,33.278-5.5A16.855,16.855,0,0,0,2415.739,1951.17Z" fill="#e2a055"/>
              <path id="Path_2733" data-name="Path 2733" d="M2427.074,2000.622h-48.65c-58.808,0-120.94,105.478-120.94,206.938V2555.7h261.611V2207.56C2519.095,2106.1,2485.882,2000.622,2427.074,2000.622Zm78.94,528.487h-235.45V2215.781c0-91.314,57.148-199.3,110.075-199.3h43.785c52.927,0,81.59,107.99,81.59,199.3Z" fill="#e5b57e"/>
              <path id="Path_2734" data-name="Path 2734" d="M2304.227,2061.939c15.993-28.734,40.291-48.931,53.506-54.368-21.259,6.033-45.691,37.457-61.334,59.792C2300.349,2063.231,2302.409,2061.625,2304.227,2061.939Z" fill="#fff"/>
              <path id="Path_2735" data-name="Path 2735" d="M2433.39,2530.677l-158.791-1.663V2215.686c0-84.921,49.426-184.265,98.918-197.759-.237-3.119-.532-6.232-.9-9.336-53.9,15.672-105.924,111.877-105.924,204.72v342.3h10.317C2276.79,2546.737,2293.327,2538.75,2433.39,2530.677Z" fill="#e2a055"/>
              <path id="Path_2736" data-name="Path 2736" d="M2469.77,2033.724c-14.651-20.254-44.052-26.181-44.052-26.181q-.641,4.336-1.014,8.711c-.045.514-.083,1.027-.123,1.542,12.481,1.408,23.535,8.935,33.1,20.817,32.235,32.92,49.369,113.488,49.369,184.089V2536.03s-58.5,11.137-58.68,13.2l57.758,1.705h9.213l-.382-342.3C2514.958,2137.153,2499.115,2076.69,2469.77,2033.724Z" fill="#e2a055"/>
              <rect id="Rectangle_1096" data-name="Rectangle 1096" width="68.947" height="41.431" rx="13.379" transform="translate(2366.957 1992.293)" fill="#e5b57e"/>
              <path id="Path_2737" data-name="Path 2737" d="M2419.732,1996.008a28.909,28.909,0,0,1-.664,8.565c-2.048,8.389-10.826,14.512-18.71,18.263-7.439,3.54-15.434,4.262-23.525,4a15.56,15.56,0,0,0,7.964,2.16h30.958c8.135,0,14.731-6.084,14.731-13.589v-6.313C2430.486,2002.859,2425.935,1997.61,2419.732,1996.008Z" fill="#e2a055"/>
            </g>
          </g>
          <g id="Group_2509" data-name="Group 2509">
            <g id="Group_2508" data-name="Group 2508">
              <path id="Path_2738" data-name="Path 2738" d="M2561.761,2243.682a29.181,29.181,0,0,0,3.206-5.854c-4.307-4.72-8.579-9.471-12.946-14.136-.6,1.744-2.22,2.614-4.111,2.917A40.851,40.851,0,0,0,2561.761,2243.682Z" fill="#fcb69e"/>
              <path id="Path_2739" data-name="Path 2739" d="M2547.8,2225.682a11.942,11.942,0,0,1-5.665-1.588c-2.642-1.81-5.772-4.141-8.736-4.051-7.029.214-12.316-4.465-14.657-5.344-.905,2.679,2.376,6.188,4.245,8.023a27.376,27.376,0,0,0,3.536,2.981c1.478,1.024,3.364,1.709,4.595,3.089,2.182,2.445-.156,5.009-1.784,6.563-2.568,2.452-6.578,4.327-9.938,5.559-9.448,3.465-10.326,3.36-19.482,5-3.4.608-5.061,5.483-2.079,5.453,3.6-.036,15.052.8,26.664-4.878-.941,2.169-8.1,8.051-9.965,9.331-2.089,1.436-20.366,7.266-17.205,12.846.916,1.617,3.486.221,5.481-.49,1.264-.451,10.986-4.609,11.227-4.782,2.026-1.457,13.954-8.693,14.414-7.82.828,1.574-4,6.393-6.267,8.535-4.842,3.67-16.758,8.2-15.806,10.952,2.633,7.626,27.523-12.945,27.523-12.945s.813,3.373-12.794,13.908c-.966.748-2.273,3.465-.251,4.075,2.614.789,14.335-10.328,25.876-19.152,5.566-4.256,10.548-12.107,14.883-15.719a10.6,10.6,0,0,0,.944-.912C2556.092,2239.487,2550.718,2233.25,2547.8,2225.682Z" fill="#b1d5e2"/>
            </g>
            <path id="Path_2740" data-name="Path 2740" d="M2573.544,2229.323c-3.7-3.12-7.856-5.669-11.444-8.931a57.2,57.2,0,0,1-7.522-8.657c-3.2,2.785-6.37,5.573-9.444,8.4,4.228,5.24,19.522,20.97,24.811,27.278,3.383-2.56,7.954-5.812,13.064-9.792C2579.739,2234.994,2576.755,2232.031,2573.544,2229.323Z" fill="#fff"/>
            <path id="Path_2741" data-name="Path 2741" d="M2597.776,2165.127c-12.067,20.737-32.488,35.341-49.866,51.349,4.228,5.24,8.689,11.141,13.51,15.839,6.6,6.433,8.617,7.9,13.906,14.205,11.946-9.041,36.1-29.468,49.135-57.377C2617.1,2178.284,2608.715,2171.858,2597.776,2165.127Z" fill="#5d7977"/>
            <path id="Path_2742" data-name="Path 2742" d="M2580.635,2230.715c-4.8-3.612-9.619-7.7-12.724-12.919a9,9,0,0,0-2.944,3.643,148.315,148.315,0,0,0,15.131,14.455c1.676,1.454,3.133,2.9,4.873,4.28,1.3-1.1,3.189-2.073,4.58-3.317C2586.612,2234.974,2583.426,2232.817,2580.635,2230.715Z" fill="#e2a055"/>
            <path id="Path_2743" data-name="Path 2743" d="M2586.931,2226.119c-4.8-3.613-9.619-7.7-12.725-12.92a9.013,9.013,0,0,0-2.944,3.644,148.541,148.541,0,0,0,15.132,14.455c1.675,1.454,3.2,2.758,4.94,4.142,1.3-1.1,2.832-2.428,4.223-3.671C2592.618,2229.886,2589.722,2228.221,2586.931,2226.119Z" fill="#e2a055"/>
            <path id="Path_2744" data-name="Path 2744" d="M2592.782,2220.373c-4.8-3.612-9.618-7.7-12.724-12.919a9,9,0,0,0-2.944,3.643,148.367,148.367,0,0,0,15.131,14.455c1.676,1.454,3.373,2.9,5.113,4.28a32,32,0,0,0,4.05-3.905C2598.469,2224.045,2595.573,2222.475,2592.782,2220.373Z" fill="#e2a055"/>
          </g>
          <path id="Path_2745" data-name="Path 2745" d="M2563.8,2011.135c-.012-.2-.282-.211-.386-.083-3.13,3.838-5.909,7.675-10.392,10.045-.243.128-.071.509.174.38S2564.125,2016.544,2563.8,2011.135Z" fill="#4a5e5c"/>
        </g>
      </g>
    </g>
  </g>
</svg>
