<svg xmlns="http://www.w3.org/2000/svg" width="406.712" height="413.27" viewBox="0 0 406.712 413.27">
  <path id="Path_2296" data-name="Path 2296" d="M730.1,5129.569l-.034,0a6.639,6.639,0,0,0-1.186.115,6.55,6.55,0,0,0-1.9.665q-.279.15-.541.325a6.509,6.509,0,0,0-.926.754c-.014.015-.031.027-.046.042a6.522,6.522,0,0,0-1.927,4.657v112.764H684.179V5136.129a6.582,6.582,0,0,0-6.56-6.56,6.509,6.509,0,0,0-3.12.795q-.279.153-.541.33a6.567,6.567,0,0,0-2.9,5.435v112.764H631.7V5136.129a6.538,6.538,0,0,0-6.56-6.56l-.033,0a6.641,6.641,0,0,0-1.187.115,6.55,6.55,0,0,0-1.9.665q-.279.15-.541.325a6.564,6.564,0,0,0-.926.754c-.014.015-.031.027-.046.042a6.522,6.522,0,0,0-1.927,4.657v119.324c0,33.062,23.027,60.416,52.479,63.959v210.309a6.57,6.57,0,0,0,2.9,5.436q.262.177.541.329a6.493,6.493,0,0,0,3.12.795,6.581,6.581,0,0,0,6.56-6.56V5319.412a55.223,55.223,0,0,0,22.956-8.237q2.3-1.453,4.464-3.122c15.142-11.664,25.059-30.9,25.059-52.6V5136.129A6.538,6.538,0,0,0,730.1,5129.569Zm293.291-4.655a6.493,6.493,0,0,0-4.657-1.9,91.525,91.525,0,0,0-22.255,2.761q-1.207.3-2.4.638-3.081.861-6.092,1.931-2.712.965-5.358,2.1-2.98,1.274-5.865,2.755-2.348,1.2-4.627,2.542-.661.387-1.315.788-2.309,1.408-4.537,2.953-.569.394-1.133.8-1.427,1.023-2.817,2.1-1.227.952-2.425,1.945a91.068,91.068,0,0,0-6.823,6.285l-.009.009q-.834.851-1.645,1.723A90.849,90.849,0,0,0,941.3,5165.4a92.2,92.2,0,0,0-14.275,55.943l-.131,177.182a6.6,6.6,0,0,0,6.56,6.56h32.8v101.678A29.484,29.484,0,0,0,1011.064,5532q1.216-.741,2.355-1.593t2.188-1.807c.35-.317.691-.644,1.026-.978a29.922,29.922,0,0,0,4.829-6.353q.59-1.041,1.1-2.132a29.31,29.31,0,0,0,2.732-12.375V5129.571A6.767,6.767,0,0,0,1023.389,5124.914Zm-188.269,2.03h-6.691a65.259,65.259,0,0,0-21.742,3.72c-.654.231-1.3.475-1.946.725a65.536,65.536,0,0,0-16.03,9c-1.49,1.14-2.938,2.331-4.325,3.592a65.955,65.955,0,0,0-11.99,14.531q-.822,1.351-1.58,2.744a65.157,65.157,0,0,0-7.919,31.216v65.8a65.01,65.01,0,0,0,3.393,20.759q.228.677.469,1.348c.465,1.289.963,2.563,1.506,3.814q.471,1.085.979,2.149,1.018,2.129,2.182,4.17t2.466,3.988q1.3,1.947,2.738,3.793a65.869,65.869,0,0,0,25.626,19.938v191.81a24.542,24.542,0,0,0,9.052,18.892,29.484,29.484,0,0,0,3.277,2.432,31.145,31.145,0,0,0,10.152,4.163,33.353,33.353,0,0,0,11.526.449q1.464-.2,2.879-.526a31.844,31.844,0,0,0,4.109-1.241,29.921,29.921,0,0,0,10.363-6.549q.477-.467.929-.954a26.464,26.464,0,0,0,3.182-4.185c.305-.5.585-1.007.853-1.523a23.628,23.628,0,0,0,2.717-10.958V5318.23q2.171-.946,4.258-2.044a65.885,65.885,0,0,0,28.753-29.844q1.017-2.128,1.883-4.338a64.947,64.947,0,0,0,4.465-23.732v-65.794h0v0A65.594,65.594,0,0,0,835.12,5126.944Z" transform="translate(-618.58 -5123.011)" fill="#00170f" opacity="0.3" style="mix-blend-mode: multiply;isolation: isolate"/>
</svg>
