<svg xmlns="http://www.w3.org/2000/svg" width="50.971" height="50.837" viewBox="0 0 50.971 50.837">
  <path id="Path_409" data-name="Path 409" d="M8800.5,742.449a9.779,9.779,0,0,0-8.89,5.7l-10.621-5.3a11.814,11.814,0,0,0,.5-12.241l11.232-6.3a8.272,8.272,0,1,0-.874-1.569L8780.5,729.1a11.817,11.817,0,1,0-.642,15.189l11.146,5.562a9.788,9.788,0,1,0,9.493-7.405Zm-.984-29.463a6.52,6.52,0,1,1-6.521,6.521A6.528,6.528,0,0,1,8799.518,712.986Zm-28.377,33.351a10.026,10.026,0,1,1,10.026-10.026,10.026,10.026,0,0,1-10.026,10.026Zm29.361,13.892a7.991,7.991,0,0,1-7.569-10.556h0a7.992,7.992,0,1,1,7.569,10.556Z" transform="translate(-8759.319 -711.189)" fill="#232020"/>
</svg>
