<?xml version="1.0" encoding="UTF-8"?>
<svg xmlns="http://www.w3.org/2000/svg" xmlns:xlink="http://www.w3.org/1999/xlink" width="9px" height="8px" viewBox="0 0 9 8" version="1.1">
<g id="surface1">
<path style=" stroke:none;fill-rule:nonzero;fill:rgb(96.078431%,96.078431%,96.078431%);fill-opacity:1;" d="M 4.746094 5.457031 C 4.566406 5.457031 4.382812 5.457031 4.203125 5.457031 C 4.175781 5.453125 4.148438 5.472656 4.140625 5.5 C 4.042969 5.75 3.945312 6.003906 3.847656 6.253906 C 3.828125 6.320312 3.8125 6.386719 3.800781 6.453125 C 3.796875 6.46875 3.796875 6.488281 3.796875 6.503906 C 3.800781 6.574219 3.855469 6.628906 3.925781 6.632812 C 3.964844 6.640625 4.007812 6.640625 4.046875 6.640625 C 4.066406 6.644531 4.089844 6.640625 4.109375 6.644531 C 4.132812 6.644531 4.144531 6.65625 4.144531 6.671875 C 4.148438 6.691406 4.136719 6.707031 4.117188 6.710938 C 4.109375 6.714844 4.097656 6.71875 4.089844 6.71875 C 4.011719 6.71875 3.933594 6.714844 3.855469 6.714844 C 3.726562 6.710938 3.59375 6.707031 3.460938 6.710938 C 3.285156 6.710938 3.109375 6.714844 2.933594 6.71875 C 2.917969 6.71875 2.90625 6.71875 2.890625 6.714844 C 2.875 6.710938 2.859375 6.695312 2.859375 6.671875 C 2.863281 6.65625 2.875 6.644531 2.898438 6.640625 C 2.9375 6.640625 2.976562 6.636719 3.015625 6.636719 C 3.171875 6.636719 3.316406 6.550781 3.390625 6.410156 C 3.433594 6.335938 3.46875 6.261719 3.503906 6.183594 C 3.914062 5.179688 4.328125 4.175781 4.742188 3.171875 C 4.757812 3.128906 4.777344 3.085938 4.796875 3.046875 C 4.804688 3.03125 4.8125 3.019531 4.820312 3.007812 C 4.859375 2.945312 4.90625 2.945312 4.949219 3.007812 C 4.960938 3.023438 4.972656 3.042969 4.980469 3.0625 C 5.007812 3.128906 5.039062 3.191406 5.066406 3.257812 C 5.320312 3.878906 5.578125 4.5 5.832031 5.121094 C 5.96875 5.445312 6.101562 5.765625 6.238281 6.089844 C 6.277344 6.1875 6.328125 6.28125 6.382812 6.367188 C 6.414062 6.414062 6.449219 6.460938 6.484375 6.503906 C 6.558594 6.585938 6.660156 6.632812 6.769531 6.632812 C 6.820312 6.636719 6.867188 6.640625 6.917969 6.644531 C 6.933594 6.640625 6.945312 6.652344 6.949219 6.667969 C 6.949219 6.675781 6.949219 6.683594 6.945312 6.691406 C 6.941406 6.699219 6.933594 6.703125 6.925781 6.707031 C 6.921875 6.707031 6.917969 6.707031 6.914062 6.710938 C 6.890625 6.714844 6.863281 6.714844 6.839844 6.71875 C 6.582031 6.71875 6.328125 6.71875 6.074219 6.71875 C 5.972656 6.714844 5.871094 6.714844 5.769531 6.710938 C 5.738281 6.707031 5.710938 6.703125 5.679688 6.703125 C 5.675781 6.703125 5.671875 6.699219 5.671875 6.699219 C 5.660156 6.695312 5.644531 6.691406 5.644531 6.675781 C 5.644531 6.65625 5.652344 6.648438 5.667969 6.644531 C 5.679688 6.640625 5.691406 6.636719 5.703125 6.636719 C 5.722656 6.628906 5.742188 6.617188 5.753906 6.597656 C 5.761719 6.582031 5.765625 6.558594 5.761719 6.539062 C 5.757812 6.527344 5.753906 6.511719 5.746094 6.5 C 5.621094 6.175781 5.496094 5.847656 5.367188 5.519531 C 5.363281 5.511719 5.359375 5.503906 5.359375 5.496094 C 5.351562 5.46875 5.324219 5.453125 5.296875 5.457031 C 5.261719 5.457031 5.226562 5.457031 5.195312 5.457031 Z M 4.75 5.222656 C 4.890625 5.222656 5.035156 5.222656 5.179688 5.222656 C 5.242188 5.222656 5.246094 5.210938 5.226562 5.15625 C 5.078125 4.761719 4.929688 4.371094 4.785156 3.976562 C 4.777344 3.964844 4.769531 3.953125 4.761719 3.945312 C 4.75 3.957031 4.738281 3.964844 4.730469 3.976562 C 4.726562 3.976562 4.726562 3.984375 4.726562 3.988281 C 4.578125 4.375 4.429688 4.761719 4.28125 5.148438 C 4.273438 5.160156 4.269531 5.171875 4.265625 5.1875 C 4.261719 5.207031 4.269531 5.21875 4.289062 5.21875 C 4.304688 5.222656 4.320312 5.222656 4.339844 5.222656 C 4.476562 5.222656 4.613281 5.222656 4.75 5.222656 Z M 4.75 5.222656 "/>
<path style=" stroke:none;fill-rule:nonzero;fill:rgb(96.078431%,96.078431%,96.078431%);fill-opacity:1;" d="M 1.4375 3.328125 C 1.417969 3.328125 1.402344 3.328125 1.386719 3.328125 C 1.210938 3.335938 1.035156 3.339844 0.863281 3.34375 C 0.8125 3.34375 0.761719 3.34375 0.714844 3.347656 C 0.609375 3.347656 0.503906 3.355469 0.398438 3.371094 C 0.289062 3.386719 0.199219 3.433594 0.148438 3.535156 C 0.125 3.578125 0.109375 3.621094 0.0898438 3.660156 C 0.0859375 3.671875 0.0820312 3.683594 0.0742188 3.695312 C 0.0664062 3.710938 0.046875 3.71875 0.03125 3.714844 C 0.0117188 3.710938 0 3.695312 0 3.675781 C 0 3.644531 0 3.613281 0.00390625 3.582031 C 0.0351562 3.414062 0.0703125 3.246094 0.105469 3.078125 C 0.109375 3.0625 0.117188 3.046875 0.121094 3.03125 C 0.125 3.019531 0.132812 3.007812 0.144531 3.003906 C 0.15625 3 0.167969 2.996094 0.179688 3.003906 C 0.191406 3.003906 0.203125 3.011719 0.21875 3.015625 C 0.28125 3.042969 0.351562 3.054688 0.421875 3.058594 C 0.746094 3.089844 1.074219 3.082031 1.398438 3.082031 C 1.898438 3.082031 2.398438 3.082031 2.894531 3.082031 C 3.054688 3.085938 3.210938 3.070312 3.367188 3.035156 C 3.371094 3.035156 3.375 3.035156 3.378906 3.035156 C 3.421875 3.03125 3.4375 3.039062 3.4375 3.085938 C 3.4375 3.140625 3.4375 3.191406 3.4375 3.246094 C 3.433594 3.394531 3.425781 3.542969 3.421875 3.691406 C 3.421875 3.707031 3.417969 3.722656 3.414062 3.738281 C 3.410156 3.753906 3.394531 3.765625 3.378906 3.761719 C 3.359375 3.761719 3.347656 3.75 3.34375 3.734375 C 3.335938 3.710938 3.332031 3.6875 3.332031 3.664062 C 3.332031 3.546875 3.269531 3.476562 3.171875 3.425781 C 3.101562 3.390625 3.027344 3.371094 2.949219 3.363281 C 2.855469 3.351562 2.757812 3.34375 2.664062 3.339844 C 2.480469 3.335938 2.300781 3.332031 2.121094 3.328125 C 2.105469 3.328125 2.089844 3.328125 2.074219 3.328125 C 2.074219 3.347656 2.070312 3.359375 2.070312 3.371094 C 2.070312 4.21875 2.070312 5.066406 2.074219 5.917969 C 2.074219 6.0625 2.085938 6.210938 2.097656 6.359375 C 2.101562 6.402344 2.109375 6.449219 2.125 6.488281 C 2.148438 6.5625 2.210938 6.613281 2.285156 6.617188 C 2.378906 6.628906 2.476562 6.632812 2.570312 6.640625 C 2.585938 6.640625 2.597656 6.644531 2.609375 6.648438 C 2.621094 6.652344 2.632812 6.664062 2.632812 6.675781 C 2.632812 6.6875 2.625 6.699219 2.613281 6.703125 C 2.597656 6.710938 2.578125 6.71875 2.558594 6.71875 C 2.453125 6.71875 2.351562 6.714844 2.246094 6.714844 C 2.242188 6.714844 2.238281 6.714844 2.238281 6.714844 C 2.039062 6.710938 1.839844 6.703125 1.636719 6.703125 C 1.460938 6.707031 1.28125 6.714844 1.101562 6.71875 C 1.078125 6.71875 1.054688 6.714844 1.035156 6.707031 C 1.023438 6.707031 1.015625 6.703125 1.011719 6.695312 C 1.007812 6.6875 1.003906 6.679688 1.007812 6.671875 C 1.007812 6.652344 1.023438 6.640625 1.042969 6.644531 C 1.082031 6.640625 1.125 6.636719 1.164062 6.632812 C 1.199219 6.632812 1.234375 6.625 1.265625 6.617188 C 1.3125 6.609375 1.351562 6.578125 1.371094 6.535156 C 1.394531 6.484375 1.410156 6.433594 1.414062 6.378906 C 1.429688 6.242188 1.4375 6.105469 1.4375 5.96875 C 1.441406 5.105469 1.441406 4.246094 1.441406 3.382812 C 1.441406 3.367188 1.441406 3.351562 1.4375 3.328125 Z M 1.4375 3.328125 "/>
<path style=" stroke:none;fill-rule:nonzero;fill:rgb(96.078431%,96.078431%,96.078431%);fill-opacity:1;" d="M 7.21875 3.089844 C 7.394531 3.09375 7.566406 3.101562 7.738281 3.101562 C 7.859375 3.105469 7.984375 3.097656 8.105469 3.09375 C 8.214844 3.09375 8.320312 3.09375 8.429688 3.09375 C 8.4375 3.09375 8.445312 3.09375 8.457031 3.097656 C 8.472656 3.101562 8.480469 3.113281 8.480469 3.128906 C 8.484375 3.144531 8.472656 3.160156 8.457031 3.160156 C 8.4375 3.164062 8.421875 3.164062 8.40625 3.167969 C 8.359375 3.171875 8.3125 3.175781 8.265625 3.179688 C 8.144531 3.199219 8.097656 3.269531 8.082031 3.378906 C 8.074219 3.453125 8.066406 3.527344 8.066406 3.601562 C 8.066406 4.257812 8.066406 4.914062 8.066406 5.570312 C 8.066406 5.765625 8.074219 5.960938 8.074219 6.152344 C 8.078125 6.351562 8.058594 6.546875 8.015625 6.738281 C 7.953125 7.011719 7.816406 7.261719 7.617188 7.457031 C 7.425781 7.652344 7.199219 7.8125 6.953125 7.929688 C 6.917969 7.949219 6.878906 7.964844 6.839844 7.980469 C 6.824219 7.988281 6.808594 7.988281 6.789062 7.988281 C 6.777344 7.988281 6.769531 7.980469 6.765625 7.96875 C 6.757812 7.960938 6.761719 7.945312 6.769531 7.9375 C 6.773438 7.929688 6.78125 7.925781 6.789062 7.917969 C 6.804688 7.910156 6.816406 7.898438 6.832031 7.890625 C 7.148438 7.714844 7.339844 7.445312 7.410156 7.085938 C 7.4375 6.945312 7.453125 6.800781 7.457031 6.660156 C 7.460938 6.398438 7.46875 6.136719 7.46875 5.875 C 7.46875 5.1875 7.46875 4.503906 7.46875 3.816406 C 7.46875 3.6875 7.460938 3.558594 7.457031 3.429688 C 7.453125 3.40625 7.449219 3.382812 7.445312 3.359375 C 7.429688 3.277344 7.367188 3.210938 7.289062 3.191406 C 7.21875 3.175781 7.148438 3.164062 7.078125 3.167969 C 7.054688 3.167969 7.035156 3.164062 7.011719 3.164062 C 6.992188 3.160156 6.976562 3.152344 6.976562 3.128906 C 6.976562 3.113281 6.988281 3.097656 7.011719 3.09375 C 7.027344 3.089844 7.039062 3.089844 7.050781 3.089844 C 7.109375 3.089844 7.164062 3.089844 7.21875 3.089844 Z M 7.21875 3.089844 "/>
<path style=" stroke:none;fill-rule:nonzero;fill:rgb(96.078431%,96.078431%,96.078431%);fill-opacity:1;" d="M 9.003906 0.777344 L 9.003906 1.992188 C 8.992188 1.992188 8.984375 1.988281 8.972656 1.980469 C 8.71875 1.839844 8.464844 1.699219 8.210938 1.558594 C 8.191406 1.550781 8.179688 1.53125 8.179688 1.511719 C 8.183594 1.425781 8.183594 1.34375 8.179688 1.261719 C 8.179688 1.242188 8.1875 1.222656 8.203125 1.214844 C 8.464844 1.070312 8.726562 0.925781 8.988281 0.78125 C 8.992188 0.777344 9 0.777344 9.003906 0.777344 Z M 8.785156 1.300781 C 8.785156 1.269531 8.785156 1.238281 8.789062 1.203125 C 8.789062 1.171875 8.789062 1.140625 8.789062 1.109375 C 8.785156 1.078125 8.792969 1.042969 8.78125 1.011719 C 8.773438 1.015625 8.769531 1.015625 8.761719 1.019531 C 8.605469 1.105469 8.445312 1.195312 8.285156 1.28125 C 8.28125 1.285156 8.277344 1.292969 8.269531 1.300781 Z M 8.78125 1.472656 C 8.773438 1.46875 8.765625 1.46875 8.757812 1.46875 C 8.597656 1.46875 8.4375 1.46875 8.277344 1.46875 C 8.277344 1.46875 8.273438 1.472656 8.273438 1.472656 C 8.273438 1.476562 8.273438 1.476562 8.273438 1.476562 C 8.277344 1.480469 8.28125 1.484375 8.285156 1.488281 C 8.441406 1.574219 8.601562 1.664062 8.757812 1.75 C 8.765625 1.753906 8.773438 1.753906 8.78125 1.753906 C 8.789062 1.660156 8.789062 1.566406 8.78125 1.472656 Z M 8.78125 1.472656 "/>
<path style=" stroke:none;fill-rule:nonzero;fill:rgb(96.078431%,96.078431%,96.078431%);fill-opacity:1;" d="M 6.414062 0.773438 C 6.425781 0.78125 6.433594 0.785156 6.445312 0.789062 C 6.695312 0.929688 6.949219 1.066406 7.199219 1.207031 C 7.226562 1.21875 7.238281 1.242188 7.238281 1.269531 C 7.234375 1.347656 7.234375 1.429688 7.234375 1.507812 C 7.238281 1.53125 7.226562 1.550781 7.207031 1.558594 C 6.953125 1.699219 6.699219 1.839844 6.445312 1.980469 C 6.4375 1.984375 6.425781 1.988281 6.414062 1.996094 Z M 7.140625 1.300781 L 7.144531 1.292969 C 7.140625 1.289062 7.132812 1.285156 7.128906 1.28125 C 6.972656 1.195312 6.816406 1.109375 6.660156 1.023438 C 6.652344 1.019531 6.644531 1.015625 6.632812 1.015625 C 6.625 1.066406 6.628906 1.273438 6.636719 1.300781 Z M 7.144531 1.472656 C 7.089844 1.464844 6.660156 1.464844 6.632812 1.476562 L 6.632812 1.753906 C 6.664062 1.75 7.113281 1.5 7.144531 1.472656 Z M 7.144531 1.472656 "/>
<path style=" stroke:none;fill-rule:nonzero;fill:rgb(96.078431%,96.078431%,96.078431%);fill-opacity:1;" d="M 8.914062 2.15625 L 7.804688 2.769531 C 7.800781 2.75 7.800781 2.738281 7.800781 2.722656 C 7.800781 2.449219 7.800781 2.175781 7.800781 1.902344 C 7.796875 1.875 7.8125 1.847656 7.839844 1.835938 C 7.921875 1.792969 8.003906 1.746094 8.085938 1.699219 Z M 8.167969 2.324219 C 8.167969 2.320312 8.167969 2.3125 8.164062 2.308594 C 8.085938 2.175781 8.003906 2.042969 7.925781 1.910156 C 7.921875 1.90625 7.921875 1.902344 7.917969 1.898438 C 7.914062 1.898438 7.914062 1.898438 7.914062 1.898438 C 7.910156 1.898438 7.90625 1.898438 7.90625 1.898438 C 7.902344 1.910156 7.902344 1.921875 7.902344 1.933594 C 7.902344 2.097656 7.902344 2.261719 7.902344 2.425781 C 7.902344 2.441406 7.90625 2.453125 7.90625 2.46875 Z M 8.324219 2.238281 C 8.410156 2.191406 8.496094 2.144531 8.582031 2.09375 C 8.550781 2.066406 8.097656 1.816406 8.070312 1.808594 C 8.144531 1.957031 8.230469 2.097656 8.324219 2.238281 Z M 8.324219 2.238281 "/>
<path style=" stroke:none;fill-rule:nonzero;fill:rgb(96.078431%,96.078431%,96.078431%);fill-opacity:1;" d="M 7.804688 0 L 8.90625 0.613281 C 8.898438 0.617188 8.890625 0.625 8.878906 0.632812 C 8.625 0.773438 8.371094 0.914062 8.113281 1.054688 C 8.097656 1.066406 8.074219 1.066406 8.058594 1.054688 C 7.984375 1.011719 7.90625 0.96875 7.828125 0.929688 C 7.808594 0.921875 7.796875 0.902344 7.800781 0.882812 C 7.800781 0.597656 7.800781 0.316406 7.800781 0.03125 C 7.800781 0.0234375 7.800781 0.015625 7.804688 0 Z M 7.910156 0.875 C 7.945312 0.839844 8.160156 0.476562 8.164062 0.449219 C 8.117188 0.410156 7.9375 0.316406 7.910156 0.3125 C 7.898438 0.347656 7.898438 0.839844 7.910156 0.875 Z M 8.320312 0.53125 C 8.3125 0.542969 8.304688 0.554688 8.300781 0.5625 C 8.222656 0.695312 8.144531 0.824219 8.066406 0.957031 C 8.066406 0.957031 8.066406 0.960938 8.066406 0.960938 C 8.066406 0.960938 8.070312 0.960938 8.070312 0.964844 C 8.125 0.945312 8.558594 0.699219 8.582031 0.675781 Z M 8.320312 0.53125 "/>
<path style=" stroke:none;fill-rule:nonzero;fill:rgb(96.078431%,96.078431%,96.078431%);fill-opacity:1;" d="M 6.507812 2.152344 L 7.328125 1.699219 C 7.402344 1.738281 7.476562 1.777344 7.546875 1.820312 C 7.625 1.863281 7.613281 1.839844 7.613281 1.933594 C 7.613281 2.191406 7.613281 2.453125 7.613281 2.714844 L 7.613281 2.761719 C 7.582031 2.753906 6.554688 2.1875 6.507812 2.152344 Z M 7.351562 1.8125 L 7.34375 1.804688 L 6.824219 2.089844 C 6.921875 2.144531 7.003906 2.191406 7.09375 2.242188 Z M 7.242188 2.320312 C 7.273438 2.339844 7.304688 2.355469 7.332031 2.371094 C 7.363281 2.386719 7.390625 2.40625 7.421875 2.421875 C 7.449219 2.441406 7.480469 2.453125 7.511719 2.464844 C 7.511719 2.28125 7.511719 2.109375 7.511719 1.933594 C 7.511719 1.921875 7.511719 1.914062 7.507812 1.902344 C 7.507812 1.902344 7.507812 1.898438 7.507812 1.898438 C 7.503906 1.898438 7.5 1.898438 7.496094 1.898438 C 7.414062 2.035156 7.332031 2.175781 7.242188 2.320312 Z M 7.242188 2.320312 "/>
<path style=" stroke:none;fill-rule:nonzero;fill:rgb(96.078431%,96.078431%,96.078431%);fill-opacity:1;" d="M 7.609375 0 C 7.613281 0.0234375 7.613281 0.0351562 7.613281 0.046875 C 7.613281 0.324219 7.613281 0.597656 7.613281 0.871094 C 7.617188 0.898438 7.601562 0.925781 7.578125 0.933594 C 7.503906 0.972656 7.433594 1.015625 7.359375 1.054688 C 7.34375 1.066406 7.320312 1.066406 7.300781 1.054688 C 7.046875 0.914062 6.796875 0.773438 6.542969 0.636719 C 6.53125 0.628906 6.523438 0.621094 6.507812 0.613281 Z M 7.34375 0.964844 C 7.335938 0.925781 7.117188 0.558594 7.089844 0.535156 C 7.03125 0.558594 6.855469 0.660156 6.835938 0.683594 Z M 7.25 0.445312 C 7.261719 0.488281 7.484375 0.855469 7.511719 0.878906 C 7.511719 0.683594 7.511719 0.496094 7.511719 0.300781 C 7.417969 0.351562 7.332031 0.398438 7.25 0.445312 Z M 7.25 0.445312 "/>
</g>
</svg>
