<?xml version="1.0" encoding="UTF-8"?>
<svg xmlns="http://www.w3.org/2000/svg" xmlns:xlink="http://www.w3.org/1999/xlink" width="498px" height="500px" viewBox="0 0 498 499" version="1.1">
<defs>
<clipPath id="clip1">
  <path d="M 377 371.355469 L 497.492188 371.355469 L 497.492188 453.960938 L 377 453.960938 Z M 377 371.355469 "/>
</clipPath>
<clipPath id="clip2">
  <path d="M 59.175781 0.488281 L 724.648438 0.488281 C 757.046875 0.488281 783.308594 30.066406 783.308594 66.554688 L 783.308594 432.289062 C 783.308594 468.777344 757.042969 498.355469 724.644531 498.355469 L 59.175781 498.355469 C 26.773438 498.355469 0.507812 468.777344 0.507812 432.292969 L 0.507812 66.554688 C 0.507812 30.066406 26.773438 0.488281 59.175781 0.488281 Z M 59.175781 0.488281 "/>
</clipPath>
<clipPath id="clip3">
  <path d="M 493.046875 593.421875 L 14.929688 593.421875 C -3.4375 593.421875 -18.332031 576.65625 -18.332031 555.96875 L -18.332031 -51.085938 C -18.332031 -71.773438 -3.4375 -88.539062 14.929688 -88.539062 L 493.046875 -88.539062 C 511.417969 -88.539062 526.308594 -71.773438 526.308594 -51.085938 L 526.308594 555.96875 C 526.308594 576.65625 511.417969 593.421875 493.046875 593.421875 Z M 493.046875 593.421875 "/>
</clipPath>
<clipPath id="clip4">
  <path d="M 0.507812 453.503906 L 265.664062 453.503906 L 265.664062 498.351562 L 0.507812 498.351562 Z M 0.507812 453.503906 "/>
</clipPath>
<clipPath id="clip5">
  <path d="M 59.175781 0.488281 L 724.648438 0.488281 C 757.046875 0.488281 783.308594 30.066406 783.308594 66.554688 L 783.308594 432.289062 C 783.308594 468.777344 757.042969 498.355469 724.644531 498.355469 L 59.175781 498.355469 C 26.773438 498.355469 0.507812 468.777344 0.507812 432.292969 L 0.507812 66.554688 C 0.507812 30.066406 26.773438 0.488281 59.175781 0.488281 Z M 59.175781 0.488281 "/>
</clipPath>
<clipPath id="clip6">
  <path d="M 493.046875 593.421875 L 14.929688 593.421875 C -3.4375 593.421875 -18.332031 576.65625 -18.332031 555.96875 L -18.332031 -51.085938 C -18.332031 -71.773438 -3.4375 -88.539062 14.929688 -88.539062 L 493.046875 -88.539062 C 511.417969 -88.539062 526.308594 -71.773438 526.308594 -51.085938 L 526.308594 555.96875 C 526.308594 576.65625 511.417969 593.421875 493.046875 593.421875 Z M 493.046875 593.421875 "/>
</clipPath>
<clipPath id="clip7">
  <path d="M 37.253906 490.050781 L 142.792969 490.050781 L 142.792969 498.351562 L 37.253906 498.351562 Z M 37.253906 490.050781 "/>
</clipPath>
<clipPath id="clip8">
  <path d="M 59.175781 0.488281 L 724.648438 0.488281 C 757.046875 0.488281 783.308594 30.066406 783.308594 66.554688 L 783.308594 432.289062 C 783.308594 468.777344 757.042969 498.355469 724.644531 498.355469 L 59.175781 498.355469 C 26.773438 498.355469 0.507812 468.777344 0.507812 432.292969 L 0.507812 66.554688 C 0.507812 30.066406 26.773438 0.488281 59.175781 0.488281 Z M 59.175781 0.488281 "/>
</clipPath>
<clipPath id="clip9">
  <path d="M 493.046875 593.421875 L 14.929688 593.421875 C -3.4375 593.421875 -18.332031 576.65625 -18.332031 555.96875 L -18.332031 -51.085938 C -18.332031 -71.773438 -3.4375 -88.539062 14.929688 -88.539062 L 493.046875 -88.539062 C 511.417969 -88.539062 526.308594 -71.773438 526.308594 -51.085938 L 526.308594 555.96875 C 526.308594 576.65625 511.417969 593.421875 493.046875 593.421875 Z M 493.046875 593.421875 "/>
</clipPath>
<clipPath id="clip10">
  <path d="M 136.761719 0.488281 L 258 0.488281 L 258 69.085938 L 136.761719 69.085938 Z M 136.761719 0.488281 "/>
</clipPath>
<clipPath id="clip11">
  <path d="M 59.175781 0.488281 L 724.648438 0.488281 C 757.046875 0.488281 783.308594 30.066406 783.308594 66.554688 L 783.308594 432.289062 C 783.308594 468.777344 757.042969 498.355469 724.644531 498.355469 L 59.175781 498.355469 C 26.773438 498.355469 0.507812 468.777344 0.507812 432.292969 L 0.507812 66.554688 C 0.507812 30.066406 26.773438 0.488281 59.175781 0.488281 Z M 59.175781 0.488281 "/>
</clipPath>
<clipPath id="clip12">
  <path d="M 493.046875 593.421875 L 14.929688 593.421875 C -3.4375 593.421875 -18.332031 576.65625 -18.332031 555.96875 L -18.332031 -51.085938 C -18.332031 -71.773438 -3.4375 -88.539062 14.929688 -88.539062 L 493.046875 -88.539062 C 511.417969 -88.539062 526.308594 -71.773438 526.308594 -51.085938 L 526.308594 555.96875 C 526.308594 576.65625 511.417969 593.421875 493.046875 593.421875 Z M 493.046875 593.421875 "/>
</clipPath>
<clipPath id="clip13">
  <path d="M 136.761719 0.488281 L 165.671875 0.488281 L 165.671875 69.367188 L 136.761719 69.367188 Z M 136.761719 0.488281 "/>
</clipPath>
<clipPath id="clip14">
  <path d="M 59.175781 0.488281 L 724.648438 0.488281 C 757.046875 0.488281 783.308594 30.066406 783.308594 66.554688 L 783.308594 432.289062 C 783.308594 468.777344 757.042969 498.355469 724.644531 498.355469 L 59.175781 498.355469 C 26.773438 498.355469 0.507812 468.777344 0.507812 432.292969 L 0.507812 66.554688 C 0.507812 30.066406 26.773438 0.488281 59.175781 0.488281 Z M 59.175781 0.488281 "/>
</clipPath>
<clipPath id="clip15">
  <path d="M 493.046875 593.421875 L 14.929688 593.421875 C -3.4375 593.421875 -18.332031 576.65625 -18.332031 555.96875 L -18.332031 -51.085938 C -18.332031 -71.773438 -3.4375 -88.539062 14.929688 -88.539062 L 493.046875 -88.539062 C 511.417969 -88.539062 526.308594 -71.773438 526.308594 -51.085938 L 526.308594 555.96875 C 526.308594 576.65625 511.417969 593.421875 493.046875 593.421875 Z M 493.046875 593.421875 "/>
</clipPath>
<clipPath id="clip16">
  <path d="M 203 0.488281 L 257.488281 0.488281 L 257.488281 28.679688 L 203 28.679688 Z M 203 0.488281 "/>
</clipPath>
<clipPath id="clip17">
  <path d="M 59.175781 0.488281 L 724.648438 0.488281 C 757.046875 0.488281 783.308594 30.066406 783.308594 66.554688 L 783.308594 432.289062 C 783.308594 468.777344 757.042969 498.355469 724.644531 498.355469 L 59.175781 498.355469 C 26.773438 498.355469 0.507812 468.777344 0.507812 432.292969 L 0.507812 66.554688 C 0.507812 30.066406 26.773438 0.488281 59.175781 0.488281 Z M 59.175781 0.488281 "/>
</clipPath>
<clipPath id="clip18">
  <path d="M 493.046875 593.421875 L 14.929688 593.421875 C -3.4375 593.421875 -18.332031 576.65625 -18.332031 555.96875 L -18.332031 -51.085938 C -18.332031 -71.773438 -3.4375 -88.539062 14.929688 -88.539062 L 493.046875 -88.539062 C 511.417969 -88.539062 526.308594 -71.773438 526.308594 -51.085938 L 526.308594 555.96875 C 526.308594 576.65625 511.417969 593.421875 493.046875 593.421875 Z M 493.046875 593.421875 "/>
</clipPath>
<clipPath id="clip19">
  <path d="M 116.011719 10.824219 L 250.886719 10.824219 L 250.886719 182.105469 L 116.011719 182.105469 Z M 116.011719 10.824219 "/>
</clipPath>
<clipPath id="clip20">
  <path d="M 59.175781 0.488281 L 724.648438 0.488281 C 757.046875 0.488281 783.308594 30.066406 783.308594 66.554688 L 783.308594 432.289062 C 783.308594 468.777344 757.042969 498.355469 724.644531 498.355469 L 59.175781 498.355469 C 26.773438 498.355469 0.507812 468.777344 0.507812 432.292969 L 0.507812 66.554688 C 0.507812 30.066406 26.773438 0.488281 59.175781 0.488281 Z M 59.175781 0.488281 "/>
</clipPath>
<clipPath id="clip21">
  <path d="M 493.046875 593.421875 L 14.929688 593.421875 C -3.4375 593.421875 -18.332031 576.65625 -18.332031 555.96875 L -18.332031 -51.085938 C -18.332031 -71.773438 -3.4375 -88.539062 14.929688 -88.539062 L 493.046875 -88.539062 C 511.417969 -88.539062 526.308594 -71.773438 526.308594 -51.085938 L 526.308594 555.96875 C 526.308594 576.65625 511.417969 593.421875 493.046875 593.421875 Z M 493.046875 593.421875 "/>
</clipPath>
<clipPath id="clip22">
  <path d="M 167.886719 74 L 210.769531 74 L 210.769531 130.621094 L 167.886719 130.621094 Z M 167.886719 74 "/>
</clipPath>
<clipPath id="clip23">
  <path d="M 59.175781 0.488281 L 724.648438 0.488281 C 757.046875 0.488281 783.308594 30.066406 783.308594 66.554688 L 783.308594 432.289062 C 783.308594 468.777344 757.042969 498.355469 724.644531 498.355469 L 59.175781 498.355469 C 26.773438 498.355469 0.507812 468.777344 0.507812 432.292969 L 0.507812 66.554688 C 0.507812 30.066406 26.773438 0.488281 59.175781 0.488281 Z M 59.175781 0.488281 "/>
</clipPath>
<clipPath id="clip24">
  <path d="M 493.046875 593.421875 L 14.929688 593.421875 C -3.4375 593.421875 -18.332031 576.65625 -18.332031 555.96875 L -18.332031 -51.085938 C -18.332031 -71.773438 -3.4375 -88.539062 14.929688 -88.539062 L 493.046875 -88.539062 C 511.417969 -88.539062 526.308594 -71.773438 526.308594 -51.085938 L 526.308594 555.96875 C 526.308594 576.65625 511.417969 593.421875 493.046875 593.421875 Z M 493.046875 593.421875 "/>
</clipPath>
<clipPath id="clip25">
  <path d="M 231.355469 36.199219 L 250.523438 36.199219 L 250.523438 119.285156 L 231.355469 119.285156 Z M 231.355469 36.199219 "/>
</clipPath>
<clipPath id="clip26">
  <path d="M 59.175781 0.488281 L 724.648438 0.488281 C 757.046875 0.488281 783.308594 30.066406 783.308594 66.554688 L 783.308594 432.289062 C 783.308594 468.777344 757.042969 498.355469 724.644531 498.355469 L 59.175781 498.355469 C 26.773438 498.355469 0.507812 468.777344 0.507812 432.292969 L 0.507812 66.554688 C 0.507812 30.066406 26.773438 0.488281 59.175781 0.488281 Z M 59.175781 0.488281 "/>
</clipPath>
<clipPath id="clip27">
  <path d="M 493.046875 593.421875 L 14.929688 593.421875 C -3.4375 593.421875 -18.332031 576.65625 -18.332031 555.96875 L -18.332031 -51.085938 C -18.332031 -71.773438 -3.4375 -88.539062 14.929688 -88.539062 L 493.046875 -88.539062 C 511.417969 -88.539062 526.308594 -71.773438 526.308594 -51.085938 L 526.308594 555.96875 C 526.308594 576.65625 511.417969 593.421875 493.046875 593.421875 Z M 493.046875 593.421875 "/>
</clipPath>
<clipPath id="clip28">
  <path d="M 162.226562 22.742188 L 251.542969 22.742188 L 251.542969 123.585938 L 162.226562 123.585938 Z M 162.226562 22.742188 "/>
</clipPath>
<clipPath id="clip29">
  <path d="M 59.175781 0.488281 L 724.648438 0.488281 C 757.046875 0.488281 783.308594 30.066406 783.308594 66.554688 L 783.308594 432.289062 C 783.308594 468.777344 757.042969 498.355469 724.644531 498.355469 L 59.175781 498.355469 C 26.773438 498.355469 0.507812 468.777344 0.507812 432.292969 L 0.507812 66.554688 C 0.507812 30.066406 26.773438 0.488281 59.175781 0.488281 Z M 59.175781 0.488281 "/>
</clipPath>
<clipPath id="clip30">
  <path d="M 493.046875 593.421875 L 14.929688 593.421875 C -3.4375 593.421875 -18.332031 576.65625 -18.332031 555.96875 L -18.332031 -51.085938 C -18.332031 -71.773438 -3.4375 -88.539062 14.929688 -88.539062 L 493.046875 -88.539062 C 511.417969 -88.539062 526.308594 -71.773438 526.308594 -51.085938 L 526.308594 555.96875 C 526.308594 576.65625 511.417969 593.421875 493.046875 593.421875 Z M 493.046875 593.421875 "/>
</clipPath>
<clipPath id="clip31">
  <path d="M 12.742188 85.257812 L 392.808594 85.257812 L 392.808594 497.367188 L 12.742188 497.367188 Z M 12.742188 85.257812 "/>
</clipPath>
<clipPath id="clip32">
  <path d="M 59.175781 0.488281 L 724.648438 0.488281 C 757.046875 0.488281 783.308594 30.066406 783.308594 66.554688 L 783.308594 432.289062 C 783.308594 468.777344 757.042969 498.355469 724.644531 498.355469 L 59.175781 498.355469 C 26.773438 498.355469 0.507812 468.777344 0.507812 432.292969 L 0.507812 66.554688 C 0.507812 30.066406 26.773438 0.488281 59.175781 0.488281 Z M 59.175781 0.488281 "/>
</clipPath>
<clipPath id="clip33">
  <path d="M 493.046875 593.421875 L 14.929688 593.421875 C -3.4375 593.421875 -18.332031 576.65625 -18.332031 555.96875 L -18.332031 -51.085938 C -18.332031 -71.773438 -3.4375 -88.539062 14.929688 -88.539062 L 493.046875 -88.539062 C 511.417969 -88.539062 526.308594 -71.773438 526.308594 -51.085938 L 526.308594 555.96875 C 526.308594 576.65625 511.417969 593.421875 493.046875 593.421875 Z M 493.046875 593.421875 "/>
</clipPath>
<clipPath id="clip34">
  <path d="M 19 303.804688 L 152.929688 303.804688 L 152.929688 434.546875 L 19 434.546875 Z M 19 303.804688 "/>
</clipPath>
<clipPath id="clip35">
  <path d="M 59.175781 0.488281 L 724.648438 0.488281 C 757.046875 0.488281 783.308594 30.066406 783.308594 66.554688 L 783.308594 432.289062 C 783.308594 468.777344 757.042969 498.355469 724.644531 498.355469 L 59.175781 498.355469 C 26.773438 498.355469 0.507812 468.777344 0.507812 432.292969 L 0.507812 66.554688 C 0.507812 30.066406 26.773438 0.488281 59.175781 0.488281 Z M 59.175781 0.488281 "/>
</clipPath>
<clipPath id="clip36">
  <path d="M 493.046875 593.421875 L 14.929688 593.421875 C -3.4375 593.421875 -18.332031 576.65625 -18.332031 555.96875 L -18.332031 -51.085938 C -18.332031 -71.773438 -3.4375 -88.539062 14.929688 -88.539062 L 493.046875 -88.539062 C 511.417969 -88.539062 526.308594 -71.773438 526.308594 -51.085938 L 526.308594 555.96875 C 526.308594 576.65625 511.417969 593.421875 493.046875 593.421875 Z M 493.046875 593.421875 "/>
</clipPath>
<clipPath id="clip37">
  <path d="M 76 113.25 L 146.859375 113.25 L 146.859375 142.125 L 76 142.125 Z M 76 113.25 "/>
</clipPath>
<clipPath id="clip38">
  <path d="M 59.175781 0.488281 L 724.648438 0.488281 C 757.046875 0.488281 783.308594 30.066406 783.308594 66.554688 L 783.308594 432.289062 C 783.308594 468.777344 757.042969 498.355469 724.644531 498.355469 L 59.175781 498.355469 C 26.773438 498.355469 0.507812 468.777344 0.507812 432.292969 L 0.507812 66.554688 C 0.507812 30.066406 26.773438 0.488281 59.175781 0.488281 Z M 59.175781 0.488281 "/>
</clipPath>
<clipPath id="clip39">
  <path d="M 493.046875 593.421875 L 14.929688 593.421875 C -3.4375 593.421875 -18.332031 576.65625 -18.332031 555.96875 L -18.332031 -51.085938 C -18.332031 -71.773438 -3.4375 -88.539062 14.929688 -88.539062 L 493.046875 -88.539062 C 511.417969 -88.539062 526.308594 -71.773438 526.308594 -51.085938 L 526.308594 555.96875 C 526.308594 576.65625 511.417969 593.421875 493.046875 593.421875 Z M 493.046875 593.421875 "/>
</clipPath>
<clipPath id="clip40">
  <path d="M 221.050781 230.707031 L 392.808594 230.707031 L 392.808594 447.632812 L 221.050781 447.632812 Z M 221.050781 230.707031 "/>
</clipPath>
<clipPath id="clip41">
  <path d="M 59.175781 0.488281 L 724.648438 0.488281 C 757.046875 0.488281 783.308594 30.066406 783.308594 66.554688 L 783.308594 432.289062 C 783.308594 468.777344 757.042969 498.355469 724.644531 498.355469 L 59.175781 498.355469 C 26.773438 498.355469 0.507812 468.777344 0.507812 432.292969 L 0.507812 66.554688 C 0.507812 30.066406 26.773438 0.488281 59.175781 0.488281 Z M 59.175781 0.488281 "/>
</clipPath>
<clipPath id="clip42">
  <path d="M 493.046875 593.421875 L 14.929688 593.421875 C -3.4375 593.421875 -18.332031 576.65625 -18.332031 555.96875 L -18.332031 -51.085938 C -18.332031 -71.773438 -3.4375 -88.539062 14.929688 -88.539062 L 493.046875 -88.539062 C 511.417969 -88.539062 526.308594 -71.773438 526.308594 -51.085938 L 526.308594 555.96875 C 526.308594 576.65625 511.417969 593.421875 493.046875 593.421875 Z M 493.046875 593.421875 "/>
</clipPath>
<clipPath id="clip43">
  <path d="M 188.636719 154.59375 L 209.789062 154.59375 L 209.789062 167 L 188.636719 167 Z M 188.636719 154.59375 "/>
</clipPath>
<clipPath id="clip44">
  <path d="M 59.175781 0.488281 L 724.648438 0.488281 C 757.046875 0.488281 783.308594 30.066406 783.308594 66.554688 L 783.308594 432.289062 C 783.308594 468.777344 757.042969 498.355469 724.644531 498.355469 L 59.175781 498.355469 C 26.773438 498.355469 0.507812 468.777344 0.507812 432.292969 L 0.507812 66.554688 C 0.507812 30.066406 26.773438 0.488281 59.175781 0.488281 Z M 59.175781 0.488281 "/>
</clipPath>
<clipPath id="clip45">
  <path d="M 493.046875 593.421875 L 14.929688 593.421875 C -3.4375 593.421875 -18.332031 576.65625 -18.332031 555.96875 L -18.332031 -51.085938 C -18.332031 -71.773438 -3.4375 -88.539062 14.929688 -88.539062 L 493.046875 -88.539062 C 511.417969 -88.539062 526.308594 -71.773438 526.308594 -51.085938 L 526.308594 555.96875 C 526.308594 576.65625 511.417969 593.421875 493.046875 593.421875 Z M 493.046875 593.421875 "/>
</clipPath>
<clipPath id="clip46">
  <path d="M 169.21875 157 L 188.53125 157 L 188.53125 337.453125 L 169.21875 337.453125 Z M 169.21875 157 "/>
</clipPath>
<clipPath id="clip47">
  <path d="M 59.175781 0.488281 L 724.648438 0.488281 C 757.046875 0.488281 783.308594 30.066406 783.308594 66.554688 L 783.308594 432.289062 C 783.308594 468.777344 757.042969 498.355469 724.644531 498.355469 L 59.175781 498.355469 C 26.773438 498.355469 0.507812 468.777344 0.507812 432.292969 L 0.507812 66.554688 C 0.507812 30.066406 26.773438 0.488281 59.175781 0.488281 Z M 59.175781 0.488281 "/>
</clipPath>
<clipPath id="clip48">
  <path d="M 493.046875 593.421875 L 14.929688 593.421875 C -3.4375 593.421875 -18.332031 576.65625 -18.332031 555.96875 L -18.332031 -51.085938 C -18.332031 -71.773438 -3.4375 -88.539062 14.929688 -88.539062 L 493.046875 -88.539062 C 511.417969 -88.539062 526.308594 -71.773438 526.308594 -51.085938 L 526.308594 555.96875 C 526.308594 576.65625 511.417969 593.421875 493.046875 593.421875 Z M 493.046875 593.421875 "/>
</clipPath>
<clipPath id="clip49">
  <path d="M 37.097656 119 L 252.554688 119 L 252.554688 396.753906 L 37.097656 396.753906 Z M 37.097656 119 "/>
</clipPath>
<clipPath id="clip50">
  <path d="M 59.175781 0.488281 L 724.648438 0.488281 C 757.046875 0.488281 783.308594 30.066406 783.308594 66.554688 L 783.308594 432.289062 C 783.308594 468.777344 757.042969 498.355469 724.644531 498.355469 L 59.175781 498.355469 C 26.773438 498.355469 0.507812 468.777344 0.507812 432.292969 L 0.507812 66.554688 C 0.507812 30.066406 26.773438 0.488281 59.175781 0.488281 Z M 59.175781 0.488281 "/>
</clipPath>
<clipPath id="clip51">
  <path d="M 493.046875 593.421875 L 14.929688 593.421875 C -3.4375 593.421875 -18.332031 576.65625 -18.332031 555.96875 L -18.332031 -51.085938 C -18.332031 -71.773438 -3.4375 -88.539062 14.929688 -88.539062 L 493.046875 -88.539062 C 511.417969 -88.539062 526.308594 -71.773438 526.308594 -51.085938 L 526.308594 555.96875 C 526.308594 576.65625 511.417969 593.421875 493.046875 593.421875 Z M 493.046875 593.421875 "/>
</clipPath>
<clipPath id="clip52">
  <path d="M 86 265.644531 L 231 265.644531 L 231 399.136719 L 86 399.136719 Z M 86 265.644531 "/>
</clipPath>
<clipPath id="clip53">
  <path d="M 59.175781 0.488281 L 724.648438 0.488281 C 757.046875 0.488281 783.308594 30.066406 783.308594 66.554688 L 783.308594 432.289062 C 783.308594 468.777344 757.042969 498.355469 724.644531 498.355469 L 59.175781 498.355469 C 26.773438 498.355469 0.507812 468.777344 0.507812 432.292969 L 0.507812 66.554688 C 0.507812 30.066406 26.773438 0.488281 59.175781 0.488281 Z M 59.175781 0.488281 "/>
</clipPath>
<clipPath id="clip54">
  <path d="M 493.046875 593.421875 L 14.929688 593.421875 C -3.4375 593.421875 -18.332031 576.65625 -18.332031 555.96875 L -18.332031 -51.085938 C -18.332031 -71.773438 -3.4375 -88.539062 14.929688 -88.539062 L 493.046875 -88.539062 C 511.417969 -88.539062 526.308594 -71.773438 526.308594 -51.085938 L 526.308594 555.96875 C 526.308594 576.65625 511.417969 593.421875 493.046875 593.421875 Z M 493.046875 593.421875 "/>
</clipPath>
<clipPath id="clip55">
  <path d="M 23.527344 388 L 227.148438 388 L 227.148438 498.351562 L 23.527344 498.351562 Z M 23.527344 388 "/>
</clipPath>
<clipPath id="clip56">
  <path d="M 59.175781 0.488281 L 724.648438 0.488281 C 757.046875 0.488281 783.308594 30.066406 783.308594 66.554688 L 783.308594 432.289062 C 783.308594 468.777344 757.042969 498.355469 724.644531 498.355469 L 59.175781 498.355469 C 26.773438 498.355469 0.507812 468.777344 0.507812 432.292969 L 0.507812 66.554688 C 0.507812 30.066406 26.773438 0.488281 59.175781 0.488281 Z M 59.175781 0.488281 "/>
</clipPath>
<clipPath id="clip57">
  <path d="M 493.046875 593.421875 L 14.929688 593.421875 C -3.4375 593.421875 -18.332031 576.65625 -18.332031 555.96875 L -18.332031 -51.085938 C -18.332031 -71.773438 -3.4375 -88.539062 14.929688 -88.539062 L 493.046875 -88.539062 C 511.417969 -88.539062 526.308594 -71.773438 526.308594 -51.085938 L 526.308594 555.96875 C 526.308594 576.65625 511.417969 593.421875 493.046875 593.421875 Z M 493.046875 593.421875 "/>
</clipPath>
<clipPath id="clip58">
  <path d="M 24 388 L 225.417969 388 L 225.417969 498.351562 L 24 498.351562 Z M 24 388 "/>
</clipPath>
<clipPath id="clip59">
  <path d="M 59.175781 0.488281 L 724.648438 0.488281 C 757.046875 0.488281 783.308594 30.066406 783.308594 66.554688 L 783.308594 432.289062 C 783.308594 468.777344 757.042969 498.355469 724.644531 498.355469 L 59.175781 498.355469 C 26.773438 498.355469 0.507812 468.777344 0.507812 432.292969 L 0.507812 66.554688 C 0.507812 30.066406 26.773438 0.488281 59.175781 0.488281 Z M 59.175781 0.488281 "/>
</clipPath>
<clipPath id="clip60">
  <path d="M 493.046875 593.421875 L 14.929688 593.421875 C -3.4375 593.421875 -18.332031 576.65625 -18.332031 555.96875 L -18.332031 -51.085938 C -18.332031 -71.773438 -3.4375 -88.539062 14.929688 -88.539062 L 493.046875 -88.539062 C 511.417969 -88.539062 526.308594 -71.773438 526.308594 -51.085938 L 526.308594 555.96875 C 526.308594 576.65625 511.417969 593.421875 493.046875 593.421875 Z M 493.046875 593.421875 "/>
</clipPath>
<clipPath id="clip61">
  <path d="M 156.851562 381.097656 L 485.257812 381.097656 L 485.257812 434.546875 L 156.851562 434.546875 Z M 156.851562 381.097656 "/>
</clipPath>
<clipPath id="clip62">
  <path d="M 59.175781 0.488281 L 724.648438 0.488281 C 757.046875 0.488281 783.308594 30.066406 783.308594 66.554688 L 783.308594 432.289062 C 783.308594 468.777344 757.042969 498.355469 724.644531 498.355469 L 59.175781 498.355469 C 26.773438 498.355469 0.507812 468.777344 0.507812 432.292969 L 0.507812 66.554688 C 0.507812 30.066406 26.773438 0.488281 59.175781 0.488281 Z M 59.175781 0.488281 "/>
</clipPath>
<clipPath id="clip63">
  <path d="M 493.046875 593.421875 L 14.929688 593.421875 C -3.4375 593.421875 -18.332031 576.65625 -18.332031 555.96875 L -18.332031 -51.085938 C -18.332031 -71.773438 -3.4375 -88.539062 14.929688 -88.539062 L 493.046875 -88.539062 C 511.417969 -88.539062 526.308594 -71.773438 526.308594 -51.085938 L 526.308594 555.96875 C 526.308594 576.65625 511.417969 593.421875 493.046875 593.421875 Z M 493.046875 593.421875 "/>
</clipPath>
<clipPath id="clip64">
  <path d="M 156.851562 381.097656 L 236.257812 381.097656 L 236.257812 419.257812 L 156.851562 419.257812 Z M 156.851562 381.097656 "/>
</clipPath>
<clipPath id="clip65">
  <path d="M 59.175781 0.488281 L 724.648438 0.488281 C 757.046875 0.488281 783.308594 30.066406 783.308594 66.554688 L 783.308594 432.289062 C 783.308594 468.777344 757.042969 498.355469 724.644531 498.355469 L 59.175781 498.355469 C 26.773438 498.355469 0.507812 468.777344 0.507812 432.292969 L 0.507812 66.554688 C 0.507812 30.066406 26.773438 0.488281 59.175781 0.488281 Z M 59.175781 0.488281 "/>
</clipPath>
<clipPath id="clip66">
  <path d="M 493.046875 593.421875 L 14.929688 593.421875 C -3.4375 593.421875 -18.332031 576.65625 -18.332031 555.96875 L -18.332031 -51.085938 C -18.332031 -71.773438 -3.4375 -88.539062 14.929688 -88.539062 L 493.046875 -88.539062 C 511.417969 -88.539062 526.308594 -71.773438 526.308594 -51.085938 L 526.308594 555.96875 C 526.308594 576.65625 511.417969 593.421875 493.046875 593.421875 Z M 493.046875 593.421875 "/>
</clipPath>
<clipPath id="clip67">
  <path d="M 235.28125 411.121094 L 485.257812 411.121094 L 485.257812 442.351562 L 235.28125 442.351562 Z M 235.28125 411.121094 "/>
</clipPath>
<clipPath id="clip68">
  <path d="M 59.175781 0.488281 L 724.648438 0.488281 C 757.046875 0.488281 783.308594 30.066406 783.308594 66.554688 L 783.308594 432.289062 C 783.308594 468.777344 757.042969 498.355469 724.644531 498.355469 L 59.175781 498.355469 C 26.773438 498.355469 0.507812 468.777344 0.507812 432.292969 L 0.507812 66.554688 C 0.507812 30.066406 26.773438 0.488281 59.175781 0.488281 Z M 59.175781 0.488281 "/>
</clipPath>
<clipPath id="clip69">
  <path d="M 493.046875 593.421875 L 14.929688 593.421875 C -3.4375 593.421875 -18.332031 576.65625 -18.332031 555.96875 L -18.332031 -51.085938 C -18.332031 -71.773438 -3.4375 -88.539062 14.929688 -88.539062 L 493.046875 -88.539062 C 511.417969 -88.539062 526.308594 -71.773438 526.308594 -51.085938 L 526.308594 555.96875 C 526.308594 576.65625 511.417969 593.421875 493.046875 593.421875 Z M 493.046875 593.421875 "/>
</clipPath>
<clipPath id="clip70">
  <path d="M 196.660156 397.847656 L 225.117188 397.847656 L 225.117188 437.429688 L 196.660156 437.429688 Z M 196.660156 397.847656 "/>
</clipPath>
<clipPath id="clip71">
  <path d="M 59.175781 0.488281 L 724.648438 0.488281 C 757.046875 0.488281 783.308594 30.066406 783.308594 66.554688 L 783.308594 432.289062 C 783.308594 468.777344 757.042969 498.355469 724.644531 498.355469 L 59.175781 498.355469 C 26.773438 498.355469 0.507812 468.777344 0.507812 432.292969 L 0.507812 66.554688 C 0.507812 30.066406 26.773438 0.488281 59.175781 0.488281 Z M 59.175781 0.488281 "/>
</clipPath>
<clipPath id="clip72">
  <path d="M 493.046875 593.421875 L 14.929688 593.421875 C -3.4375 593.421875 -18.332031 576.65625 -18.332031 555.96875 L -18.332031 -51.085938 C -18.332031 -71.773438 -3.4375 -88.539062 14.929688 -88.539062 L 493.046875 -88.539062 C 511.417969 -88.539062 526.308594 -71.773438 526.308594 -51.085938 L 526.308594 555.96875 C 526.308594 576.65625 511.417969 593.421875 493.046875 593.421875 Z M 493.046875 593.421875 "/>
</clipPath>
<clipPath id="clip73">
  <path d="M 122.464844 108.550781 L 152.796875 108.550781 L 152.796875 147 L 122.464844 147 Z M 122.464844 108.550781 "/>
</clipPath>
<clipPath id="clip74">
  <path d="M 59.175781 0.488281 L 724.648438 0.488281 C 757.046875 0.488281 783.308594 30.066406 783.308594 66.554688 L 783.308594 432.289062 C 783.308594 468.777344 757.042969 498.355469 724.644531 498.355469 L 59.175781 498.355469 C 26.773438 498.355469 0.507812 468.777344 0.507812 432.292969 L 0.507812 66.554688 C 0.507812 30.066406 26.773438 0.488281 59.175781 0.488281 Z M 59.175781 0.488281 "/>
</clipPath>
<clipPath id="clip75">
  <path d="M 493.046875 593.421875 L 14.929688 593.421875 C -3.4375 593.421875 -18.332031 576.65625 -18.332031 555.96875 L -18.332031 -51.085938 C -18.332031 -71.773438 -3.4375 -88.539062 14.929688 -88.539062 L 493.046875 -88.539062 C 511.417969 -88.539062 526.308594 -71.773438 526.308594 -51.085938 L 526.308594 555.96875 C 526.308594 576.65625 511.417969 593.421875 493.046875 593.421875 Z M 493.046875 593.421875 "/>
</clipPath>
<clipPath id="clip76">
  <path d="M 145.25 134.535156 L 212.726562 134.535156 L 212.726562 177.449219 L 145.25 177.449219 Z M 145.25 134.535156 "/>
</clipPath>
<clipPath id="clip77">
  <path d="M 59.175781 0.488281 L 724.648438 0.488281 C 757.046875 0.488281 783.308594 30.066406 783.308594 66.554688 L 783.308594 432.289062 C 783.308594 468.777344 757.042969 498.355469 724.644531 498.355469 L 59.175781 498.355469 C 26.773438 498.355469 0.507812 468.777344 0.507812 432.292969 L 0.507812 66.554688 C 0.507812 30.066406 26.773438 0.488281 59.175781 0.488281 Z M 59.175781 0.488281 "/>
</clipPath>
<clipPath id="clip78">
  <path d="M 493.046875 593.421875 L 14.929688 593.421875 C -3.4375 593.421875 -18.332031 576.65625 -18.332031 555.96875 L -18.332031 -51.085938 C -18.332031 -71.773438 -3.4375 -88.539062 14.929688 -88.539062 L 493.046875 -88.539062 C 511.417969 -88.539062 526.308594 -71.773438 526.308594 -51.085938 L 526.308594 555.96875 C 526.308594 576.65625 511.417969 593.421875 493.046875 593.421875 Z M 493.046875 593.421875 "/>
</clipPath>
<clipPath id="clip79">
  <path d="M 188 158.121094 L 204.671875 158.121094 L 204.671875 177 L 188 177 Z M 188 158.121094 "/>
</clipPath>
<clipPath id="clip80">
  <path d="M 59.175781 0.488281 L 724.648438 0.488281 C 757.046875 0.488281 783.308594 30.066406 783.308594 66.554688 L 783.308594 432.289062 C 783.308594 468.777344 757.042969 498.355469 724.644531 498.355469 L 59.175781 498.355469 C 26.773438 498.355469 0.507812 468.777344 0.507812 432.292969 L 0.507812 66.554688 C 0.507812 30.066406 26.773438 0.488281 59.175781 0.488281 Z M 59.175781 0.488281 "/>
</clipPath>
<clipPath id="clip81">
  <path d="M 493.046875 593.421875 L 14.929688 593.421875 C -3.4375 593.421875 -18.332031 576.65625 -18.332031 555.96875 L -18.332031 -51.085938 C -18.332031 -71.773438 -3.4375 -88.539062 14.929688 -88.539062 L 493.046875 -88.539062 C 511.417969 -88.539062 526.308594 -71.773438 526.308594 -51.085938 L 526.308594 555.96875 C 526.308594 576.65625 511.417969 593.421875 493.046875 593.421875 Z M 493.046875 593.421875 "/>
</clipPath>
<clipPath id="clip82">
  <path d="M 174 160.492188 L 188.21875 160.492188 L 188.21875 168.6875 L 174 168.6875 Z M 174 160.492188 "/>
</clipPath>
<clipPath id="clip83">
  <path d="M 59.175781 0.488281 L 724.648438 0.488281 C 757.046875 0.488281 783.308594 30.066406 783.308594 66.554688 L 783.308594 432.289062 C 783.308594 468.777344 757.042969 498.355469 724.644531 498.355469 L 59.175781 498.355469 C 26.773438 498.355469 0.507812 468.777344 0.507812 432.292969 L 0.507812 66.554688 C 0.507812 30.066406 26.773438 0.488281 59.175781 0.488281 Z M 59.175781 0.488281 "/>
</clipPath>
<clipPath id="clip84">
  <path d="M 493.046875 593.421875 L 14.929688 593.421875 C -3.4375 593.421875 -18.332031 576.65625 -18.332031 555.96875 L -18.332031 -51.085938 C -18.332031 -71.773438 -3.4375 -88.539062 14.929688 -88.539062 L 493.046875 -88.539062 C 511.417969 -88.539062 526.308594 -71.773438 526.308594 -51.085938 L 526.308594 555.96875 C 526.308594 576.65625 511.417969 593.421875 493.046875 593.421875 Z M 493.046875 593.421875 "/>
</clipPath>
<clipPath id="clip85">
  <path d="M 145.84375 150 L 172.265625 150 L 172.265625 165.789062 L 145.84375 165.789062 Z M 145.84375 150 "/>
</clipPath>
<clipPath id="clip86">
  <path d="M 59.175781 0.488281 L 724.648438 0.488281 C 757.046875 0.488281 783.308594 30.066406 783.308594 66.554688 L 783.308594 432.289062 C 783.308594 468.777344 757.042969 498.355469 724.644531 498.355469 L 59.175781 498.355469 C 26.773438 498.355469 0.507812 468.777344 0.507812 432.292969 L 0.507812 66.554688 C 0.507812 30.066406 26.773438 0.488281 59.175781 0.488281 Z M 59.175781 0.488281 "/>
</clipPath>
<clipPath id="clip87">
  <path d="M 493.046875 593.421875 L 14.929688 593.421875 C -3.4375 593.421875 -18.332031 576.65625 -18.332031 555.96875 L -18.332031 -51.085938 C -18.332031 -71.773438 -3.4375 -88.539062 14.929688 -88.539062 L 493.046875 -88.539062 C 511.417969 -88.539062 526.308594 -71.773438 526.308594 -51.085938 L 526.308594 555.96875 C 526.308594 576.65625 511.417969 593.421875 493.046875 593.421875 Z M 493.046875 593.421875 "/>
</clipPath>
<clipPath id="clip88">
  <path d="M 166.652344 318 L 179 318 L 179 332.882812 L 166.652344 332.882812 Z M 166.652344 318 "/>
</clipPath>
<clipPath id="clip89">
  <path d="M 59.175781 0.488281 L 724.648438 0.488281 C 757.046875 0.488281 783.308594 30.066406 783.308594 66.554688 L 783.308594 432.289062 C 783.308594 468.777344 757.042969 498.355469 724.644531 498.355469 L 59.175781 498.355469 C 26.773438 498.355469 0.507812 468.777344 0.507812 432.292969 L 0.507812 66.554688 C 0.507812 30.066406 26.773438 0.488281 59.175781 0.488281 Z M 59.175781 0.488281 "/>
</clipPath>
<clipPath id="clip90">
  <path d="M 493.046875 593.421875 L 14.929688 593.421875 C -3.4375 593.421875 -18.332031 576.65625 -18.332031 555.96875 L -18.332031 -51.085938 C -18.332031 -71.773438 -3.4375 -88.539062 14.929688 -88.539062 L 493.046875 -88.539062 C 511.417969 -88.539062 526.308594 -71.773438 526.308594 -51.085938 L 526.308594 555.96875 C 526.308594 576.65625 511.417969 593.421875 493.046875 593.421875 Z M 493.046875 593.421875 "/>
</clipPath>
<clipPath id="clip91">
  <path d="M 167.1875 318.480469 L 178.261719 318.480469 L 178.261719 323.371094 L 167.1875 323.371094 Z M 167.1875 318.480469 "/>
</clipPath>
<clipPath id="clip92">
  <path d="M 59.175781 0.488281 L 724.648438 0.488281 C 757.046875 0.488281 783.308594 30.066406 783.308594 66.554688 L 783.308594 432.289062 C 783.308594 468.777344 757.042969 498.355469 724.644531 498.355469 L 59.175781 498.355469 C 26.773438 498.355469 0.507812 468.777344 0.507812 432.292969 L 0.507812 66.554688 C 0.507812 30.066406 26.773438 0.488281 59.175781 0.488281 Z M 59.175781 0.488281 "/>
</clipPath>
<clipPath id="clip93">
  <path d="M 493.046875 593.421875 L 14.929688 593.421875 C -3.4375 593.421875 -18.332031 576.65625 -18.332031 555.96875 L -18.332031 -51.085938 C -18.332031 -71.773438 -3.4375 -88.539062 14.929688 -88.539062 L 493.046875 -88.539062 C 511.417969 -88.539062 526.308594 -71.773438 526.308594 -51.085938 L 526.308594 555.96875 C 526.308594 576.65625 511.417969 593.421875 493.046875 593.421875 Z M 493.046875 593.421875 "/>
</clipPath>
<clipPath id="clip94">
  <path d="M 166.652344 353 L 179 353 L 179 367.898438 L 166.652344 367.898438 Z M 166.652344 353 "/>
</clipPath>
<clipPath id="clip95">
  <path d="M 59.175781 0.488281 L 724.648438 0.488281 C 757.046875 0.488281 783.308594 30.066406 783.308594 66.554688 L 783.308594 432.289062 C 783.308594 468.777344 757.042969 498.355469 724.644531 498.355469 L 59.175781 498.355469 C 26.773438 498.355469 0.507812 468.777344 0.507812 432.292969 L 0.507812 66.554688 C 0.507812 30.066406 26.773438 0.488281 59.175781 0.488281 Z M 59.175781 0.488281 "/>
</clipPath>
<clipPath id="clip96">
  <path d="M 493.046875 593.421875 L 14.929688 593.421875 C -3.4375 593.421875 -18.332031 576.65625 -18.332031 555.96875 L -18.332031 -51.085938 C -18.332031 -71.773438 -3.4375 -88.539062 14.929688 -88.539062 L 493.046875 -88.539062 C 511.417969 -88.539062 526.308594 -71.773438 526.308594 -51.085938 L 526.308594 555.96875 C 526.308594 576.65625 511.417969 593.421875 493.046875 593.421875 Z M 493.046875 593.421875 "/>
</clipPath>
<clipPath id="clip97">
  <path d="M 163.167969 462.308594 L 175.320312 462.308594 L 175.320312 476.898438 L 163.167969 476.898438 Z M 163.167969 462.308594 "/>
</clipPath>
<clipPath id="clip98">
  <path d="M 59.175781 0.488281 L 724.648438 0.488281 C 757.046875 0.488281 783.308594 30.066406 783.308594 66.554688 L 783.308594 432.289062 C 783.308594 468.777344 757.042969 498.355469 724.644531 498.355469 L 59.175781 498.355469 C 26.773438 498.355469 0.507812 468.777344 0.507812 432.292969 L 0.507812 66.554688 C 0.507812 30.066406 26.773438 0.488281 59.175781 0.488281 Z M 59.175781 0.488281 "/>
</clipPath>
<clipPath id="clip99">
  <path d="M 493.046875 593.421875 L 14.929688 593.421875 C -3.4375 593.421875 -18.332031 576.65625 -18.332031 555.96875 L -18.332031 -51.085938 C -18.332031 -71.773438 -3.4375 -88.539062 14.929688 -88.539062 L 493.046875 -88.539062 C 511.417969 -88.539062 526.308594 -71.773438 526.308594 -51.085938 L 526.308594 555.96875 C 526.308594 576.65625 511.417969 593.421875 493.046875 593.421875 Z M 493.046875 593.421875 "/>
</clipPath>
<clipPath id="clip100">
  <path d="M 175.476562 427.097656 L 187.238281 427.097656 L 187.238281 498.351562 L 175.476562 498.351562 Z M 175.476562 427.097656 "/>
</clipPath>
<clipPath id="clip101">
  <path d="M 59.175781 0.488281 L 724.648438 0.488281 C 757.046875 0.488281 783.308594 30.066406 783.308594 66.554688 L 783.308594 432.289062 C 783.308594 468.777344 757.042969 498.355469 724.644531 498.355469 L 59.175781 498.355469 C 26.773438 498.355469 0.507812 468.777344 0.507812 432.292969 L 0.507812 66.554688 C 0.507812 30.066406 26.773438 0.488281 59.175781 0.488281 Z M 59.175781 0.488281 "/>
</clipPath>
<clipPath id="clip102">
  <path d="M 493.046875 593.421875 L 14.929688 593.421875 C -3.4375 593.421875 -18.332031 576.65625 -18.332031 555.96875 L -18.332031 -51.085938 C -18.332031 -71.773438 -3.4375 -88.539062 14.929688 -88.539062 L 493.046875 -88.539062 C 511.417969 -88.539062 526.308594 -71.773438 526.308594 -51.085938 L 526.308594 555.96875 C 526.308594 576.65625 511.417969 593.421875 493.046875 593.421875 Z M 493.046875 593.421875 "/>
</clipPath>
<clipPath id="clip103">
  <path d="M 143.363281 374.53125 L 202.757812 374.53125 L 202.757812 458.246094 L 143.363281 458.246094 Z M 143.363281 374.53125 "/>
</clipPath>
<clipPath id="clip104">
  <path d="M 59.175781 0.488281 L 724.648438 0.488281 C 757.046875 0.488281 783.308594 30.066406 783.308594 66.554688 L 783.308594 432.289062 C 783.308594 468.777344 757.042969 498.355469 724.644531 498.355469 L 59.175781 498.355469 C 26.773438 498.355469 0.507812 468.777344 0.507812 432.292969 L 0.507812 66.554688 C 0.507812 30.066406 26.773438 0.488281 59.175781 0.488281 Z M 59.175781 0.488281 "/>
</clipPath>
<clipPath id="clip105">
  <path d="M 493.046875 593.421875 L 14.929688 593.421875 C -3.4375 593.421875 -18.332031 576.65625 -18.332031 555.96875 L -18.332031 -51.085938 C -18.332031 -71.773438 -3.4375 -88.539062 14.929688 -88.539062 L 493.046875 -88.539062 C 511.417969 -88.539062 526.308594 -71.773438 526.308594 -51.085938 L 526.308594 555.96875 C 526.308594 576.65625 511.417969 593.421875 493.046875 593.421875 Z M 493.046875 593.421875 "/>
</clipPath>
<clipPath id="clip106">
  <path d="M 152.796875 429 L 160.34375 429 L 160.34375 437.429688 L 152.796875 437.429688 Z M 152.796875 429 "/>
</clipPath>
<clipPath id="clip107">
  <path d="M 59.175781 0.488281 L 724.648438 0.488281 C 757.046875 0.488281 783.308594 30.066406 783.308594 66.554688 L 783.308594 432.289062 C 783.308594 468.777344 757.042969 498.355469 724.644531 498.355469 L 59.175781 498.355469 C 26.773438 498.355469 0.507812 468.777344 0.507812 432.292969 L 0.507812 66.554688 C 0.507812 30.066406 26.773438 0.488281 59.175781 0.488281 Z M 59.175781 0.488281 "/>
</clipPath>
<clipPath id="clip108">
  <path d="M 493.046875 593.421875 L 14.929688 593.421875 C -3.4375 593.421875 -18.332031 576.65625 -18.332031 555.96875 L -18.332031 -51.085938 C -18.332031 -71.773438 -3.4375 -88.539062 14.929688 -88.539062 L 493.046875 -88.539062 C 511.417969 -88.539062 526.308594 -71.773438 526.308594 -51.085938 L 526.308594 555.96875 C 526.308594 576.65625 511.417969 593.421875 493.046875 593.421875 Z M 493.046875 593.421875 "/>
</clipPath>
<clipPath id="clip109">
  <path d="M 164.136719 177.585938 L 171.660156 177.585938 L 171.660156 186.390625 L 164.136719 186.390625 Z M 164.136719 177.585938 "/>
</clipPath>
<clipPath id="clip110">
  <path d="M 59.175781 0.488281 L 724.648438 0.488281 C 757.046875 0.488281 783.308594 30.066406 783.308594 66.554688 L 783.308594 432.289062 C 783.308594 468.777344 757.042969 498.355469 724.644531 498.355469 L 59.175781 498.355469 C 26.773438 498.355469 0.507812 468.777344 0.507812 432.292969 L 0.507812 66.554688 C 0.507812 30.066406 26.773438 0.488281 59.175781 0.488281 Z M 59.175781 0.488281 "/>
</clipPath>
<clipPath id="clip111">
  <path d="M 493.046875 593.421875 L 14.929688 593.421875 C -3.4375 593.421875 -18.332031 576.65625 -18.332031 555.96875 L -18.332031 -51.085938 C -18.332031 -71.773438 -3.4375 -88.539062 14.929688 -88.539062 L 493.046875 -88.539062 C 511.417969 -88.539062 526.308594 -71.773438 526.308594 -51.085938 L 526.308594 555.96875 C 526.308594 576.65625 511.417969 593.421875 493.046875 593.421875 Z M 493.046875 593.421875 "/>
</clipPath>
<clipPath id="clip112">
  <path d="M 160.34375 220 L 168 220 L 168 228.828125 L 160.34375 228.828125 Z M 160.34375 220 "/>
</clipPath>
<clipPath id="clip113">
  <path d="M 59.175781 0.488281 L 724.648438 0.488281 C 757.046875 0.488281 783.308594 30.066406 783.308594 66.554688 L 783.308594 432.289062 C 783.308594 468.777344 757.042969 498.355469 724.644531 498.355469 L 59.175781 498.355469 C 26.773438 498.355469 0.507812 468.777344 0.507812 432.292969 L 0.507812 66.554688 C 0.507812 30.066406 26.773438 0.488281 59.175781 0.488281 Z M 59.175781 0.488281 "/>
</clipPath>
<clipPath id="clip114">
  <path d="M 493.046875 593.421875 L 14.929688 593.421875 C -3.4375 593.421875 -18.332031 576.65625 -18.332031 555.96875 L -18.332031 -51.085938 C -18.332031 -71.773438 -3.4375 -88.539062 14.929688 -88.539062 L 493.046875 -88.539062 C 511.417969 -88.539062 526.308594 -71.773438 526.308594 -51.085938 L 526.308594 555.96875 C 526.308594 576.65625 511.417969 593.421875 493.046875 593.421875 Z M 493.046875 593.421875 "/>
</clipPath>
<clipPath id="clip115">
  <path d="M 158.039062 265.644531 L 166 265.644531 L 166 274.449219 L 158.039062 274.449219 Z M 158.039062 265.644531 "/>
</clipPath>
<clipPath id="clip116">
  <path d="M 59.175781 0.488281 L 724.648438 0.488281 C 757.046875 0.488281 783.308594 30.066406 783.308594 66.554688 L 783.308594 432.289062 C 783.308594 468.777344 757.042969 498.355469 724.644531 498.355469 L 59.175781 498.355469 C 26.773438 498.355469 0.507812 468.777344 0.507812 432.292969 L 0.507812 66.554688 C 0.507812 30.066406 26.773438 0.488281 59.175781 0.488281 Z M 59.175781 0.488281 "/>
</clipPath>
<clipPath id="clip117">
  <path d="M 493.046875 593.421875 L 14.929688 593.421875 C -3.4375 593.421875 -18.332031 576.65625 -18.332031 555.96875 L -18.332031 -51.085938 C -18.332031 -71.773438 -3.4375 -88.539062 14.929688 -88.539062 L 493.046875 -88.539062 C 511.417969 -88.539062 526.308594 -71.773438 526.308594 -51.085938 L 526.308594 555.96875 C 526.308594 576.65625 511.417969 593.421875 493.046875 593.421875 Z M 493.046875 593.421875 "/>
</clipPath>
<clipPath id="clip118">
  <path d="M 230.375 369.359375 L 422.515625 369.359375 L 422.515625 421.15625 L 230.375 421.15625 Z M 230.375 369.359375 "/>
</clipPath>
<clipPath id="clip119">
  <path d="M 59.175781 0.488281 L 724.648438 0.488281 C 757.046875 0.488281 783.308594 30.066406 783.308594 66.554688 L 783.308594 432.289062 C 783.308594 468.777344 757.042969 498.355469 724.644531 498.355469 L 59.175781 498.355469 C 26.773438 498.355469 0.507812 468.777344 0.507812 432.292969 L 0.507812 66.554688 C 0.507812 30.066406 26.773438 0.488281 59.175781 0.488281 Z M 59.175781 0.488281 "/>
</clipPath>
<clipPath id="clip120">
  <path d="M 493.046875 593.421875 L 14.929688 593.421875 C -3.4375 593.421875 -18.332031 576.65625 -18.332031 555.96875 L -18.332031 -51.085938 C -18.332031 -71.773438 -3.4375 -88.539062 14.929688 -88.539062 L 493.046875 -88.539062 C 511.417969 -88.539062 526.308594 -71.773438 526.308594 -51.085938 L 526.308594 555.96875 C 526.308594 576.65625 511.417969 593.421875 493.046875 593.421875 Z M 493.046875 593.421875 "/>
</clipPath>
<clipPath id="clip121">
  <path d="M 235.28125 371.355469 L 422.546875 371.355469 L 422.546875 419 L 235.28125 419 Z M 235.28125 371.355469 "/>
</clipPath>
<clipPath id="clip122">
  <path d="M 59.175781 0.488281 L 724.648438 0.488281 C 757.046875 0.488281 783.308594 30.066406 783.308594 66.554688 L 783.308594 432.289062 C 783.308594 468.777344 757.042969 498.355469 724.644531 498.355469 L 59.175781 498.355469 C 26.773438 498.355469 0.507812 468.777344 0.507812 432.292969 L 0.507812 66.554688 C 0.507812 30.066406 26.773438 0.488281 59.175781 0.488281 Z M 59.175781 0.488281 "/>
</clipPath>
<clipPath id="clip123">
  <path d="M 493.046875 593.421875 L 14.929688 593.421875 C -3.4375 593.421875 -18.332031 576.65625 -18.332031 555.96875 L -18.332031 -51.085938 C -18.332031 -71.773438 -3.4375 -88.539062 14.929688 -88.539062 L 493.046875 -88.539062 C 511.417969 -88.539062 526.308594 -71.773438 526.308594 -51.085938 L 526.308594 555.96875 C 526.308594 576.65625 511.417969 593.421875 493.046875 593.421875 Z M 493.046875 593.421875 "/>
</clipPath>
<clipPath id="clip124">
  <path d="M 249 313.078125 L 409.070312 313.078125 L 409.070312 413.386719 L 249 413.386719 Z M 249 313.078125 "/>
</clipPath>
<clipPath id="clip125">
  <path d="M 59.175781 0.488281 L 724.648438 0.488281 C 757.046875 0.488281 783.308594 30.066406 783.308594 66.554688 L 783.308594 432.289062 C 783.308594 468.777344 757.042969 498.355469 724.644531 498.355469 L 59.175781 498.355469 C 26.773438 498.355469 0.507812 468.777344 0.507812 432.292969 L 0.507812 66.554688 C 0.507812 30.066406 26.773438 0.488281 59.175781 0.488281 Z M 59.175781 0.488281 "/>
</clipPath>
<clipPath id="clip126">
  <path d="M 493.046875 593.421875 L 14.929688 593.421875 C -3.4375 593.421875 -18.332031 576.65625 -18.332031 555.96875 L -18.332031 -51.085938 C -18.332031 -71.773438 -3.4375 -88.539062 14.929688 -88.539062 L 493.046875 -88.539062 C 511.417969 -88.539062 526.308594 -71.773438 526.308594 -51.085938 L 526.308594 555.96875 C 526.308594 576.65625 511.417969 593.421875 493.046875 593.421875 Z M 493.046875 593.421875 "/>
</clipPath>
<clipPath id="clip127">
  <path d="M 258 318.097656 L 332.847656 318.097656 L 332.847656 405 L 258 405 Z M 258 318.097656 "/>
</clipPath>
<clipPath id="clip128">
  <path d="M 59.175781 0.488281 L 724.648438 0.488281 C 757.046875 0.488281 783.308594 30.066406 783.308594 66.554688 L 783.308594 432.289062 C 783.308594 468.777344 757.042969 498.355469 724.644531 498.355469 L 59.175781 498.355469 C 26.773438 498.355469 0.507812 468.777344 0.507812 432.292969 L 0.507812 66.554688 C 0.507812 30.066406 26.773438 0.488281 59.175781 0.488281 Z M 59.175781 0.488281 "/>
</clipPath>
<clipPath id="clip129">
  <path d="M 493.046875 593.421875 L 14.929688 593.421875 C -3.4375 593.421875 -18.332031 576.65625 -18.332031 555.96875 L -18.332031 -51.085938 C -18.332031 -71.773438 -3.4375 -88.539062 14.929688 -88.539062 L 493.046875 -88.539062 C 511.417969 -88.539062 526.308594 -71.773438 526.308594 -51.085938 L 526.308594 555.96875 C 526.308594 576.65625 511.417969 593.421875 493.046875 593.421875 Z M 493.046875 593.421875 "/>
</clipPath>
<clipPath id="clip130">
  <path d="M 328.226562 307.777344 L 344 307.777344 L 344 318 L 328.226562 318 Z M 328.226562 307.777344 "/>
</clipPath>
<clipPath id="clip131">
  <path d="M 59.175781 0.488281 L 724.648438 0.488281 C 757.046875 0.488281 783.308594 30.066406 783.308594 66.554688 L 783.308594 432.289062 C 783.308594 468.777344 757.042969 498.355469 724.644531 498.355469 L 59.175781 498.355469 C 26.773438 498.355469 0.507812 468.777344 0.507812 432.292969 L 0.507812 66.554688 C 0.507812 30.066406 26.773438 0.488281 59.175781 0.488281 Z M 59.175781 0.488281 "/>
</clipPath>
<clipPath id="clip132">
  <path d="M 493.046875 593.421875 L 14.929688 593.421875 C -3.4375 593.421875 -18.332031 576.65625 -18.332031 555.96875 L -18.332031 -51.085938 C -18.332031 -71.773438 -3.4375 -88.539062 14.929688 -88.539062 L 493.046875 -88.539062 C 511.417969 -88.539062 526.308594 -71.773438 526.308594 -51.085938 L 526.308594 555.96875 C 526.308594 576.65625 511.417969 593.421875 493.046875 593.421875 Z M 493.046875 593.421875 "/>
</clipPath>
<clipPath id="clip133">
  <path d="M 329 306 L 344 306 L 344 310.578125 L 329 310.578125 Z M 329 306 "/>
</clipPath>
<clipPath id="clip134">
  <path d="M 59.175781 0.488281 L 724.648438 0.488281 C 757.046875 0.488281 783.308594 30.066406 783.308594 66.554688 L 783.308594 432.289062 C 783.308594 468.777344 757.042969 498.355469 724.644531 498.355469 L 59.175781 498.355469 C 26.773438 498.355469 0.507812 468.777344 0.507812 432.292969 L 0.507812 66.554688 C 0.507812 30.066406 26.773438 0.488281 59.175781 0.488281 Z M 59.175781 0.488281 "/>
</clipPath>
<clipPath id="clip135">
  <path d="M 493.046875 593.421875 L 14.929688 593.421875 C -3.4375 593.421875 -18.332031 576.65625 -18.332031 555.96875 L -18.332031 -51.085938 C -18.332031 -71.773438 -3.4375 -88.539062 14.929688 -88.539062 L 493.046875 -88.539062 C 511.417969 -88.539062 526.308594 -71.773438 526.308594 -51.085938 L 526.308594 555.96875 C 526.308594 576.65625 511.417969 593.421875 493.046875 593.421875 Z M 493.046875 593.421875 "/>
</clipPath>
<clipPath id="clip136">
  <path d="M 271 323.75 L 317.601562 323.75 L 317.601562 378 L 271 378 Z M 271 323.75 "/>
</clipPath>
<clipPath id="clip137">
  <path d="M 59.175781 0.488281 L 724.648438 0.488281 C 757.046875 0.488281 783.308594 30.066406 783.308594 66.554688 L 783.308594 432.289062 C 783.308594 468.777344 757.042969 498.355469 724.644531 498.355469 L 59.175781 498.355469 C 26.773438 498.355469 0.507812 468.777344 0.507812 432.292969 L 0.507812 66.554688 C 0.507812 30.066406 26.773438 0.488281 59.175781 0.488281 Z M 59.175781 0.488281 "/>
</clipPath>
<clipPath id="clip138">
  <path d="M 493.046875 593.421875 L 14.929688 593.421875 C -3.4375 593.421875 -18.332031 576.65625 -18.332031 555.96875 L -18.332031 -51.085938 C -18.332031 -71.773438 -3.4375 -88.539062 14.929688 -88.539062 L 493.046875 -88.539062 C 511.417969 -88.539062 526.308594 -71.773438 526.308594 -51.085938 L 526.308594 555.96875 C 526.308594 576.65625 511.417969 593.421875 493.046875 593.421875 Z M 493.046875 593.421875 "/>
</clipPath>
<clipPath id="clip139">
  <path d="M 332.328125 299.300781 L 340.976562 299.300781 L 340.976562 309.640625 L 332.328125 309.640625 Z M 332.328125 299.300781 "/>
</clipPath>
<clipPath id="clip140">
  <path d="M 59.175781 0.488281 L 724.648438 0.488281 C 757.046875 0.488281 783.308594 30.066406 783.308594 66.554688 L 783.308594 432.289062 C 783.308594 468.777344 757.042969 498.355469 724.644531 498.355469 L 59.175781 498.355469 C 26.773438 498.355469 0.507812 468.777344 0.507812 432.292969 L 0.507812 66.554688 C 0.507812 30.066406 26.773438 0.488281 59.175781 0.488281 Z M 59.175781 0.488281 "/>
</clipPath>
<clipPath id="clip141">
  <path d="M 493.046875 593.421875 L 14.929688 593.421875 C -3.4375 593.421875 -18.332031 576.65625 -18.332031 555.96875 L -18.332031 -51.085938 C -18.332031 -71.773438 -3.4375 -88.539062 14.929688 -88.539062 L 493.046875 -88.539062 C 511.417969 -88.539062 526.308594 -71.773438 526.308594 -51.085938 L 526.308594 555.96875 C 526.308594 576.65625 511.417969 593.421875 493.046875 593.421875 Z M 493.046875 593.421875 "/>
</clipPath>
<clipPath id="clip142">
  <path d="M 336.246094 301.421875 L 339.960938 301.421875 L 339.960938 309.640625 L 336.246094 309.640625 Z M 336.246094 301.421875 "/>
</clipPath>
<clipPath id="clip143">
  <path d="M 59.175781 0.488281 L 724.648438 0.488281 C 757.046875 0.488281 783.308594 30.066406 783.308594 66.554688 L 783.308594 432.289062 C 783.308594 468.777344 757.042969 498.355469 724.644531 498.355469 L 59.175781 498.355469 C 26.773438 498.355469 0.507812 468.777344 0.507812 432.292969 L 0.507812 66.554688 C 0.507812 30.066406 26.773438 0.488281 59.175781 0.488281 Z M 59.175781 0.488281 "/>
</clipPath>
<clipPath id="clip144">
  <path d="M 493.046875 593.421875 L 14.929688 593.421875 C -3.4375 593.421875 -18.332031 576.65625 -18.332031 555.96875 L -18.332031 -51.085938 C -18.332031 -71.773438 -3.4375 -88.539062 14.929688 -88.539062 L 493.046875 -88.539062 C 511.417969 -88.539062 526.308594 -71.773438 526.308594 -51.085938 L 526.308594 555.96875 C 526.308594 576.65625 511.417969 593.421875 493.046875 593.421875 Z M 493.046875 593.421875 "/>
</clipPath>
<clipPath id="clip145">
  <path d="M 326 292.0625 L 349.917969 292.0625 L 349.917969 301.421875 L 326 301.421875 Z M 326 292.0625 "/>
</clipPath>
<clipPath id="clip146">
  <path d="M 59.175781 0.488281 L 724.648438 0.488281 C 757.046875 0.488281 783.308594 30.066406 783.308594 66.554688 L 783.308594 432.289062 C 783.308594 468.777344 757.042969 498.355469 724.644531 498.355469 L 59.175781 498.355469 C 26.773438 498.355469 0.507812 468.777344 0.507812 432.292969 L 0.507812 66.554688 C 0.507812 30.066406 26.773438 0.488281 59.175781 0.488281 Z M 59.175781 0.488281 "/>
</clipPath>
<clipPath id="clip147">
  <path d="M 493.046875 593.421875 L 14.929688 593.421875 C -3.4375 593.421875 -18.332031 576.65625 -18.332031 555.96875 L -18.332031 -51.085938 C -18.332031 -71.773438 -3.4375 -88.539062 14.929688 -88.539062 L 493.046875 -88.539062 C 511.417969 -88.539062 526.308594 -71.773438 526.308594 -51.085938 L 526.308594 555.96875 C 526.308594 576.65625 511.417969 593.421875 493.046875 593.421875 Z M 493.046875 593.421875 "/>
</clipPath>
<clipPath id="clip148">
  <path d="M 326 291.082031 L 349.917969 291.082031 L 349.917969 300.242188 L 326 300.242188 Z M 326 291.082031 "/>
</clipPath>
<clipPath id="clip149">
  <path d="M 59.175781 0.488281 L 724.648438 0.488281 C 757.046875 0.488281 783.308594 30.066406 783.308594 66.554688 L 783.308594 432.289062 C 783.308594 468.777344 757.042969 498.355469 724.644531 498.355469 L 59.175781 498.355469 C 26.773438 498.355469 0.507812 468.777344 0.507812 432.292969 L 0.507812 66.554688 C 0.507812 30.066406 26.773438 0.488281 59.175781 0.488281 Z M 59.175781 0.488281 "/>
</clipPath>
<clipPath id="clip150">
  <path d="M 493.046875 593.421875 L 14.929688 593.421875 C -3.4375 593.421875 -18.332031 576.65625 -18.332031 555.96875 L -18.332031 -51.085938 C -18.332031 -71.773438 -3.4375 -88.539062 14.929688 -88.539062 L 493.046875 -88.539062 C 511.417969 -88.539062 526.308594 -71.773438 526.308594 -51.085938 L 526.308594 555.96875 C 526.308594 576.65625 511.417969 593.421875 493.046875 593.421875 Z M 493.046875 593.421875 "/>
</clipPath>
<clipPath id="clip151">
  <path d="M 328 292.0625 L 335.894531 292.0625 L 335.894531 298.242188 L 328 298.242188 Z M 328 292.0625 "/>
</clipPath>
<clipPath id="clip152">
  <path d="M 59.175781 0.488281 L 724.648438 0.488281 C 757.046875 0.488281 783.308594 30.066406 783.308594 66.554688 L 783.308594 432.289062 C 783.308594 468.777344 757.042969 498.355469 724.644531 498.355469 L 59.175781 498.355469 C 26.773438 498.355469 0.507812 468.777344 0.507812 432.292969 L 0.507812 66.554688 C 0.507812 30.066406 26.773438 0.488281 59.175781 0.488281 Z M 59.175781 0.488281 "/>
</clipPath>
<clipPath id="clip153">
  <path d="M 493.046875 593.421875 L 14.929688 593.421875 C -3.4375 593.421875 -18.332031 576.65625 -18.332031 555.96875 L -18.332031 -51.085938 C -18.332031 -71.773438 -3.4375 -88.539062 14.929688 -88.539062 L 493.046875 -88.539062 C 511.417969 -88.539062 526.308594 -71.773438 526.308594 -51.085938 L 526.308594 555.96875 C 526.308594 576.65625 511.417969 593.421875 493.046875 593.421875 Z M 493.046875 593.421875 "/>
</clipPath>
<clipPath id="clip154">
  <path d="M 210.890625 350.164062 L 330.8125 350.164062 L 330.8125 442.351562 L 210.890625 442.351562 Z M 210.890625 350.164062 "/>
</clipPath>
<clipPath id="clip155">
  <path d="M 59.175781 0.488281 L 724.648438 0.488281 C 757.046875 0.488281 783.308594 30.066406 783.308594 66.554688 L 783.308594 432.289062 C 783.308594 468.777344 757.042969 498.355469 724.644531 498.355469 L 59.175781 498.355469 C 26.773438 498.355469 0.507812 468.777344 0.507812 432.292969 L 0.507812 66.554688 C 0.507812 30.066406 26.773438 0.488281 59.175781 0.488281 Z M 59.175781 0.488281 "/>
</clipPath>
<clipPath id="clip156">
  <path d="M 493.046875 593.421875 L 14.929688 593.421875 C -3.4375 593.421875 -18.332031 576.65625 -18.332031 555.96875 L -18.332031 -51.085938 C -18.332031 -71.773438 -3.4375 -88.539062 14.929688 -88.539062 L 493.046875 -88.539062 C 511.417969 -88.539062 526.308594 -71.773438 526.308594 -51.085938 L 526.308594 555.96875 C 526.308594 576.65625 511.417969 593.421875 493.046875 593.421875 Z M 493.046875 593.421875 "/>
</clipPath>
</defs>
<g id="surface1">
<g clip-path="url(#clip1)" clip-rule="nonzero">
<g clip-path="url(#clip2)" clip-rule="nonzero">
<g clip-path="url(#clip3)" clip-rule="nonzero">
<path style=" stroke:none;fill-rule:nonzero;fill:rgb(100%,100%,100%);fill-opacity:1;" d="M 509.34375 431.679688 C 496.441406 421.089844 487.277344 434.363281 465.082031 433.910156 C 460.765625 433.828125 454.40625 433.183594 450.769531 430.351562 C 450.769531 430.351562 462.203125 425.652344 466.125 424.851562 C 472.023438 423.65625 474.125 420.957031 479.894531 419.011719 C 486.164062 416.902344 493.039062 414.957031 498.992188 411.875 C 503.917969 409.316406 497.902344 406.050781 491.398438 406.59375 C 475.675781 407.917969 470.914062 411.808594 451.585938 413.867188 C 444.984375 414.566406 438.671875 417.65625 432.085938 415.757812 C 427.914062 414.546875 421.601562 412.257812 422.820312 406.222656 C 423.511719 402.808594 425.941406 400.007812 427.382812 396.988281 C 428.585938 394.386719 429.566406 391.667969 430.308594 388.863281 C 431.605469 384.125 433.601562 375.332031 429.523438 371.59375 C 426.535156 375.117188 422.375 387.648438 410.632812 393.421875 C 405.683594 395.859375 402.796875 402.535156 400.207031 407.894531 C 397.597656 413.308594 394.605469 418.425781 387.871094 418.652344 C 385.121094 418.84375 382.363281 418.839844 379.613281 418.640625 C 374.097656 438.929688 379.210938 442.269531 379.210938 442.269531 C 379.210938 442.269531 414.023438 451.945312 435.652344 453.195312 C 462.164062 454.738281 474.3125 452.496094 481.980469 449.023438 C 484.03125 448.09375 481.148438 447.246094 478.992188 446.175781 C 476.476562 445.070312 473.78125 444.5625 471.082031 444.710938 C 469.71875 444.683594 468.355469 444.550781 467.007812 444.324219 C 475.414062 442.601562 483.832031 440.871094 488.765625 439.488281 C 488.769531 439.488281 511.867188 433.75 509.34375 431.679688 Z M 509.34375 431.679688 "/>
</g>
</g>
</g>
<g clip-path="url(#clip4)" clip-rule="nonzero">
<g clip-path="url(#clip5)" clip-rule="nonzero">
<g clip-path="url(#clip6)" clip-rule="nonzero">
<path style=" stroke:none;fill-rule:nonzero;fill:rgb(29.019608%,36.862745%,36.078431%);fill-opacity:1;" d="M 262.96875 749.640625 C 260.832031 721.675781 228.503906 590.613281 195.648438 483.386719 C 188.554688 483.148438 181.464844 482.785156 174.382812 482.296875 C 127.125 478.972656 79.980469 470.109375 34.789062 454.046875 C 34.542969 453.957031 34.3125 453.816406 34.125 453.617188 C 33.503906 453.722656 32.902344 453.921875 32.328125 454.214844 C 36.128906 489.25 22.351562 623.339844 20.085938 731.539062 C 19.597656 754.261719 9.425781 775.34375 -7.253906 788.148438 C -64.078125 831.875 -130.121094 912.269531 -155.875 934.085938 L -103.847656 996.503906 C -103.847656 996.503906 84.71875 821.003906 82.933594 802.1875 C 82.933594 802.175781 82.925781 802.148438 82.921875 802.125 C 101.039062 764.890625 115.601562 678.589844 124.855469 611.179688 C 146.269531 645.089844 171.035156 692.199219 182.628906 746.160156 C 184.753906 757.75 185.59375 769.589844 185.144531 781.398438 C 182.890625 862.765625 181.558594 893.875 188.476562 1062.921875 L 263.339844 1059.972656 C 263.339844 1059.972656 268.796875 825.949219 262.96875 749.640625 Z M 262.96875 749.640625 "/>
</g>
</g>
</g>
<g clip-path="url(#clip7)" clip-rule="nonzero">
<g clip-path="url(#clip8)" clip-rule="nonzero">
<g clip-path="url(#clip9)" clip-rule="nonzero">
<path style=" stroke:none;fill-rule:nonzero;fill:rgb(21.176471%,26.666667%,25.882353%);fill-opacity:1;" d="M 95.957031 506.246094 C 76.09375 502.660156 56.84375 496.082031 37.441406 490.230469 C 37.347656 501.050781 37.300781 511.785156 37.332031 522.300781 C 54.449219 528.269531 71.75 533.460938 89.347656 537.546875 C 112.210938 542.863281 145.597656 523.441406 142.542969 509.449219 C 126.964844 509.226562 111.390625 509.03125 95.957031 506.246094 Z M 95.957031 506.246094 "/>
</g>
</g>
</g>
<g clip-path="url(#clip10)" clip-rule="nonzero">
<g clip-path="url(#clip11)" clip-rule="nonzero">
<g clip-path="url(#clip12)" clip-rule="nonzero">
<path style=" stroke:none;fill-rule:nonzero;fill:rgb(71.764706%,38.823529%,21.176471%);fill-opacity:1;" d="M 165.386719 58.566406 C 165.464844 58.371094 165.558594 58.191406 165.648438 58.015625 C 164.332031 58.941406 163.058594 60.4375 161.980469 61.035156 C 160.699219 61.765625 159.96875 62.363281 158.78125 61.226562 C 157.734375 59.996094 156.839844 58.625 156.09375 57.144531 C 153.003906 51.789062 151.050781 45.699219 150.371094 39.351562 C 149.886719 35.042969 148.804688 22.824219 154.683594 22.132812 C 157.28125 21.828125 160.046875 24.246094 162.535156 23.988281 C 170.867188 23.117188 175.027344 12.574219 176.0625 10.914062 C 188.640625 16.085938 201.53125 20.226562 214.640625 23.300781 C 223.953125 25.363281 233.722656 27.613281 243.226562 25.941406 C 243.414062 26.253906 243.609375 26.5625 243.792969 26.886719 C 244.210938 27.671875 244.539062 28.511719 244.757812 29.390625 C 247.761719 28.6875 250.558594 27.136719 252.894531 24.894531 C 254.351562 23.433594 255.523438 21.65625 256.355469 19.675781 C 260.144531 10.636719 256.785156 -1.964844 252.355469 -9.8125 C 239.988281 -31.726562 212.621094 -42.378906 190.757812 -44.988281 C 158.511719 -48.835938 134.71875 -9.984375 136.941406 22.839844 C 137.910156 37.019531 138.972656 52.902344 149.632812 62.222656 C 153.867188 65.921875 158.070312 69.617188 161.597656 69.019531 C 163.410156 65.824219 164.691406 62.285156 165.386719 58.566406 Z M 165.386719 58.566406 "/>
</g>
</g>
</g>
<g clip-path="url(#clip13)" clip-rule="nonzero">
<g clip-path="url(#clip14)" clip-rule="nonzero">
<g clip-path="url(#clip15)" clip-rule="nonzero">
<path style=" stroke:none;fill-rule:nonzero;fill:rgb(62.352941%,29.411765%,20%);fill-opacity:1;" d="M 158.78125 61.234375 C 157.734375 60 156.839844 58.628906 156.09375 57.152344 C 153.003906 51.792969 151.050781 45.707031 150.371094 39.359375 C 149.886719 35.046875 148.804688 22.835938 154.683594 22.136719 C 154.957031 22.113281 155.238281 22.113281 155.519531 22.136719 C 150.535156 9.867188 146.855469 -3.832031 146.296875 -17.527344 C 139.558594 -5.339844 136.023438 9.269531 136.941406 22.851562 C 137.90625 37.03125 138.972656 52.90625 149.632812 62.226562 C 153.867188 65.929688 158.070312 69.625 161.597656 69.023438 C 163.40625 65.832031 164.6875 62.289062 165.382812 58.578125 C 165.464844 58.375 165.554688 58.203125 165.644531 58.03125 C 164.328125 58.949219 163.054688 60.441406 161.976562 61.046875 C 160.699219 61.769531 159.972656 62.382812 158.78125 61.234375 Z M 158.78125 61.234375 "/>
</g>
</g>
</g>
<g clip-path="url(#clip16)" clip-rule="nonzero">
<g clip-path="url(#clip17)" clip-rule="nonzero">
<g clip-path="url(#clip18)" clip-rule="nonzero">
<path style=" stroke:none;fill-rule:nonzero;fill:rgb(62.352941%,29.411765%,20%);fill-opacity:1;" d="M 251.910156 -9.472656 C 248.78125 -15.085938 244.789062 -20.03125 240.121094 -24.0625 C 240.445312 -22 240.691406 -19.917969 240.863281 -17.851562 C 241.867188 -5.644531 240.199219 11.621094 229.292969 17.417969 C 223.804688 20.335938 216.898438 19.933594 211.03125 19.464844 C 208.503906 19.257812 205.945312 18.976562 203.394531 18.574219 C 207.902344 19.996094 212.441406 21.261719 216.992188 22.304688 C 225.609375 24.28125 234.660156 26.453125 243.460938 24.84375 C 243.632812 25.140625 243.816406 25.433594 243.984375 25.753906 C 244.378906 26.503906 244.671875 27.3125 244.871094 28.15625 C 247.675781 27.464844 250.269531 25.972656 252.410156 23.832031 C 253.765625 22.417969 254.855469 20.722656 255.613281 18.832031 C 259.121094 10.15625 256.011719 -1.941406 251.910156 -9.472656 Z M 251.910156 -9.472656 "/>
</g>
</g>
</g>
<g clip-path="url(#clip19)" clip-rule="nonzero">
<g clip-path="url(#clip20)" clip-rule="nonzero">
<g clip-path="url(#clip21)" clip-rule="nonzero">
<path style=" stroke:none;fill-rule:nonzero;fill:rgb(98.823529%,71.372549%,61.960784%);fill-opacity:1;" d="M 250.605469 72.578125 C 250.761719 58.601562 247.6875 45.1875 245.222656 31.625 C 245.085938 30.835938 244.945312 30.109375 244.757812 29.402344 C 244.542969 28.519531 244.21875 27.675781 243.792969 26.890625 C 243.609375 26.566406 243.414062 26.257812 243.230469 25.949219 C 233.726562 27.617188 223.953125 25.363281 214.640625 23.304688 C 201.535156 20.230469 188.644531 16.09375 176.066406 10.921875 C 175.027344 12.578125 170.867188 23.125 162.539062 23.992188 C 160.046875 24.25 157.285156 21.835938 154.6875 22.136719 C 148.808594 22.835938 149.886719 35.046875 150.375 39.359375 C 151.054688 45.707031 153.007812 51.792969 156.097656 57.152344 C 156.839844 58.628906 157.738281 60 158.785156 61.234375 C 159.972656 62.382812 160.703125 61.769531 161.984375 61.046875 C 163.058594 60.441406 164.335938 58.941406 165.648438 58.019531 C 165.558594 58.199219 165.46875 58.375 165.386719 58.578125 C 164.695312 62.285156 163.414062 65.832031 161.601562 69.023438 C 160.34375 71.4375 158.976562 73.792969 157.746094 76.164062 C 154.132812 83.167969 141.863281 102.46875 140.359375 105.933594 C 139.082031 108.878906 130.808594 120.453125 127.273438 121.8125 C 127.273438 121.8125 118.019531 125.351562 116.226562 125.527344 C 114.761719 132.28125 120.554688 152.96875 139.964844 166.53125 C 153.28125 175.839844 165.226562 183.253906 188.160156 181.867188 C 192.058594 181.628906 209.539062 172.386719 213.109375 167.328125 C 212.519531 166.117188 200.925781 153.527344 200.128906 149.136719 C 197.722656 139.179688 199.449219 136.277344 203.1875 129.699219 C 205.25 126.0625 207.296875 122.4375 209.441406 118.855469 C 210.054688 117.324219 210.789062 115.855469 211.621094 114.464844 C 212.355469 114.972656 213.101562 115.46875 213.851562 115.945312 C 219.09375 119.34375 224.882812 121.527344 230.882812 122.398438 C 236.664062 123.011719 241.886719 118.894531 244.402344 113.3125 C 250.015625 100.84375 250.460938 86.261719 250.605469 72.578125 Z M 250.605469 72.578125 "/>
</g>
</g>
</g>
<g clip-path="url(#clip22)" clip-rule="nonzero">
<g clip-path="url(#clip23)" clip-rule="nonzero">
<g clip-path="url(#clip24)" clip-rule="nonzero">
<path style=" stroke:none;fill-rule:nonzero;fill:rgb(86.666667%,59.215686%,55.294118%);fill-opacity:1;" d="M 187.832031 126.085938 C 191.648438 128.210938 195.703125 129.722656 199.890625 130.546875 C 200.804688 128.246094 201.90625 126.046875 203.1875 123.96875 C 205.25 120.335938 207.296875 116.703125 209.445312 113.128906 C 209.820312 112.183594 210.238281 111.269531 210.707031 110.382812 C 194.097656 102.398438 179.4375 90.042969 167.953125 74.351562 C 169.207031 93.734375 171.195312 116.566406 187.832031 126.085938 Z M 187.832031 126.085938 "/>
</g>
</g>
</g>
<g clip-path="url(#clip25)" clip-rule="nonzero">
<g clip-path="url(#clip26)" clip-rule="nonzero">
<g clip-path="url(#clip27)" clip-rule="nonzero">
<path style=" stroke:none;fill-rule:nonzero;fill:rgb(86.666667%,59.215686%,55.294118%);fill-opacity:1;" d="M 234.535156 46.945312 C 234.402344 54.5 236.71875 61.988281 236.734375 69.617188 C 236.871094 72.011719 236.652344 74.410156 236.085938 76.71875 C 235.378906 79.007812 233.84375 80.699219 232.800781 82.769531 C 230.113281 88.074219 233.488281 93.785156 234.402344 99.195312 C 235.332031 104.667969 234.789062 110.359375 235.859375 115.839844 C 236.082031 117.011719 236.40625 118.160156 236.816406 119.265625 C 239.886719 117.625 242.378906 114.875 243.898438 111.453125 C 249.511719 99.003906 249.957031 84.425781 250.109375 70.742188 C 250.234375 59.023438 248.097656 47.703125 245.957031 36.371094 C 240.453125 37.679688 234.660156 40.175781 234.535156 46.945312 Z M 234.535156 46.945312 "/>
</g>
</g>
</g>
<g clip-path="url(#clip28)" clip-rule="nonzero">
<g clip-path="url(#clip29)" clip-rule="nonzero">
<g clip-path="url(#clip30)" clip-rule="nonzero">
<path style=" stroke:none;fill-rule:nonzero;fill:rgb(100%,100%,100%);fill-opacity:1;" d="M 166.03125 56.933594 C 168.636719 61.910156 183.992188 88.097656 186.894531 92.871094 C 189.484375 97.132812 192.996094 100.613281 196.203125 104.300781 L 202.023438 67.140625 C 179 48.988281 165.058594 34.167969 162.539062 23.992188 L 166.148438 22.949219 C 166.4375 24.113281 177.546875 44.136719 205.28125 63.238281 L 235.398438 74.035156 L 251.445312 67.085938 C 251.394531 76.109375 250.953125 102.304688 247.984375 109.941406 C 246.605469 113.496094 245.125 116.472656 240.320312 120.316406 C 238.113281 122.007812 235.582031 123.074219 232.933594 123.429688 C 232.933594 123.429688 201.402344 124.613281 183.019531 95.886719 C 179.878906 90.976562 166.671875 64.628906 163.953125 59.4375 Z M 166.03125 56.933594 "/>
</g>
</g>
</g>
<g clip-path="url(#clip31)" clip-rule="nonzero">
<g clip-path="url(#clip32)" clip-rule="nonzero">
<g clip-path="url(#clip33)" clip-rule="nonzero">
<path style=" stroke:none;fill-rule:nonzero;fill:rgb(100%,100%,100%);fill-opacity:1;" d="M 392.574219 416.667969 C 379.84375 411.246094 348.882812 408.355469 336.515625 401.949219 C 326.746094 396.894531 317.230469 390.839844 309.472656 382.359375 C 293.464844 364.84375 257.53125 185.289062 252.28125 180.125 C 239.355469 167.402344 209.105469 153.429688 207.707031 151.878906 C 205.132812 146.890625 209 139.449219 209.3125 134.585938 C 209.683594 128.921875 209.65625 129.527344 205.285156 126.003906 C 202.148438 132.539062 198.972656 131.871094 193.863281 133.042969 C 190.472656 133.824219 191.71875 138.933594 190.945312 143.035156 C 190.101562 147.539062 189.648438 151.917969 187.988281 156.003906 C 182.582031 155.359375 177.265625 153.980469 172.148438 151.898438 C 174.78125 146.355469 177.691406 140.914062 178.21875 134.554688 C 178.65625 129.277344 175.425781 127.527344 171.832031 125.097656 C 166.023438 121.160156 159.765625 117.179688 155.050781 111.65625 C 145.25 100.179688 152.46875 85.382812 152.46875 85.382812 C 138.921875 85.496094 133.449219 108.496094 120.589844 112.804688 C 112.535156 115.503906 52.058594 121.207031 37.222656 129.347656 C 35.441406 130.671875 33.898438 132.363281 32.695312 134.34375 C 0.0820312 202.207031 17.34375 342.65625 19.003906 356.3125 C 21.019531 372.832031 29.828125 385.03125 32.160156 388.148438 C 33.523438 396.226562 33.671875 404.511719 32.597656 412.644531 L 211.136719 497.21875 C 211.136719 497.21875 217.425781 463.789062 224.527344 417.332031 C 231.410156 426.597656 239.464844 435.097656 246.554688 437.476562 C 262.035156 442.671875 313.210938 446.175781 347.667969 451.945312 L 351.21875 455.203125 C 357.332031 456.132812 391.554688 460.578125 391.554688 460.578125 C 392.546875 446.039062 392.574219 416.667969 392.574219 416.667969 Z M 392.574219 416.667969 "/>
</g>
</g>
</g>
<g clip-path="url(#clip34)" clip-rule="nonzero">
<g clip-path="url(#clip35)" clip-rule="nonzero">
<g clip-path="url(#clip36)" clip-rule="nonzero">
<path style=" stroke:none;fill-rule:nonzero;fill:rgb(69.411765%,83.529412%,88.627451%);fill-opacity:1;" d="M 105.355469 412.640625 C 84.191406 399.464844 63 391.9375 47.707031 367.496094 C 36.636719 349.824219 32.503906 319.414062 19.179688 303.878906 C 19.179688 341.910156 23.5625 353.863281 32.484375 373.941406 C 45.445312 403.121094 112.457031 434.351562 152.859375 434.332031 C 141.667969 427.96875 116.328125 419.472656 105.355469 412.640625 Z M 105.355469 412.640625 "/>
</g>
</g>
</g>
<g clip-path="url(#clip37)" clip-rule="nonzero">
<g clip-path="url(#clip38)" clip-rule="nonzero">
<g clip-path="url(#clip39)" clip-rule="nonzero">
<path style=" stroke:none;fill-rule:nonzero;fill:rgb(69.411765%,83.529412%,88.627451%);fill-opacity:1;" d="M 120.386719 113.496094 C 118.441406 113.914062 97.277344 117.164062 76.296875 121.113281 C 81.90625 123.753906 91.328125 119.902344 97.046875 122.140625 C 114.164062 128.820312 128.269531 140.277344 146.367188 142.046875 C 145.785156 141.21875 145.21875 140.375 144.648438 139.535156 C 133.25 135.921875 122.507812 127.261719 120.386719 113.496094 Z M 120.386719 113.496094 "/>
</g>
</g>
</g>
<g clip-path="url(#clip40)" clip-rule="nonzero">
<g clip-path="url(#clip41)" clip-rule="nonzero">
<g clip-path="url(#clip42)" clip-rule="nonzero">
<path style=" stroke:none;fill-rule:nonzero;fill:rgb(69.411765%,83.529412%,88.627451%);fill-opacity:1;" d="M 390 399.132812 C 377.277344 393.707031 347.289062 387.449219 333.945312 384.417969 C 264.871094 368.753906 259.546875 321.144531 259.609375 320.347656 C 260.871094 305.503906 252.535156 246.632812 249.746094 230.851562 C 244.816406 253.835938 238.933594 276.574219 235.480469 299.914062 C 232.269531 321.597656 221.628906 365.351562 221.09375 387.183594 C 221.09375 387.183594 236.667969 433.085938 240.988281 434.539062 C 257.84375 440.191406 309.296875 428.644531 345.535156 434.320312 C 348.460938 434.777344 349.324219 446.734375 352.109375 447.085938 C 356.902344 447.695312 392.15625 446.832031 392.390625 443.476562 C 393.378906 428.949219 390 399.132812 390 399.132812 Z M 390 399.132812 "/>
</g>
</g>
</g>
<g clip-path="url(#clip43)" clip-rule="nonzero">
<g clip-path="url(#clip44)" clip-rule="nonzero">
<g clip-path="url(#clip45)" clip-rule="nonzero">
<path style=" stroke:none;fill-rule:nonzero;fill:rgb(69.411765%,83.529412%,88.627451%);fill-opacity:1;" d="M 188.816406 160.277344 C 201.027344 175.152344 210.363281 161.25 209.589844 154.597656 C 202.363281 160.738281 196.613281 161.78125 188.816406 160.277344 Z M 188.816406 160.277344 "/>
</g>
</g>
</g>
<g clip-path="url(#clip46)" clip-rule="nonzero">
<g clip-path="url(#clip47)" clip-rule="nonzero">
<g clip-path="url(#clip48)" clip-rule="nonzero">
<path style=" stroke:none;fill-rule:nonzero;fill:rgb(69.411765%,83.529412%,88.627451%);fill-opacity:1;" d="M 170.816406 238.871094 C 169.414062 252.339844 168.941406 265.90625 169.378906 279.453125 C 169.921875 291.851562 171.738281 303.9375 173.597656 316.152344 C 174.441406 321.707031 175.320312 327.449219 175.820312 333.226562 C 176.359375 333.886719 176.898438 334.523438 177.46875 335.140625 C 178.300781 336.078125 179.273438 336.855469 180.34375 337.425781 C 180.097656 332.640625 179.5625 327.875 178.949219 323.191406 C 177.335938 310.882812 174.957031 298.726562 174.066406 286.300781 C 173.132812 272.726562 173.28125 259.089844 174.53125 245.546875 C 175.746094 232.046875 176.730469 218.5 178.269531 205.039062 C 180.023438 189.679688 182.644531 174.246094 188.261719 160.019531 C 189.359375 157.246094 185.238281 155.6875 184.125 158.507812 C 174.210938 183.617188 173.28125 211.929688 170.816406 238.871094 Z M 170.816406 238.871094 "/>
</g>
</g>
</g>
<g clip-path="url(#clip49)" clip-rule="nonzero">
<g clip-path="url(#clip50)" clip-rule="nonzero">
<g clip-path="url(#clip51)" clip-rule="nonzero">
<path style=" stroke:none;fill-rule:nonzero;fill:rgb(36.470588%,47.45098%,46.666667%);fill-opacity:1;" d="M 86.015625 201.675781 C 89.742188 302.164062 80.324219 321.003906 82.285156 332.050781 C 83.714844 340.070312 114.730469 353.71875 120.46875 357.535156 C 139.316406 370.066406 206.019531 400.5625 214.667969 396.105469 C 223.417969 391.605469 225.910156 362.492188 227.792969 351.945312 C 229.742188 341.019531 248.335938 210.242188 252.277344 180.125 C 251.910156 179.648438 236.921875 165.265625 226.96875 162.550781 C 223.421875 201.9375 204.050781 281.664062 175.996094 297.671875 C 175.058594 298.101562 174.058594 298.347656 173.046875 298.382812 C 133.816406 304.457031 138 133.429688 80.136719 119.261719 C 78.171875 118.773438 66.078125 119.875 59.457031 121.433594 C 51.777344 123.242188 44.8125 125.066406 37.222656 129.347656 C 61.714844 124.9375 84.5625 162.335938 86.015625 201.675781 Z M 86.015625 201.675781 "/>
</g>
</g>
</g>
<g clip-path="url(#clip52)" clip-rule="nonzero">
<g clip-path="url(#clip53)" clip-rule="nonzero">
<g clip-path="url(#clip54)" clip-rule="nonzero">
<path style=" stroke:none;fill-rule:nonzero;fill:rgb(29.019608%,36.862745%,36.078431%);fill-opacity:1;" d="M 223.566406 309.742188 C 211.761719 315.289062 199.460938 319.398438 186.882812 321.992188 C 185.832031 312.726562 182.53125 302.25 181.804688 293.15625 L 179.355469 295.429688 C 180.621094 300.921875 181.894531 313.144531 182.980469 322.667969 C 168.785156 324.859375 154.429688 324.171875 140.613281 318.664062 C 117.75 309.558594 100.527344 289.214844 87.175781 265.835938 C 86.808594 297.964844 85.351562 327.878906 86.382812 334.546875 C 87.636719 342.59375 117.074219 356.21875 122.503906 360.035156 C 140.332031 372.566406 203.429688 403.058594 211.617188 398.609375 C 219.902344 394.101562 222.246094 364.996094 224.03125 354.445312 C 224.695312 350.511719 227.398438 331.050781 230.761719 306.339844 C 228.375 307.515625 225.976562 308.644531 223.566406 309.742188 Z M 223.566406 309.742188 "/>
</g>
</g>
</g>
<g clip-path="url(#clip55)" clip-rule="nonzero">
<g clip-path="url(#clip56)" clip-rule="nonzero">
<g clip-path="url(#clip57)" clip-rule="nonzero">
<path style=" stroke:none;fill-rule:nonzero;fill:rgb(36.470588%,47.45098%,46.666667%);fill-opacity:1;" d="M 23.5625 487.972656 C 37.644531 492.101562 51.753906 496.148438 65.925781 499.871094 C 94.363281 507.351562 126.683594 515.414062 152.859375 519.160156 C 152.859375 519.160156 167.535156 504.175781 169.179688 503.964844 L 179.492188 520.953125 C 190.679688 520.796875 207.320312 519.78125 219.316406 517.675781 C 219.820312 509.347656 224.804688 453.695312 227.128906 434.332031 C 211.109375 435.519531 196.058594 441.792969 180.003906 441.371094 C 146.683594 440.507812 111.894531 436.386719 81.109375 421.078125 C 67.238281 414.171875 42.742188 396.546875 32.164062 388.144531 C 31.859375 406.691406 32.980469 402.195312 31.746094 420.734375 C 30.234375 443.3125 23.96875 465.28125 23.5625 487.972656 Z M 23.5625 487.972656 "/>
</g>
</g>
</g>
<g clip-path="url(#clip58)" clip-rule="nonzero">
<g clip-path="url(#clip59)" clip-rule="nonzero">
<g clip-path="url(#clip60)" clip-rule="nonzero">
<path style=" stroke:none;fill-rule:nonzero;fill:rgb(29.019608%,36.862745%,36.078431%);fill-opacity:1;" d="M 225.140625 429.558594 C 209.117188 430.746094 107.753906 434.105469 81.558594 421.078125 C 67.683594 414.171875 33.480469 389.828125 32.164062 388.144531 C 31.859375 406.691406 33.421875 402.195312 32.1875 420.734375 C 30.671875 443.3125 24.410156 465.28125 24.007812 487.972656 C 30.988281 490.023438 37.984375 492.035156 44.984375 494.027344 C 52.277344 485.238281 60.683594 477.703125 69.929688 471.667969 C 93.082031 456.898438 125.644531 442.230469 181.15625 446.511719 C 226.160156 465.871094 212.535156 489.761719 207.917969 514.339844 C 211.019531 513.9375 214.152344 513.460938 217.328125 512.910156 C 217.785156 505.277344 224.960938 431.042969 225.140625 429.558594 Z M 225.140625 429.558594 "/>
</g>
</g>
</g>
<g clip-path="url(#clip61)" clip-rule="nonzero">
<g clip-path="url(#clip62)" clip-rule="nonzero">
<g clip-path="url(#clip63)" clip-rule="nonzero">
<path style=" stroke:none;fill-rule:nonzero;fill:rgb(36.470588%,47.45098%,46.666667%);fill-opacity:1;" d="M 156.933594 381.5 L 406.683594 404.121094 L 485.25 434.332031 L 235.628906 411.078125 Z M 156.933594 381.5 "/>
</g>
</g>
</g>
<g clip-path="url(#clip64)" clip-rule="nonzero">
<g clip-path="url(#clip65)" clip-rule="nonzero">
<g clip-path="url(#clip66)" clip-rule="nonzero">
<path style=" stroke:none;fill-rule:nonzero;fill:rgb(66.666667%,63.137255%,61.960784%);fill-opacity:1;" d="M 156.933594 381.5 L 236.007812 411.132812 L 235.625 419.109375 L 156.933594 387.203125 Z M 156.933594 381.5 "/>
</g>
</g>
</g>
<g clip-path="url(#clip67)" clip-rule="nonzero">
<g clip-path="url(#clip68)" clip-rule="nonzero">
<g clip-path="url(#clip69)" clip-rule="nonzero">
<path style=" stroke:none;fill-rule:nonzero;fill:rgb(21.176471%,26.666667%,25.882353%);fill-opacity:1;" d="M 236.007812 411.132812 L 485.160156 434.25 L 484.878906 442.230469 L 235.625 419.109375 Z M 236.007812 411.132812 "/>
</g>
</g>
</g>
<g clip-path="url(#clip70)" clip-rule="nonzero">
<g clip-path="url(#clip71)" clip-rule="nonzero">
<g clip-path="url(#clip72)" clip-rule="nonzero">
<path style=" stroke:none;fill-rule:nonzero;fill:rgb(98.823529%,71.372549%,61.960784%);fill-opacity:1;" d="M 216.277344 398.03125 C 216.167969 397.609375 201.328125 398.148438 200.535156 398.03125 C 197.257812 410.792969 196.214844 424.140625 197.460938 437.351562 C 197.460938 437.351562 212.414062 435.835938 225.042969 434.890625 C 222.238281 422.007812 219.777344 410.699219 216.277344 398.03125 Z M 216.277344 398.03125 "/>
</g>
</g>
</g>
<g clip-path="url(#clip73)" clip-rule="nonzero">
<g clip-path="url(#clip74)" clip-rule="nonzero">
<g clip-path="url(#clip75)" clip-rule="nonzero">
<path style=" stroke:none;fill-rule:nonzero;fill:rgb(63.137255%,26.666667%,34.901961%);fill-opacity:1;" d="M 151.433594 139.09375 C 140.519531 135.398438 131.585938 122.625 128.878906 109.480469 C 128.277344 106.570312 121.921875 111.152344 122.519531 114.078125 C 125.5625 128.816406 136.585938 142.6875 148.9375 146.878906 C 151.472656 147.742188 153.910156 139.9375 151.433594 139.09375 Z M 151.433594 139.09375 "/>
</g>
</g>
</g>
<g clip-path="url(#clip76)" clip-rule="nonzero">
<g clip-path="url(#clip77)" clip-rule="nonzero">
<g clip-path="url(#clip78)" clip-rule="nonzero">
<path style=" stroke:none;fill-rule:nonzero;fill:rgb(74.901961%,30.980392%,38.823529%);fill-opacity:1;" d="M 210.101562 149.90625 C 206.917969 147.519531 202.304688 150.699219 199.398438 152.25 C 196.570312 153.761719 193.5625 154.285156 190.566406 155.085938 C 186.070312 151.039062 181.113281 148.050781 172.941406 150.40625 C 166.421875 146.730469 162.847656 138.152344 156.101562 135.121094 C 148.566406 131.738281 147.917969 145.085938 147.144531 150.125 C 146.648438 153.335938 144.996094 157.84375 145.546875 161.171875 C 146.011719 164 148.472656 164.824219 150.695312 165.242188 C 155.128906 166.078125 159.859375 165.5625 164.324219 165.160156 C 166.386719 164.972656 168.484375 164.757812 170.527344 164.359375 C 173.652344 169.96875 182.382812 171.039062 186.234375 170.332031 C 186.421875 170.296875 186.550781 170.128906 186.703125 170.023438 C 188.066406 171.070312 189.53125 171.933594 191.070312 172.601562 C 194.597656 174.277344 198.699219 177.277344 202.578125 177.289062 C 206.742188 177.296875 207.035156 172.847656 208.125 169.210938 C 209.007812 166.230469 216.601562 154.808594 210.101562 149.90625 Z M 210.101562 149.90625 "/>
</g>
</g>
</g>
<g clip-path="url(#clip79)" clip-rule="nonzero">
<g clip-path="url(#clip80)" clip-rule="nonzero">
<g clip-path="url(#clip81)" clip-rule="nonzero">
<path style=" stroke:none;fill-rule:nonzero;fill:rgb(63.137255%,26.666667%,34.901961%);fill-opacity:1;" d="M 196.457031 161.457031 C 196.136719 161.199219 195.792969 160.949219 195.4375 160.714844 C 193.964844 159.746094 190.664062 156.910156 191.03125 159.113281 C 191.355469 162.683594 190.355469 166.246094 188.269531 168.957031 C 187.300781 170.304688 189.609375 169.511719 190.566406 170.882812 C 191.589844 172.34375 193.417969 172.878906 194.867188 173.675781 C 196.890625 174.902344 199.054688 175.839844 201.289062 176.4375 C 202.171875 176.621094 203.683594 177.128906 203.988281 175.8125 C 204.085938 174.6875 203.898438 173.558594 203.449219 172.539062 C 202.359375 169.316406 200.753906 166.332031 198.714844 163.746094 C 198.046875 162.890625 197.289062 162.121094 196.457031 161.457031 Z M 196.457031 161.457031 "/>
</g>
</g>
</g>
<g clip-path="url(#clip82)" clip-rule="nonzero">
<g clip-path="url(#clip83)" clip-rule="nonzero">
<g clip-path="url(#clip84)" clip-rule="nonzero">
<path style=" stroke:none;fill-rule:nonzero;fill:rgb(63.137255%,26.666667%,34.901961%);fill-opacity:1;" d="M 174.195312 160.746094 C 174.058594 162.949219 173.785156 165.5 175.628906 167.402344 C 178.304688 168.089844 181.039062 168.433594 183.785156 168.429688 C 185.398438 166.703125 186.289062 164.199219 188.039062 162.191406 C 183.378906 161.851562 178.761719 161.367188 174.195312 160.746094 Z M 174.195312 160.746094 "/>
</g>
</g>
</g>
<g clip-path="url(#clip85)" clip-rule="nonzero">
<g clip-path="url(#clip86)" clip-rule="nonzero">
<g clip-path="url(#clip87)" clip-rule="nonzero">
<path style=" stroke:none;fill-rule:nonzero;fill:rgb(63.137255%,26.666667%,34.901961%);fill-opacity:1;" d="M 172.085938 153.160156 C 171.867188 151.730469 171.445312 150.609375 170.652344 150.214844 C 169.039062 149.417969 165.296875 151.808594 163.902344 152.5 C 162.191406 153.363281 160.535156 154.332031 158.796875 155.117188 C 154.707031 156.863281 150.398438 157.828125 146.03125 157.980469 C 145.929688 158.90625 145.941406 159.839844 146.070312 160.753906 C 146.535156 163.574219 148.992188 164.410156 151.21875 164.820312 C 155.660156 165.65625 160.386719 165.144531 164.851562 164.738281 C 166.851562 164.550781 168.890625 164.351562 170.878906 163.972656 C 170.523438 160.308594 170.9375 156.605469 172.085938 153.160156 Z M 172.085938 153.160156 "/>
</g>
</g>
</g>
<g clip-path="url(#clip88)" clip-rule="nonzero">
<g clip-path="url(#clip89)" clip-rule="nonzero">
<g clip-path="url(#clip90)" clip-rule="nonzero">
<path style=" stroke:none;fill-rule:nonzero;fill:rgb(81.176471%,56.862745%,31.372549%);fill-opacity:1;" d="M 178.71875 325.234375 C 178.71875 321.246094 176.035156 318.019531 172.722656 318.019531 C 169.410156 318.019531 166.730469 321.246094 166.730469 325.234375 C 166.730469 329.210938 169.410156 332.445312 172.722656 332.445312 C 176.035156 332.445312 178.71875 329.210938 178.71875 325.234375 Z M 178.71875 325.234375 "/>
</g>
</g>
</g>
<g clip-path="url(#clip91)" clip-rule="nonzero">
<g clip-path="url(#clip92)" clip-rule="nonzero">
<g clip-path="url(#clip93)" clip-rule="nonzero">
<path style=" stroke:none;fill-rule:nonzero;fill:rgb(89.803922%,70.980392%,49.411765%);fill-opacity:1;" d="M 178.003906 322.929688 C 177.097656 320.585938 175.066406 319.050781 172.792969 318.996094 C 170.527344 318.941406 168.433594 320.378906 167.441406 322.675781 C 170.867188 323.027344 174.609375 323.523438 178.003906 322.929688 Z M 178.003906 322.929688 "/>
</g>
</g>
</g>
<g clip-path="url(#clip94)" clip-rule="nonzero">
<g clip-path="url(#clip95)" clip-rule="nonzero">
<g clip-path="url(#clip96)" clip-rule="nonzero">
<path style=" stroke:none;fill-rule:nonzero;fill:rgb(81.176471%,56.862745%,31.372549%);fill-opacity:1;" d="M 178.71875 360.339844 C 178.71875 356.359375 176.035156 353.125 172.722656 353.125 C 169.410156 353.125 166.730469 356.359375 166.730469 360.339844 C 166.730469 364.320312 169.410156 367.550781 172.722656 367.550781 C 176.035156 367.550781 178.71875 364.320312 178.71875 360.339844 Z M 178.71875 360.339844 "/>
</g>
</g>
</g>
<g clip-path="url(#clip97)" clip-rule="nonzero">
<g clip-path="url(#clip98)" clip-rule="nonzero">
<g clip-path="url(#clip99)" clip-rule="nonzero">
<path style=" stroke:none;fill-rule:nonzero;fill:rgb(89.803922%,70.980392%,49.411765%);fill-opacity:1;" d="M 175.175781 469.6875 C 175.175781 465.707031 172.496094 462.480469 169.183594 462.480469 C 165.867188 462.480469 163.183594 465.707031 163.183594 469.6875 C 163.183594 473.671875 165.867188 476.898438 169.183594 476.898438 C 172.496094 476.898438 175.175781 473.671875 175.175781 469.6875 Z M 175.175781 469.6875 "/>
</g>
</g>
</g>
<g clip-path="url(#clip100)" clip-rule="nonzero">
<g clip-path="url(#clip101)" clip-rule="nonzero">
<g clip-path="url(#clip102)" clip-rule="nonzero">
<path style=" stroke:none;fill-rule:nonzero;fill:rgb(29.019608%,36.862745%,36.078431%);fill-opacity:1;" d="M 181.574219 429.09375 C 178.570312 447.238281 180.6875 479.453125 175.925781 494.671875 L 175.925781 500.191406 C 183.371094 482.90625 184.027344 448.582031 187.105469 429.964844 C 187.578125 427.121094 182.058594 426.144531 181.574219 429.09375 Z M 181.574219 429.09375 "/>
</g>
</g>
</g>
<g clip-path="url(#clip103)" clip-rule="nonzero">
<g clip-path="url(#clip104)" clip-rule="nonzero">
<g clip-path="url(#clip105)" clip-rule="nonzero">
<path style=" stroke:none;fill-rule:nonzero;fill:rgb(100%,100%,100%);fill-opacity:1;" d="M 201.9375 394.929688 L 148.5 374.960938 L 143.445312 444.820312 L 189.03125 458.164062 C 200.542969 443.671875 202.414062 406.046875 201.9375 394.929688 Z M 201.9375 394.929688 "/>
</g>
</g>
</g>
<g clip-path="url(#clip106)" clip-rule="nonzero">
<g clip-path="url(#clip107)" clip-rule="nonzero">
<g clip-path="url(#clip108)" clip-rule="nonzero">
<path style=" stroke:none;fill-rule:nonzero;fill:rgb(69.411765%,83.529412%,88.627451%);fill-opacity:1;" d="M 160.242188 433.265625 C 160.265625 431.578125 159.378906 430.039062 158.007812 429.375 C 156.632812 428.710938 155.027344 429.050781 153.964844 430.234375 C 152.894531 431.414062 152.566406 433.210938 153.136719 434.765625 C 153.703125 436.328125 155.054688 437.351562 156.546875 437.351562 C 158.574219 437.367188 160.222656 435.539062 160.242188 433.265625 Z M 160.242188 433.265625 "/>
</g>
</g>
</g>
<g clip-path="url(#clip109)" clip-rule="nonzero">
<g clip-path="url(#clip110)" clip-rule="nonzero">
<g clip-path="url(#clip111)" clip-rule="nonzero">
<path style=" stroke:none;fill-rule:nonzero;fill:rgb(69.411765%,83.529412%,88.627451%);fill-opacity:1;" d="M 171.640625 182.027344 C 171.664062 180.339844 170.78125 178.804688 169.402344 178.140625 C 168.027344 177.472656 166.429688 177.816406 165.363281 179 C 164.292969 180.175781 163.964844 181.972656 164.53125 183.53125 C 165.101562 185.09375 166.449219 186.113281 167.953125 186.113281 C 169.972656 186.136719 171.625 184.304688 171.640625 182.027344 Z M 171.640625 182.027344 "/>
</g>
</g>
</g>
<g clip-path="url(#clip112)" clip-rule="nonzero">
<g clip-path="url(#clip113)" clip-rule="nonzero">
<g clip-path="url(#clip114)" clip-rule="nonzero">
<path style=" stroke:none;fill-rule:nonzero;fill:rgb(69.411765%,83.529412%,88.627451%);fill-opacity:1;" d="M 167.953125 224.535156 C 167.976562 222.84375 167.089844 221.308594 165.714844 220.644531 C 164.335938 219.984375 162.738281 220.320312 161.671875 221.503906 C 160.601562 222.679688 160.277344 224.476562 160.84375 226.035156 C 161.410156 227.601562 162.761719 228.617188 164.261719 228.621094 C 166.277344 228.640625 167.933594 226.808594 167.953125 224.535156 Z M 167.953125 224.535156 "/>
</g>
</g>
</g>
<g clip-path="url(#clip115)" clip-rule="nonzero">
<g clip-path="url(#clip116)" clip-rule="nonzero">
<g clip-path="url(#clip117)" clip-rule="nonzero">
<path style=" stroke:none;fill-rule:nonzero;fill:rgb(69.411765%,83.529412%,88.627451%);fill-opacity:1;" d="M 165.769531 269.925781 C 165.792969 268.234375 164.910156 266.703125 163.53125 266.035156 C 162.15625 265.367188 160.558594 265.710938 159.492188 266.890625 C 158.425781 268.074219 158.09375 269.867188 158.660156 271.425781 C 159.226562 272.992188 160.582031 274.007812 162.082031 274.007812 C 164.101562 274.035156 165.753906 272.199219 165.769531 269.925781 Z M 165.769531 269.925781 "/>
</g>
</g>
</g>
<g clip-path="url(#clip118)" clip-rule="nonzero">
<g clip-path="url(#clip119)" clip-rule="nonzero">
<g clip-path="url(#clip120)" clip-rule="nonzero">
<path style=" stroke:none;fill-rule:nonzero;fill:rgb(81.176471%,56.862745%,31.372549%);fill-opacity:1;" d="M 390.507812 402.6875 C 390.507812 402.6875 286.042969 397.867188 256.289062 376.195312 C 256.289062 376.195312 239.113281 363.246094 232.222656 373.027344 C 229.398438 377.03125 231.691406 380.910156 235.113281 384.714844 C 243.5625 394.101562 270.75 409.597656 330.554688 418.078125 C 388.695312 424.863281 408.546875 418.742188 419.8125 411.914062 C 427.046875 407.527344 417.65625 405.414062 409.0625 403.515625 C 403.808594 402.351562 390.507812 402.6875 390.507812 402.6875 Z M 390.507812 402.6875 "/>
</g>
</g>
</g>
<g clip-path="url(#clip121)" clip-rule="nonzero">
<g clip-path="url(#clip122)" clip-rule="nonzero">
<g clip-path="url(#clip123)" clip-rule="nonzero">
<path style=" stroke:none;fill-rule:nonzero;fill:rgb(89.803922%,70.980392%,49.411765%);fill-opacity:1;" d="M 383.710938 396.789062 C 383.710938 396.789062 277.101562 380.742188 261.472656 375.230469 C 261.472656 375.230469 237.949219 368.15625 235.625 373.472656 C 233.613281 378.0625 243.144531 403.804688 329.277344 416.015625 C 387.421875 422.796875 407.273438 416.675781 418.539062 409.84375 C 425.777344 405.460938 422.777344 402.71875 412.988281 399.046875 C 407.957031 397.160156 383.710938 396.789062 383.710938 396.789062 Z M 383.710938 396.789062 "/>
</g>
</g>
</g>
<g clip-path="url(#clip124)" clip-rule="nonzero">
<g clip-path="url(#clip125)" clip-rule="nonzero">
<g clip-path="url(#clip126)" clip-rule="nonzero">
<path style=" stroke:none;fill-rule:nonzero;fill:rgb(66.666667%,63.137255%,61.960784%);fill-opacity:1;" d="M 327.21875 410.664062 C 358.847656 415.183594 396.179688 413.882812 409.0625 403.515625 C 400.765625 354.679688 388.773438 322.828125 333.71875 314.0625 C 271.957031 304.242188 249.25 381.78125 249.058594 383.316406 C 257.847656 391.046875 311.289062 408.394531 327.21875 410.664062 Z M 327.21875 410.664062 "/>
</g>
</g>
</g>
<g clip-path="url(#clip127)" clip-rule="nonzero">
<g clip-path="url(#clip128)" clip-rule="nonzero">
<g clip-path="url(#clip129)" clip-rule="nonzero">
<path style=" stroke:none;fill-rule:nonzero;fill:rgb(82.745098%,78.431373%,75.686275%);fill-opacity:1;" d="M 317.1875 368.925781 C 319.625 351.773438 324.320312 334.734375 332.730469 320.371094 C 330.402344 319.832031 327.980469 319.351562 325.445312 318.929688 C 321.96875 318.34375 318.457031 318.101562 314.9375 318.183594 C 310.742188 319.664062 306.691406 321.617188 302.855469 324.03125 C 282.628906 336.683594 267.113281 359.636719 258 384.890625 C 271.175781 391.6875 300.15625 401.492188 314.824219 404.898438 C 314.753906 392.855469 315.550781 380.824219 317.1875 368.925781 Z M 317.1875 368.925781 "/>
</g>
</g>
</g>
<g clip-path="url(#clip130)" clip-rule="nonzero">
<g clip-path="url(#clip131)" clip-rule="nonzero">
<g clip-path="url(#clip132)" clip-rule="nonzero">
<path style=" stroke:none;fill-rule:nonzero;fill:rgb(74.509804%,70.196078%,67.843137%);fill-opacity:1;" d="M 335.515625 317.820312 C 338.503906 318.070312 340.566406 318.113281 342.976562 316.765625 L 343.640625 309.5625 C 342.289062 310.039062 338.847656 309.984375 336.265625 309.679688 C 333.839844 309.234375 331.433594 308.621094 329.070312 307.863281 L 328.378906 315.441406 C 330.585938 316.785156 333.011719 317.597656 335.515625 317.820312 Z M 335.515625 317.820312 "/>
</g>
</g>
</g>
<g clip-path="url(#clip133)" clip-rule="nonzero">
<g clip-path="url(#clip134)" clip-rule="nonzero">
<g clip-path="url(#clip135)" clip-rule="nonzero">
<path style=" stroke:none;fill-rule:nonzero;fill:rgb(66.666667%,63.137255%,61.960784%);fill-opacity:1;" d="M 343.632812 309.386719 C 343.71875 308.371094 340.53125 307.175781 336.507812 306.722656 C 332.488281 306.273438 329.152344 306.722656 329.058594 307.734375 C 328.972656 308.75 332.15625 309.945312 336.183594 310.394531 C 340.207031 310.847656 343.546875 310.398438 343.632812 309.386719 Z M 343.632812 309.386719 "/>
</g>
</g>
</g>
<g clip-path="url(#clip136)" clip-rule="nonzero">
<g clip-path="url(#clip137)" clip-rule="nonzero">
<g clip-path="url(#clip138)" clip-rule="nonzero">
<path style=" stroke:none;fill-rule:nonzero;fill:rgb(100%,100%,100%);fill-opacity:1;" d="M 317.429688 323.90625 C 286.636719 329.929688 271.355469 374.554688 271.15625 375.613281 C 271.894531 376.460938 272.707031 377.21875 273.582031 377.890625 C 272.527344 377.042969 289.609375 331.011719 317.429688 323.90625 Z M 317.429688 323.90625 "/>
</g>
</g>
</g>
<g clip-path="url(#clip139)" clip-rule="nonzero">
<g clip-path="url(#clip140)" clip-rule="nonzero">
<g clip-path="url(#clip141)" clip-rule="nonzero">
<path style=" stroke:none;fill-rule:nonzero;fill:rgb(74.509804%,70.196078%,67.843137%);fill-opacity:1;" d="M 340.855469 300.460938 L 333.414062 299.59375 L 332.632812 308.125 C 334.992188 309.441406 338.441406 310.023438 340.074219 308.992188 C 340.332031 306.148438 340.59375 303.300781 340.855469 300.460938 Z M 340.855469 300.460938 "/>
</g>
</g>
</g>
<g clip-path="url(#clip142)" clip-rule="nonzero">
<g clip-path="url(#clip143)" clip-rule="nonzero">
<g clip-path="url(#clip144)" clip-rule="nonzero">
<path style=" stroke:none;fill-rule:nonzero;fill:rgb(66.666667%,63.137255%,61.960784%);fill-opacity:1;" d="M 339.148438 309.082031 L 339.640625 301.703125 L 337.414062 301.445312 L 336.710938 309.027344 C 337.511719 309.242188 338.339844 309.253906 339.148438 309.082031 Z M 339.148438 309.082031 "/>
</g>
</g>
</g>
<g clip-path="url(#clip145)" clip-rule="nonzero">
<g clip-path="url(#clip146)" clip-rule="nonzero">
<g clip-path="url(#clip147)" clip-rule="nonzero">
<path style=" stroke:none;fill-rule:nonzero;fill:rgb(66.666667%,63.137255%,61.960784%);fill-opacity:1;" d="M 349.332031 298.21875 C 349.546875 295.902344 344.53125 293.421875 338.128906 292.675781 C 331.726562 291.921875 326.359375 293.195312 326.144531 295.511719 C 325.9375 297.832031 330.953125 300.3125 337.359375 301.058594 C 343.761719 301.804688 349.125 300.535156 349.332031 298.21875 Z M 349.332031 298.21875 "/>
</g>
</g>
</g>
<g clip-path="url(#clip148)" clip-rule="nonzero">
<g clip-path="url(#clip149)" clip-rule="nonzero">
<g clip-path="url(#clip150)" clip-rule="nonzero">
<path style=" stroke:none;fill-rule:nonzero;fill:rgb(82.745098%,78.431373%,75.686275%);fill-opacity:1;" d="M 338.238281 291.496094 C 331.832031 290.75 326.46875 292.019531 326.257812 294.34375 C 326.042969 296.65625 331.058594 299.144531 337.464844 299.890625 C 343.871094 300.636719 349.238281 299.363281 349.449219 297.046875 C 349.664062 294.726562 344.640625 292.246094 338.238281 291.496094 Z M 338.238281 291.496094 "/>
</g>
</g>
</g>
<g clip-path="url(#clip151)" clip-rule="nonzero">
<g clip-path="url(#clip152)" clip-rule="nonzero">
<g clip-path="url(#clip153)" clip-rule="nonzero">
<path style=" stroke:none;fill-rule:nonzero;fill:rgb(100%,100%,100%);fill-opacity:1;" d="M 333.0625 296.316406 C 331.941406 295.308594 331.183594 293.84375 331.886719 292.460938 C 329.664062 292.757812 328.171875 293.4375 328.074219 294.371094 C 327.917969 295.839844 331.308594 297.414062 335.808594 298.027344 C 334.816406 297.625 333.890625 297.046875 333.0625 296.316406 Z M 333.0625 296.316406 "/>
</g>
</g>
</g>
<g clip-path="url(#clip154)" clip-rule="nonzero">
<g clip-path="url(#clip155)" clip-rule="nonzero">
<g clip-path="url(#clip156)" clip-rule="nonzero">
<path style=" stroke:none;fill-rule:nonzero;fill:rgb(100%,100%,100%);fill-opacity:1;" d="M 330.3125 410.511719 C 317.375 399.976562 308.257812 413.296875 286.058594 412.933594 C 281.742188 412.859375 275.378906 412.253906 271.734375 409.425781 C 271.734375 409.425781 283.148438 404.675781 287.074219 403.867188 C 292.960938 402.640625 295.058594 399.933594 300.824219 397.960938 C 307.082031 395.820312 313.953125 393.851562 319.898438 390.742188 C 324.808594 388.160156 318.789062 384.925781 312.28125 385.503906 C 296.5625 386.882812 291.816406 390.796875 272.492188 392.941406 C 265.894531 393.664062 259.59375 396.785156 253 394.90625 C 248.828125 393.722656 242.503906 391.460938 243.707031 385.414062 C 244.382812 382.007812 246.808594 379.191406 248.234375 376.164062 C 249.429688 373.558594 250.398438 370.832031 251.132812 368.019531 C 252.410156 363.285156 254.378906 354.488281 250.292969 350.761719 C 247.308594 354.304688 243.199219 366.84375 231.472656 372.671875 C 226.527344 375.132812 223.660156 381.8125 221.089844 387.191406 C 219.199219 391.152344 214.609375 392.503906 210.996094 394.367188 C 214.667969 407.519531 214.277344 428.855469 217.199219 442.226562 C 222.105469 441.765625 230.347656 434.324219 238.390625 434.515625 C 255.011719 434.898438 255.613281 431.195312 264.3125 428.773438 C 269.210938 430.300781 274.039062 432.523438 278.949219 432.234375 C 288.640625 431.664062 295.347656 431.46875 303.003906 427.964844 C 305.050781 427.03125 302.167969 426.195312 300.007812 425.136719 C 297.488281 424.035156 294.789062 423.546875 292.09375 423.699219 C 290.726562 423.675781 289.367188 423.554688 288.011719 423.332031 C 296.417969 421.574219 304.832031 419.816406 309.761719 418.402344 C 310.871094 417.089844 332.84375 412.570312 330.3125 410.511719 Z M 330.3125 410.511719 "/>
</g>
</g>
</g>
</g>
</svg>
