<svg xmlns="http://www.w3.org/2000/svg" width="434.183" height="434.188" viewBox="0 0 434.183 434.188">
  <path id="Path_2316" data-name="Path 2316" d="M2376.966,5391.1a36.248,36.248,0,0,0,28.946-35.459h0c0-53.549-13.866-86.837-36.182-86.837s-36.182,33.288-36.182,86.837a36.246,36.246,0,0,0,28.946,35.458v116.51h-28.946v-43.418h7.236a7.237,7.237,0,0,0,7.237-7.237V5406.3a7.234,7.234,0,0,0-4.174-6.555l-31.035-14.473h0a7.223,7.223,0,0,0-6.91.427,91.327,91.327,0,0,1-15.767,7.924V5189.208a7.242,7.242,0,0,0-4.452-6.681l-82.385-34.327v-53.065a7.235,7.235,0,0,0-9.775-6.781l-115.782,43.418a7.236,7.236,0,0,0-4.7,6.781V5373.07a140.892,140.892,0,0,0-42.072,36.263,7.228,7.228,0,0,0-1.347,4.2v43.419a7.237,7.237,0,0,0,7.237,7.236h7.236v43.418h-28.945V5391.1a36.249,36.249,0,0,0,28.945-35.459c0-53.549-13.866-86.836-36.182-86.836s-36.182,33.287-36.182,86.836a36.248,36.248,0,0,0,28.946,35.459v116.509h-28.946v14.473h434.183v-14.473h-28.946Zm-376.292-35.46v20.378a21.71,21.71,0,0,1-14.472-20.378h0c0-49.931,12.693-72.364,21.709-72.364s21.71,22.433,21.71,72.364a21.709,21.709,0,0,1-14.473,20.378v-20.378Zm202.619-191.76,72.363,30.153V5348.4h-72.363Zm0,199h72.363v34.806a79.172,79.172,0,0,1-14.473,1.376h0c-21.534,0-34.263-8.545-49-18.44-2.894-1.925-5.841-3.88-8.893-5.789Zm-115.782-219.307,101.309-37.993V5326.7H2087.511Zm0,197.606H2188.82v25.5a111.621,111.621,0,0,0-50.655-11.023,129.038,129.038,0,0,0-50.654,10.325Zm-43.419,108.547v-33.715a125.122,125.122,0,0,1,94.073-45.886c32.406,0,49.453,11.449,65.951,22.519,15.307,10.277,31.126,20.9,57.067,20.9a96.546,96.546,0,0,0,49-13.526l23.366,10.9v38.809Zm28.946,57.89h-14.473v-43.418h14.473Zm65.127,0h-50.654v-14.473h50.654Zm0-28.946h-50.654v-14.472h50.654Zm43.418,28.946h-28.945v-43.418h28.945Zm43.419,0h-28.946v-43.418H2225Zm65.127,0h-50.655v-14.473h50.655Zm0-28.946h-50.655v-14.472h50.655Zm28.946,28.946H2304.6v-43.418h14.473Zm43.418-151.964v20.379a21.715,21.715,0,0,1-14.473-20.379h0c0-49.931,12.693-72.364,21.709-72.364s21.709,22.433,21.709,72.364a21.713,21.713,0,0,1-14.472,20.379v-20.379Zm-115.782-123.026h14.472v14.472h-14.472Zm0,28.945h14.472v14.473h-14.472Zm0-57.891h14.472v14.473h-14.472Zm-144.728,94.073h14.473v14.473h-14.473Zm0-57.891h14.473v14.473h-14.473Zm0,28.945h14.473v14.473h-14.473Zm115.782-65.127h14.473v14.473h-14.473Zm0,86.837h14.473v14.472h-14.473Zm0-28.946h14.473v14.473h-14.473Zm0,57.891h14.473v14.473h-14.473Zm28.946-28.945h14.472v14.472h-14.472Zm0,28.945h14.472v14.473h-14.472Zm-144.728-108.546h14.473v14.473h-14.473Zm115.782,21.71h14.473v14.472h-14.473Zm86.837,188.145h14.473v14.473H2304.6ZM2159.874,5153.02h14.473v14.473h-14.473Zm0,57.891h14.473v14.473h-14.473Zm0-28.945h14.473v14.473h-14.473Zm0,57.891h14.473v14.473h-14.473Zm-57.891-57.891h14.473v14.473h-14.473Zm-36.182,238.8h151.964v14.473H2065.8Zm94.073-151.964h14.473v14.473h-14.473Zm21.709,137.492h-57.891v-14.473h57.891Zm-72.363,0h-14.473v-14.473h14.473Zm21.709-166.437H2145.4v14.473h-14.472Zm0,28.945H2145.4v14.473h-14.472Zm0,28.946H2145.4v14.473h-14.472Zm28.945,0h14.473v14.473h-14.473Zm-57.891-144.728h14.473v14.473h-14.473Zm28.946,0H2145.4v14.473h-14.472Zm0,28.946H2145.4v14.473h-14.472Zm0,28.945H2145.4v14.473h-14.472Z" transform="translate(-1971.729 -5087.894)" fill="#00170f" opacity="0.3" style="mix-blend-mode: multiply;isolation: isolate"/>
</svg>
