<svg xmlns="http://www.w3.org/2000/svg" width="442.078" height="148.473" viewBox="0 0 442.078 148.473">
  <g id="Group_1844" data-name="Group 1844" transform="translate(-600.897 -6354.451)">
    <path id="Path_2187" data-name="Path 2187" d="M875.8,6412.052c0-10.46.019-20.92-.026-31.38-.005-1.139.239-1.508,1.443-1.5,6.225.06,12.45.049,18.675,0,1.1-.008,1.512.2,1.509,1.438q-.062,31.453,0,62.908c0,1.119-.22,1.49-1.435,1.477q-9.411-.106-18.823,0c-1.162.011-1.366-.356-1.362-1.418C875.818,6433.071,875.8,6422.562,875.8,6412.052Z" fill="#f5f5f5"/>
    <path id="Path_2188" data-name="Path 2188" d="M925.294,6476.874c2.313,5.382,5.611,10,8.609,14.8a1.121,1.121,0,0,0,1.48.506,259.416,259.416,0,0,1,34.165-6.313,279.9,279.9,0,0,1,48.529-1.688c.746.041,2.017-.321,2.04.839.023,1.137-1.236,1.032-2.087,1.167-.486.078-.988.058-1.474.138-.727.119-1.427-.219-2.094.783-.535.805-2.095.634-3.223.7-3.7.216-7.406.31-11.115.209-.683-.019-1.4-.287-1.766.744-.185.519-1,.56-1.6.565-1.68.015-3.359,0-5.039-.012a271.476,271.476,0,0,0-33.693,2.262c-7.3.856-14.574,1.912-21.871,3.121.2.8.822,1.271,1.139,1.918.218.443.914.872.433,1.392-.427.462-1.061.057-1.516-.169a14.658,14.658,0,0,1-2.791-1.65,3.211,3.211,0,0,0-2.9-.584c-1.647.312-3.3.6-4.958.844-.442.064-1.171.311-1.31-.226-.173-.671.551-1,1.091-1.186,1.486-.509,3-.94,4.51-1.4.053-.554-.439-.737-.73-1.033a46.637,46.637,0,0,1-9.682-14.392c-.427-.993-.167-1.321.63-2.171,1.448-1.545,3.126-.745,4.615-1.238.651-.216,1.362-.247,2.015-.459,1.578-.512,3.2-1.14,3.484-3.011.3-1.936-1.062-3.148-2.5-4.039a29.271,29.271,0,0,0-11.036-4.034,24.306,24.306,0,0,0-10.141.408c-.615.166-1.3.246-1.641-.269-.422-.638.27-1.081.675-1.445a14.948,14.948,0,0,1,6.72-3.856c1.984-.438,3.932.113,5.855.441,5.111.874,9.777,2.726,13.357,6.686a9.308,9.308,0,0,1,2.275,4.1c.841,3.563-1.475,6.579-5.538,7.249C927.293,6476.713,926.355,6476.763,925.294,6476.874Z" fill="#f5f5f5"/>
    <path id="Path_2189" data-name="Path 2189" d="M671.859,6481.6c-5.066.025-10.132.061-15.2.072-2.212,0-4.424-.043-6.637-.067a1.385,1.385,0,0,1-.519-1.312c0-6.459-.058-12.918.026-19.376a1.893,1.893,0,0,1,.093-.433,1.5,1.5,0,0,1,.357-.464l21.9.022a2.572,2.572,0,0,1,.458,1.95q.021,8.83,0,17.66A2.614,2.614,0,0,1,671.859,6481.6Z" fill="#f5f5f5"/>
    <path id="Path_2190" data-name="Path 2190" d="M671.859,6481.6q.011-10.779.021-21.558c7.3-.132,14.592-.146,21.889.008a2.388,2.388,0,0,1,.52,1.928q.021,8.834,0,17.669a2.488,2.488,0,0,1-.507,1.937,9.378,9.378,0,0,1-1.158.144q-9.8.01-19.6,0A10.632,10.632,0,0,1,671.859,6481.6Z" fill="#f5f5f5"/>
    <path id="Path_2191" data-name="Path 2191" d="M737.4,6481.634c-5.581.03-11.161.079-16.741.077a29.76,29.76,0,0,1-5.172-.122,1.756,1.756,0,0,1-.434-1.364c-.005-6.342-.033-12.684.015-19.025a2.169,2.169,0,0,1,.1-.581,1.212,1.212,0,0,1,.583-.627l21.627.02a2.236,2.236,0,0,1,.453,1.8q.013,9,0,18A2.442,2.442,0,0,1,737.4,6481.634Z" fill="#f5f5f5"/>
    <path id="Path_2192" data-name="Path 2192" d="M824.61,6481.812c-7.482.061-14.961.159-22.446-.077-5.957-.188-11.924-.046-17.886-.056-.985,0-1.969-.032-2.954-.049a2.283,2.283,0,0,1-.42-1.669q-.011-9.054,0-18.107a2.3,2.3,0,0,1,.321-1.552,2.969,2.969,0,0,1,1.6-.151c5.385-.012,10.77,0,16.156-.013a3.825,3.825,0,0,0,1.609-.117l2.391-.022a2.89,2.89,0,0,1,.408,2.118c.012,5.71,0,11.42.009,17.129,0,1.792.156,1.942,1.935,1.949,6.161.025,12.322-.04,18.482.032a1.682,1.682,0,0,1,.539.14A.439.439,0,0,1,824.61,6481.812Z" fill="#f5f5f5"/>
    <path id="Path_2193" data-name="Path 2193" d="M779.241,6481.645c-6.7.1-13.4.219-20.1-.062-.565-.486-.479-1.154-.48-1.784q-.016-9,0-18c0-.625-.1-1.3.509-1.762l21.277-.019c.6.3.573.86.574,1.4.005,6.246-.047,12.492.037,18.736C781.077,6481.687,779.985,6481.331,779.241,6481.645Z" fill="#f5f5f5"/>
    <path id="Path_2194" data-name="Path 2194" d="M715.753,6459.992l-.237.3c-.392.479-.189,1.044-.191,1.563-.016,6.058-.006,12.116-.017,18.174a3.175,3.175,0,0,1-.137,1.6c-7.129.05-14.259.144-21.388-.048q-.008-10.767-.014-21.534,8.78-.039,17.559-.077C712.8,6459.966,714.278,6459.984,715.753,6459.992Z" fill="#f5f5f5"/>
    <path id="Path_2195" data-name="Path 2195" d="M649.614,6481.645c-6.86.027-13.721.045-20.581.092-.723.005-.777-.354-.776-.917.011-6.657.025-13.314-.012-19.97-.006-1.05.534-.954,1.21-.831a4.957,4.957,0,0,0,1.9.117c5.565.013,11.131,0,16.7.013a3.661,3.661,0,0,1,1.6.122,36.878,36.878,0,0,1,.095,5.008c.024,4.973.012,9.946,0,14.919A2.709,2.709,0,0,1,649.614,6481.645Z" fill="#f5f5f5"/>
    <path id="Path_2196" data-name="Path 2196" d="M886.546,6354.526c3.261,0,6.522.025,9.782-.019.835-.011,1.073.231,1.066,1.07q-.06,7.177,0,14.356c.009.952-.34,1.127-1.209,1.122q-9.558-.05-19.119,0c-.883,0-1.313-.115-1.3-1.182.059-4.735.044-9.472,0-14.208-.009-.9.218-1.178,1.149-1.161C880.123,6354.563,883.335,6354.526,886.546,6354.526Z" fill="#f5f5f5"/>
    <path id="Path_2197" data-name="Path 2197" d="M963.642,6480.39a13.974,13.974,0,0,1-5.156,2.5c-2.483.5-4.022-.618-4.263-3.155a13.475,13.475,0,0,1,2.632-9.464c2.886-3.958,5.873-3.93,8.847.143a38.252,38.252,0,0,0,.694-5.844,109.428,109.428,0,0,0,.31-11.985c-.011-.468-.217-1.1.368-1.314.52-.194.919.273,1.245.63,1.856,2.029,3.574,4.233,3.663,7.068a23.528,23.528,0,0,1-.843,5.668,117.51,117.51,0,0,1-5.866,18.236c-.218.546-.366,1.5-1.12,1.286-.719-.2-.642-1.121-.627-1.816C963.539,6481.73,963.908,6481.135,963.642,6480.39Z" fill="#f5f5f5"/>
    <path id="Path_2198" data-name="Path 2198" d="M920.516,6467.04a4.815,4.815,0,0,1-.473,2c-4.2,9.533-6.67,19.608-9.317,29.625a21.144,21.144,0,0,0-.282,3.38c-.03.314.041.747-.4.857a.7.7,0,0,1-.878-.593,3.87,3.87,0,0,0-1.6-2.174c-2.182-1.771-2.095-4.069-1.473-6.469,1.529-5.9,4.293-11.282,7.1-16.635,1.645-3.133,3.427-6.195,5.155-9.286a7.6,7.6,0,0,1,.725-1.111c.294-.357.53-1.01,1.1-.772C920.7,6466.076,920.464,6466.726,920.516,6467.04Z" fill="#f5f5f5"/>
    <path id="Path_2199" data-name="Path 2199" d="M972.642,6475.422a25.2,25.2,0,0,1,.888-6.157c.587-1.8,1.272-2.218,2.773-1.779,1.791.523,2.163,1.214,1.743,3.059a5.265,5.265,0,0,1-.961,1.928c-1.2,1.672-.922,3.671-.881,5.577.015.679.559.387.871.194a12.219,12.219,0,0,0,2.741-2.242c2.583-2.911,5.266-5.75,7.052-9.268.412-.813,1-1.241,1.648-.307,1.373,1.977,3.072,3.722,4.135,5.922,1.7,3.511.684,6.093-3,7.467a11.419,11.419,0,0,1-4.364.65c-.487-.013-1.114.066-1.249-.508-.13-.551.415-.838.861-1.053a4.424,4.424,0,0,0,2.873-4.545,1.791,1.791,0,0,0-.022-.294c-.236-.993-.265-2.357-1.124-2.724-.609-.259-1.209,1.075-1.8,1.708a46.353,46.353,0,0,1-6.787,6.583c-3.333,2.374-4.535,1.864-5.191-2.183C972.733,6476.723,972.7,6475.984,972.642,6475.422Z" fill="#f5f5f5"/>
    <path id="Path_2200" data-name="Path 2200" d="M1034.239,6471.713a16.426,16.426,0,0,0-2.657,4.238,9.434,9.434,0,0,1-3.043,4.107c-1.433.989-2.481.631-2.808-1.054a17.846,17.846,0,0,1,1.558-10.633,1.6,1.6,0,0,1,1.991-1.125c1.07.354,2.293.743,2.243,2.184a3.116,3.116,0,0,1-1.228,2.824c-.954.637-.939,1.693-.682,3.053.767-1.305,1.36-2.355,2-3.379a10.848,10.848,0,0,1,1.136-1.545c1.58-1.748,2.316-1.629,3.428.438,1.606,2.985,3.048,6.081,5.7,8.369a4.447,4.447,0,0,1,.95,1.479,1.158,1.158,0,0,1-.43,1.554,3.566,3.566,0,0,1-5.246-1.362C1035.971,6477.971,1034.658,6475.114,1034.239,6471.713Z" fill="#f5f5f5"/>
    <path id="Path_2201" data-name="Path 2201" d="M1012.623,6479.839c-2.086-.014-3.054-1.179-2.7-3.011a19.222,19.222,0,0,1,2.565-5.771c.9-1.58,1.86-3.136,2.875-4.647a2.533,2.533,0,0,1,3.459-1.064c.857.4.289,1-.011,1.439a26.641,26.641,0,0,0-3.515,7.594c-.215.714-.845,1.649-.062,2.157s1.489-.387,2.206-.787c1.156-.645,1.146-1.549.821-2.62a7.445,7.445,0,0,1-.6-2.72,1.069,1.069,0,0,1,.641-1.068.89.89,0,0,1,1.1.509,11.206,11.206,0,0,1,1.633,5.3,1.025,1.025,0,0,1-.865,1.2,5.1,5.1,0,0,0-2.513,1.473A9.24,9.24,0,0,1,1012.623,6479.839Z" fill="#f5f5f5"/>
    <path id="Path_2202" data-name="Path 2202" d="M999.2,6479.807c-.345,0-.692.023-1.035-.006a.732.732,0,0,1-.759-.579.8.8,0,0,1,.493-.83c.261-.138.54-.241.8-.379a5,5,0,0,0,1.571-7.289c-.381-.51-.569-.173-.8,0-.866.649-1.709,1.329-2.565,1.993-.267.206-.537.518-.909.3s-.236-.612-.225-.94a2.2,2.2,0,0,1,1.016-1.844,9.091,9.091,0,0,0,3.553-4.413,3.346,3.346,0,0,1,1.808-1.867c.4-.191.907-.325,1.232.08.311.387.138.8-.157,1.2-1.378,1.863-1.183,3.256.6,4.772a17.111,17.111,0,0,1,1.945,1.805c1.845,2.15,1.612,4.364-.614,6.157A9.782,9.782,0,0,1,999.2,6479.807Z" fill="#f5f5f5"/>
    <path id="Path_2203" data-name="Path 2203" d="M887.172,6481.549c1.082-2.308,2.094-4.538,3.176-6.733a1.757,1.757,0,0,0-.022-1.769c-1.246-2.443-2.434-4.915-3.65-7.39,1.7-.528,2.662,0,3.233,1.609a45.6,45.6,0,0,0,1.995,4.211,43.523,43.523,0,0,0,1.939-4.273c.53-1.592,1.468-2.056,3.161-1.547-.343.737-.68,1.469-1.022,2.2-1.9,4.046-3.876,8.057-5.649,12.157C889.68,6481.524,888.866,6482.066,887.172,6481.549Z" fill="#f5f5f5"/>
    <path id="Path_2204" data-name="Path 2204" d="M601.315,6379.3c.334.82-.08,1.619-.08,2.436q.051,48.381.029,96.762c0,.444-.025.89.015,1.331.091,1,.487,1.526,1.676,1.515,6.518-.061,13.037-.03,19.556-.03-.206.738-.814.394-1.225.4-6.371.023-12.741,0-19.111.037-.946.006-1.236-.216-1.235-1.2q.039-50.079.039-100.158C600.98,6380.037,600.647,6379.488,601.315,6379.3Z" fill="#f5f5f5"/>
    <path id="Path_2205" data-name="Path 2205" d="M759.169,6460.038l-.03,21.545a11.783,11.783,0,0,1-1.737.261c-6.1.021-12.192.015-18.289.015-.387,0-.793.078-1.122-.224a2.965,2.965,0,0,1,1.455-.66c5.471-.263,10.945-.072,16.417-.109,2.33-.015,2.441-.075,2.444-2.37q.012-7.905,0-15.81c0-1.838-.1-1.928-1.914-1.93-5.425-.007-10.851-.027-16.276.024-.724.007-1.807-.379-1.941.958.013.642.018,1.282-.024,1.923-.037,5.551-.016,11.1-.007,16.651a2.876,2.876,0,0,1-.147,1.323l-.593,0-.024-21.621C744.643,6459.888,751.906,6459.844,759.169,6460.038Z" fill="#f5f5f5"/>
    <path id="Path_2206" data-name="Path 2206" d="M1025.842,6484.49c2.012.191,4.027.358,6.034.589.558.064,1.255.142,1.3.937.044.727-.534,1.014-1.079,1.246-1.774.753-3.842,1.289-5.45.463a11.491,11.491,0,0,0-4.551-1.685c-.25-.016-.355-.315-.272-.59a1.123,1.123,0,0,1,1.053-.892c.984-.039,1.971-.011,2.956-.011Z" fill="#f5f5f5"/>
    <path id="Path_2207" data-name="Path 2207" d="M824.61,6481.812a1.034,1.034,0,0,0-.013-.255,1.809,1.809,0,0,1-.379-1.386q-.023-9.316,0-18.634a1.981,1.981,0,0,1,.423-1.522q9.414-.044,18.827-.085c3.135-.011,3.134,0,3.134,3.122,0,5.775-.01,11.551.011,17.326,0,.9-.093,1.519-1.244,1.511C838.448,6481.84,831.529,6481.833,824.61,6481.812Z" fill="#f5f5f5"/>
    <path id="Path_2208" data-name="Path 2208" d="M803.943,6401c-.435-.143-.975-.388-.7-.88.6-1.092.307-2.226.31-3.328q.042-19.964.018-39.927c0-2.031,0-2.033-2.059-2.033q-8.589,0-17.178,0c-.677,0-1.354.013-2.032.02.282-.661.856-.3,1.27-.305,6.322-.027,12.643.013,18.964-.048,1.124-.011,1.366.288,1.363,1.38q-.059,21.6-.022,43.2C803.873,6399.719,803.918,6400.359,803.943,6401Z" fill="#f5f5f5"/>
    <path id="Path_2209" data-name="Path 2209" d="M731.008,6443.363a3.878,3.878,0,0,1-1.11-2.142c-2.3-13.842-.485-27.789-1.121-41.67-.092-2.009.117-4.119-.982-6.019-.35-.6.127-1.307.321-1.948a23.189,23.189,0,0,1,1.133,8.01c.029,10.014.008,20.028,0,30.042a6.588,6.588,0,0,1-.114.868,20.875,20.875,0,0,1,.164,2.806A39.043,39.043,0,0,0,731.008,6443.363Z" fill="#f5f5f5"/>
    <path id="Path_2210" data-name="Path 2210" d="M824.334,6481.548c-6.809.017-13.619.023-20.428.065-.823.005-.976-.349-.973-1.064q.043-10.274.047-20.55l21.35.015a.463.463,0,0,1-.1.516,1.613,1.613,0,0,1-1.259.29c-5.629-.141-11.26-.038-16.89-.056-2.183-.007-2.331.164-2.334,2.378q-.009,7.917,0,15.833c.005,1.728.135,1.862,1.853,1.868,5.433.018,10.866,0,16.3.011a5.18,5.18,0,0,1,2.192.235A.42.42,0,0,1,824.334,6481.548Z" fill="#f5f5f5"/>
    <path id="Path_2211" data-name="Path 2211" d="M736.621,6444.584l19.387,0c1.876,0,1.877,0,1.877-1.959q0-15.886.008-31.774a6.924,6.924,0,0,1,.6-3.57c.018-.031.068-.045.1-.066l.185.35a34.929,34.929,0,0,0-.6,8.379c.013,9.227-.017,18.454.033,27.681.006,1.117-.277,1.377-1.38,1.367-6.324-.057-12.649-.02-18.973-.043C737.449,6444.951,736.854,6445.294,736.621,6444.584Z" fill="#f5f5f5"/>
    <path id="Path_2212" data-name="Path 2212" d="M982.028,6459.545c0,1.241-2.6,3.6-3.773,3.426-.488-.071-.505-.411-.454-.76.155-1.067.268-2.148.528-3.191a1.81,1.81,0,0,1,2.012-1.563C981.517,6457.587,981.929,6458.474,982.028,6459.545Z" fill="#f5f5f5"/>
    <path id="Path_2213" data-name="Path 2213" d="M850.761,6443.929c-.165-.3-.308-.61-.5-.894q-6.327-9.56-12.663-19.115-6.2-9.372-12.371-18.757a1.413,1.413,0,0,1-.007-1.708,6.387,6.387,0,0,1,.57-.792q4.871-4.977,9.756-9.938a2.819,2.819,0,0,0,1.794-1.846c.173-.184.346-.367.518-.551a11.828,11.828,0,0,0,2.8-2.879l7.826-8.245c-8.326,0-16.264.011-24.2-.017-.838,0-1.218.516-1.672,1.022L803.943,6401c-.751-.732-.2-1.607-.205-2.392q-.054-21.081-.027-42.162c0-1.722-.035-1.756-1.726-1.757q-8.962-.006-17.924,0a6.965,6.965,0,0,0-1.763.169c-.019.443-.055.885-.056,1.327,0,6.956-.023,13.912.025,20.868.007,1.058-.276,1.372-1.305,1.161a17.212,17.212,0,0,0-4.429-.232c-8.465.476-14.928,4.023-18.458,12.05-.08.181-.092.5-.505.447,0-3.3-.05-6.594.028-9.89.025-1.1-.247-1.415-1.375-1.4-6.026.06-12.054.075-18.08,0-1.322-.017-1.617.333-1.615,1.627q.066,31.227.034,62.455c0,.442.039.884.059,1.326a2.268,2.268,0,0,0,1.3.141q9.266.012,18.531,0c1.57,0,1.574,0,1.574-1.63,0-10.512-.011-21.023.016-31.534a6.915,6.915,0,0,1,.733-4c.177-.4.371-.794.53-1.2a14.025,14.025,0,0,1,9.012-8.554c4.107-1.383,8.248-1.094,12.416-.184,1.2.261,1.544.7,1.539,1.937q-.077,21.9-.016,43.807c0,.485-.315,1.074.251,1.483.438.036.877.1,1.315.1,6.265.007,12.529-.023,18.793.034,1.066.009,1.283-.3,1.276-1.306-.043-6.6-.017-13.2-.014-19.8l5.556-5.311,3.55,5.792,11.65,19.013c.843,1.423,2.146,1.55,3.665,1.531,5.917-.073,11.835-.029,17.753-.03,1.233,0,2.467.025,3.7-.014C850.324,6444.85,851.067,6444.926,850.761,6443.929Z" fill="#f5f5f5"/>
    <path id="Path_2214" data-name="Path 2214" d="M824.636,6443.381l.115-.093c1.224,1.748,3.057,1.292,4.753,1.295q9.85.013,19.7-.009c.568,0,1.36.338,1.554-.645l.621.664c-.088.615-.578.426-.926.426q-12.258.01-24.516,0a1.738,1.738,0,0,1-.432-.087Z" fill="#f5f5f5"/>
    <path id="Path_2215" data-name="Path 2215" d="M779.241,6481.645c1.392-.24,1.525-1.16,1.512-2.388-.06-5.791-.025-11.583-.026-17.375a3.328,3.328,0,0,0-.281-1.863l.567,0a.8.8,0,0,1,.153.542q.006,9.81,0,19.62a3.056,3.056,0,0,1-.123,1.451A3.826,3.826,0,0,1,779.241,6481.645Z" fill="#f5f5f5"/>
    <path id="Path_2216" data-name="Path 2216" d="M824.334,6481.548c0-.076-.007-.152-.013-.228a2.328,2.328,0,0,1-.463-1.664q-.028-8.769-.007-17.539a3.227,3.227,0,0,1,.475-1.826c.005-.092.006-.184,0-.277h.309q-.021,10.771-.042,21.542l-.132.014Z" fill="#f5f5f5"/>
    <path id="Path_2217" data-name="Path 2217" d="M649.614,6481.645q0-10.676,0-21.352c.106-.118.206-.119.3.015q.03,9.762.059,19.524c0,.59.031,1.181.048,1.772Z" fill="#f5f5f5"/>
    <path id="Path_2218" data-name="Path 2218" d="M715.171,6481.63c0-6.561-.007-13.122.012-19.683,0-.555-.259-1.2.333-1.65q-.012,10.646-.025,21.292Z" fill="#f5f5f5"/>
    <path id="Path_2219" data-name="Path 2219" d="M781.039,6481.629q.016-10.669.034-21.34c.082-.118.164-.124.247,0q0,10.669,0,21.341l-.143.025Z" fill="#f5f5f5"/>
    <path id="Path_2220" data-name="Path 2220" d="M649.917,6460.308l-.3-.016q-9.309,0-18.617-.013c-.519,0-1.093.191-1.546-.26l20.525,0C649.96,6460.115,649.939,6460.212,649.917,6460.308Z" fill="#f5f5f5"/>
    <path id="Path_2221" data-name="Path 2221" d="M781.32,6460.289h-.247a.753.753,0,0,1-.06-.273l19.576,0c-.454.446-1.027.256-1.546.258Q790.181,6460.3,781.32,6460.289Z" fill="#f5f5f5"/>
    <path id="Path_2222" data-name="Path 2222" d="M729.3,6433.31a8,8,0,0,1-.163-2.806A8.734,8.734,0,0,1,729.3,6433.31Z" fill="#f5f5f5"/>
    <path id="Path_2223" data-name="Path 2223" d="M731.216,6443.925l-.208-.562a4.566,4.566,0,0,1-.913-2.251c-1.147-3.871-1.036-7.878-1.1-11.837-.185-10.928.13-21.86-.156-32.789-.044-1.68-.942-3.2-.721-4.9-1.842-6.145-6.21-9.751-12.028-11.858a43.211,43.211,0,0,0-12.175-2.237c-6.936-.424-13.8-.134-20.509,1.921-7.161,2.195-12.436,6.462-15.087,13.631h0c-.334,1.8-.669,3.593-1.041,5.593l-1.123-3.192h0c-4.288-10.241-11.515-16.757-22.9-17.938-8.5-.882-15.668,1.539-20.944,8.559-.177.235-.258.676-.807.542v-4.558c0-2.841,0-2.854-2.851-2.842q-8.665.037-17.332.1a9.744,9.744,0,0,0-.2,2.35q.006,48.541,0,97.08c0,.3-.008.593,0,.888.055,1.735.159,1.84,1.859,1.841q9.041,0,18.08-.006a2.712,2.712,0,0,0,1.451-.139c.022-.541.062-1.082.062-1.623q.006-19.994.005-39.989v-2.014c6.005,7.75,13.757,10.044,22.715,8.961,9.158-1.107,15.532-6.247,19.925-14.374a17.5,17.5,0,0,0,10.47,12.466,27.83,27.83,0,0,0,10.813,2.165,36.021,36.021,0,0,0,15.809-3.252,9.836,9.836,0,0,0,4.226-2.7l.294-.241a5.591,5.591,0,0,1,1.8-.977,5.752,5.752,0,0,0,.581,1.647c.113.373.16.765.236,1.15.4,2,.82,2.337,2.865,2.339q5.028,0,10.058,0c2.563,0,5.127.022,7.69-.017C730.625,6444.856,731.509,6445.062,731.216,6443.925Zm-83.494-30.594a24.679,24.679,0,0,1-2.8,10.921c-2.528,4.54-6.4,6.53-11.539,6.1-4.859-.41-8.3-2.88-9.842-7.5a31.039,31.039,0,0,1-.005-21.135,10.368,10.368,0,0,1,3.158-4.561,3.594,3.594,0,0,1,1.524-1.239,11.562,11.562,0,0,1,16.619,3.443C647.427,6403.667,647.982,6408.44,647.722,6413.331Zm59.447,12.964a10.1,10.1,0,0,1-8.657,7.045,15.846,15.846,0,0,1-7.176-.325,7.047,7.047,0,0,1-4.348-10.054h0c1.288-2.993,3.954-4.019,6.819-4.759,3.21-1.14,6.6-1.486,9.9-2.268a31.7,31.7,0,0,0,4.688-1.565C708.484,6418.475,708.511,6422.449,707.169,6426.295Zm1.447-26.947c-.3,2.495-1.776,3.942-4.846,4.649-3.706.853-7.488,1.249-11.248,1.775-5.373.752-10.744,1.5-15.84,3.506a22.338,22.338,0,0,0-7.266,4.546,56.082,56.082,0,0,0-1.907-14.278h12c2.322,0,4.644,0,6.967,0,.521,0,1,.112,1.186-.7,1.419-6.289,6.741-7.949,12.171-7.487a14.02,14.02,0,0,1,5.238,1.461A6,6,0,0,1,708.616,6399.348Z" fill="#f5f5f5"/>
    <g id="Group_1843" data-name="Group 1843">
      <path id="Path_2224" data-name="Path 2224" d="M1042.952,6403.151a47.784,47.784,0,0,0-.586-7.962c-1.137-6.777-4.056-12.5-10.625-15.368a27.7,27.7,0,0,0-24.843.705,21.544,21.544,0,0,0-8.369,7.581,1.477,1.477,0,0,1-.273-1.227c-.009-2.123-.058-4.247.017-6.367.036-1.024-.25-1.34-1.3-1.332-6.129.049-12.259.039-18.388,0-.922,0-1.278.172-1.276,1.209q.051,31.692.005,63.383c0,.992.3,1.219,1.246,1.214,6.327-.04,12.654-.052,18.981.007,1.133.011,1.382-.315,1.378-1.4q-.063-15.105-.017-30.21c0-2.22-.013-4.45.177-6.658.661-7.669,5.487-11.974,12.889-11.6,5.286.266,8.385,3.163,9.063,8.354a44.04,44.04,0,0,1,.3,5.759c0,11.452.008,22.9-.037,34.357,0,1.08.224,1.41,1.364,1.4,6.277-.061,12.555-.072,18.832.006,1.3.016,1.494-.4,1.49-1.57Q1042.912,6423.291,1042.952,6403.151Z" fill="#f5f5f5"/>
      <path id="Path_2225" data-name="Path 2225" d="M970.148,6402.819c0-.123-.007-.246-.018-.369a2.322,2.322,0,0,0-.11-.941l-.08-2.84a3.24,3.24,0,0,0-.225-1.849h0c-.032-.4.189-.873-.315-1.145a7.652,7.652,0,0,0-.016-1.469c-1.3-6.482-4.415-11.64-10.646-14.527a25.027,25.027,0,0,0-8.7-2.186c-9.866-.751-18.2,2.1-24.166,10.411-.062.087-.21.113-.394.205,0-2.607-.052-5.122.025-7.633.033-1.066-.329-1.3-1.341-1.3-5.976.045-11.954.072-17.93-.015-1.439-.021-1.788.361-1.785,1.787q.074,31.15.037,62.3c0,.441.045.882.069,1.324a.433.433,0,0,0,.172-.065v.027a1.252,1.252,0,0,1-.172.038c.223.728.827.377,1.241.378,6.313.025,12.627-.012,18.939.045,1.106.009,1.383-.266,1.38-1.376-.032-12.213,0-24.426.008-36.64.513-1.677.419-3.521,1.394-5.071a2.436,2.436,0,0,0,.63-1.178,8.006,8.006,0,0,1,2.332-2.972,6.272,6.272,0,0,0,1.216-.912,11.346,11.346,0,0,1,15.735,3.312h0a35.94,35.94,0,0,1,1.162,10.6c-.023,10.936,0,21.873-.043,32.809,0,1.027.145,1.445,1.333,1.432,6.313-.067,12.628-.031,18.942-.036a1.735,1.735,0,0,0,1.146-.161c.343-.384.173-.85.173-1.273Q970.16,6423.176,970.148,6402.819Zm-21.254,8.728c.006-.579.027-1.158.067-1.736Q948.941,6410.678,948.894,6411.547Z" fill="#f5f5f5"/>
    </g>
    <path id="Path_2226" data-name="Path 2226" d="M950.922,6479.669c-.741.386-1.469.8-2.205,1.194-.331.177-.611.655-1.026.416-.474-.272-.279-.834-.182-1.21.622-2.425,1.229-4.858,2.005-7.236.3-.923.582-1.751-.567-1.954-.954-.17-1.052-1.369-1.992-1.328-.421.019-.684.39-.862.744-.3.6-.558,1.226-.842,1.861-1.6-1.881-3.48-2.175-4.963-.67a22.249,22.249,0,0,0-5.2,7.816,7.674,7.674,0,0,0-.532,4.34c.466,2.168,1.835,3.044,3.993,2.612a8.711,8.711,0,0,0,5.014-3.153c.329,1.3.693,2.518,2.163,2.324,1.346-.177,2.9-.4,3.42-1.879a3.875,3.875,0,0,1,1.35-1.986,5.406,5.406,0,0,0,1.025-1.058c.181-.242.546-.552.225-.89C951.522,6479.375,951.18,6479.535,950.922,6479.669Zm-6.349-4.2a35.912,35.912,0,0,0-.845,4.482,3.815,3.815,0,0,1-2.97,3.277c-1.2.34-1.829-.12-1.842-1.4a15.947,15.947,0,0,1,4.366-8.893c.356-.4.686-.328.879.179A3.351,3.351,0,0,1,944.573,6475.472Z" fill="#f5f5f5"/>
    <path id="Path_2227" data-name="Path 2227" d="M885.2,6468.4c-1.1-2.94-3.538-3.774-7.2-2.356,0-1.806-.06-3.483.023-5.153.05-1-.476-.95-1.171-.969-.729-.02-1.023.14-1.015.962.042,4.634.027,9.269.011,13.9,0,.545.067.963.667,1.131a9.274,9.274,0,0,0,5.526.177C885.017,6475.114,886.422,6471.661,885.2,6468.4Zm-2.288,4.436c-.736,1.279-2.05,1.721-3.842,1.491-.892-.114-1.169-.455-1.078-1.3a18.015,18.015,0,0,0,.013-1.917,10.1,10.1,0,0,0-.009-1.326,1.915,1.915,0,0,1,1.381-2.393,2.773,2.773,0,0,1,3.2.849A4.473,4.473,0,0,1,882.912,6472.84Z" fill="#f5f5f5"/>
    <path id="Path_2228" data-name="Path 2228" d="M737.733,6461.763c-.146-1.084.308-1.494,1.416-1.488q9.191.05,18.379,0c.976-.006,1.271.313,1.265,1.275-.035,6.019-.027,12.039-.011,18.058,0,1.351-.434,1.808-1.941,1.775-5.876-.13-11.757-.056-17.636-.058-.749.438-1.08-.16-1.477-.594q0-8.588,0-17.174c.957.268.7,1.092.7,1.708.039,4.365.014,8.73.026,13.095.009-4.83.018-9.661-.009-14.491C738.444,6463.114,738.623,6462.24,737.733,6461.763Z" fill="#f5f5f5"/>
    <path id="Path_2229" data-name="Path 2229" d="M737.733,6461.763c.611-.307,1.167-.491,1.166.533q-.009,8.654-.029,17.308c0,.116-.117.232-.261.5a5.033,5.033,0,0,1-.6-2.579q.012-6.215-.005-12.427c0-.519.2-1.1-.274-1.541Q737.73,6462.658,737.733,6461.763Z" fill="#f5f5f5"/>
    <path id="Path_2230" data-name="Path 2230" d="M737.728,6480.728c.557.037.828.783,1.477.594-.325.413-.808.213-1.213.313H738Z" fill="#f5f5f5"/>
    <path id="Path_2231" data-name="Path 2231" d="M846.274,6470.725c0,3.11-.037,6.221.019,9.33.021,1.143-.342,1.564-1.526,1.555q-9.194-.069-18.388-.006c-1.093.007-1.471-.369-1.465-1.464q.055-9.182-.005-18.364c-.008-1.2.464-1.515,1.586-1.508q9.194.054,18.388-.009c1.123-.009,1.439.337,1.414,1.433C846.23,6464.7,846.274,6467.714,846.274,6470.725Z" fill="#f5f5f5"/>
    <path id="Path_2232" data-name="Path 2232" d="M824.326,6460.291q0,10.515-.005,21.029c-6.514,0-13.028-.023-19.542.021-1.117.007-1.55-.238-1.536-1.465q.095-8.943,0-17.889c-.012-1.34.547-1.715,1.758-1.71q8.659.036,17.321-.01C822.993,6460.263,823.658,6460.769,824.326,6460.291Z" fill="#f5f5f5"/>
  </g>
</svg>
