<svg xmlns="http://www.w3.org/2000/svg" width="408.807" height="152.887" viewBox="0 0 408.807 152.887">
  <g id="Group_1890" data-name="Group 1890" transform="translate(-3314.369 -6352.244)">
    <path id="Path_2274" data-name="Path 2274" d="M3375.16,6428.087c6.84,15.918,16.594,29.583,25.46,43.77,1.19,1.9,2.466,1.992,4.377,1.5a767.119,767.119,0,0,1,101.044-18.672,827.742,827.742,0,0,1,143.526-4.991c2.206.119,5.964-.951,6.033,2.48.068,3.363-3.657,3.052-6.172,3.452-1.439.229-2.925.171-4.362.407-2.15.353-4.218-.647-6.19,2.316-1.585,2.38-6.2,1.876-9.533,2.071-10.946.639-21.9.916-32.872.616-2.02-.055-4.139-.847-5.225,2.2-.546,1.533-2.965,1.656-4.724,1.671-4.966.044-9.934,0-14.9-.036-33.383-.253-66.542,2.807-99.647,6.69-21.6,2.532-43.1,5.654-64.685,9.23.584,2.355,2.431,3.758,3.37,5.671.644,1.311,2.7,2.579,1.281,4.118-1.262,1.366-3.14.169-4.484-.5a43.252,43.252,0,0,1-8.254-4.878c-2.712-2.224-5.447-2.321-8.578-1.728-4.872.922-9.757,1.783-14.662,2.5-1.307.19-3.464.92-3.875-.669-.513-1.984,1.63-2.96,3.226-3.507,4.4-1.507,8.873-2.78,13.34-4.152.154-1.638-1.3-2.182-2.161-3.057a137.9,137.9,0,0,1-28.633-42.564c-1.263-2.935-.5-3.906,1.861-6.42,4.283-4.569,9.246-2.2,13.65-3.662,1.925-.638,4.029-.73,5.959-1.356,4.668-1.514,9.459-3.372,10.306-8.906.877-5.726-3.142-9.311-7.393-11.945a86.556,86.556,0,0,0-32.64-11.93,71.861,71.861,0,0,0-29.989,1.206c-1.819.489-3.848.727-4.855-.8-1.247-1.885.8-3.2,1.995-4.274,5.793-5.217,12.083-9.68,19.875-11.4,5.869-1.3,11.63.333,17.317,1.3,15.117,2.583,28.915,8.06,39.5,19.773a27.537,27.537,0,0,1,6.728,12.11c2.485,10.537-4.363,19.459-16.38,21.439C3381.072,6427.611,3378.3,6427.76,3375.16,6428.087Z" fill="#f5f5f5"/>
    <path id="Path_2275" data-name="Path 2275" d="M3488.572,6438.487c-4.772,3.316-9.575,6.257-15.248,7.4-7.343,1.485-11.894-1.825-12.606-9.33a39.849,39.849,0,0,1,7.784-27.989c8.534-11.706,17.368-11.622,26.164.422,1.411-5.917,1.573-11.633,2.053-17.283a323.484,323.484,0,0,0,.917-35.446c-.034-1.384-.641-3.243,1.087-3.887,1.538-.573,2.719.809,3.683,1.863,5.49,6,10.571,12.521,10.833,20.9.173,5.56-1.274,11.243-2.491,16.762-4.083,18.513-10.329,36.356-17.35,53.934-.645,1.616-1.082,4.423-3.312,3.805-2.127-.589-1.9-3.318-1.856-5.371C3488.27,6442.449,3489.361,6440.691,3488.572,6438.487Z" fill="#f5f5f5"/>
    <path id="Path_2276" data-name="Path 2276" d="M3361.028,6399a14.209,14.209,0,0,1-1.4,5.906c-12.407,28.192-19.725,57.989-27.555,87.614-.841,3.183-.517,6.665-.834,10-.088.929.124,2.209-1.2,2.534a2.072,2.072,0,0,1-2.6-1.754c-.621-2.9-2.581-4.7-4.715-6.43-6.455-5.238-6.2-12.034-4.359-19.131,4.523-17.451,12.7-33.368,21.011-49.2,4.866-9.267,10.136-18.324,15.247-27.463a22.255,22.255,0,0,1,2.144-3.287c.868-1.055,1.567-2.986,3.253-2.283C3361.564,6396.152,3360.875,6398.074,3361.028,6399Z" fill="#f5f5f5"/>
    <path id="Path_2277" data-name="Path 2277" d="M3515.191,6423.794c.445-6.493.757-12.473,2.627-18.209,1.735-5.322,3.761-6.56,8.2-5.262,5.295,1.548,6.4,3.589,5.154,9.046a15.521,15.521,0,0,1-2.843,5.7c-3.533,4.945-2.725,10.856-2.6,16.5.043,2.008,1.653,1.143,2.576.573a36.1,36.1,0,0,0,8.1-6.631c7.639-8.608,15.575-17,20.856-27.409,1.221-2.4,2.956-3.671,4.875-.909,4.061,5.847,9.084,11.008,12.228,17.514,5.019,10.385,2.025,18.02-8.87,22.085a33.83,33.83,0,0,1-12.908,1.922c-1.441-.04-3.3.194-3.7-1.5-.383-1.628,1.228-2.478,2.549-3.115,5.643-2.72,8.932-6.9,8.5-13.44a5.348,5.348,0,0,0-.066-.871c-.7-2.936-.782-6.971-3.323-8.055-1.8-.768-3.578,3.18-5.316,5.051-6.356,6.84-12.4,14-20.073,19.47-9.856,7.02-13.41,5.511-15.351-6.457C3515.462,6427.643,3515.357,6425.455,3515.191,6423.794Z" fill="#f5f5f5"/>
    <path id="Path_2278" data-name="Path 2278" d="M3697.365,6412.824a48.535,48.535,0,0,0-7.859,12.534c-2.13,4.664-4.629,9.136-9,12.148-4.241,2.923-7.339,1.865-8.308-3.119-2.132-10.975.278-21.4,4.61-31.445,1-2.329,2.971-4.292,5.888-3.327,3.165,1.046,6.782,2.2,6.633,6.457-.108,3.1-.445,6.222-3.632,8.351-2.821,1.884-2.777,5.009-2.016,9.03,2.269-3.859,4.023-6.965,5.906-9.992a32,32,0,0,1,3.36-4.571c4.673-5.168,6.85-4.816,10.138,1.3,4.75,8.83,9.015,17.985,16.86,24.752a13.169,13.169,0,0,1,2.811,4.373,3.424,3.424,0,0,1-1.273,4.6c-5.085,3.669-13.152,1.766-15.514-4.027C3702.486,6431.331,3698.6,6422.882,3697.365,6412.824Z" fill="#f5f5f5"/>
    <path id="Path_2279" data-name="Path 2279" d="M3633.435,6436.858c-6.168-.042-9.032-3.487-7.977-8.9,1.219-6.252,4.485-11.648,7.587-17.069,2.675-4.673,5.5-9.274,8.5-13.742,2.668-3.968,6.181-5.027,10.229-3.147,2.535,1.177.854,2.97-.033,4.254a78.8,78.8,0,0,0-10.4,22.46c-.634,2.112-2.5,4.878-.183,6.379,2.333,1.513,4.4-1.143,6.526-2.328,3.417-1.908,3.389-4.581,2.426-7.747-.8-2.629-1.988-5.177-1.778-8.044.1-1.4.472-2.62,1.9-3.159,1.547-.586,2.612.414,3.268,1.5a33.144,33.144,0,0,1,4.83,15.676c.084,1.749-.644,3.242-2.558,3.535-3.09.473-5.218,2.455-7.432,4.354C3643.844,6434.738,3638.445,6436.257,3633.435,6436.858Z" fill="#f5f5f5"/>
    <path id="Path_2280" data-name="Path 2280" d="M3593.721,6436.763c-1.02,0-2.046.067-3.059-.018a2.167,2.167,0,0,1-2.244-1.711,2.362,2.362,0,0,1,1.456-2.458c.772-.406,1.6-.71,2.368-1.119,7.664-4.069,9.838-14.589,4.647-21.557-1.125-1.51-1.683-.514-2.358-.008-2.564,1.92-5.056,3.933-7.588,5.9-.788.61-1.588,1.533-2.689.89-1.061-.62-.7-1.81-.665-2.779a6.51,6.51,0,0,1,3.006-5.455c4.713-3.331,8.531-7.429,10.507-13.05a9.889,9.889,0,0,1,5.348-5.522c1.176-.564,2.681-.961,3.644.238.919,1.145.407,2.371-.465,3.551-4.075,5.511-3.5,9.629,1.766,14.114a50.812,50.812,0,0,1,5.753,5.338c5.457,6.358,4.766,12.907-1.816,18.21C3606.2,6435.455,3600.053,6436.462,3593.721,6436.763Z" fill="#f5f5f5"/>
    <path id="Path_2281" data-name="Path 2281" d="M3672.532,6450.612c5.95.565,11.908,1.058,17.844,1.741,1.651.19,3.711.421,3.852,2.774.129,2.147-1.58,3-3.193,3.683-5.247,2.226-11.363,3.813-16.118,1.37-4.42-2.271-8.425-4.663-13.46-4.984-.738-.047-1.049-.931-.8-1.744a3.326,3.326,0,0,1,3.116-2.639c2.91-.116,5.828-.033,8.743-.033Z" fill="#f5f5f5"/>
    <path id="Path_2282" data-name="Path 2282" d="M3542.951,6376.836c.008,3.672-7.694,10.636-11.16,10.133-1.443-.21-1.494-1.214-1.343-2.247.46-3.157.792-6.353,1.561-9.439.727-2.916,2.711-4.981,5.953-4.621C3541.439,6371.048,3542.657,6373.67,3542.951,6376.836Z" fill="#f5f5f5"/>
    <path id="Path_2283" data-name="Path 2283" d="M3450.955,6436.354c-2.193,1.142-4.344,2.363-6.523,3.531-.979.524-1.8,1.938-3.032,1.232-1.4-.805-.826-2.468-.54-3.58,1.84-7.17,3.635-14.368,5.929-21.4.892-2.731,1.722-5.179-1.675-5.781-2.821-.5-3.112-4.049-5.892-3.926-1.245.055-2.024,1.154-2.55,2.2-.9,1.779-1.65,3.627-2.49,5.5-4.734-5.562-10.293-6.43-14.679-1.979-6.595,6.692-12.074,14.24-15.376,23.116-1.522,4.09-2.536,8.371-1.577,12.834,1.379,6.413,5.43,9,11.811,7.726,5.943-1.188,10.619-4.4,14.829-9.326.973,3.845,2.048,7.447,6.4,6.875,3.982-.524,8.576-1.186,10.114-5.558a11.486,11.486,0,0,1,3.993-5.875,15.793,15.793,0,0,0,3.031-3.129c.536-.715,1.615-1.632.668-2.632C3452.729,6435.484,3451.717,6435.957,3450.955,6436.354Zm-18.777-12.412a106.239,106.239,0,0,0-2.5,13.257c-.831,5.172-3.851,8.286-8.784,9.689-3.538,1.007-5.409-.353-5.448-4.154,1.128-10.139,6.091-18.677,12.913-26.3,1.052-1.176,2.03-.97,2.6.529C3431.807,6419.195,3433,6421.146,3432.178,6423.942Z" fill="#f5f5f5"/>
  </g>
</svg>
