<svg xmlns="http://www.w3.org/2000/svg" width="309.148" height="270.607" viewBox="0 0 309.148 270.607">
  <g id="Group_1856" data-name="Group 1856" transform="translate(-1332.081 -6293.384)">
    <path id="Path_2233" data-name="Path 2233" d="M1495.037,6478.219c-6.211,0-12.422.021-18.633-.019a2.037,2.037,0,0,0-2.171,1.46c-3.331,8.54-6.737,17.052-9.986,25.623a51.744,51.744,0,0,0-1.7,6.747,5.083,5.083,0,0,0-.065,1.633,4.639,4.639,0,0,0,4.419,4.443c1.351.182,2.724.2,4.088.273.73.037,1.464-.011,2.191.04.785.055,1.214.421,1.247,1.009a1.234,1.234,0,0,1-.927,1.349,3.407,3.407,0,0,1-1.065.19c-2.646-.039-5.292-.117-7.939-.154-4.516-.064-9.033-.172-13.548-.14-6.072.043-12.142.2-18.214.3a4.84,4.84,0,0,1-1.346-.162,1.3,1.3,0,0,1-1.1-1.352c.056-.638.5-1,1.362-1.059,1.319-.093,2.639-.218,3.96-.244a14.38,14.38,0,0,0,12.91-7.62,68.109,68.109,0,0,0,3.8-7.724q21.315-51.009,42.562-102.045c.6-1.43,1.27-2.829,1.93-4.231a9.811,9.811,0,0,1,.751-1.3c1.4-2.072,2.994-2.073,4.413.014a13.155,13.155,0,0,1,1.077,1.9c1.005,2.2,2.015,4.4,2.947,6.626q13.193,31.564,26.366,63.135c4.584,10.938,9.257,21.839,13.912,32.746a57.258,57.258,0,0,0,4.94,9.451,44.309,44.309,0,0,0,3.5,4.552,13.455,13.455,0,0,0,9.808,4.47c1.685.1,3.37.178,5.054.282a1.007,1.007,0,0,1,1.072.862,1.036,1.036,0,0,1-.8,1.248,2.132,2.132,0,0,1-.383.138,20.952,20.952,0,0,1-2.58.291q-13.152.016-26.3-.031c-3.469-.016-6.938-.133-10.406-.239-1.047-.033-2.09-.183-3.134-.283a.911.911,0,0,1-.265-.062c-.42-.169-.9-.278-.938-.859-.034-.615.351-.907.878-1.053.4-.11.8-.172,1.2-.277a2.645,2.645,0,0,0,1.958-3.254,9.869,9.869,0,0,0-.454-1.29q-6.534-16.617-13.075-33.232c-.1-.254-.214-.5-.309-.76a1.956,1.956,0,0,0-2.095-1.4c-1.186.042-2.375.009-3.562.009Zm.089-7.9v0c4.929,0,9.857.014,14.786-.007,2.085-.008,2.3-.346,1.59-2.225q-7.579-20.008-15.175-40.012a4.28,4.28,0,0,0-.807-1.009c-.345.324-.7.639-1.03.977-.087.09-.1.253-.146.38q-7.671,19.682-15.34,39.364a6.979,6.979,0,0,0-.427,1.293c-.127.717.1,1.032.812,1.145a10.5,10.5,0,0,0,1.636.093Q1488.076,6470.324,1495.126,6470.318Z" fill="#f5f5f5"/>
    <path id="Path_2234" data-name="Path 2234" d="M1381.474,6406.167c-.66,0-1.2-.013-1.741,0q-9.036.249-18.071.5c-1.689.044-3.38.016-5.069.06a87.164,87.164,0,0,0-10.769.8c-3.771.57-6.86,2.168-8.69,5.669-.715,1.369-1.32,2.8-1.971,4.2a8.936,8.936,0,0,1-.5,1.12,1.4,1.4,0,0,1-1.522.682,1.218,1.218,0,0,1-1.033-1.272,15.89,15.89,0,0,1,.1-3.136c1.132-5.725,2.336-11.435,3.533-17.147a7.37,7.37,0,0,1,.533-1.549,1.47,1.47,0,0,1,1.971-1,7.313,7.313,0,0,1,1.287.446,23.6,23.6,0,0,0,7.046,1.511c11.164.992,22.351.716,33.531.734q25.689.039,51.378,0a72.441,72.441,0,0,0,16.167-1.534,3.533,3.533,0,0,1,.407-.051c1.562-.169,1.977.157,2.015,1.765q.061,2.67-.014,5.342-.215,7.53-.494,15.058a7.01,7.01,0,0,1-.3,1.6,1.107,1.107,0,0,1-1.218.885,1.237,1.237,0,0,1-1.224-.93,10.438,10.438,0,0,1-.4-2.42c.047-3.934-2.059-6.383-5.391-8.015a23.134,23.134,0,0,0-7.72-2.2c-3.26-.355-6.537-.626-9.814-.735-6.206-.205-12.416-.269-18.625-.389-.491-.01-.984,0-1.587,0-.041.582-.1,1.022-.1,1.461.013,28.723-.008,57.446.084,86.169.016,5.012.453,10.027.815,15.033a18.215,18.215,0,0,0,.975,4.388,6.148,6.148,0,0,0,5.478,4.333c3.257.375,6.537.555,9.807.824a3.9,3.9,0,0,1,1.336.185c.361.174.82.587.837.916a1.394,1.394,0,0,1-.716,1.022,4.291,4.291,0,0,1-1.832.45c-3.607,0-7.213-.069-10.819-.114-.092,0-.183-.015-.274-.016-6.847-.109-13.695-.318-20.542-.3-6.161.019-12.32.3-18.481.435a8.614,8.614,0,0,1-2.287-.309,1.109,1.109,0,0,1-.949-1.3,1.162,1.162,0,0,1,1.205-.919c1.408-.124,2.825-.153,4.23-.295,1.175-.119,2.343-.322,3.508-.527a4.946,4.946,0,0,0,3.62-2.856,15.639,15.639,0,0,0,1.413-5.26,111.318,111.318,0,0,0,.844-13.933q.112-43.767.176-87.536C1381.619,6407.442,1381.53,6406.864,1381.474,6406.167Z" fill="#f5f5f5"/>
    <path id="Path_2235" data-name="Path 2235" d="M1579.974,6398.054c5.933.161,11.865.4,17.8.455,4.2.035,8.4-.216,12.594-.293,3.7-.067,7.4-.074,11.094-.091a3.481,3.481,0,0,1,.929.187,1.045,1.045,0,0,1,.888,1.059.986.986,0,0,1-.868,1.06c-.577.117-1.164.186-1.749.247-1.584.165-3.176.262-4.751.481-4.263.594-5.84,2.986-6.328,6.743a59.467,59.467,0,0,0-.532,7.5q-.063,33.359-.015,66.716c.012,6.574.3,13.147.325,19.72a88.541,88.541,0,0,1-2.086,19.833,49.315,49.315,0,0,1-13.715,24.36,80.3,80.3,0,0,1-22.706,16.03c-1.276.6-2.566,1.186-3.883,1.69a4.231,4.231,0,0,1-1.738.225,1.017,1.017,0,0,1-.762-1.691,2.8,2.8,0,0,1,.691-.652,16.751,16.751,0,0,1,1.505-.947c10.906-5.979,17.385-15.154,19.777-27.3a84.232,84.232,0,0,0,1.627-14.4c.2-8.855.41-17.711.428-26.567q.075-34.864-.032-69.73c-.01-4.38-.246-8.76-.415-13.139a14.5,14.5,0,0,0-.371-2.431,7.03,7.03,0,0,0-5.407-5.576,26.1,26.1,0,0,0-7.173-.869,15.887,15.887,0,0,1-2.31-.152c-.6-.088-1.155-.343-1.171-1.109-.014-.631.359-1.036,1.238-1.219a6.844,6.844,0,0,1,1.362-.1c1.918-.01,3.836,0,5.754,0Z" fill="#f5f5f5"/>
    <path id="Path_2236" data-name="Path 2236" d="M1641.229,6319.669v41.263a9.747,9.747,0,0,1-1.061-.419q-13.086-7.135-26.173-14.269a1.677,1.677,0,0,1-1.028-1.7c.047-2.828.031-5.657.008-8.485a1.487,1.487,0,0,1,.81-1.553q13.453-7.321,26.88-14.688A3.123,3.123,0,0,1,1641.229,6319.669Zm-7.53,17.821c.03-1.134.069-2.21.083-3.286.014-1.1.045-2.193-.009-3.285-.052-1.053.262-2.152-.258-3.208a3.432,3.432,0,0,0-.6.177q-8.166,4.459-16.32,8.938c-.2.111-.34.336-.66.664Zm-.166,5.732a4.664,4.664,0,0,0-.761-.116q-8.265.036-16.529.093c-.03,0-.067.051-.086.086a.848.848,0,0,0-.04.172,2.592,2.592,0,0,0,.4.323q8.153,4.455,16.315,8.893a2.854,2.854,0,0,0,.721.173A46.251,46.251,0,0,0,1633.533,6343.222Z" fill="#f5f5f5"/>
    <path id="Path_2237" data-name="Path 2237" d="M1552.272,6319.632c.422.19.755.313,1.063.481q12.968,7.082,25.942,14.152a2.034,2.034,0,0,1,1.255,2.127c-.084,2.69-.05,5.385-.014,8.077a1.668,1.668,0,0,1-.965,1.736q-13.111,7.1-26.186,14.272c-.307.168-.642.285-1.095.484Zm25.022,17.871.089-.257a4.42,4.42,0,0,0-.6-.474q-8.023-4.4-16.06-8.78a3.984,3.984,0,0,0-.868-.245c-.324,1.816-.227,8.769.139,9.756Zm.135,5.75c-1.921-.3-16.626-.206-17.64.1v9.494C1560.92,6352.621,1576.349,6344.232,1577.429,6343.253Z" fill="#f5f5f5"/>
    <path id="Path_2238" data-name="Path 2238" d="M1638.078,6366.414l-38.089,20.82c-.035-.691-.078-1.129-.078-1.567,0-9.263.016-18.527-.026-27.79a2.26,2.26,0,0,1,1.39-2.341c2.836-1.457,5.61-3.032,8.454-4.585Zm-25.539,5.72a2.786,2.786,0,0,0-.144-.594q-4.083-6.717-8.179-13.427a3.22,3.22,0,0,0-.343-.422.2.2,0,0,0-.125-.039,1.513,1.513,0,0,0-.24.043,10,10,0,0,0-.12,1.137q-.012,8.343,0,16.687a14.7,14.7,0,0,0,.18,1.521Zm5.394-2.976c2.9-1.555,5.838-3.139,8.805-4.809-1.145-1.022-16.62-9.462-17.643-9.675A150.986,150.986,0,0,0,1617.933,6369.158Z" fill="#f5f5f5"/>
    <path id="Path_2239" data-name="Path 2239" d="M1600.027,6293.384l37.887,20.709a9.718,9.718,0,0,1-.954.7q-13.143,7.188-26.285,14.374a1.723,1.723,0,0,1-1.889.009q-3.931-2.217-7.92-4.332a1.6,1.6,0,0,1-.969-1.615q.027-14.375.016-28.751C1599.913,6294.214,1599.966,6293.947,1600.027,6293.384Zm3.625,29.692c1.165-1.245,8.561-13.532,8.76-14.5-1.7-1.277-7.835-4.526-8.816-4.671C1603.29,6305.193,1603.309,6321.806,1603.652,6323.076Zm14.16-11.72c-.329.468-.582.784-.79,1.128q-4.016,6.661-8.016,13.331c-.014.024.015.086.039.12a.475.475,0,0,0,.1.085c1.836-.641,16.786-8.932,17.538-9.8Z" fill="#f5f5f5"/>
    <path id="Path_2240" data-name="Path 2240" d="M1555.557,6366.339l28.16-15.388c2.506,1.369,5,2.7,7.461,4.083,2.73,1.527,2.25.653,2.26,3.825.027,8.813.009,17.625.009,26.437v1.648C1592.407,6386.735,1557.1,6367.532,1555.557,6366.339Zm28.965-11.493-.333-.321-17.753,9.7c3.234,1.764,6.168,3.364,9.253,5.048Zm-3.795,17.176c1.142.629,2.127,1.175,3.114,1.717s1.984,1.12,3,1.633a10.505,10.505,0,0,0,3.15,1.465c0-6.112,0-12.03,0-17.948a10.285,10.285,0,0,0-.094-1.078c0-.031-.053-.064-.089-.084a2.586,2.586,0,0,0-.3-.091C1586.642,6362.328,1583.756,6367.058,1580.727,6372.022Z" fill="#f5f5f5"/>
    <path id="Path_2241" data-name="Path 2241" d="M1593.376,6293.42c.037.706.079,1.144.079,1.582,0,9.309-.015,18.619.027,27.928a2.062,2.062,0,0,1-1.265,2.134c-2.512,1.295-4.982,2.674-7.445,4.06a1.839,1.839,0,0,1-2.014.042q-13.005-7.151-26.038-14.25c-.344-.188-.656-.432-1.207-.8Zm-9.207,32.682c-.184-1.391-7.791-13.826-8.613-14.576-2.108.81-8.109,4.241-8.769,5.077Zm-3.219-17.59c.422,1.387,8.044,13.8,9.04,14.6,0-6.515,0-12.857,0-19.551C1586.756,6305.262,1583.834,6306.874,1580.95,6308.512Z" fill="#f5f5f5"/>
  </g>
</svg>
