<svg xmlns="http://www.w3.org/2000/svg" width="56.951" height="41.751" viewBox="0 0 56.951 41.751">
  <g id="Group_2068" data-name="Group 2068" transform="translate(-1469.952 -3716.434)">
    <g id="Group_2067" data-name="Group 2067">
      <path id="Path_2338" data-name="Path 2338" d="M1524.733,3724.449h-52.612a1.168,1.168,0,0,0-1.169,1.169v28.06a3.507,3.507,0,0,0,3.507,3.507H1522.4a3.508,3.508,0,0,0,3.508-3.507v-28.06A1.169,1.169,0,0,0,1524.733,3724.449Z" fill="none" stroke="#fff" stroke-linejoin="round" stroke-width="2"/>
      <path id="Path_2339" data-name="Path 2339" d="M1492,3727.956v-8.184a2.338,2.338,0,0,1,2.338-2.338h7.015a2.338,2.338,0,0,1,2.338,2.338v8.184" fill="none" stroke="#fff" stroke-linejoin="round" stroke-width="2"/>
    </g>
    <line id="Line_58" data-name="Line 58" x2="54.951" transform="translate(1470.952 3749.001)" fill="none" stroke="#fff" stroke-linejoin="round" stroke-width="2"/>
  </g>
</svg>
