<svg id="Component_1_1" data-name="Component 1 – 1" xmlns="http://www.w3.org/2000/svg" width="43.087" height="51.389" viewBox="0 0 43.087 51.389">
  <g id="Group_1940" data-name="Group 1940" transform="translate(-697.989 -3368.318)">
    <path id="Path_2290" data-name="Path 2290" d="M719.532,3398.479a8.618,8.618,0,1,1,8.618-8.617A8.626,8.626,0,0,1,719.532,3398.479Zm0-14.362a5.745,5.745,0,1,0,5.745,5.745A5.751,5.751,0,0,0,719.532,3384.117Z" fill="#fff"/>
  </g>
  <g id="Group_1941" data-name="Group 1941" transform="translate(-697.989 -3368.318)">
    <path id="Path_2291" data-name="Path 2291" d="M719.532,3419.707a1.429,1.429,0,0,1-1.015-.421l-14.664-14.664a21.483,21.483,0,0,1-4-6.005,21.252,21.252,0,0,1-1.861-8.755,21.543,21.543,0,1,1,43.087,0,21.5,21.5,0,0,1-5.832,14.727l-14.7,14.7A1.431,1.431,0,0,1,719.532,3419.707Zm0-48.516a18.692,18.692,0,0,0-18.671,18.671,18.627,18.627,0,0,0,5.055,12.762l13.616,13.616,13.649-13.649a18.637,18.637,0,0,0,5.022-12.729A18.692,18.692,0,0,0,719.532,3371.191Z" fill="#fff"/>
  </g>
</svg>
