<svg xmlns="http://www.w3.org/2000/svg" width="59.496" height="43.593" viewBox="0 0 59.496 43.593">
  <g id="Group_366" data-name="Group 366" transform="translate(-8356.847 -638.249)">
    <g id="Group_365" data-name="Group 365">
      <path id="Path_414" data-name="Path 414" d="M8414.12,646.589h-55.05a1.223,1.223,0,0,0-1.224,1.223v29.36a3.67,3.67,0,0,0,3.67,3.67h50.156a3.67,3.67,0,0,0,3.67-3.67v-29.36A1.222,1.222,0,0,0,8414.12,646.589Z" fill="none" stroke="#000" stroke-linejoin="round" stroke-width="2"/>
      <path id="Path_415" data-name="Path 415" d="M8379.867,650.259V641.7a2.446,2.446,0,0,1,2.447-2.446h7.34a2.446,2.446,0,0,1,2.445,2.446v8.564" fill="none" stroke="#000" stroke-linejoin="round" stroke-width="2"/>
    </g>
    <line id="Line_6" data-name="Line 6" x2="57.496" transform="translate(8357.847 672.279)" fill="none" stroke="#000" stroke-linejoin="round" stroke-width="2"/>
  </g>
</svg>
